<?xml version="1.0" encoding="UTF-8" standalone="no"?>
<!-- Created with Inkscape (http://www.inkscape.org/) -->

<svg
   xmlns:dc="http://purl.org/dc/elements/1.1/"
   xmlns:cc="http://creativecommons.org/ns#"
   xmlns:rdf="http://www.w3.org/1999/02/22-rdf-syntax-ns#"
   xmlns:svg="http://www.w3.org/2000/svg"
   xmlns="http://www.w3.org/2000/svg"
   xmlns:sodipodi="http://sodipodi.sourceforge.net/DTD/sodipodi-0.dtd"
   xmlns:inkscape="http://www.inkscape.org/namespaces/inkscape"
   width="60.69577mm"
   height="29.909559mm"
   viewBox="0 0 215.06375 105.97875"
   id="svg14522"
   version="1.1"
   inkscape:version="0.91 r13725"
   sodipodi:docname="common_photo_resistor.svg">
  <defs
     id="defs14524">
    <clipPath
       clipPathUnits="userSpaceOnUse"
       id="clipPath2046">
      <path
         d="m 201.307,478.751 171.05,0 0,83.783 -171.05,0 0,-83.783 z"
         id="path2048"
         inkscape:connector-curvature="0" />
    </clipPath>
    <clipPath
       clipPathUnits="userSpaceOnUse"
       id="clipPath2000">
      <path
         d="m 0,612 396,0 0,-612 -396,0 0,612 z"
         id="path2002"
         inkscape:connector-curvature="0" />
    </clipPath>
    <clipPath
       clipPathUnits="userSpaceOnUse"
       id="clipPath2902">
      <path
         d="m 0,612 396,0 0,-612 -396,0 0,612 z"
         id="path2904"
         inkscape:connector-curvature="0" />
    </clipPath>
    <clipPath
       clipPathUnits="userSpaceOnUse"
       id="clipPath23574">
      <rect
         style="opacity:1;fill:#00ff00;fill-opacity:1;stroke:none;stroke-width:0.2;stroke-linecap:round;stroke-linejoin:miter;stroke-miterlimit:4;stroke-dasharray:none;stroke-dashoffset:0;stroke-opacity:1"
         id="rect23576"
         width="171.29677"
         height="84.903999"
         x="201.37843"
         y="-563.15497"
         transform="scale(1,-1)" />
    </clipPath>
    <clipPath
       clipPathUnits="userSpaceOnUse"
       id="clipPath700">
      <path
         d="m 24.36,478.75 171.05,0 0,83.785 -171.05,0 0,-83.785 z"
         id="path702"
         inkscape:connector-curvature="0" />
    </clipPath>
    <clipPath
       clipPathUnits="userSpaceOnUse"
       id="clipPath780">
      <path
         d="m 0,612 396,0 0,-612 -396,0 0,612 z"
         id="path782"
         inkscape:connector-curvature="0" />
    </clipPath>
    <clipPath
       clipPathUnits="userSpaceOnUse"
       id="clipPath700-0">
      <path
         d="m 24.36,478.75 171.05,0 0,83.785 -171.05,0 0,-83.785 z"
         id="path702-3"
         inkscape:connector-curvature="0" />
    </clipPath>
    <clipPath
       clipPathUnits="userSpaceOnUse"
       id="clipPath492">
      <path
         d="m 0,612 396,0 0,-612 -396,0 0,612 z"
         id="path494"
         inkscape:connector-curvature="0" />
    </clipPath>
    <clipPath
       clipPathUnits="userSpaceOnUse"
       id="clipPath492-4">
      <path
         d="m 0,612 396,0 0,-612 -396,0 0,612 z"
         id="path494-7"
         inkscape:connector-curvature="0" />
    </clipPath>
    <clipPath
       clipPathUnits="userSpaceOnUse"
       id="clipPath700-0-6">
      <path
         d="m 24.36,478.75 171.05,0 0,83.785 -171.05,0 0,-83.785 z"
         id="path702-3-1"
         inkscape:connector-curvature="0" />
    </clipPath>
    <clipPath
       clipPathUnits="userSpaceOnUse"
       id="clipPath3040">
      <path
         d="m 0,612 396,0 0,-612 -396,0 0,612 z"
         id="path3042"
         inkscape:connector-curvature="0" />
    </clipPath>
    <clipPath
       clipPathUnits="userSpaceOnUse"
       id="clipPath3016">
      <path
         d="m 77.297,443.169 c -7.041,-11.131 -10.723,-14.787 -21.852,-21.852 l 0,0 c -5.511,-3.49 -5.972,-10.8 -3.023,-13.749 l 0,0 3.379,-3.38 c 2.941,-2.943 10.265,-2.482 13.754,3.026 l 0,0 c 7.033,11.138 10.719,14.8 21.847,21.849 l 0,0 c 5.506,3.497 5.979,10.807 3.031,13.752 l 0,0 -3.382,3.383 c -1.162,1.164 -3.006,1.796 -5.027,1.796 l 0,0 c -3.099,0 -6.613,-1.486 -8.727,-4.825"
         id="path3018"
         inkscape:connector-curvature="0" />
    </clipPath>
    <clipPath
       clipPathUnits="userSpaceOnUse"
       id="clipPath2984">
      <path
         d="m 24.36,387.892 171.049,0 0,83.783 -171.049,0 0,-83.783 z"
         id="path2986"
         inkscape:connector-curvature="0" />
    </clipPath>
    <clipPath
       clipPathUnits="userSpaceOnUse"
       id="clipPath2960">
      <path
         d="m 150.951,432.028 c -1.1,-1.779 -1.674,-2.372 -3.43,-3.508 l 0,0 c -0.867,-0.564 -0.928,-1.727 -0.455,-2.189 l 0,0 0.543,-0.531 c 0.472,-0.463 1.633,-0.375 2.178,0.506 l 0,0 c 1.102,1.779 1.673,2.37 3.429,3.51 l 0,0 c 0.869,0.562 0.928,1.726 0.455,2.188 l 0,0 -0.542,0.531 c -0.184,0.179 -0.47,0.275 -0.784,0.275 l 0,0 c -0.496,0 -1.061,-0.242 -1.394,-0.782"
         id="path2962"
         inkscape:connector-curvature="0" />
    </clipPath>
    <clipPath
       clipPathUnits="userSpaceOnUse"
       id="clipPath2940">
      <path
         d="m 113.039,464.953 c -1.986,0 -3.595,-1.612 -3.595,-3.598 l 0,0 0,-63.862 c 0,-1.987 1.609,-3.597 3.595,-3.597 l 0,0 72.33,0 c 1.987,0 3.596,1.61 3.596,3.597 l 0,0 0,63.862 c 0,1.986 -1.609,3.598 -3.596,3.598 l 0,0 -72.33,0 z"
         id="path2942"
         inkscape:connector-curvature="0" />
    </clipPath>
    <clipPath
       clipPathUnits="userSpaceOnUse"
       id="clipPath2920">
      <path
         d="m 0,612 396,0 0,-612 -396,0 0,612 z"
         id="path2922"
         inkscape:connector-curvature="0" />
    </clipPath>
    <clipPath
       clipPathUnits="userSpaceOnUse"
       id="clipPath254">
      <path
         d="m 201.307,296.782 171.051,0 0,83.783 -171.051,0 0,-83.783 z"
         id="path256"
         inkscape:connector-curvature="0" />
    </clipPath>
    <linearGradient
       x1="0"
       y1="0"
       x2="1"
       y2="0"
       gradientUnits="userSpaceOnUse"
       gradientTransform="matrix(-13.245696,13.245694,13.245694,13.245696,262.09277,340.16602)"
       spreadMethod="pad"
       id="linearGradient240">
      <stop
         style="stop-opacity:1;stop-color:#d03a27"
         offset="0"
         id="stop242" />
      <stop
         style="stop-opacity:1;stop-color:#fbb040"
         offset="0.496933"
         id="stop244" />
      <stop
         style="stop-opacity:1;stop-color:#d03a27"
         offset="1"
         id="stop246" />
    </linearGradient>
    <clipPath
       clipPathUnits="userSpaceOnUse"
       id="clipPath220">
      <path
         d="m 201.307,296.782 171.051,0 0,83.783 -171.051,0 0,-83.783 z"
         id="path222"
         inkscape:connector-curvature="0" />
    </clipPath>
    <linearGradient
       x1="0"
       y1="0"
       x2="1"
       y2="0"
       gradientUnits="userSpaceOnUse"
       gradientTransform="matrix(-13.245696,13.245694,13.245694,13.245696,245.58301,323.65625)"
       spreadMethod="pad"
       id="linearGradient206">
      <stop
         style="stop-opacity:1;stop-color:#d03a27"
         offset="0"
         id="stop208" />
      <stop
         style="stop-opacity:1;stop-color:#fbb040"
         offset="0.496933"
         id="stop210" />
      <stop
         style="stop-opacity:1;stop-color:#d03a27"
         offset="1"
         id="stop212" />
    </linearGradient>
    <clipPath
       clipPathUnits="userSpaceOnUse"
       id="clipPath174">
      <path
         d="m 201.307,296.782 171.051,0 0,83.783 -171.051,0 0,-83.783 z"
         id="path176"
         inkscape:connector-curvature="0" />
    </clipPath>
    <clipPath
       clipPathUnits="userSpaceOnUse"
       id="clipPath134">
      <path
         d="m 290.787,374.165 c -1.986,0 -3.595,-1.611 -3.595,-3.597 l 0,0 0,-63.862 c 0,-1.989 1.609,-3.598 3.595,-3.598 l 0,0 72.331,0 c 1.986,0 3.595,1.609 3.595,3.598 l 0,0 0,63.862 c 0,1.986 -1.609,3.597 -3.595,3.597 l 0,0 -72.331,0 z"
         id="path136"
         inkscape:connector-curvature="0" />
    </clipPath>
    <linearGradient
       x1="0"
       y1="0"
       x2="1"
       y2="0"
       gradientUnits="userSpaceOnUse"
       gradientTransform="matrix(-2.4582775,2.458277,2.458277,2.4582775,331.63965,338.57764)"
       spreadMethod="pad"
       id="linearGradient120">
      <stop
         style="stop-opacity:1;stop-color:#d03a27"
         offset="0"
         id="stop122" />
      <stop
         style="stop-opacity:1;stop-color:#fbb040"
         offset="0.496933"
         id="stop124" />
      <stop
         style="stop-opacity:1;stop-color:#d03a27"
         offset="1"
         id="stop126" />
    </linearGradient>
    <clipPath
       clipPathUnits="userSpaceOnUse"
       id="clipPath100">
      <path
         d="m 290.787,374.165 c -1.986,0 -3.595,-1.611 -3.595,-3.597 l 0,0 0,-63.862 c 0,-1.989 1.609,-3.598 3.595,-3.598 l 0,0 72.331,0 c 1.986,0 3.595,1.609 3.595,3.598 l 0,0 0,63.862 c 0,1.986 -1.609,3.597 -3.595,3.597 l 0,0 -72.331,0 z"
         id="path102"
         inkscape:connector-curvature="0" />
    </clipPath>
    <linearGradient
       x1="0"
       y1="0"
       x2="1"
       y2="0"
       gradientUnits="userSpaceOnUse"
       gradientTransform="matrix(-2.4596586,2.4596581,2.4596581,2.4596586,328.57617,335.51465)"
       spreadMethod="pad"
       id="linearGradient86">
      <stop
         style="stop-opacity:1;stop-color:#d03a27"
         offset="0"
         id="stop88" />
      <stop
         style="stop-opacity:1;stop-color:#fbb040"
         offset="0.496933"
         id="stop90" />
      <stop
         style="stop-opacity:1;stop-color:#d03a27"
         offset="1"
         id="stop92" />
    </linearGradient>
    <clipPath
       clipPathUnits="userSpaceOnUse"
       id="clipPath54">
      <path
         d="m 290.787,374.165 c -1.986,0 -3.595,-1.611 -3.595,-3.597 l 0,0 0,-63.862 c 0,-1.989 1.609,-3.598 3.595,-3.598 l 0,0 72.331,0 c 1.986,0 3.595,1.609 3.595,3.598 l 0,0 0,63.862 c 0,1.986 -1.609,3.597 -3.595,3.597 l 0,0 -72.331,0 z"
         id="path56"
         inkscape:connector-curvature="0" />
    </clipPath>
    <clipPath
       clipPathUnits="userSpaceOnUse"
       id="clipPath34">
      <path
         d="m 0,612 396,0 0,-612 -396,0 0,612 z"
         id="path36"
         inkscape:connector-curvature="0" />
    </clipPath>
    <clipPath
       clipPathUnits="userSpaceOnUse"
       id="clipPath1946">
      <path
         d="m 0,612 396,0 0,-612 -396,0 0,612 z"
         id="path1948"
         inkscape:connector-curvature="0" />
    </clipPath>
    <clipPath
       clipPathUnits="userSpaceOnUse"
       id="clipPath1890">
      <path
         d="m 51.608,352.558 -0.981,-12.002 c -0.027,-0.19 -0.047,-0.38 -0.047,-0.575 l 0,0 c 0,-3.741 5.478,-6.77 12.236,-6.77 l 0,0 c 6.761,-0.001 12.236,3.03 12.236,6.77 l 0,0 c 0,0.196 -0.019,0.388 -0.048,0.58 l 0,0 -0.984,11.996 -0.01,0 c 0.002,-0.056 0.015,-0.111 0.015,-0.167 l 0,0 c 0,-3.427 -5.015,-6.203 -11.209,-6.203 l 0,0 c -6.189,0 -11.208,2.776 -11.208,6.203 l 0,0 c 0,0.055 0.004,0.111 0.005,0.168 l 0,0 -0.005,0 z"
         id="path1892"
         inkscape:connector-curvature="0" />
    </clipPath>
    <clipPath
       clipPathUnits="userSpaceOnUse"
       id="clipPath1744">
      <path
         d="m 0,612 396,0 0,-612 -396,0 0,612 z"
         id="path1746"
         inkscape:connector-curvature="0" />
    </clipPath>
    <clipPath
       clipPathUnits="userSpaceOnUse"
       id="clipPath1672">
      <path
         d="m 0,612 396,0 0,-612 -396,0 0,612 z"
         id="path1674"
         inkscape:connector-curvature="0" />
    </clipPath>
    <clipPath
       clipPathUnits="userSpaceOnUse"
       id="clipPath1632">
      <path
         d="m 130.757,349.814 c -6.863,-10.159 -4.194,-23.959 5.968,-30.824 l 0,0 c 10.16,-6.862 23.964,-4.196 30.829,5.964 l 0,0 c 6.865,10.157 4.191,23.957 -5.967,30.822 l 0,0 c -3.813,2.576 -8.137,3.809 -12.415,3.809 l 0,0 c -7.127,0 -14.126,-3.424 -18.415,-9.771"
         id="path1634"
         inkscape:connector-curvature="0" />
    </clipPath>
    <clipPath
       clipPathUnits="userSpaceOnUse"
       id="clipPath1592">
      <path
         d="m 133.456,353.083 c -8.672,-8.67 -8.672,-22.723 0,-31.394 l 0,0 c 8.67,-8.671 22.728,-8.673 31.399,-0.003 l 0,0 c 8.669,8.669 8.669,22.725 0,31.395 l 0,0 c -4.337,4.336 -10.02,6.504 -15.702,6.504 l 0,0 c -5.681,0 -11.362,-2.168 -15.697,-6.502"
         id="path1594"
         inkscape:connector-curvature="0" />
    </clipPath>
    <clipPath
       clipPathUnits="userSpaceOnUse"
       id="clipPath3772">
      <path
         d="m 24.36,205.797 171.05,0 0,83.785 -171.05,0 0,-83.785 z"
         id="path3774"
         inkscape:connector-curvature="0" />
    </clipPath>
    <clipPath
       clipPathUnits="userSpaceOnUse"
       id="clipPath3728">
      <path
         d="m 0,612 396,0 0,-612 -396,0 0,612 z"
         id="path3730"
         inkscape:connector-curvature="0" />
    </clipPath>
  </defs>
  <sodipodi:namedview
     id="base"
     pagecolor="#ffffff"
     bordercolor="#666666"
     borderopacity="1.0"
     inkscape:pageopacity="0.0"
     inkscape:pageshadow="2"
     inkscape:zoom="3.959798"
     inkscape:cx="93.890345"
     inkscape:cy="26.808587"
     inkscape:document-units="px"
     inkscape:current-layer="layer1"
     showgrid="true"
     fit-margin-top="0"
     fit-margin-left="0"
     fit-margin-right="0"
     fit-margin-bottom="0"
     inkscape:window-width="1920"
     inkscape:window-height="1017"
     inkscape:window-x="-8"
     inkscape:window-y="-8"
     inkscape:window-maximized="1"
     showguides="true" />
  <metadata
     id="metadata14527">
    <rdf:RDF>
      <cc:Work
         rdf:about="">
        <dc:format>image/svg+xml</dc:format>
        <dc:type
           rdf:resource="http://purl.org/dc/dcmitype/StillImage" />
        <dc:title></dc:title>
      </cc:Work>
    </rdf:RDF>
  </metadata>
  <g
     inkscape:label="Layer 1"
     inkscape:groupmode="layer"
     id="layer1"
     transform="translate(-112.46813,-282.22997)"
     style="display:inline">
    <g
       id="g23541">
      <g
         style="font-style:normal;font-variant:normal;font-weight:normal;font-stretch:normal;font-size:11.25px;line-height:125%;font-family:sans-serif;-inkscape-font-specification:'sans-serif, Normal';text-align:start;letter-spacing:0px;word-spacing:0px;writing-mode:lr-tb;text-anchor:start;fill:#000000;fill-opacity:1;stroke:none;stroke-width:1px;stroke-linecap:butt;stroke-linejoin:miter;stroke-opacity:1"
         id="text15994">
        <path
           d="m 123.88984,296.77347 0,3.17383 -1.44653,0 0,-8.75245 2.65503,0 q 1.50756,0 2.33764,0.70191 0.83008,0.7019 0.83008,1.97754 0,1.27563 -0.8667,2.0874 -0.8667,0.81177 -2.34375,0.81177 l -1.16577,0 z m 0,-4.38233 0,3.19825 0.93994,0 q 0.93384,0 1.42212,-0.43335 0.48828,-0.43335 0.48828,-1.22071 0,-1.54419 -1.79443,-1.54419 l -1.05591,0 z"
           style="font-style:normal;font-variant:normal;font-weight:600;font-stretch:normal;font-size:12.5px;font-family:'Segoe UI';-inkscape-font-specification:'Segoe UI Semi-Bold'"
           id="path32181" />
        <path
           d="m 135.13862,299.9473 -1.41602,0 0,-3.41797 q 0,-1.85547 -1.23901,-1.85547 -0.62256,0 -1.04981,0.53711 -0.42724,0.53711 -0.42724,1.37329 l 0,3.36304 -1.42212,0 0,-9.25293 1.42212,0 0,4.04052 0.0244,0 q 0.70801,-1.18408 2.02637,-1.18408 2.0813,0 2.0813,2.54517 l 0,3.85132 z"
           style="font-style:normal;font-variant:normal;font-weight:600;font-stretch:normal;font-size:12.5px;font-family:'Segoe UI';-inkscape-font-specification:'Segoe UI Semi-Bold'"
           id="path32183" />
        <path
           d="m 139.63081,300.09378 q -1.44654,0 -2.31324,-0.8728 -0.86059,-0.87891 -0.86059,-2.32544 0,-1.57471 0.89721,-2.45972 0.90332,-0.88501 2.4292,-0.88501 1.46485,0 2.28272,0.8606 0.81787,0.86059 0.81787,2.38647 0,1.49536 -0.88501,2.39868 -0.87891,0.89722 -2.36816,0.89722 z m 0.0671,-5.41382 q -0.83007,0 -1.31225,0.57984 -0.48218,0.57983 -0.48218,1.59912 0,0.98266 0.48828,1.55029 0.48828,0.56152 1.30615,0.56152 0.83619,0 1.28174,-0.55542 0.45166,-0.55542 0.45166,-1.58081 0,-1.03149 -0.45166,-1.59301 -0.44555,-0.56153 -1.28174,-0.56153 z"
           style="font-style:normal;font-variant:normal;font-weight:600;font-stretch:normal;font-size:12.5px;font-family:'Segoe UI';-inkscape-font-specification:'Segoe UI Semi-Bold'"
           id="path32185" />
        <path
           d="m 147.62641,299.88016 q -0.41504,0.20752 -1.09253,0.20752 -1.81885,0 -1.81885,-1.74561 l 0,-3.53393 -1.0437,0 0,-1.11084 1.0437,0 0,-1.44654 1.41602,-0.40283 0,1.84937 1.49536,0 0,1.11084 -1.49536,0 0,3.125 q 0,0.55542 0.20142,0.79345 0.20141,0.23804 0.67138,0.23804 0.36011,0 0.62256,-0.20752 l 0,1.12305 z"
           style="font-style:normal;font-variant:normal;font-weight:600;font-stretch:normal;font-size:12.5px;font-family:'Segoe UI';-inkscape-font-specification:'Segoe UI Semi-Bold'"
           id="path32187" />
        <path
           d="m 151.54487,300.09378 q -1.44653,0 -2.31323,-0.8728 -0.8606,-0.87891 -0.8606,-2.32544 0,-1.57471 0.89722,-2.45972 0.90332,-0.88501 2.4292,-0.88501 1.46484,0 2.28271,0.8606 0.81787,0.86059 0.81787,2.38647 0,1.49536 -0.88501,2.39868 -0.8789,0.89722 -2.36816,0.89722 z m 0.0671,-5.41382 q -0.83008,0 -1.31226,0.57984 -0.48218,0.57983 -0.48218,1.59912 0,0.98266 0.48828,1.55029 0.48829,0.56152 1.30616,0.56152 0.83618,0 1.28174,-0.55542 0.45166,-0.55542 0.45166,-1.58081 0,-1.03149 -0.45166,-1.59301 -0.44556,-0.56153 -1.28174,-0.56153 z"
           style="font-style:normal;font-variant:normal;font-weight:600;font-stretch:normal;font-size:12.5px;font-family:'Segoe UI';-inkscape-font-specification:'Segoe UI Semi-Bold'"
           id="path32189" />
        <path
           d="m 166.60835,299.9473 -1.69678,0 -1.39771,-2.34375 q -0.18921,-0.32349 -0.37231,-0.54932 -0.177,-0.23193 -0.36621,-0.37842 -0.18311,-0.14648 -0.40283,-0.21362 -0.21973,-0.0671 -0.49439,-0.0671 l -0.58594,0 0,3.55225 -1.44653,0 0,-8.75245 2.88086,0 q 0.61645,0 1.13525,0.14649 0.5188,0.14648 0.90332,0.44556 0.38452,0.29296 0.59815,0.73852 0.21972,0.43945 0.21972,1.0315 0,0.46386 -0.14038,0.85449 -0.13427,0.38452 -0.39062,0.68969 -0.25025,0.29908 -0.61035,0.5127 -0.35401,0.21362 -0.79956,0.32959 l 0,0.0244 q 0.23803,0.13428 0.41504,0.29908 0.177,0.15869 0.33569,0.32959 0.15869,0.17089 0.31128,0.39062 0.15869,0.21362 0.3479,0.50049 l 1.5564,2.45972 z m -5.31617,-7.57447 0,2.84424 1.2085,0 q 0.33569,0 0.61645,-0.10376 0.28687,-0.10376 0.49439,-0.29907 0.20752,-0.19531 0.32349,-0.47607 0.11596,-0.28077 0.11596,-0.62867 0,-0.62866 -0.39673,-0.98266 -0.39673,-0.35401 -1.14135,-0.35401 l -1.22071,0 z"
           style="font-style:normal;font-variant:normal;font-weight:600;font-stretch:normal;font-size:12.5px;font-family:'Segoe UI';-inkscape-font-specification:'Segoe UI Semi-Bold'"
           id="path32191" />
        <path
           d="m 172.44941,297.20682 -4.26025,0 q 0.0244,0.8667 0.531,1.33667 0.5127,0.46997 1.40381,0.46997 1.00098,0 1.83716,-0.59815 l 0,1.14136 q -0.85449,0.53711 -2.2583,0.53711 -1.3794,0 -2.16675,-0.84839 -0.78125,-0.85449 -0.78125,-2.39868 0,-1.45874 0.8606,-2.37427 0.86669,-0.92163 2.14843,-0.92163 1.28174,0 1.98365,0.82398 0.7019,0.82397 0.7019,2.28881 l 0,0.54322 z m -1.36719,-1.00098 q -0.006,-0.76294 -0.36011,-1.18408 -0.354,-0.42725 -0.97656,-0.42725 -0.61035,0 -1.0376,0.44556 -0.42114,0.44556 -0.51879,1.16577 l 2.89306,0 z"
           style="font-style:normal;font-variant:normal;font-weight:600;font-stretch:normal;font-size:12.5px;font-family:'Segoe UI';-inkscape-font-specification:'Segoe UI Semi-Bold'"
           id="path32193" />
        <path
           d="m 173.40766,299.75198 0,-1.31225 q 0.79346,0.60425 1.75171,0.60425 1.28174,0 1.28174,-0.75684 0,-0.21362 -0.10986,-0.36011 -0.10987,-0.15259 -0.29908,-0.26855 -0.1831,-0.11597 -0.43945,-0.20752 -0.25024,-0.0915 -0.56152,-0.20752 -0.38452,-0.15259 -0.6958,-0.32349 -0.30518,-0.1709 -0.5127,-0.38452 -0.20142,-0.21973 -0.30518,-0.49438 -0.10376,-0.27466 -0.10376,-0.64087 0,-0.45166 0.21363,-0.79346 0.21362,-0.3479 0.57373,-0.57983 0.36011,-0.23804 0.81787,-0.35401 0.45776,-0.12207 0.94604,-0.12207 0.8667,0 1.5503,0.26245 l 0,1.23902 q -0.65918,-0.45166 -1.51367,-0.45166 -0.26856,0 -0.48829,0.0549 -0.21362,0.0549 -0.36621,0.15259 -0.15258,0.0977 -0.23803,0.23803 -0.0855,0.13428 -0.0855,0.29908 0,0.20141 0.0855,0.34179 0.0855,0.14038 0.25024,0.25025 0.1709,0.10376 0.40283,0.19531 0.23804,0.0854 0.54322,0.18921 0.40283,0.16479 0.72021,0.33569 0.32349,0.1709 0.54932,0.39063 0.22583,0.21362 0.3479,0.50048 0.12207,0.28077 0.12207,0.67139 0,0.47608 -0.21973,0.83008 -0.21973,0.354 -0.58594,0.58594 -0.36621,0.23193 -0.84839,0.34179 -0.47607,0.11597 -1.00708,0.11597 -1.02539,0 -1.77612,-0.3418 z"
           style="font-style:normal;font-variant:normal;font-weight:600;font-stretch:normal;font-size:12.5px;font-family:'Segoe UI';-inkscape-font-specification:'Segoe UI Semi-Bold'"
           id="path32195" />
        <path
           d="m 179.90791,292.38504 q -0.3479,0 -0.59815,-0.22583 -0.24414,-0.22583 -0.24414,-0.57373 0,-0.3479 0.24414,-0.57983 0.25025,-0.23194 0.59815,-0.23194 0.3601,0 0.61035,0.23194 0.25024,0.23193 0.25024,0.57983 0,0.32959 -0.25024,0.56763 -0.25025,0.23193 -0.61035,0.23193 z m 0.7019,7.56226 -1.41602,0 0,-6.25 1.41602,0 0,6.25 z"
           style="font-style:normal;font-variant:normal;font-weight:600;font-stretch:normal;font-size:12.5px;font-family:'Segoe UI';-inkscape-font-specification:'Segoe UI Semi-Bold'"
           id="path32197" />
        <path
           d="m 182.07465,299.75198 0,-1.31225 q 0.79346,0.60425 1.75171,0.60425 1.28174,0 1.28174,-0.75684 0,-0.21362 -0.10986,-0.36011 -0.10987,-0.15259 -0.29907,-0.26855 -0.18311,-0.11597 -0.43946,-0.20752 -0.25024,-0.0915 -0.56152,-0.20752 -0.38452,-0.15259 -0.6958,-0.32349 -0.30518,-0.1709 -0.5127,-0.38452 -0.20141,-0.21973 -0.30517,-0.49438 -0.10376,-0.27466 -0.10376,-0.64087 0,-0.45166 0.21362,-0.79346 0.21362,-0.3479 0.57373,-0.57983 0.36011,-0.23804 0.81787,-0.35401 0.45777,-0.12207 0.94605,-0.12207 0.8667,0 1.55029,0.26245 l 0,1.23902 q -0.65918,-0.45166 -1.51367,-0.45166 -0.26856,0 -0.48828,0.0549 -0.21363,0.0549 -0.36621,0.15259 -0.15259,0.0977 -0.23804,0.23803 -0.0855,0.13428 -0.0855,0.29908 0,0.20141 0.0855,0.34179 0.0855,0.14038 0.25024,0.25025 0.1709,0.10376 0.40283,0.19531 0.23804,0.0854 0.54322,0.18921 0.40283,0.16479 0.72021,0.33569 0.32349,0.1709 0.54932,0.39063 0.22583,0.21362 0.3479,0.50048 0.12207,0.28077 0.12207,0.67139 0,0.47608 -0.21973,0.83008 -0.21972,0.354 -0.58593,0.58594 -0.36622,0.23193 -0.84839,0.34179 -0.47608,0.11597 -1.00708,0.11597 -1.02539,0 -1.77613,-0.3418 z"
           style="font-style:normal;font-variant:normal;font-weight:600;font-stretch:normal;font-size:12.5px;font-family:'Segoe UI';-inkscape-font-specification:'Segoe UI Semi-Bold'"
           id="path32199" />
        <path
           d="m 191.15668,299.88016 q -0.41503,0.20752 -1.09252,0.20752 -1.81885,0 -1.81885,-1.74561 l 0,-3.53393 -1.0437,0 0,-1.11084 1.0437,0 0,-1.44654 1.41601,-0.40283 0,1.84937 1.49536,0 0,1.11084 -1.49536,0 0,3.125 q 0,0.55542 0.20142,0.79345 0.20142,0.23804 0.67139,0.23804 0.3601,0 0.62255,-0.20752 l 0,1.12305 z"
           style="font-style:normal;font-variant:normal;font-weight:600;font-stretch:normal;font-size:12.5px;font-family:'Segoe UI';-inkscape-font-specification:'Segoe UI Semi-Bold'"
           id="path32201" />
        <path
           d="m 195.07514,300.09378 q -1.44653,0 -2.31323,-0.8728 -0.8606,-0.87891 -0.8606,-2.32544 0,-1.57471 0.89722,-2.45972 0.90332,-0.88501 2.4292,-0.88501 1.46484,0 2.28271,0.8606 0.81788,0.86059 0.81788,2.38647 0,1.49536 -0.88501,2.39868 -0.87891,0.89722 -2.36817,0.89722 z m 0.0671,-5.41382 q -0.83008,0 -1.31226,0.57984 -0.48217,0.57983 -0.48217,1.59912 0,0.98266 0.48828,1.55029 0.48828,0.56152 1.30615,0.56152 0.83618,0 1.28174,-0.55542 0.45166,-0.55542 0.45166,-1.58081 0,-1.03149 -0.45166,-1.59301 -0.44556,-0.56153 -1.28174,-0.56153 z"
           style="font-style:normal;font-variant:normal;font-weight:600;font-stretch:normal;font-size:12.5px;font-family:'Segoe UI';-inkscape-font-specification:'Segoe UI Semi-Bold'"
           id="path32203" />
        <path
           d="m 203.40034,295.04617 q -0.25635,-0.20141 -0.73853,-0.20141 -0.62866,0 -1.0498,0.56762 -0.42115,0.56763 -0.42115,1.54419 l 0,2.99073 -1.41601,0 0,-6.25 1.41601,0 0,1.28784 0.0244,0 q 0.20752,-0.65918 0.63476,-1.02539 0.43335,-0.37232 0.96436,-0.37232 0.38452,0 0.58594,0.11597 l 0,1.34277 z"
           style="font-style:normal;font-variant:normal;font-weight:600;font-stretch:normal;font-size:12.5px;font-family:'Segoe UI';-inkscape-font-specification:'Segoe UI Semi-Bold'"
           id="path32205" />
      </g>
    </g>
    <g
       transform="matrix(1.25,0,0,-1.25,82.64313,644.82997)"
       id="g3724">
      <g
         id="g3726"
         clip-path="url(#clipPath3728)">
        <g
           id="g3732"
           transform="translate(188.9189,215.3994)">
          <path
             d="m 0,0 c 0,-1.988 -1.609,-3.598 -3.596,-3.598 l -72.33,0 c -1.986,0 -3.595,1.61 -3.595,3.598 l 0,63.861 c 0,1.987 1.609,3.598 3.595,3.598 l 72.33,0 c 1.987,0 3.596,-1.611 3.596,-3.598 l 0,-63.861 z"
             style="fill:#f1f1f2;fill-opacity:1;fill-rule:nonzero;stroke:none"
             id="path3734"
             inkscape:connector-curvature="0" />
        </g>
        <g
           id="g3736"
           transform="translate(188.9189,215.3994)">
          <path
             d="m 0,0 c 0,-1.988 -1.609,-3.598 -3.596,-3.598 l -72.33,0 c -1.986,0 -3.595,1.61 -3.595,3.598 l 0,63.861 c 0,1.987 1.609,3.598 3.595,3.598 l 72.33,0 c 1.987,0 3.596,-1.611 3.596,-3.598 l 0,-63.861 z"
             style="fill:none;stroke:#bcbec0;stroke-width:0.5;stroke-linecap:round;stroke-linejoin:round;stroke-miterlimit:10;stroke-dasharray:none;stroke-opacity:1"
             id="path3738"
             inkscape:connector-curvature="0" />
        </g>
        <g
           id="g3740"
           transform="translate(160.6133,264.1465)">
          <path
             d="m 0,0 -22.911,0 c -4.769,0 -9.896,-7.529 -9.896,-16.816 0,-9.288 5.127,-16.817 9.896,-16.817 l 22.911,0 c 4.77,0 9.896,7.529 9.896,16.817 0,9.287 -5.126,16.816 -9.896,16.816"
             style="fill:#e6e7e8;fill-opacity:1;fill-rule:nonzero;stroke:none"
             id="path3742"
             inkscape:connector-curvature="0" />
        </g>
        <g
           id="g3744"
           transform="translate(131.8018,247.3301)">
          <path
             d="m 0,0 c 0,1.632 1.324,2.955 2.956,2.955 1.632,0 2.955,-1.323 2.955,-2.955 0,-1.633 -1.323,-2.955 -2.955,-2.955 -1.632,0 -2.956,1.322 -2.956,2.955"
             style="fill:#e6e7e8;fill-opacity:1;fill-rule:nonzero;stroke:none"
             id="path3746"
             inkscape:connector-curvature="0" />
        </g>
        <g
           id="g3748"
           transform="translate(131.8018,247.3301)">
          <path
             d="m 0,0 c 0,1.632 1.324,2.955 2.956,2.955 1.632,0 2.955,-1.323 2.955,-2.955 0,-1.633 -1.323,-2.955 -2.955,-2.955 -1.632,0 -2.956,1.322 -2.956,2.955 z"
             style="fill:none;stroke:#231f20;stroke-width:0.32600001;stroke-linecap:butt;stroke-linejoin:miter;stroke-miterlimit:10;stroke-dasharray:none;stroke-opacity:1"
             id="path3750"
             inkscape:connector-curvature="0" />
        </g>
        <g
           id="g3752"
           transform="translate(160.6035,247.3301)">
          <path
             d="m 0,0 c 0,1.632 1.323,2.955 2.955,2.955 1.632,0 2.955,-1.323 2.955,-2.955 0,-1.633 -1.323,-2.955 -2.955,-2.955 -1.632,0 -2.955,1.322 -2.955,2.955"
             style="fill:#e6e7e8;fill-opacity:1;fill-rule:nonzero;stroke:none"
             id="path3754"
             inkscape:connector-curvature="0" />
        </g>
        <g
           id="g3756"
           transform="translate(160.6035,247.3301)">
          <path
             d="m 0,0 c 0,1.632 1.323,2.955 2.955,2.955 1.632,0 2.955,-1.323 2.955,-2.955 0,-1.633 -1.323,-2.955 -2.955,-2.955 -1.632,0 -2.955,1.322 -2.955,2.955 z"
             style="fill:none;stroke:#231f20;stroke-width:0.32600001;stroke-linecap:butt;stroke-linejoin:miter;stroke-miterlimit:10;stroke-dasharray:none;stroke-opacity:1"
             id="path3758"
             inkscape:connector-curvature="0" />
        </g>
        <g
           id="g3760"
           transform="translate(139.5381,256.5166)">
          <path
             d="m 0,0 1.037,0 18.312,0 0.322,0 c 1.303,0 2.363,1.229 2.363,2.741 0,1.51 -1.06,2.738 -2.363,2.738 l -26.038,0 c -0.454,-0.435 -0.893,-0.93 -1.311,-1.478 l 27.349,0 c 0.6,0 1.089,-0.564 1.089,-1.26 0,-0.696 -0.489,-1.263 -1.089,-1.263 l -0.322,0 -18.312,0 -1.037,0 c -1.303,0 -2.363,-1.228 -2.363,-2.739 0,-1.51 1.06,-2.74 2.363,-2.74 l 0.873,0 15.066,0 0.323,0 c 0.599,0 1.088,-0.564 1.088,-1.26 0,-0.695 -0.489,-1.261 -1.088,-1.261 l -0.323,0 -12.397,0 c -1.304,0 -2.363,-1.229 -2.363,-2.74 0,-1.51 1.06,-2.74 2.363,-2.74 l 1.152,0 11.245,0 0.323,0 c 0.599,0 1.089,-0.566 1.089,-1.261 0,-0.696 -0.49,-1.262 -1.089,-1.262 l -0.323,0 -14.902,0 -1.037,0 c -0.631,0 -1.224,-0.285 -1.67,-0.801 -0.447,-0.517 -0.693,-1.204 -0.693,-1.937 0,-1.51 1.06,-2.74 2.363,-2.74 l 1.037,0 18.312,0 0.322,0 c 0.6,0 1.089,-0.566 1.089,-1.262 0,-0.695 -0.489,-1.261 -1.089,-1.261 l -1.6,0 -12.487,0 -13.146,0 c 0.432,-0.551 0.885,-1.047 1.353,-1.478 l 11.793,0 12.487,0 1.6,0 c 1.303,0 2.363,1.229 2.363,2.739 0,1.511 -1.06,2.74 -2.363,2.74 l -0.322,0 -18.312,0 -1.037,0 c -0.6,0 -1.089,0.566 -1.089,1.263 0,0.336 0.112,0.652 0.318,0.89 0.207,0.238 0.48,0.369 0.771,0.369 l 1.037,0 14.902,0 0.323,0 c 1.302,0 2.363,1.23 2.363,2.74 0,1.51 -1.061,2.739 -2.363,2.739 l -0.323,0 -11.245,0 -1.152,0 c -0.601,0 -1.089,0.566 -1.089,1.262 0,0.696 0.488,1.261 1.089,1.261 l 1.02,0 11.7,10e-4 c 1.302,0 2.362,1.229 2.362,2.739 0,1.51 -1.06,2.739 -2.362,2.739 l -0.323,0 -15.066,0 -0.873,0 c -0.6,0 -1.089,0.566 -1.089,1.261 0,0.696 0.489,1.261 1.089,1.261"
             style="fill:#ac3c2e;fill-opacity:1;fill-rule:nonzero;stroke:none"
             id="path3762"
             inkscape:connector-curvature="0" />
        </g>
        <g
           id="g3764"
           transform="translate(160.6133,264.1465)">
          <path
             d="m 0,0 -22.911,0 c -4.769,0 -9.896,-7.529 -9.896,-16.816 0,-9.288 5.127,-16.817 9.896,-16.817 l 22.911,0 c 4.77,0 9.896,7.529 9.896,16.817 0,9.287 -5.126,16.816 -9.896,16.816 z"
             style="fill:none;stroke:#231f20;stroke-width:0.32600001;stroke-linecap:butt;stroke-linejoin:miter;stroke-miterlimit:10;stroke-dasharray:none;stroke-opacity:1"
             id="path3766"
             inkscape:connector-curvature="0" />
        </g>
      </g>
    </g>
    <g
       transform="matrix(1.25,0,0,-1.25,82.64313,644.82997)"
       id="g3768">
      <g
         id="g3770"
         clip-path="url(#clipPath3772)">
        <g
           id="g3776"
           transform="translate(-58.9478,161.7461)">
          <path
             d="m 0,0 128.182,96.745 1.279,-1.711 -128.175,-96.74 -1.286,1.706 z"
             style="fill:#bcbec0;fill-opacity:1;fill-rule:nonzero;stroke:none"
             id="path3778"
             inkscape:connector-curvature="0" />
        </g>
        <g
           id="g3780"
           transform="translate(-58.9478,161.7461)">
          <path
             d="m 0,0 128.182,96.745 1.279,-1.711 -128.175,-96.74 -1.286,1.706 z"
             style="fill:none;stroke:#231f20;stroke-width:0.5;stroke-linecap:butt;stroke-linejoin:miter;stroke-miterlimit:4;stroke-dasharray:none;stroke-opacity:1"
             id="path3782"
             inkscape:connector-curvature="0" />
        </g>
        <g
           id="g3784"
           transform="translate(-36.5093,153.0459)">
          <path
             d="m 0,0 128.18,96.744 1.279,-1.709 -128.177,-96.744 -1.282,1.709 z"
             style="fill:#bcbec0;fill-opacity:1;fill-rule:nonzero;stroke:none"
             id="path3786"
             inkscape:connector-curvature="0" />
        </g>
        <g
           id="g3788"
           transform="translate(-36.5093,153.0459)">
          <path
             d="m 0,0 128.18,96.744 1.279,-1.709 -128.177,-96.744 -1.282,1.709 z"
             style="fill:none;stroke:#231f20;stroke-width:0.5;stroke-linecap:butt;stroke-linejoin:miter;stroke-miterlimit:4;stroke-dasharray:none;stroke-opacity:1"
             id="path3790"
             inkscape:connector-curvature="0" />
        </g>
        <g
           id="g3792"
           transform="translate(94.7822,240.6201)">
          <path
             d="m 0,0 -7.868,-6.033 c 0,0 -1.961,-1.713 -5.865,0.086 l -16.103,7.442 c 0,0 -6.419,3.778 -7.345,12.376 0,0 -0.584,3.621 2.376,5.767 l 7.866,6.029 26.939,-25.667 z"
             style="fill:#231f20;fill-opacity:1;fill-rule:nonzero;stroke:none"
             id="path3794"
             inkscape:connector-curvature="0" />
        </g>
        <g
           id="g3796"
           transform="translate(94.7822,240.6201)">
          <path
             d="m 0,0 -7.868,-6.033 c 0,0 -1.961,-1.713 -5.865,0.086 l -16.103,7.442 c 0,0 -6.419,3.778 -7.345,12.376 0,0 -0.584,3.621 2.376,5.767 l 7.866,6.029 26.939,-25.667 z"
             style="fill:none;stroke:#231f20;stroke-width:0.5;stroke-linecap:butt;stroke-linejoin:miter;stroke-miterlimit:10;stroke-dasharray:none;stroke-opacity:1"
             id="path3798"
             inkscape:connector-curvature="0" />
        </g>
        <g
           id="g3800"
           transform="translate(88.9961,258.749)">
          <path
             d="m 0,0 -16.776,7.729 c -3.493,1.609 -7.008,-0.809 -6.714,-5.924 0.295,-5.116 4.288,-10.992 7.778,-12.602 l 16.778,-7.729 c 3.494,-1.608 7.009,0.808 6.716,5.923 -0.295,5.115 -4.289,10.992 -7.782,12.603"
             style="fill:#e6e7e8;fill-opacity:1;fill-rule:nonzero;stroke:none"
             id="path3802"
             inkscape:connector-curvature="0" />
        </g>
        <g
           id="g3804"
           transform="translate(68.4326,259.2051)">
          <path
             d="m 0,0 c -0.052,0.899 0.875,1.18 2.07,0.632 1.196,-0.551 2.207,-1.727 2.258,-2.624 0.053,-0.9 -0.875,-1.184 -2.071,-0.632 -1.193,0.55 -2.205,1.727 -2.257,2.624"
             style="fill:#d1d3d4;fill-opacity:1;fill-rule:nonzero;stroke:none"
             id="path3806"
             inkscape:connector-curvature="0" />
        </g>
        <g
           id="g3808"
           transform="translate(68.4326,259.2051)">
          <path
             d="m 0,0 c -0.052,0.899 0.875,1.18 2.07,0.632 1.196,-0.551 2.207,-1.727 2.258,-2.624 0.053,-0.9 -0.875,-1.184 -2.071,-0.632 -1.193,0.55 -2.205,1.727 -2.257,2.624 z"
             style="fill:none;stroke:#231f20;stroke-width:0.5;stroke-linecap:butt;stroke-linejoin:miter;stroke-miterlimit:10;stroke-dasharray:none;stroke-opacity:1"
             id="path3810"
             inkscape:connector-curvature="0" />
        </g>
        <g
           id="g3812"
           transform="translate(89.5215,249.4893)">
          <path
             d="m 0,0 c -0.051,0.899 0.876,1.181 2.071,0.63 1.197,-0.551 2.207,-1.727 2.258,-2.625 0.053,-0.9 -0.875,-1.182 -2.069,-0.631 -1.197,0.553 -2.207,1.726 -2.26,2.626"
             style="fill:#d1d3d4;fill-opacity:1;fill-rule:nonzero;stroke:none"
             id="path3814"
             inkscape:connector-curvature="0" />
        </g>
        <g
           id="g3816"
           transform="translate(89.5215,249.4893)">
          <path
             d="m 0,0 c -0.051,0.899 0.876,1.181 2.071,0.63 1.197,-0.551 2.207,-1.727 2.258,-2.625 0.053,-0.9 -0.875,-1.182 -2.069,-0.631 -1.197,0.553 -2.207,1.726 -2.26,2.626 z"
             style="fill:none;stroke:#231f20;stroke-width:0.5;stroke-linecap:butt;stroke-linejoin:miter;stroke-miterlimit:10;stroke-dasharray:none;stroke-opacity:1"
             id="path3818"
             inkscape:connector-curvature="0" />
        </g>
        <g
           id="g3820"
           transform="translate(73.8076,261.6562)">
          <path
             d="m 0,0 0.758,-0.352 13.411,-6.176 0.234,-0.109 c 0.954,-0.439 1.692,-0.122 1.643,0.713 -0.048,0.831 -0.863,1.865 -1.816,2.305 l -19.069,8.785 c -0.317,-0.088 -0.624,-0.21 -0.911,-0.372 l 20.025,-9.227 c 0.441,-0.203 0.816,-0.678 0.838,-1.062 0.024,-0.383 -0.317,-0.531 -0.757,-0.328 l -0.236,0.11 -13.409,6.177 -0.759,0.349 c -0.956,0.44 -1.692,0.121 -1.642,-0.712 0.046,-0.831 0.861,-1.865 1.817,-2.305 l 0.638,-0.295 11.034,-5.084 0.234,-0.107 c 0.44,-0.203 0.818,-0.68 0.838,-1.061 0.021,-0.384 -0.319,-0.532 -0.758,-0.329 l -0.236,0.108 -9.078,4.183 c -0.954,0.439 -1.692,0.119 -1.645,-0.71 0.049,-0.833 0.865,-1.868 1.819,-2.308 l 0.842,-0.387 8.236,-3.795 0.236,-0.109 c 0.44,-0.203 0.815,-0.678 0.838,-1.061 0.021,-0.385 -0.318,-0.531 -0.759,-0.328 l -0.235,0.108 -10.913,5.026 -0.76,0.353 c -0.461,0.212 -0.887,0.256 -1.196,0.12 -0.312,-0.132 -0.471,-0.429 -0.447,-0.834 0.048,-0.832 0.864,-1.865 1.816,-2.306 l 0.762,-0.348 13.409,-6.18 0.234,-0.107 c 0.439,-0.202 0.817,-0.679 0.84,-1.063 0.02,-0.383 -0.319,-0.529 -0.759,-0.326 l -1.172,0.538 -9.142,4.214 -9.627,4.436 c 0.334,-0.45 0.679,-0.876 1.037,-1.271 l 8.636,-3.979 9.141,-4.213 1.173,-0.538 c 0.953,-0.441 1.691,-0.121 1.645,0.711 -0.049,0.831 -0.865,1.865 -1.817,2.305 l -0.237,0.11 -13.409,6.176 -0.759,0.35 c -0.439,0.203 -0.815,0.681 -0.838,1.063 -0.012,0.188 0.062,0.323 0.206,0.382 0.143,0.061 0.338,0.044 0.552,-0.055 l 0.76,-0.351 10.912,-5.027 0.237,-0.108 c 0.952,-0.439 1.689,-0.121 1.643,0.71 -0.049,0.832 -0.864,1.868 -1.818,2.306 l -0.235,0.109 -8.235,3.794 -0.844,0.391 c -0.44,0.2 -0.815,0.678 -0.838,1.06 -0.022,0.383 0.317,0.533 0.758,0.329 l 0.746,-0.345 8.567,-3.947 c 0.956,-0.439 1.694,-0.12 1.645,0.71 -0.048,0.832 -0.864,1.868 -1.818,2.308 l -0.235,0.107 -11.034,5.084 -0.639,0.295 c -0.437,0.203 -0.815,0.68 -0.838,1.065 -0.02,0.38 0.319,0.528 0.76,0.325"
             style="fill:#ac3c2e;fill-opacity:1;fill-rule:nonzero;stroke:none"
             id="path3822"
             inkscape:connector-curvature="0" />
        </g>
        <g
           id="g3824"
           transform="translate(88.9961,258.749)">
          <path
             d="m 0,0 -16.776,7.729 c -3.493,1.609 -7.008,-0.809 -6.714,-5.924 0.295,-5.116 4.288,-10.992 7.778,-12.602 l 16.778,-7.729 c 3.494,-1.608 7.009,0.808 6.716,5.923 -0.295,5.115 -4.289,10.992 -7.782,12.603 z"
             style="fill:none;stroke:#231f20;stroke-width:0.5;stroke-linecap:butt;stroke-linejoin:miter;stroke-miterlimit:10;stroke-dasharray:none;stroke-opacity:1"
             id="path3826"
             inkscape:connector-curvature="0" />
        </g>
      </g>
    </g>
  </g>
</svg>
