<?xml version="1.0" encoding="UTF-8" standalone="no"?>
<!-- Created with Inkscape (http://www.inkscape.org/) -->

<svg
   xmlns:dc="http://purl.org/dc/elements/1.1/"
   xmlns:cc="http://creativecommons.org/ns#"
   xmlns:rdf="http://www.w3.org/1999/02/22-rdf-syntax-ns#"
   xmlns:svg="http://www.w3.org/2000/svg"
   xmlns="http://www.w3.org/2000/svg"
   xmlns:sodipodi="http://sodipodi.sourceforge.net/DTD/sodipodi-0.dtd"
   xmlns:inkscape="http://www.inkscape.org/namespaces/inkscape"
   width="60.69577mm"
   height="29.909559mm"
   viewBox="0 0 215.06375 105.97875"
   id="svg14522"
   version="1.1"
   inkscape:version="0.91 r13725"
   sodipodi:docname="common_diode.svg">
  <defs
     id="defs14524">
    <clipPath
       clipPathUnits="userSpaceOnUse"
       id="clipPath2046">
      <path
         d="m 201.307,478.751 171.05,0 0,83.783 -171.05,0 0,-83.783 z"
         id="path2048"
         inkscape:connector-curvature="0" />
    </clipPath>
    <clipPath
       clipPathUnits="userSpaceOnUse"
       id="clipPath2000">
      <path
         d="m 0,612 396,0 0,-612 -396,0 0,612 z"
         id="path2002"
         inkscape:connector-curvature="0" />
    </clipPath>
    <clipPath
       clipPathUnits="userSpaceOnUse"
       id="clipPath2902">
      <path
         d="m 0,612 396,0 0,-612 -396,0 0,612 z"
         id="path2904"
         inkscape:connector-curvature="0" />
    </clipPath>
    <clipPath
       clipPathUnits="userSpaceOnUse"
       id="clipPath23574">
      <rect
         style="opacity:1;fill:#00ff00;fill-opacity:1;stroke:none;stroke-width:0.2;stroke-linecap:round;stroke-linejoin:miter;stroke-miterlimit:4;stroke-dasharray:none;stroke-dashoffset:0;stroke-opacity:1"
         id="rect23576"
         width="171.29677"
         height="84.903999"
         x="201.37843"
         y="-563.15497"
         transform="scale(1,-1)" />
    </clipPath>
    <clipPath
       clipPathUnits="userSpaceOnUse"
       id="clipPath700">
      <path
         d="m 24.36,478.75 171.05,0 0,83.785 -171.05,0 0,-83.785 z"
         id="path702"
         inkscape:connector-curvature="0" />
    </clipPath>
    <clipPath
       clipPathUnits="userSpaceOnUse"
       id="clipPath780">
      <path
         d="m 0,612 396,0 0,-612 -396,0 0,612 z"
         id="path782"
         inkscape:connector-curvature="0" />
    </clipPath>
    <clipPath
       clipPathUnits="userSpaceOnUse"
       id="clipPath700-0">
      <path
         d="m 24.36,478.75 171.05,0 0,83.785 -171.05,0 0,-83.785 z"
         id="path702-3"
         inkscape:connector-curvature="0" />
    </clipPath>
    <clipPath
       clipPathUnits="userSpaceOnUse"
       id="clipPath492">
      <path
         d="m 0,612 396,0 0,-612 -396,0 0,612 z"
         id="path494"
         inkscape:connector-curvature="0" />
    </clipPath>
    <clipPath
       clipPathUnits="userSpaceOnUse"
       id="clipPath492-4">
      <path
         d="m 0,612 396,0 0,-612 -396,0 0,612 z"
         id="path494-7"
         inkscape:connector-curvature="0" />
    </clipPath>
    <clipPath
       clipPathUnits="userSpaceOnUse"
       id="clipPath700-0-6">
      <path
         d="m 24.36,478.75 171.05,0 0,83.785 -171.05,0 0,-83.785 z"
         id="path702-3-1"
         inkscape:connector-curvature="0" />
    </clipPath>
    <clipPath
       clipPathUnits="userSpaceOnUse"
       id="clipPath3040">
      <path
         d="m 0,612 396,0 0,-612 -396,0 0,612 z"
         id="path3042"
         inkscape:connector-curvature="0" />
    </clipPath>
    <clipPath
       clipPathUnits="userSpaceOnUse"
       id="clipPath3016">
      <path
         d="m 77.297,443.169 c -7.041,-11.131 -10.723,-14.787 -21.852,-21.852 l 0,0 c -5.511,-3.49 -5.972,-10.8 -3.023,-13.749 l 0,0 3.379,-3.38 c 2.941,-2.943 10.265,-2.482 13.754,3.026 l 0,0 c 7.033,11.138 10.719,14.8 21.847,21.849 l 0,0 c 5.506,3.497 5.979,10.807 3.031,13.752 l 0,0 -3.382,3.383 c -1.162,1.164 -3.006,1.796 -5.027,1.796 l 0,0 c -3.099,0 -6.613,-1.486 -8.727,-4.825"
         id="path3018"
         inkscape:connector-curvature="0" />
    </clipPath>
    <clipPath
       clipPathUnits="userSpaceOnUse"
       id="clipPath2984">
      <path
         d="m 24.36,387.892 171.049,0 0,83.783 -171.049,0 0,-83.783 z"
         id="path2986"
         inkscape:connector-curvature="0" />
    </clipPath>
    <clipPath
       clipPathUnits="userSpaceOnUse"
       id="clipPath2960">
      <path
         d="m 150.951,432.028 c -1.1,-1.779 -1.674,-2.372 -3.43,-3.508 l 0,0 c -0.867,-0.564 -0.928,-1.727 -0.455,-2.189 l 0,0 0.543,-0.531 c 0.472,-0.463 1.633,-0.375 2.178,0.506 l 0,0 c 1.102,1.779 1.673,2.37 3.429,3.51 l 0,0 c 0.869,0.562 0.928,1.726 0.455,2.188 l 0,0 -0.542,0.531 c -0.184,0.179 -0.47,0.275 -0.784,0.275 l 0,0 c -0.496,0 -1.061,-0.242 -1.394,-0.782"
         id="path2962"
         inkscape:connector-curvature="0" />
    </clipPath>
    <clipPath
       clipPathUnits="userSpaceOnUse"
       id="clipPath2940">
      <path
         d="m 113.039,464.953 c -1.986,0 -3.595,-1.612 -3.595,-3.598 l 0,0 0,-63.862 c 0,-1.987 1.609,-3.597 3.595,-3.597 l 0,0 72.33,0 c 1.987,0 3.596,1.61 3.596,3.597 l 0,0 0,63.862 c 0,1.986 -1.609,3.598 -3.596,3.598 l 0,0 -72.33,0 z"
         id="path2942"
         inkscape:connector-curvature="0" />
    </clipPath>
    <clipPath
       clipPathUnits="userSpaceOnUse"
       id="clipPath2920">
      <path
         d="m 0,612 396,0 0,-612 -396,0 0,612 z"
         id="path2922"
         inkscape:connector-curvature="0" />
    </clipPath>
    <clipPath
       clipPathUnits="userSpaceOnUse"
       id="clipPath254">
      <path
         d="m 201.307,296.782 171.051,0 0,83.783 -171.051,0 0,-83.783 z"
         id="path256"
         inkscape:connector-curvature="0" />
    </clipPath>
    <linearGradient
       x1="0"
       y1="0"
       x2="1"
       y2="0"
       gradientUnits="userSpaceOnUse"
       gradientTransform="matrix(-13.245696,13.245694,13.245694,13.245696,262.09277,340.16602)"
       spreadMethod="pad"
       id="linearGradient240">
      <stop
         style="stop-opacity:1;stop-color:#d03a27"
         offset="0"
         id="stop242" />
      <stop
         style="stop-opacity:1;stop-color:#fbb040"
         offset="0.496933"
         id="stop244" />
      <stop
         style="stop-opacity:1;stop-color:#d03a27"
         offset="1"
         id="stop246" />
    </linearGradient>
    <clipPath
       clipPathUnits="userSpaceOnUse"
       id="clipPath220">
      <path
         d="m 201.307,296.782 171.051,0 0,83.783 -171.051,0 0,-83.783 z"
         id="path222"
         inkscape:connector-curvature="0" />
    </clipPath>
    <linearGradient
       x1="0"
       y1="0"
       x2="1"
       y2="0"
       gradientUnits="userSpaceOnUse"
       gradientTransform="matrix(-13.245696,13.245694,13.245694,13.245696,245.58301,323.65625)"
       spreadMethod="pad"
       id="linearGradient206">
      <stop
         style="stop-opacity:1;stop-color:#d03a27"
         offset="0"
         id="stop208" />
      <stop
         style="stop-opacity:1;stop-color:#fbb040"
         offset="0.496933"
         id="stop210" />
      <stop
         style="stop-opacity:1;stop-color:#d03a27"
         offset="1"
         id="stop212" />
    </linearGradient>
    <clipPath
       clipPathUnits="userSpaceOnUse"
       id="clipPath174">
      <path
         d="m 201.307,296.782 171.051,0 0,83.783 -171.051,0 0,-83.783 z"
         id="path176"
         inkscape:connector-curvature="0" />
    </clipPath>
    <clipPath
       clipPathUnits="userSpaceOnUse"
       id="clipPath134">
      <path
         d="m 290.787,374.165 c -1.986,0 -3.595,-1.611 -3.595,-3.597 l 0,0 0,-63.862 c 0,-1.989 1.609,-3.598 3.595,-3.598 l 0,0 72.331,0 c 1.986,0 3.595,1.609 3.595,3.598 l 0,0 0,63.862 c 0,1.986 -1.609,3.597 -3.595,3.597 l 0,0 -72.331,0 z"
         id="path136"
         inkscape:connector-curvature="0" />
    </clipPath>
    <linearGradient
       x1="0"
       y1="0"
       x2="1"
       y2="0"
       gradientUnits="userSpaceOnUse"
       gradientTransform="matrix(-2.4582775,2.458277,2.458277,2.4582775,331.63965,338.57764)"
       spreadMethod="pad"
       id="linearGradient120">
      <stop
         style="stop-opacity:1;stop-color:#d03a27"
         offset="0"
         id="stop122" />
      <stop
         style="stop-opacity:1;stop-color:#fbb040"
         offset="0.496933"
         id="stop124" />
      <stop
         style="stop-opacity:1;stop-color:#d03a27"
         offset="1"
         id="stop126" />
    </linearGradient>
    <clipPath
       clipPathUnits="userSpaceOnUse"
       id="clipPath100">
      <path
         d="m 290.787,374.165 c -1.986,0 -3.595,-1.611 -3.595,-3.597 l 0,0 0,-63.862 c 0,-1.989 1.609,-3.598 3.595,-3.598 l 0,0 72.331,0 c 1.986,0 3.595,1.609 3.595,3.598 l 0,0 0,63.862 c 0,1.986 -1.609,3.597 -3.595,3.597 l 0,0 -72.331,0 z"
         id="path102"
         inkscape:connector-curvature="0" />
    </clipPath>
    <linearGradient
       x1="0"
       y1="0"
       x2="1"
       y2="0"
       gradientUnits="userSpaceOnUse"
       gradientTransform="matrix(-2.4596586,2.4596581,2.4596581,2.4596586,328.57617,335.51465)"
       spreadMethod="pad"
       id="linearGradient86">
      <stop
         style="stop-opacity:1;stop-color:#d03a27"
         offset="0"
         id="stop88" />
      <stop
         style="stop-opacity:1;stop-color:#fbb040"
         offset="0.496933"
         id="stop90" />
      <stop
         style="stop-opacity:1;stop-color:#d03a27"
         offset="1"
         id="stop92" />
    </linearGradient>
    <clipPath
       clipPathUnits="userSpaceOnUse"
       id="clipPath54">
      <path
         d="m 290.787,374.165 c -1.986,0 -3.595,-1.611 -3.595,-3.597 l 0,0 0,-63.862 c 0,-1.989 1.609,-3.598 3.595,-3.598 l 0,0 72.331,0 c 1.986,0 3.595,1.609 3.595,3.598 l 0,0 0,63.862 c 0,1.986 -1.609,3.597 -3.595,3.597 l 0,0 -72.331,0 z"
         id="path56"
         inkscape:connector-curvature="0" />
    </clipPath>
    <clipPath
       clipPathUnits="userSpaceOnUse"
       id="clipPath34">
      <path
         d="m 0,612 396,0 0,-612 -396,0 0,612 z"
         id="path36"
         inkscape:connector-curvature="0" />
    </clipPath>
  </defs>
  <sodipodi:namedview
     id="base"
     pagecolor="#ffffff"
     bordercolor="#666666"
     borderopacity="1.0"
     inkscape:pageopacity="0.0"
     inkscape:pageshadow="2"
     inkscape:zoom="3.959798"
     inkscape:cx="85.678285"
     inkscape:cy="18.406812"
     inkscape:document-units="px"
     inkscape:current-layer="layer1"
     showgrid="true"
     fit-margin-top="0"
     fit-margin-left="0"
     fit-margin-right="0"
     fit-margin-bottom="0"
     inkscape:window-width="1920"
     inkscape:window-height="1017"
     inkscape:window-x="-8"
     inkscape:window-y="-8"
     inkscape:window-maximized="1"
     showguides="false" />
  <metadata
     id="metadata14527">
    <rdf:RDF>
      <cc:Work
         rdf:about="">
        <dc:format>image/svg+xml</dc:format>
        <dc:type
           rdf:resource="http://purl.org/dc/dcmitype/StillImage" />
        <dc:title></dc:title>
      </cc:Work>
    </rdf:RDF>
  </metadata>
  <g
     inkscape:label="Layer 1"
     inkscape:groupmode="layer"
     id="layer1"
     transform="translate(-112.46813,-282.22997)"
     style="display:inline">
    <g
       id="g23541">
      <g
         style="font-style:normal;font-variant:normal;font-weight:normal;font-stretch:normal;font-size:11.25px;line-height:125%;font-family:sans-serif;-inkscape-font-specification:'sans-serif, Normal';text-align:start;letter-spacing:0px;word-spacing:0px;writing-mode:lr-tb;text-anchor:start;fill:#000000;fill-opacity:1;stroke:none;stroke-width:1px;stroke-linecap:butt;stroke-linejoin:miter;stroke-opacity:1"
         id="text15994">
        <path
           d="m 122.44331,299.9473 0,-8.75245 2.52685,0 q 4.84009,0 4.84009,4.26636 0,2.02637 -1.34277,3.25928 -1.34278,1.22681 -3.60108,1.22681 l -2.42309,0 z m 1.44653,-7.51954 0,6.29273 1.15967,0 q 1.53198,0 2.38037,-0.84229 0.85449,-0.84228 0.85449,-2.38037 0,-3.07007 -3.17993,-3.07007 l -1.2146,0 z"
           style="font-style:normal;font-variant:normal;font-weight:600;font-stretch:normal;font-size:12.5px;font-family:'Segoe UI';-inkscape-font-specification:'Segoe UI Semi-Bold'"
           id="path25248" />
        <path
           d="m 131.95869,292.38504 q -0.3479,0 -0.59815,-0.22583 -0.24414,-0.22583 -0.24414,-0.57373 0,-0.3479 0.24414,-0.57983 0.25025,-0.23194 0.59815,-0.23194 0.3601,0 0.61035,0.23194 0.25024,0.23193 0.25024,0.57983 0,0.32959 -0.25024,0.56763 -0.25025,0.23193 -0.61035,0.23193 z m 0.7019,7.56226 -1.41601,0 0,-6.25 1.41601,0 0,6.25 z"
           style="font-style:normal;font-variant:normal;font-weight:600;font-stretch:normal;font-size:12.5px;font-family:'Segoe UI';-inkscape-font-specification:'Segoe UI Semi-Bold'"
           id="path25250" />
        <path
           d="m 137.28706,300.09378 q -1.44654,0 -2.31324,-0.8728 -0.86059,-0.87891 -0.86059,-2.32544 0,-1.57471 0.89721,-2.45972 0.90332,-0.88501 2.4292,-0.88501 1.46485,0 2.28272,0.8606 0.81787,0.86059 0.81787,2.38647 0,1.49536 -0.88501,2.39868 -0.87891,0.89722 -2.36816,0.89722 z m 0.0671,-5.41382 q -0.83007,0 -1.31225,0.57984 -0.48218,0.57983 -0.48218,1.59912 0,0.98266 0.48828,1.55029 0.48828,0.56152 1.30615,0.56152 0.83619,0 1.28174,-0.55542 0.45166,-0.55542 0.45166,-1.58081 0,-1.03149 -0.45166,-1.59301 -0.44555,-0.56153 -1.28174,-0.56153 z"
           style="font-style:normal;font-variant:normal;font-weight:600;font-stretch:normal;font-size:12.5px;font-family:'Segoe UI';-inkscape-font-specification:'Segoe UI Semi-Bold'"
           id="path25252" />
        <path
           d="m 147.66914,299.9473 -1.41602,0 0,-1.06202 -0.0244,0 q -0.6836,1.2085 -2.10572,1.2085 -1.15356,0 -1.84936,-0.83618 -0.6897,-0.84229 -0.6897,-2.28882 0,-1.55029 0.76294,-2.48413 0.76904,-0.93384 2.04468,-0.93384 1.26343,0 1.83716,1.01319 l 0.0244,0 0,-3.86963 1.41602,0 0,9.25293 z m -1.39771,-2.85645 0,-0.81787 q 0,-0.66528 -0.43335,-1.12915 -0.43335,-0.46387 -1.10473,-0.46387 -0.79346,0 -1.25123,0.59204 -0.45166,0.59204 -0.45166,1.64185 0,0.95215 0.43335,1.50757 0.43946,0.54931 1.17798,0.54931 0.72632,0 1.17798,-0.531 0.45166,-0.53711 0.45166,-1.34888 z"
           style="font-style:normal;font-variant:normal;font-weight:600;font-stretch:normal;font-size:12.5px;font-family:'Segoe UI';-inkscape-font-specification:'Segoe UI Semi-Bold'"
           id="path25254" />
        <path
           d="m 154.82246,297.20682 -4.26026,0 q 0.0244,0.8667 0.53101,1.33667 0.51269,0.46997 1.40381,0.46997 1.00097,0 1.83716,-0.59815 l 0,1.14136 q -0.8545,0.53711 -2.25831,0.53711 -1.37939,0 -2.16674,-0.84839 -0.78125,-0.85449 -0.78125,-2.39868 0,-1.45874 0.86059,-2.37427 0.8667,-0.92163 2.14844,-0.92163 1.28174,0 1.98364,0.82398 0.70191,0.82397 0.70191,2.28881 l 0,0.54322 z m -1.36719,-1.00098 q -0.006,-0.76294 -0.36011,-1.18408 -0.354,-0.42725 -0.97656,-0.42725 -0.61035,0 -1.0376,0.44556 -0.42114,0.44556 -0.5188,1.16577 l 2.89307,0 z"
           style="font-style:normal;font-variant:normal;font-weight:600;font-stretch:normal;font-size:12.5px;font-family:'Segoe UI';-inkscape-font-specification:'Segoe UI Semi-Bold'"
           id="path25256" />
      </g>
    </g>
  </g>
  <g
     transform="matrix(1.25,0,0,-1.25,-251.17575,476.39825)"
     id="g30">
    <g
       id="g32"
       clip-path="url(#clipPath34)">
      <g
         id="g38"
         transform="translate(366.7139,306.7061)">
        <path
           d="m 0,0 c 0,-1.988 -1.609,-3.598 -3.596,-3.598 l -72.331,0 c -1.986,0 -3.595,1.61 -3.595,3.598 l 0,63.861 c 0,1.987 1.609,3.598 3.595,3.598 l 72.331,0 c 1.987,0 3.596,-1.611 3.596,-3.598 l 0,-63.861 z"
           style="fill:#f1f1f2;fill-opacity:1;fill-rule:nonzero;stroke:none"
           id="path40"
           inkscape:connector-curvature="0" />
      </g>
      <g
         id="g42"
         transform="translate(366.7139,306.7061)">
        <path
           d="m 0,0 c 0,-1.988 -1.609,-3.598 -3.596,-3.598 l -72.331,0 c -1.986,0 -3.595,1.61 -3.595,3.598 l 0,63.861 c 0,1.987 1.609,3.598 3.595,3.598 l 72.331,0 c 1.987,0 3.596,-1.611 3.596,-3.598 l 0,-63.861 z"
           style="fill:none;stroke:#bcbec0;stroke-width:0.5;stroke-linecap:round;stroke-linejoin:round;stroke-miterlimit:10;stroke-dasharray:none;stroke-opacity:1"
           id="path44"
           inkscape:connector-curvature="0" />
      </g>
    </g>
  </g>
  <g
     transform="matrix(1.25,0,0,-1.25,-251.17575,476.39825)"
     id="g50">
    <g
       id="g52"
       clip-path="url(#clipPath54)">
      <g
         id="g58"
         transform="translate(265.1094,274.7646)">
        <path
           d="m 0,0 127.293,127.27 0.246,-0.249 -127.293,-127.267 -0.246,0.246 z"
           style="fill:#bcbec0;fill-opacity:1;fill-rule:nonzero;stroke:none"
           id="path60"
           inkscape:connector-curvature="0" />
      </g>
      <g
         id="g62"
         transform="translate(265.1094,274.7646)">
        <path
           d="m 0,0 127.293,127.27 0.246,-0.249 -127.293,-127.267 -0.246,0.246 z"
           style="fill:none;stroke:#231f20;stroke-width:0.25;stroke-linecap:butt;stroke-linejoin:miter;stroke-miterlimit:4;stroke-dasharray:none;stroke-opacity:1"
           id="path64"
           inkscape:connector-curvature="0" />
      </g>
      <g
         id="g66"
         transform="translate(325.709,335.1064)">
        <path
           d="m 0,0 c 0.846,-0.846 1.66,-1.4 1.818,-1.24 l 5.762,5.76 c 0.16,0.16 -0.394,0.974 -1.238,1.82 -0.846,0.844 -1.66,1.398 -1.821,1.238 l -5.759,-5.76 c -0.16,-0.16 0.394,-0.974 1.238,-1.818"
           style="fill:#ffffff;fill-opacity:1;fill-rule:nonzero;stroke:none"
           id="path68"
           inkscape:connector-curvature="0" />
      </g>
      <g
         id="g70"
         transform="translate(325.709,335.1064)">
        <path
           d="m 0,0 c 0.846,-0.846 1.66,-1.4 1.818,-1.24 l 5.762,5.76 c 0.16,0.16 -0.394,0.974 -1.238,1.82 -0.846,0.844 -1.66,1.398 -1.821,1.238 l -5.759,-5.76 c -0.16,-0.16 0.394,-0.974 1.238,-1.818 z"
           style="fill:none;stroke:#231f20;stroke-width:0.25;stroke-linecap:butt;stroke-linejoin:miter;stroke-miterlimit:4;stroke-dasharray:none;stroke-opacity:1"
           id="path72"
           inkscape:connector-curvature="0" />
      </g>
    </g>
  </g>
  <g
     transform="matrix(1.25,0,0,-1.25,-251.17575,476.39825)"
     id="g74">
    <g
       id="g76">
      <g
         id="g82">
        <g
           id="g84">
          <path
             d="m 324.908,336.765 c 0.115,-0.225 0.451,-0.708 1.102,-1.357 l 0,0 c 0.65,-0.651 1.133,-0.989 1.357,-1.102 l 0,0 2.545,2.547 -2.457,2.457 -2.547,-2.545 z"
             style="fill:url(#linearGradient86);stroke:none"
             id="path94"
             inkscape:connector-curvature="0" />
        </g>
      </g>
    </g>
  </g>
  <g
     transform="matrix(1.25,0,0,-1.25,-251.17575,476.39825)"
     id="g96">
    <g
       id="g98"
       clip-path="url(#clipPath100)">
      <g
         id="g104"
         transform="translate(327.4551,339.3096)">
        <path
           d="m 0,0 -2.547,-2.545 c 0.115,-0.225 0.451,-0.707 1.102,-1.357 0.65,-0.651 1.133,-0.989 1.357,-1.102 l 2.545,2.547 -2.457,2.457 z"
           style="fill:none;stroke:#231f20;stroke-width:0.25;stroke-linecap:butt;stroke-linejoin:miter;stroke-miterlimit:4;stroke-dasharray:none;stroke-opacity:1"
           id="path106"
           inkscape:connector-curvature="0" />
      </g>
    </g>
  </g>
  <g
     transform="matrix(1.25,0,0,-1.25,-251.17575,476.39825)"
     id="g108">
    <g
       id="g110">
      <g
         id="g116">
        <g
           id="g118">
          <path
             d="m 327.844,339.698 2.459,-2.457 2.547,2.547 c -0.114,0.223 -0.449,0.707 -1.1,1.358 l 0,0 c -0.653,0.651 -1.135,0.985 -1.357,1.101 l 0,0 -2.549,-2.549 z"
             style="fill:url(#linearGradient120);stroke:none"
             id="path128"
             inkscape:connector-curvature="0" />
        </g>
      </g>
    </g>
  </g>
  <g
     transform="matrix(1.25,0,0,-1.25,-251.17575,476.39825)"
     id="g130">
    <g
       id="g132"
       clip-path="url(#clipPath134)">
      <g
         id="g138"
         transform="translate(330.3926,342.2471)">
        <path
           d="m 0,0 -2.549,-2.549 2.459,-2.457 2.547,2.547 c -0.113,0.223 -0.449,0.707 -1.1,1.357 -0.652,0.653 -1.134,0.987 -1.357,1.102 z"
           style="fill:none;stroke:#231f20;stroke-width:0.25;stroke-linecap:butt;stroke-linejoin:miter;stroke-miterlimit:4;stroke-dasharray:none;stroke-opacity:1"
           id="path140"
           inkscape:connector-curvature="0" />
      </g>
      <g
         id="g142"
         transform="translate(330.2305,342.6846)">
        <path
           d="m 0,0 -1.285,-1.285 3.058,-3.059 1.286,1.285 c 0.16,0.161 -0.395,0.975 -1.239,1.821 -0.845,0.843 -1.66,1.398 -1.82,1.238"
           style="fill:#58595b;fill-opacity:1;fill-rule:nonzero;stroke:none"
           id="path144"
           inkscape:connector-curvature="0" />
      </g>
      <g
         id="g146"
         transform="translate(330.2305,342.6846)">
        <path
           d="m 0,0 -1.285,-1.285 3.058,-3.059 1.286,1.285 c 0.16,0.161 -0.395,0.975 -1.239,1.821 -0.845,0.843 -1.66,1.398 -1.82,1.238 z"
           style="fill:none;stroke:#231f20;stroke-width:0.32600001;stroke-linecap:round;stroke-linejoin:round;stroke-miterlimit:4;stroke-dasharray:none;stroke-opacity:1"
           id="path148"
           inkscape:connector-curvature="0" />
      </g>
      <g
         id="g150"
         transform="translate(328.8066,337.958)">
        <path
           d="m 0,0 0.391,0.389 -0.248,0.246 -0.389,-0.387 0.246,-0.248 z"
           style="fill:#bcbec0;fill-opacity:1;fill-rule:nonzero;stroke:none"
           id="path152"
           inkscape:connector-curvature="0" />
      </g>
      <g
         id="g154"
         transform="translate(328.8066,337.958)">
        <path
           d="m 0,0 0.391,0.389 -0.248,0.246 -0.389,-0.387 0.246,-0.248 z"
           style="fill:none;stroke:#231f20;stroke-width:0.25;stroke-linecap:butt;stroke-linejoin:miter;stroke-miterlimit:4;stroke-dasharray:none;stroke-opacity:1"
           id="path156"
           inkscape:connector-curvature="0" />
      </g>
    </g>
  </g>
  <g
     transform="matrix(1.25,0,0,-1.25,-251.17575,476.39825)"
     id="g170">
    <g
       id="g172"
       clip-path="url(#clipPath174)">
      <g
         id="g178"
         transform="translate(155.3291,248.0381)">
        <path
           d="m 0,0 182.441,182.324 1.325,-1.336 -182.436,-182.32 -1.33,1.332 z"
           style="fill:#bcbec0;fill-opacity:1;fill-rule:nonzero;stroke:none"
           id="path180"
           inkscape:connector-curvature="0" />
      </g>
      <g
         id="g182"
         transform="translate(155.3291,248.0381)">
        <path
           d="m 0,0 182.441,182.324 1.325,-1.336 -182.436,-182.32 -1.33,1.332 z"
           style="fill:none;stroke:#231f20;stroke-width:0.25;stroke-linecap:butt;stroke-linejoin:miter;stroke-miterlimit:4;stroke-dasharray:none;stroke-opacity:1"
           id="path184"
           inkscape:connector-curvature="0" />
      </g>
      <g
         id="g186"
         transform="translate(230.1396,321.46)">
        <path
           d="m 0,0 c 4.551,-4.551 8.938,-7.537 9.799,-6.676 l 31.031,31.03 c 0.863,0.861 -2.127,5.25 -6.678,9.798 -4.547,4.553 -8.935,7.541 -9.797,6.678 l -31.031,-31.031 c -0.861,-0.861 2.125,-5.246 6.676,-9.799"
           style="fill:#ffffff;fill-opacity:1;fill-rule:nonzero;stroke:none"
           id="path188"
           inkscape:connector-curvature="0" />
      </g>
      <g
         id="g190"
         transform="translate(230.1396,321.46)">
        <path
           d="m 0,0 c 4.551,-4.551 8.938,-7.537 9.799,-6.676 l 31.031,31.03 c 0.863,0.861 -2.127,5.25 -6.678,9.798 -4.547,4.553 -8.935,7.541 -9.797,6.678 l -31.031,-31.031 c -0.861,-0.861 2.125,-5.246 6.676,-9.799 z"
           style="fill:none;stroke:#231f20;stroke-width:0.25;stroke-linecap:butt;stroke-linejoin:miter;stroke-miterlimit:4;stroke-dasharray:none;stroke-opacity:1"
           id="path192"
           inkscape:connector-curvature="0" />
      </g>
    </g>
  </g>
  <g
     transform="matrix(1.25,0,0,-1.25,-251.17575,476.39825)"
     id="g194">
    <g
       id="g196">
      <g
         id="g202">
        <g
           id="g204">
          <path
             d="m 225.825,330.39 c 0.611,-1.2 2.424,-3.815 5.93,-7.315 l 0,0 c 3.501,-3.509 6.113,-5.318 7.315,-5.931 l 0,0 13.718,13.72 -13.244,13.245 -13.719,-13.719 z"
             style="fill:url(#linearGradient206);stroke:none"
             id="path214"
             inkscape:connector-curvature="0" />
        </g>
      </g>
    </g>
  </g>
  <g
     transform="matrix(1.25,0,0,-1.25,-251.17575,476.39825)"
     id="g216">
    <g
       id="g218"
       clip-path="url(#clipPath220)">
      <g
         id="g224"
         transform="translate(239.5439,344.1084)">
        <path
           d="m 0,0 -13.719,-13.719 c 0.612,-1.199 2.424,-3.814 5.93,-7.314 3.502,-3.51 6.113,-5.319 7.314,-5.932 l 13.719,13.721 -13.244,13.244 z"
           style="fill:none;stroke:#231f20;stroke-width:0.25;stroke-linecap:butt;stroke-linejoin:miter;stroke-miterlimit:4;stroke-dasharray:none;stroke-opacity:1"
           id="path226"
           inkscape:connector-curvature="0" />
      </g>
    </g>
  </g>
  <g
     transform="matrix(1.25,0,0,-1.25,-251.17575,476.39825)"
     id="g228">
    <g
       id="g230">
      <g
         id="g236">
        <g
           id="g238">
          <path
             d="m 241.644,346.208 13.241,-13.248 13.724,13.723 c -0.614,1.199 -2.427,3.808 -5.931,7.314 l 0,0 c -3.503,3.508 -6.114,5.316 -7.312,5.934 l 0,0 -13.722,-13.723 z"
             style="fill:url(#linearGradient240);stroke:none"
             id="path248"
             inkscape:connector-curvature="0" />
        </g>
      </g>
    </g>
  </g>
  <g
     transform="matrix(1.25,0,0,-1.25,-251.17575,476.39825)"
     id="g250">
    <g
       id="g252"
       clip-path="url(#clipPath254)">
      <g
         id="g258"
         transform="translate(255.3662,359.9307)">
        <path
           d="m 0,0 -13.723,-13.723 13.243,-13.248 13.722,13.723 c -0.613,1.199 -2.426,3.809 -5.93,7.314 -3.503,3.508 -6.115,5.317 -7.312,5.934 z"
           style="fill:none;stroke:#231f20;stroke-width:0.25;stroke-linecap:butt;stroke-linejoin:miter;stroke-miterlimit:4;stroke-dasharray:none;stroke-opacity:1"
           id="path260"
           inkscape:connector-curvature="0" />
      </g>
      <g
         id="g262"
         transform="translate(254.4951,362.29)">
        <path
           d="m 0,0 -6.928,-6.926 16.479,-16.478 6.924,6.927 c 0.863,0.862 -2.127,5.25 -6.678,9.799 -4.547,4.553 -8.936,7.541 -9.797,6.678"
           style="fill:#58595b;fill-opacity:1;fill-rule:nonzero;stroke:none"
           id="path264"
           inkscape:connector-curvature="0" />
      </g>
      <g
         id="g266"
         transform="translate(254.4951,362.29)">
        <path
           d="m 0,0 -6.928,-6.926 16.479,-16.478 6.924,6.927 c 0.863,0.862 -2.127,5.25 -6.678,9.799 -4.547,4.553 -8.936,7.541 -9.797,6.678 z"
           style="fill:none;stroke:#231f20;stroke-width:0.32600001;stroke-linecap:round;stroke-linejoin:round;stroke-miterlimit:4;stroke-dasharray:none;stroke-opacity:1"
           id="path268"
           inkscape:connector-curvature="0" />
      </g>
      <g
         id="g270"
         transform="translate(246.8311,336.8213)">
        <path
           d="m 0,0 2.102,2.1 -1.331,1.328 -2.103,-2.096 1.332,-1.332 z"
           style="fill:#bcbec0;fill-opacity:1;fill-rule:nonzero;stroke:none"
           id="path272"
           inkscape:connector-curvature="0" />
      </g>
      <g
         id="g274"
         transform="translate(246.8311,336.8213)">
        <path
           d="m 0,0 2.102,2.1 -1.331,1.328 -2.103,-2.096 1.332,-1.332 z"
           style="fill:none;stroke:#231f20;stroke-width:0.25;stroke-linecap:butt;stroke-linejoin:miter;stroke-miterlimit:4;stroke-dasharray:none;stroke-opacity:1"
           id="path276"
           inkscape:connector-curvature="0" />
      </g>
    </g>
  </g>
</svg>
