<?xml version="1.0" encoding="UTF-8"?>
<!-- Created with Inkscape (http://www.inkscape.org/) -->
<svg width="200" height="190" version="1.1" viewBox="0 0 200 190" xml:space="preserve" xmlns="http://www.w3.org/2000/svg" xmlns:cc="http://creativecommons.org/ns#" xmlns:dc="http://purl.org/dc/elements/1.1/" xmlns:rdf="http://www.w3.org/1999/02/22-rdf-syntax-ns#"><metadata><rdf:RDF><cc:Work rdf:about=""><dc:format>image/svg+xml</dc:format><dc:type rdf:resource="http://purl.org/dc/dcmitype/StillImage"/><dc:title/></cc:Work></rdf:RDF></metadata><g transform="matrix(1.3333 0 0 -1.3333 -304.32 633.8)" fill="#808080" font-size="7.08px"><text transform="matrix(1,0,0,-1,251.4,430.68)" font-family="Helvetica"><tspan x="0 3.9600055 7.920011 11.880016" y="0">220</tspan></text>
<text transform="matrix(1,0,0,-1,265.32,430.68)" font-family="TT35o00"><tspan x="0" y="0">Ω</tspan></text>
<text transform="matrix(1,0,0,-1,236.76,340.44)" font-family="Helvetica"><tspan x="0 5.7600026 11.160015 79.080009 84.840004 90.240013" y="0">GNDGND</tspan><tspan x="93.599998 97.560005 101.64001" y="-90.239998">10K</tspan><tspan x="78.599998 82.679993 86.760002" y="-120.48">+5V</tspan><tspan x="14.76 18.960005 23.880003" y="-47.16">LED</tspan><tspan x="14.76 20.160013 25.080009 30.000006 32.039993 36.959991 41.399982 47.159969 93.719963 99.119972 104.03997 108.95997 110.99995 115.91995 120.35994 126.11993 131.39995" y="-83.040001">RESISTORRESISTOR</tspan><tspan x="93.720001 98.639999 104.04001 109.8 114.23999 119.99998 125.39999 130.31999 134.51999" y="-47.16">PHOTOCELL</tspan><tspan x="25.440001 30.359997 32.399986 37.679996" y="-115.44">PIN9</tspan><tspan x="117.48 122.28" y="-66.480003">A0</tspan></text>
</g><g transform="matrix(1.3333,0,0,-1.3333,-312.32,643.8)" fill="none" stroke-linecap="round" stroke-linejoin="round" stroke-miterlimit="10"><g stroke="#800000"><g stroke-width=".72"><path d="m253.8 402.3-3.6-7.2"/><path d="m250.2 395.1-3.6 7.2"/><path d="m253.8 395.1h-3.6"/><path d="m250.2 395.1h-3.6"/><path d="m253.8 402.3h-3.6"/><path d="m250.2 402.3h-3.6"/></g><g stroke-width=".48"><path d="m250.2 402.3v-7.2"/><path d="m244.44 400.14-3.96-3.96"/><path d="m244.8 396.9-3.96-3.96"/><path d="m250.2 387.9v7.2"/><path d="m250.2 409.5v-7.2"/><path d="m240.48 396.18 1.08 2.52"/><path d="m241.56 398.7 1.44-1.44"/><path d="m243 397.26-2.52-1.08"/><path d="m240.48 396.18h0.12"/><path d="m240.6 396.42h0.48"/><path d="m240.72 396.66h0.96"/><path d="m240.84 396.9h1.44"/><path d="m240.84 397.14h2.04"/><path d="m240.96 397.38h1.8"/><path d="m241.08 397.74h1.44"/><path d="m241.2 397.98h1.08"/><path d="m241.32 398.22h0.72"/><path d="m241.44 398.46h0.36"/><path d="m240.84 392.94 1.08 2.52"/><path d="m241.92 395.46 1.44-1.44"/><path d="m243.36 394.02-2.52-1.08"/><path d="m240.96 393.18h0.48"/><path d="m241.08 393.42h0.84"/><path d="m241.08 393.66h1.44"/><path d="m241.2 393.9h1.92"/><path d="m241.32 394.14h1.8"/><path d="m241.44 394.38h1.44"/><path d="m241.56 394.62h1.08"/><path d="m241.68 394.98h0.72"/><path d="m241.8 395.22h0.36"/><path d="m241.92 395.46h0.12"/></g><g stroke-width=".6"><path d="m250.2 430.98-2.88 1.08"/><path d="m247.32 432.06 5.76 1.8"/><path d="m253.08 433.86-5.76 1.8"/><path d="m247.32 435.66 5.76 1.8"/><path d="m253.08 437.46-5.76 1.8"/><path d="m247.32 439.26 5.76 1.8"/><path d="m253.08 441.06-5.76 1.8"/><path d="m247.32 442.86 5.76 1.8"/><path d="m253.08 444.66-2.88 0.72"/></g><path d="m250.2 452.58v-7.2" stroke-width=".48"/><path d="m250.2 423.78v7.2" stroke-width=".48"/><g stroke-width=".72"><path d="m246.6 359.1h7.2"/><path d="m253.8 359.1-3.6-3.6"/><path d="m250.2 355.5-3.6 3.6"/></g><path d="m250.2 366.3v-7.2" stroke-width=".48"/><g stroke-width=".72"><path d="m325.68 359.1h7.08"/><path d="m332.76 359.1-3.6-3.6"/><path d="m329.16 355.5-3.48 3.6"/></g><path d="m329.16 366.3v-7.2" stroke-width=".48"/><g stroke-width=".6"><path d="m329.16 430.98-2.76 1.08"/><path d="m326.4 432.06 5.64 1.8"/><path d="m332.04 433.86-5.64 1.8"/><path d="m326.4 435.66 5.64 1.8"/><path d="m332.04 437.46-5.64 1.8"/><path d="m326.4 439.26 5.64 1.8"/><path d="m332.04 441.06-5.64 1.8"/><path d="m326.4 442.86 5.64 1.8"/><path d="m332.04 444.66-2.88 0.72"/></g><g stroke-width=".48"><path d="m329.16 452.58v-7.2"/><path d="m329.16 423.78v7.2"/><path d="m320.64 401.94 3.96-3.96"/><path d="m320.28 398.7 3.96-3.96"/></g><g stroke-width=".72"><path d="m329.16 387.9-2.76 1.8"/><path d="m332.04 391.86-5.64 2.16"/><path d="m326.4 394.02 5.64 2.16"/><path d="m332.04 396.18-5.64 2.16"/><path d="m326.4 398.34 5.64 2.16"/><path d="m329.16 402.3 2.88-1.8"/><path d="m326.4 389.7 5.64 2.16"/></g><g stroke-width=".48"><path d="m329.16 409.5v-7.2"/><path d="m329.16 380.7v7.2"/><path d="m324.24 394.74-2.52 1.08"/><path d="m321.72 395.82 1.44 1.44"/><path d="m323.16 397.26 1.08-2.52"/><path d="m323.64 394.98h0.48"/><path d="m323.16 395.22h0.84"/><path d="m322.56 395.46h1.32"/><path d="m321.96 395.7h1.8"/><path d="m321.84 395.94h1.8"/><path d="m322.08 396.18h1.44"/><path d="m322.32 396.42h1.08"/><path d="m322.56 396.66h0.84"/><path d="m322.8 396.9h0.48"/><path d="m323.04 397.14h0.12"/><path d="m324.6 397.98-2.52 1.08"/><path d="m322.08 399.06 1.44 1.44"/><path d="m323.52 400.5 1.08-2.52"/><path d="m324 398.22h0.48"/><path d="m323.4 398.46h0.96"/><path d="m322.8 398.7h1.44"/><path d="m322.2 398.94h1.92"/><path d="m322.2 399.18h1.8"/><path d="m322.44 399.42h1.44"/><path d="m322.68 399.66h1.08"/><path d="m322.92 399.9h0.72"/><path d="m323.16 400.14h0.48"/><path d="m323.4 400.5h0.12"/></g><path d="m332.76 461.58-3.6 5.4" stroke-width=".72"/><path d="m329.16 466.98-3.48-5.4" stroke-width=".72"/><path d="m329.16 459.78v7.2" stroke-width=".48"/></g><g stroke="#008000" stroke-width=".48"><path d="m250.2 366.3v21.6"/><path d="m329.16 380.7v-14.4"/><path d="m250.2 409.5v14.28"/><path d="m250.2 452.58v14.4"/><path d="m250.2 466.98h14.28"/><path d="m329.16 423.78v-7.2"/><path d="m329.16 416.58v-7.08"/><path d="m329.16 416.58h28.8"/></g></g><path d="m128.47 88.374c0 1.12-0.79998 1.92-1.92 1.92s-1.92-0.79998-1.92-1.92 0.79998-1.92 1.92-1.92 1.92 0.79998 1.92 1.92" fill="#008000" fill-rule="evenodd" stroke-width="1.3333"/><path d="m128.47 88.374c0 1.12-0.79998 1.92-1.92 1.92s-1.92-0.79998-1.92-1.92 0.79998-1.92 1.92-1.92 1.92 0.79998 1.92 1.92z" fill="none" stroke="#008000" stroke-linecap="round" stroke-linejoin="round" stroke-miterlimit="10" stroke-width=".16"/><path d="m126.55 30.775v9.5998" fill="none" stroke="#008000" stroke-linecap="round" stroke-linejoin="round" stroke-miterlimit="10" stroke-width=".63998"/></svg>
