<?xml version="1.0" encoding="UTF-8"?>
<!-- Created with Inkscape (http://www.inkscape.org/) -->
<svg width="190" height="170" version="1.1" viewBox="0 0 190 170" xml:space="preserve" xmlns="http://www.w3.org/2000/svg" xmlns:cc="http://creativecommons.org/ns#" xmlns:dc="http://purl.org/dc/elements/1.1/" xmlns:rdf="http://www.w3.org/1999/02/22-rdf-syntax-ns#"><metadata><rdf:RDF><cc:Work rdf:about=""><dc:format>image/svg+xml</dc:format><dc:type rdf:resource="http://purl.org/dc/dcmitype/StillImage"/><dc:title/></cc:Work></rdf:RDF></metadata><g transform="matrix(1.3333 0 0 -1.3333 -316.64 627.32)"><g transform="translate(3,3)" fill="#808080" font-size="7.08px"><text transform="matrix(1,0,0,-1,297.48,343.08)" font-family="Helvetica"><tspan x="0 5.7599878 11.16" y="0">GND</tspan></text>
<text transform="matrix(0,1,1,0,243.84,422.4)" font-family="Helvetica"><tspan x="0 3.9600055 7.920011 11.880016" y="0">220</tspan></text>
<text transform="matrix(0,1,1,0,243.84,436.32)" font-family="TT1Bo00"><tspan x="0" y="0">Ω</tspan></text>
<text transform="matrix(0,1,1,0,272.64,422.4)" font-family="Helvetica"><tspan x="0 3.9600055 7.920011 11.880016" y="0">220</tspan></text>
<text transform="matrix(0,1,1,0,272.64,436.32)" font-family="TT1Bo00"><tspan x="0" y="0">Ω</tspan></text>
<text transform="matrix(0,1,1,0,301.32,422.4)" font-family="Helvetica"><tspan x="0 3.9600055 7.920011 11.880016" y="0">220</tspan></text>
<text transform="matrix(0,1,1,0,301.32,436.32)" font-family="TT1Bo00"><tspan x="0" y="0">Ω</tspan></text>
<text transform="matrix(0,1,1,0,330.12,422.4)" font-family="Helvetica"><tspan x="0 3.9600055 7.920011 11.880016" y="0">220</tspan></text>
<text transform="matrix(0,1,1,0,330.12,436.32)" font-family="TT1Bo00"><tspan x="0" y="0">Ω</tspan></text>
<text transform="matrix(0,1,1,0,358.92,422.4)" font-family="Helvetica"><tspan x="0 3.9600055 7.920011 11.880016" y="0">220</tspan></text>
<text transform="matrix(0,1,1,0,358.92,436.32)" font-family="TT1Bo00"><tspan x="0" y="0">Ω</tspan></text>
<text transform="matrix(0,1,1,0,258.24,393.84)" font-family="Helvetica"><tspan x="0 4.2000055 9.1200018 14.400014" y="0">LED1</tspan><tspan x="0 4.2000055 9.1200018 14.400014" y="28.799999">LED2</tspan><tspan x="0 4.2000055 9.1200018 14.400014" y="57.48">LED3</tspan><tspan x="0 4.2000055 9.1200018 14.400014" y="86.279999">LED4</tspan><tspan x="0 4.2000055 9.1200018 14.400014" y="114.96">LED5</tspan></text>
<text transform="matrix(1,0,0,-1,240.36,458.4)" font-family="Helvetica"><tspan x="0 4.9199967 6.9599848 12.239997 28.799974 33.719971 35.75996 41.03997 57.479946 62.39994 64.439926 69.71994 86.279922 91.199913 93.239906 98.519913 115.0799 119.99989 122.03988 127.31989" y="0">PIN2PIN3PIN4PIN5PIN6</tspan></text>
</g><g fill="none" stroke-linecap="round" stroke-linejoin="round" stroke-miterlimit="10"><g stroke="#800000"><g stroke-width=".72"><path d="m304.32 357.12h7.2"/><path d="m311.52 357.12-3.6-3.48"/><path d="m307.92 353.64-3.6 3.48"/></g><path d="m307.92 364.32v-7.2" stroke-width=".48"/><g stroke-width=".6"><path d="m250.44 429-2.88 1.08"/><path d="m247.56 430.08 5.76 1.8"/><path d="m253.32 431.88-5.76 1.8"/><path d="m247.56 433.68 5.76 1.8"/><path d="m253.32 435.48-5.76 1.8"/><path d="m247.56 437.28 5.76 1.8"/><path d="m253.32 439.08-5.76 1.8"/><path d="m247.56 440.88 5.76 1.8"/><path d="m253.32 442.68-2.88 0.72"/></g><path d="m250.44 450.6v-7.2" stroke-width=".48"/><path d="m250.44 421.8v7.2" stroke-width=".48"/><g stroke-width=".72"><path d="m254.04 407.52-3.6-7.2"/><path d="m250.44 400.32-3.6 7.2"/><path d="m254.04 400.32h-3.6"/><path d="m250.44 400.32h-3.6"/><path d="m254.04 407.52h-3.6"/><path d="m250.44 407.52h-3.6"/></g><g stroke-width=".48"><path d="m250.44 407.52v-7.2"/><path d="m244.68 405.36-3.96-3.96"/><path d="m245.04 402.12-3.96-3.96"/><path d="m250.44 393.12v7.2"/><path d="m250.44 414.72v-7.2"/><path d="m240.72 401.4 1.08 2.52"/><path d="m241.8 403.92 1.44-1.44"/><path d="m243.24 402.48-2.52-1.08"/><path d="m240.84 401.52h0.36"/><path d="m240.96 401.76h0.84"/><path d="m241.08 402h1.32"/><path d="m241.2 402.36h1.8"/><path d="m241.32 402.6h1.8"/><path d="m241.32 402.84h1.56"/><path d="m241.44 403.08h1.2"/><path d="m241.56 403.32h0.84"/><path d="m241.68 403.56h0.48"/><path d="m241.8 403.8h0.12"/><path d="m241.08 398.16 1.08 2.52"/><path d="m242.16 400.68 1.44-1.44"/><path d="m243.6 399.24-2.52-1.08"/><path d="m241.2 398.28h0.24"/><path d="m241.32 398.52h0.72"/><path d="m241.44 398.76h1.2"/><path d="m241.56 399h1.68"/><path d="m241.56 399.24h2.04"/><path d="m241.68 399.48h1.68"/><path d="m241.8 399.84h1.2"/><path d="m241.92 400.08h0.84"/><path d="m242.04 400.32h0.48"/><path d="m242.16 400.56h0.12"/></g><g stroke-width=".6"><path d="m279.24 429-2.88 1.08"/><path d="m276.36 430.08 5.76 1.8"/><path d="m282.12 431.88-5.76 1.8"/><path d="m276.36 433.68 5.76 1.8"/><path d="m282.12 435.48-5.76 1.8"/><path d="m276.36 437.28 5.76 1.8"/><path d="m282.12 439.08-5.76 1.8"/><path d="m276.36 440.88 5.76 1.8"/><path d="m282.12 442.68-2.88 0.72"/></g><path d="m279.24 450.6v-7.2" stroke-width=".48"/><path d="m279.24 421.8v7.2" stroke-width=".48"/><g stroke-width=".6"><path d="m307.92 429-2.88 1.08"/><path d="m305.04 430.08 5.76 1.8"/><path d="m310.8 431.88-5.76 1.8"/><path d="m305.04 433.68 5.76 1.8"/><path d="m310.8 435.48-5.76 1.8"/><path d="m305.04 437.28 5.76 1.8"/><path d="m310.8 439.08-5.76 1.8"/><path d="m305.04 440.88 5.76 1.8"/><path d="m310.8 442.68-2.88 0.72"/></g><path d="m307.92 450.6v-7.2" stroke-width=".48"/><path d="m307.92 421.8v7.2" stroke-width=".48"/><g stroke-width=".6"><path d="m336.72 429-2.88 1.08"/><path d="m333.84 430.08 5.76 1.8"/><path d="m339.6 431.88-5.76 1.8"/><path d="m333.84 433.68 5.76 1.8"/><path d="m339.6 435.48-5.76 1.8"/><path d="m333.84 437.28 5.76 1.8"/><path d="m339.6 439.08-5.76 1.8"/><path d="m333.84 440.88 5.76 1.8"/><path d="m339.6 442.68-2.88 0.72"/></g><path d="m336.72 450.6v-7.2" stroke-width=".48"/><path d="m336.72 421.8v7.2" stroke-width=".48"/><g stroke-width=".72"><path d="m282.84 407.52-3.6-7.2"/><path d="m279.24 400.32-3.6 7.2"/><path d="m282.84 400.32h-3.6"/><path d="m279.24 400.32h-3.6"/><path d="m282.84 407.52h-3.6"/><path d="m279.24 407.52h-3.6"/></g><g stroke-width=".48"><path d="m279.24 407.52v-7.2"/><path d="m273.48 405.36-3.96-3.96"/><path d="m273.84 402.12-3.96-3.96"/><path d="m279.24 393.12v7.2"/><path d="m279.24 414.72v-7.2"/><path d="m269.52 401.4 1.08 2.52"/><path d="m270.6 403.92 1.44-1.44"/><path d="m272.04 402.48-2.52-1.08"/><path d="m269.64 401.52h0.24"/><path d="m269.64 401.76h0.84"/><path d="m269.76 402h1.32"/><path d="m269.88 402.36h1.8"/><path d="m270 402.6h1.92"/><path d="m270.12 402.84h1.56"/><path d="m270.24 403.08h1.2"/><path d="m270.36 403.32h0.84"/><path d="m270.48 403.56h0.48"/><path d="m270.6 403.8h0.12"/><path d="m269.88 398.16 1.08 2.52"/><path d="m270.96 400.68 1.44-1.44"/><path d="m272.4 399.24-2.52-1.08"/><path d="m269.88 398.28h0.36"/><path d="m270 398.52h0.84"/><path d="m270.12 398.76h1.32"/><path d="m270.24 399h1.68"/><path d="m270.36 399.24h1.92"/><path d="m270.48 399.48h1.56"/><path d="m270.6 399.84h1.2"/><path d="m270.72 400.08h0.84"/><path d="m270.84 400.32h0.48"/><path d="m270.96 400.56h0.12"/></g><g stroke-width=".72"><path d="m311.52 407.52-3.6-7.2"/><path d="m307.92 400.32-3.6 7.2"/><path d="m311.52 400.32h-3.6"/><path d="m307.92 400.32h-3.6"/><path d="m311.52 407.52h-3.6"/><path d="m307.92 407.52h-3.6"/></g><g stroke-width=".48"><path d="m307.92 407.52v-7.2"/><path d="m302.16 405.36-3.96-3.96"/><path d="m302.52 402.12-3.96-3.96"/><path d="m307.92 393.12v7.2"/><path d="m307.92 414.72v-7.2"/><path d="m298.2 401.4 1.08 2.52"/><path d="m299.28 403.92 1.44-1.44"/><path d="m300.72 402.48-2.52-1.08"/><path d="m298.32 401.52h0.36"/><path d="m298.44 401.76h0.84"/><path d="m298.56 402h1.32"/><path d="m298.68 402.36h1.8"/><path d="m298.8 402.6h1.92"/><path d="m298.92 402.84h1.44"/><path d="m299.04 403.08h1.08"/><path d="m299.04 403.32h0.84"/><path d="m299.16 403.56h0.48"/><path d="m299.28 403.8h0.12"/><path d="m298.56 398.16 1.08 2.52"/><path d="m299.64 400.68 1.44-1.44"/><path d="m301.08 399.24-2.52-1.08"/><path d="m298.68 398.28h0.24"/><path d="m298.8 398.52h0.72"/><path d="m298.92 398.76h1.2"/><path d="m299.04 399h1.68"/><path d="m299.16 399.24h1.92"/><path d="m299.28 399.48h1.56"/><path d="m299.28 399.84h1.32"/><path d="m299.4 400.08h0.96"/><path d="m299.52 400.32h0.48"/><path d="m299.64 400.56h0.12"/></g><g stroke-width=".72"><path d="m340.32 407.52-3.6-7.2"/><path d="m336.72 400.32-3.6 7.2"/><path d="m340.32 400.32h-3.6"/><path d="m336.72 400.32h-3.6"/><path d="m340.32 407.52h-3.6"/><path d="m336.72 407.52h-3.6"/></g><g stroke-width=".48"><path d="m336.72 407.52v-7.2"/><path d="m330.96 405.36-3.96-3.96"/><path d="m331.32 402.12-3.96-3.96"/><path d="m336.72 393.12v7.2"/><path d="m336.72 414.72v-7.2"/><path d="m327 401.4 1.08 2.52"/><path d="m328.08 403.92 1.44-1.44"/><path d="m329.52 402.48-2.52-1.08"/><path d="m327.12 401.52h0.36"/><path d="m327.24 401.76h0.72"/><path d="m327.36 402h1.2"/><path d="m327.36 402.36h1.8"/><path d="m327.48 402.6h1.92"/><path d="m327.6 402.84h1.56"/><path d="m327.72 403.08h1.2"/><path d="m327.84 403.32h0.84"/><path d="m327.96 403.56h0.48"/><path d="m328.08 403.8h0.12"/><path d="m327.36 398.16 1.08 2.52"/><path d="m328.44 400.68 1.44-1.44"/><path d="m329.88 399.24-2.52-1.08"/><path d="m327.48 398.28h0.24"/><path d="m327.48 398.52h0.84"/><path d="m327.6 398.76h1.32"/><path d="m327.72 399h1.8"/><path d="m327.84 399.24h1.92"/><path d="m327.96 399.48h1.56"/><path d="m328.08 399.84h1.2"/><path d="m328.2 400.08h0.84"/><path d="m328.32 400.32h0.48"/><path d="m328.44 400.56h0.12"/></g><g stroke-width=".72"><path d="m369 407.52-3.48-7.2"/><path d="m365.52 400.32-3.6 7.2"/><path d="m369 400.32h-3.48"/><path d="m365.52 400.32h-3.6"/><path d="m369 407.52h-3.48"/><path d="m365.52 407.52h-3.6"/></g><g stroke-width=".48"><path d="m365.52 407.52v-7.2"/><path d="m359.76 405.36-3.96-3.96"/><path d="m360.12 402.12-3.96-3.96"/><path d="m365.52 393.12v7.2"/><path d="m365.52 414.72v-7.2"/><path d="m355.8 401.4 1.08 2.52"/><path d="m356.88 403.92 1.44-1.44"/><path d="m358.32 402.48-2.52-1.08"/><path d="m355.8 401.52h0.36"/><path d="m355.92 401.76h0.84"/><path d="m356.04 402h1.32"/><path d="m356.16 402.36h1.8"/><path d="m356.28 402.6h1.92"/><path d="m356.4 402.84h1.56"/><path d="m356.52 403.08h1.2"/><path d="m356.64 403.32h0.72"/><path d="m356.64 403.56h0.48"/><path d="m356.76 403.8h0.12"/><path d="m356.16 398.16 1.08 2.52"/><path d="m357.24 400.68 1.44-1.44"/><path d="m358.68 399.24-2.52-1.08"/><path d="m356.16 398.28h0.36"/><path d="m356.28 398.52h0.72"/><path d="m356.4 398.76h1.2"/><path d="m356.52 399h1.68"/><path d="m356.64 399.24h1.92"/><path d="m356.76 399.48h1.56"/><path d="m356.88 399.84h1.2"/><path d="m356.88 400.08h0.96"/><path d="m357 400.32h0.6"/><path d="m357.12 400.56h0.24"/></g><g stroke-width=".6"><path d="m365.52 429-2.88 1.08"/><path d="m362.64 430.08 5.64 1.8"/><path d="m368.28 431.88-5.64 1.8"/><path d="m362.64 433.68 5.64 1.8"/><path d="m368.28 435.48-5.64 1.8"/><path d="m362.64 437.28 5.64 1.8"/><path d="m368.28 439.08-5.64 1.8"/><path d="m362.64 440.88 5.64 1.8"/><path d="m368.28 442.68-2.76 0.72"/></g><path d="m365.52 450.6v-7.2" stroke-width=".48"/><path d="m365.52 421.8v7.2" stroke-width=".48"/></g><g stroke="#008000" stroke-width=".48"><path d="m250.44 393.12v-14.4"/><path d="m250.44 378.72h28.8"/><path d="m279.24 378.72h28.68"/><path d="m307.92 378.72h28.8"/><path d="m336.72 378.72h28.8"/><path d="m365.52 378.72v14.4"/><path d="m307.92 378.72v-14.4"/></g></g><path d="m309.36 378.72c0-0.84-0.6-1.44-1.44-1.44s-1.44 0.6-1.44 1.44 0.6 1.44 1.44 1.44 1.44-0.6 1.44-1.44" fill="#008000" fill-rule="evenodd"/><g fill="none" stroke="#008000" stroke-linecap="round" stroke-linejoin="round" stroke-miterlimit="10"><path d="m309.36 378.72c0-0.84-0.6-1.44-1.44-1.44s-1.44 0.6-1.44 1.44 0.6 1.44 1.44 1.44 1.44-0.6 1.44-1.44z" stroke-width=".12"/><path d="m307.92 393.12v-14.4" stroke-width=".48"/><path d="m279.24 393.12v-14.4" stroke-width=".48"/></g><path d="m280.68 378.72c0-0.84-0.6-1.44-1.44-1.44s-1.44 0.6-1.44 1.44 0.6 1.44 1.44 1.44 1.44-0.6 1.44-1.44" fill="#008000" fill-rule="evenodd"/><path d="m280.68 378.72c0-0.84-0.6-1.44-1.44-1.44s-1.44 0.6-1.44 1.44 0.6 1.44 1.44 1.44 1.44-0.6 1.44-1.44z" fill="none" stroke="#008000" stroke-linecap="round" stroke-linejoin="round" stroke-miterlimit="10" stroke-width=".12"/><path d="m336.72 393.12v-14.4" fill="none" stroke="#008000" stroke-linecap="round" stroke-linejoin="round" stroke-miterlimit="10" stroke-width=".48"/><path d="m338.16 378.72c0-0.84-0.6-1.44-1.44-1.44s-1.44 0.6-1.44 1.44 0.6 1.44 1.44 1.44 1.44-0.6 1.44-1.44" fill="#008000" fill-rule="evenodd"/><g fill="none" stroke="#008000" stroke-linecap="round" stroke-linejoin="round" stroke-miterlimit="10"><path d="m338.16 378.72c0-0.84-0.6-1.44-1.44-1.44s-1.44 0.6-1.44 1.44 0.6 1.44 1.44 1.44 1.44-0.6 1.44-1.44z" stroke-width=".12"/><g stroke-width=".48"><path d="m250.44 421.8v-7.08"/><path d="m279.24 421.8v-7.08"/><path d="m307.92 421.8v-7.08"/><path d="m336.72 421.8v-7.08"/><path d="m365.52 421.8v-7.08"/><path d="m250.44 450.6v7.2"/><path d="m279.24 450.6v7.2"/><path d="m307.92 450.6v7.2"/><path d="m336.72 450.6v7.2"/><path d="m365.52 450.6v7.2"/></g></g></g></svg>
