<?xml version="1.0" encoding="UTF-8"?>
<!-- Created with Inkscape (http://www.inkscape.org/) -->
<svg width="171.6mm" height="108.98mm" version="1.1" viewBox="0 0 171.6 108.98" xmlns="http://www.w3.org/2000/svg" xmlns:cc="http://creativecommons.org/ns#" xmlns:dc="http://purl.org/dc/elements/1.1/" xmlns:rdf="http://www.w3.org/1999/02/22-rdf-syntax-ns#">
 <metadata>
  <rdf:RDF>
   <cc:Work rdf:about="">
    <dc:format>image/svg+xml</dc:format>
    <dc:type rdf:resource="http://purl.org/dc/dcmitype/StillImage"/>
    <dc:title/>
   </cc:Work>
  </rdf:RDF>
 </metadata>
 <g transform="translate(-26.022 -48.54)">
  <g transform="translate(9.0641 -11.374)">
   <g>
    <path transform="matrix(.26458 0 0 .26458 -19.488 4.9595)" d="m398.76 207.7c0.43398 0.27162 0.94968 0.56746 1.6113 0.9043 0.39173 0.19944 0.0801-0.31925-0.31055-0.9043zm113.26 84.525c-48.278-0.0255-49.132 0.01-57.887 2.3242-4.8873 1.2918-12.659 3.9286-17.271 5.8594-8.6428 3.6179-10.314 4.5825-43.51 25.113l-19.668 12.162-17.332 1.0449c-68.084 4.1005-123.14 17.593-172.33 42.23-12.093 6.0572-19.219 10.807-28.98 19.32-8.187 7.1403-10.41 11.38-12.621 24.078-0.65233 3.7459-2.0089 7.9427-3.0137 9.3262-1.4479 1.9937-1.7801 4.0959-1.6055 10.137 0.21531 7.4468 0.3297 7.7608 4.9707 13.666 2.6125 3.3241 4.75 6.6795 4.75 7.4551 0 0.77556-1.125 2.4662-2.5 3.7578-2.0422 1.9186-2.5 3.2968-2.5 7.5254 0 9.1992 1.3288 11.296 9.5781 15.107 4.01 1.8527 7.7433 3.3672 8.2969 3.3672 2.6286 0 1.8388 2.4847-2.4629 7.748-7.3732 9.0215-8.7899 13.69-5.8672 19.342 1.2477 2.4128 4.6741 4.5112 17.75 10.875 28.334 13.789 67.155 30.791 78.549 34.398 9.0299 2.8594 33.127 8.8631 44.156 11.002 7.2683 1.4095 37.058-0.35452 64-3.791 102.55-13.08 128.66-17.071 162-24.75 34.088-7.8525 49.446-13.213 82.49-28.795 6.0447-2.8502 21.737-9.4801 34.871-14.734l23.881-9.5547 6.1289 0.83984c12.689 1.7384 26.746-0.23661 27.443-3.8555 0.31026-1.611-1.3644-2.656-8.6777-5.4141-2.01-0.75798 0.30667-1.9124 15.5-7.7266 34.791-13.314 59.798-26.15 76.102-39.066 11.842-9.3814 13.012-13.489 4.6641-16.359-7.4398-2.5577-33.048-7.9347-48.688-10.223-8.6436-1.2645-15.705-2.5546-15.689-2.8672 0.0142-0.31264 2.3577-2.1434 5.207-4.0684 13.719-9.268 19.067-15.091 20.838-22.686 0.93286-3.9998-0.39573-21.931-2.1035-28.379-0.51931-1.9608-2.1173-4.6608-3.5508-6-1.4334-1.3392-3.2266-3.6258-3.9844-5.082-2.1107-4.0562-8.7667-6.6416-25.572-9.9316-8.4483-1.6539-17.055-3.4576-19.127-4.0078-5.0574-1.343-21.802-11.208-29.232-17.221-12.596-10.194-22.692-13.613-50.5-17.105-36.362-4.5666-45.296-5.0357-96.5-5.0625zm260.46 327.01c0.016 0.29319 0.0309 0.4879 0.043 0.25586 4e-3 -0.0852 5e-3 -0.17059 8e-3 -0.25586z" fill="#ccc"/>
    <path transform="matrix(.26458 0 0 .26458 -19.488 4.9595)" d="m479.47 293.9c-7.507-0.0298-13.595 0.44013-17.816 1.4199l-7.6387 1.7734 23.5 1.2422c26.626 1.4073 30 1.8463 30 3.9082 0 0.80007-0.18534 1.4551-0.41211 1.4551-0.22662 1e-5 -3.7623 0.64068-7.8555 1.4238-12.01 2.2978-24.518 8.734-34.424 17.711-4.8964 4.4373-5.5041 4.6008-19.309 5.2168-12.37 0.55195-29.438 4.0665-54.895 11.301-2.9896 0.84958 0.2146 1.51 14.031 2.8945 7.8998 0.79162 20.622 2.5899 28.271 3.9961 21.517 3.9554 22.955 5.7885 5.334 6.7949-21.919 1.2519-73.789 8.2442-109.24 14.725-48.146 8.8006-72.136 16.603-115.42 37.539-9.5814 4.6343-18.131 8.1936-19 7.9102-0.86863-0.28342-6.4936-5.4781-12.5-11.543-7.4871-7.56-11.244-10.704-11.949-9.998-0.70564 0.70567-0.69839 1.0293 0.0215 1.0293 0.57751 0 3.4508 2.7612 6.3867 6.1367l5.3379 6.1387-3.0469 2.6133c-1.6761 1.437-4.7646 3.9322-6.8633 5.5449-4.544 3.492-4.127 3.8053 7.4727 5.6367 6.1156 0.96555 7.893 1.6834 10 4.041 1.4094 1.577 4.025 4.4401 5.8125 6.3613s3.25 3.7252 3.25 4.0098c0 1.6593-8.3342 0.15132-13.072-2.3652-2.9852-1.5856-7.6777-3.1586-10.428-3.4961l-5-0.61328-13 9.4844c-7.15 5.2167-13.739 9.4885-14.643 9.4961-0.90366 6e-3 -1.9162 0.71915-2.248 1.584-0.72987 1.902 0.60134 4.616 4.8672 9.9277 5.7799 7.1972 5.9415 7.9541 2.5332 11.836-2.4726 2.8161-3.0082 4.2984-2.9961 8.2969 0.0226 7.4734 1.442 9.2435 10.486 13.082 11.534 4.8953 11.723 5.2056 6.7832 11.064-9.3589 11.099-10.776 17.217-5.0098 21.615 3.5826 2.7326 28.462 14.55 61.227 29.08 27.099 12.018 41.87 16.753 69 22.127 19.335 3.8296 27.031 3.2058 131-10.633 55.138-7.339 69.342-9.6733 97.766-16.072 34.207-7.7009 57.429-15.718 83.734-28.904 4.125-2.0678 19.56-8.5826 34.301-14.479l26.801-10.721 6.5606 1.2383c8.5165 1.6069 22.338 0.412 22.338-1.9316 0-0.37821-2.5875-1.3441-5.75-2.1445-3.6413-0.92163-5.75-1.9791-5.75-2.8848 0-1.469 2.4185-2.5423 28.5-12.648 30.484-11.812 60.061-27.85 72.062-39.076 5.4057-5.0564 5.9811-6.7157 2.9062-8.3613-3.7172-1.9894-31.294-7.8256-49.498-10.475-9.8838-1.4383-18.527-2.7982-19.205-3.0234-1.9101-0.63462-0.53357-2.899 3.0156-4.9629 4.5436-2.6422 11.331-8.0549 17.51-13.963 6.901-6.599 8.6995-12.094 7.248-22.137-0.55041-3.808-1.0082-7.2613-1.0195-7.6738-0.0109-0.41249-0.99052-0.75-2.1758-0.75-2.0244 1e-5 -2.0547-0.11021-0.5-1.8281 2.3592-2.6069 2.0474-6.5536-0.78516-9.9199-1.8302-2.1751-4.6453-3.5551-11.25-5.5195-4.8449-1.441-10.295-2.9118-12.111-3.2676-1.8743-0.36701-3.1282-1.147-2.8965-1.8047 0.6042-1.716 9.4167-0.8641 14.576 1.4102 5.2429 2.311 5.7313 2.368 4.168 0.48437-1.7749-2.1387-8.5882-4.0998-27.545-7.9297-16.12-3.2568-17.492-3.7201-26.5-8.9648-5.225-3.042-11.916-7.473-14.869-9.8457-8.3094-6.6771-14.887-10.573-21.539-12.756-7.2562-2.3811-41.592-6.9302-57.092-7.5644-10.323-0.42243-9.6932-0.27789 10.24 2.3516 20.536 2.709 30.073 4.9998 15.76 3.7852-3.85-0.32671-11.5-0.8637-17-1.1934s-17.175-1.4623-25.943-2.5176c-18.706-2.2512-18.886-2.26-17.977-0.78907 0.81921 1.3255-6.353 0.79058-31.58-2.3555-13.395-1.6705-25.393-2.5359-35.045-2.5742zm61.045 1.9297c-0.45312 0-0.90623 0.0683-1.25 0.20704-0.6875 0.27742-0.12499 0.5039 1.25 0.5039 1.3751 0 1.9375-0.22649 1.25-0.5039-0.34375-0.13871-0.79688-0.20704-1.25-0.20704zm-96.27 4.3555c-0.0511-5e-3 -0.12735 2e-3 -0.23047 0.0215-3.7576 0.72085-18.145 7.4994-23.182 10.922-2.0803 1.4136-3.5224 2.5703-3.2031 2.5703 0.31929 0 7.0615-3.1646 14.982-7.0332 7.4258-3.6268 12.4-6.4078 11.633-6.4805zm196.56 35.615c1.0904-0.044 2.8467 1.1045 5.1738 3.4316 6.4742 6.4742 4.4434 9.4668-6.4219 9.4668-5.133 0-13.32 1.2772-25.549 3.9863-18.273 4.0484-24.496 4.8143-24.496 3.0137 0-0.55 0.7875-1.0019 1.75-1.0039 0.96249-2e-3 7.6-2.039 14.75-4.5273 7.15-2.4883 17.05-5.2276 22-6.0879 9.9796-1.7344 11.5-2.5275 11.5-6.002 0-1.4865 0.4449-2.2431 1.293-2.2773zm-259.83 0.37109c-0.44703 0.043-1.2514 0.39883-2.4668 1.0273-1.65 0.85325-3 1.9895-3 2.5254 0 1.7686 3.9091 1.0137 4.9648-0.95899 0.99863-1.866 1.247-2.6655 0.50196-2.5938zm303.74 1.625c1.7842-0.0591 5.1215 1.3654 5.5488 2.6523 0.23433 0.70583-0.41004 1.25-1.4785 1.25-2.4144 1e-5 -6.013-2.5925-5.002-3.6035 0.19156-0.19156 0.5199-0.2852 0.93164-0.29883zm-250.93 0.0332c20.143 0.0184 50.229 6.0561 50.229 10.883 0 2.3729-2.9618 2.0882-21-2.0234-9.35-2.1313-21.824-4.3856-27.719-5.0098-15.668-1.6591-17.971-2.5072-9.416-3.4668 2.355-0.26414 5.0287-0.38544 7.9062-0.38282zm264.88 2.0195c0.33479-0.012 0.70314-1e-3 1.0996 0.0371 1.7875 0.17236 3.25 0.7625 3.25 1.3125 0 1.1186-3.326 1.6622-5.25 0.85743-2.181-0.91232-1.4432-2.1234 0.90039-2.207zm-216.65 20.869c3.8047-0.0353 19.638 4.9501 19 5.9824-0.26268 0.42497 0.19082 1.3281 1.0098 2.0078 2.5494 2.1158 1.6908 2.7713-4.5879 3.5-10.227 1.187-12.438 2.296-4.9219 2.4688 8.9261 0.20508 5.4523 1.4652-11.156 4.0469-27.143 4.2191-64.273 14.01-100.82 26.586-11.813 4.0645-21.689 7.3887-21.949 7.3887-0.25972 0-0.0459-0.41582 0.47657-0.92382 1.7273-1.6794 20.581-8.6775 47.201-17.521 23.924-7.9482 30.911-10.62 23.5-8.9863-8.7821 1.9358-27.104 6.7659-35.656 9.4004-5.4485 1.6784-10.064 2.8943-10.258 2.7012-0.34963-0.34965 36.716-14.743 48.164-18.703 14.376-4.973 25.496-6.9654 39-6.9805 18.488-0.0228 22.895-2.8052 13-8.209-4.7627-2.6012-4.8577-2.7314-2-2.7578zm-35.797 7.8242c0.40213 8.8e-4 0.76447 0.0181 1.1055 0.0469 3.0624 0.25897-0.55641 2.1839-12.08 6.4277-15.545 5.7246-42.793 11.125-76.729 15.205-16.818 2.0223-45.82 7.441-61 11.398-6.325 1.6489-22.833 6.8421-36.684 11.539-13.851 4.697-25.689 8.5391-26.309 8.5391-2.3516 0 0.38344-2.1988 5.6133-4.5117 8.1358-3.598 28.209-11.176 42.879-16.189 22.6-7.7231 60.307-16.035 103.5-22.814 12.375-1.9424 29.7-4.8373 38.5-6.4336 13.591-2.4654 18.388-3.2132 21.203-3.207zm119.44 5.1562c1.1748 0 1.8489 0.5246 1.6074 1.25-0.47547 1.4278-3.0153 2.1507-4.0215 1.1445-1.0891-1.0892 0.22716-2.3945 2.4141-2.3945zm110.51 8.3613c1.5044-2e-3 2.3457 0.3157 2.3457 0.98243 0 0.77657 0.6927 1.9874 1.541 2.6914 1.1678 0.96926 1.259 1.5459 0.375 2.373-0.84453 0.79098-1.2807 0.78609-1.5781-0.0156-0.22609-0.60952-1.0207-1.9422-1.7656-2.9609-1.1654-1.5938-1.7238-1.6841-4.0098-0.64258-1.4611 0.66572-3.6924 1.2109-4.957 1.2109s-3.6861 0.69264-5.3828 1.5391c-1.6967 0.84646-5.479 1.7611-8.4043 2.0332-5.2006 0.48389-5.1075 0.4208 4.1816-2.877 7.8263-2.7784 14.345-4.3293 17.654-4.334zm-51.738 10.762c0.34741 0.0143 0.64639 0.10733 0.8125 0.27344 0.3323 0.33245-0.25831 0.56885-1.3125 0.52539-1.1649-0.048-1.4013-0.2861-0.60351-0.60547 0.36094-0.14438 0.75611-0.20767 1.1035-0.19336zm68.549 9.9238c1.3413-0.0732 2.6246 0.28811 3.1406 1.123 0.48695 0.78769 0.17531 0.96156-0.95117 0.52929-0.91998-0.35289-2.8604-0.19074-4.3125 0.36133-2.3141 0.87984-2.4835 0.81534-1.3691-0.52734 0.75029-0.90414 2.1509-1.4131 3.4922-1.4863zm-154.5 5.0977c0.87039-0.0679 0.9168 0.76213-0.62305 2.5488-1.0113 1.1734-2.9629 2.4437-4.3379 2.8223-2.436 0.67075-2.4204 0.606 0.63867-2.5332 1.7576-1.8038 3.4519-2.77 4.3223-2.8379zm161.6 1.1855c0.27212 0.046 0.79243 1.2509 1.4648 3.748h-2e-3c0.83282 3.0922 0.86469 5.8273 0.11328 9.8516-0.89635 4.8009-0.9857 4.9546-0.65234 1.1074 0.21275-2.4552-0.0366-6.6908-0.55274-9.4121-0.66296-3.4958-0.72097-5.3541-0.37109-5.2949zm-553.12 9.0117c-0.10986-4e-3 -0.23105 0.0312-0.35742 0.10938-1.1734 0.72517-3.2807 10.417-2.5293 11.633 0.84971 1.3749 1.6631 1.1344 4.8848-1.4434l2.9375-2.3496-2.1875-2.7812c-1.2027-1.529-2.1856-3.4198-2.1856-4.2031 0-0.5874-0.23293-0.95157-0.5625-0.96485zm356.56 2.6582c0.55 0 1 0.44997 1 1 0 0.55-0.45 1-1 1s-1-0.45-1-1c0-0.55003 0.45-1 1-1zm194.59 18.344c0.0449-0.0125 0.0835-4e-3 0.11328 0.0254 0.84144 0.84143-4.6972 10.515-6.9062 12.062-2.5312 1.7729-6.3661 2.0711-7.2949 0.56835-0.34968-0.56579 0.47808-1 1.9062-1 3.11 0 8.9117-4.9383 10.605-9.0273 0.60529-1.4614 1.2616-2.5413 1.5762-2.6289zm-242.71 13.785c0.54375 7e-3 1.0502 0.0778 1.3887 0.21485 0.67702 0.2739-0.11759 0.47983-1.7676 0.46093-1.65-0.0204-2.2054-0.24444-1.2324-0.49804 0.4865-0.12643 1.0676-0.18454 1.6113-0.17774zm-6.2187 0.31641c0.63025 0.0196-0.35367 0.65721-3.1602 2.1133-2.75 1.4268-7.025 4.252-9.5 6.2773-8.5519 6.9982-8.4824 6.9524-7.2031 4.5508 2.5634-4.812 12.082-11.306 18.703-12.762 0.5613-0.12341 0.95007-0.18623 1.1602-0.17968zm-280.23 2.2129c1.0467-0.0728 2.9046 0.52082 5.6543 1.8008 2.98 1.3872 5.9543 2.5275 6.6094 2.5312 0.65505 5e-3 1.4687 0.45977 1.8086 1.0098 0.34001 0.54989 0.47856 0.9511 0.30859 0.89063-0.16996-0.0605-3.6172-0.93028-7.6602-1.9336-8.0779-2.0046-9.0047-2.5011-7.5-4.0059 0.17174-0.17174 0.43039-0.26871 0.77929-0.29297zm297.12 2.459c0.0487-9e-3 0.11992 0.0247 0.21484 0.10352 0.75939 0.63023 2.2731 2.8983 3.3652 5.0391 1.0921 2.1408 1.8474 4.4204 1.6777 5.0664-0.16981 0.64603-1.6855-1.622-3.3672-5.0391-1.4706-2.9899-2.2318-5.109-1.8906-5.1699zm-309.37 15.883c1.3457 0 50.252 21.036 51.271 22.053 2.0461 2.0421-5.5236 0.60951-20.949-3.9629-8.8-2.6084-20.275-5.9961-25.5-7.5274-5.225-1.5313-9.9245-3.1804-10.443-3.666-0.93667-0.87651 3.9698-6.8965 5.6211-6.8965zm74.322 1.0039 6 0.55664c8.0706 0.75035 10.186 1.3901 8.3809 2.5332-1.9519 1.2362-3.6788 1.0207-9.3809-1.1699zm241.96 13.299c0.28927-0.15124 0.3249 0.6713-0.0371 2.7285-2.9735 16.898-13.597 33.001-25.611 38.816-5.2147 2.5244-12.696 2.7767-17.717 0.59766-3.9592-1.7184-3.6748-2.9946 0.32812-1.4727 3.5143 1.3362 11.022 1.3018 16.074-0.0723 8.4974-2.3112 20.166-18.248 24.098-32.912 1.1994-4.4732 2.3831-7.4335 2.8652-7.6856z" fill="#b46435"/>
    <path transform="matrix(.26458 0 0 .26458 -19.488 4.9595)" d="m479.47 293.9c-7.507-0.0298-13.595 0.44013-17.816 1.4199l-7.6387 1.7734 23.5 1.2422c26.626 1.4073 30 1.8463 30 3.9082 0 0.80007-0.18534 1.4551-0.41211 1.4551-0.22662 1e-5 -3.7623 0.64068-7.8555 1.4238-12.01 2.2978-24.518 8.734-34.424 17.711-4.8964 4.4373-5.5041 4.6008-19.309 5.2168-12.37 0.55195-29.438 4.0665-54.895 11.301-2.9896 0.84958 0.2146 1.51 14.031 2.8945 7.8998 0.79162 20.622 2.5899 28.271 3.9961 21.517 3.9554 22.955 5.7885 5.334 6.7949-21.919 1.2519-73.789 8.2442-109.24 14.725-48.146 8.8006-72.136 16.603-115.42 37.539-9.5814 4.6343-18.131 8.1936-19 7.9102-0.86863-0.28342-6.4936-5.4781-12.5-11.543-7.4871-7.56-11.244-10.704-11.949-9.998-0.70564 0.70567-0.69839 1.0293 0.0215 1.0293 0.57751 0 3.4508 2.7612 6.3867 6.1367l5.3379 6.1387-3.0469 2.6133c-1.6761 1.437-4.7646 3.9322-6.8633 5.5449-4.544 3.492-4.127 3.8053 7.4727 5.6367 6.1156 0.96555 7.893 1.6834 10 4.041 1.4094 1.577 4.025 4.4401 5.8125 6.3613s3.25 3.7252 3.25 4.0098c0 1.6593-8.3342 0.15132-13.072-2.3652-2.9852-1.5856-7.6777-3.1586-10.428-3.4961l-5-0.61328-13 9.4844c-7.15 5.2167-13.739 9.4885-14.643 9.4961-0.90366 6e-3 -1.9162 0.71915-2.248 1.584-0.72987 1.902 0.60134 4.616 4.8672 9.9277 5.7799 7.1972 5.9415 7.9541 2.5332 11.836-2.4726 2.8161-3.0082 4.2984-2.9961 8.2969 0.0226 7.4734 1.442 9.2435 10.486 13.082 11.534 4.8953 11.723 5.2056 6.7832 11.064-9.3589 11.099-10.776 17.217-5.0098 21.615 3.5826 2.7326 28.462 14.55 61.227 29.08 27.099 12.018 41.87 16.753 69 22.127 19.335 3.8296 27.031 3.2058 131-10.633 55.138-7.339 69.342-9.6733 97.766-16.072 34.207-7.7009 57.429-15.718 83.734-28.904 4.125-2.0678 19.56-8.5826 34.301-14.479l26.801-10.721 6.5606 1.2383c8.5165 1.6069 22.338 0.412 22.338-1.9316 0-0.37821-2.5875-1.3441-5.75-2.1445-3.6413-0.92163-5.75-1.9791-5.75-2.8848 0-1.469 2.4185-2.5423 28.5-12.648 30.484-11.812 60.061-27.85 72.062-39.076 5.4057-5.0564 5.9811-6.7157 2.9062-8.3613-3.7172-1.9894-31.294-7.8256-49.498-10.475-9.8838-1.4383-18.527-2.7982-19.205-3.0234-1.9101-0.63462-0.53357-2.899 3.0156-4.9629 4.5436-2.6422 11.331-8.0549 17.51-13.963 6.901-6.599 8.6995-12.094 7.248-22.137-0.55041-3.808-1.0082-7.2613-1.0195-7.6738-0.0109-0.41249-0.99052-0.75-2.1758-0.75-2.0244 1e-5 -2.0547-0.11021-0.5-1.8281 2.3592-2.6069 2.0474-6.5536-0.78516-9.9199-1.8302-2.1751-4.6453-3.5551-11.25-5.5195-4.8449-1.441-10.295-2.9118-12.111-3.2676-1.8743-0.36701-3.1282-1.147-2.8965-1.8047 0.6042-1.716 9.4167-0.8641 14.576 1.4102 5.2429 2.311 5.7313 2.368 4.168 0.48437-1.7749-2.1387-8.5882-4.0998-27.545-7.9297-16.12-3.2568-17.492-3.7201-26.5-8.9648-5.225-3.042-11.916-7.473-14.869-9.8457-8.3094-6.6771-14.887-10.573-21.539-12.756-7.2562-2.3811-41.592-6.9302-57.092-7.5644-10.323-0.42243-9.6932-0.27789 10.24 2.3516 20.536 2.709 30.073 4.9998 15.76 3.7852-3.85-0.32671-11.5-0.8637-17-1.1934s-17.175-1.4623-25.943-2.5176c-18.706-2.2512-18.886-2.26-17.977-0.78907 0.81921 1.3255-6.353 0.79058-31.58-2.3555-13.395-1.6705-25.393-2.5359-35.045-2.5742zm61.045 1.9297c-0.45312 0-0.90623 0.0683-1.25 0.20704-0.6875 0.27742-0.12499 0.5039 1.25 0.5039 1.3751 0 1.9375-0.22649 1.25-0.5039-0.34375-0.13871-0.79688-0.20704-1.25-0.20704zm-96.27 4.3555c-0.0511-5e-3 -0.12735 2e-3 -0.23047 0.0215-3.7576 0.72085-18.145 7.4994-23.182 10.922-2.0803 1.4136-3.5224 2.5703-3.2031 2.5703 0.31929 0 7.0615-3.1646 14.982-7.0332 7.4258-3.6268 12.4-6.4078 11.633-6.4805zm196.56 35.615c1.0904-0.044 2.8467 1.1045 5.1738 3.4316 6.4742 6.4742 4.4434 9.4668-6.4219 9.4668-5.133 0-13.32 1.2772-25.549 3.9863-18.273 4.0484-24.496 4.8143-24.496 3.0137 0-0.55 0.7875-1.0019 1.75-1.0039 0.96249-2e-3 7.6-2.039 14.75-4.5273 7.15-2.4883 17.05-5.2276 22-6.0879 9.9796-1.7344 11.5-2.5275 11.5-6.002 0-1.4865 0.4449-2.2431 1.293-2.2773zm-259.83 0.37109c-0.44703 0.043-1.2514 0.39883-2.4668 1.0273-1.65 0.85325-3 1.9895-3 2.5254 0 1.7686 3.9091 1.0137 4.9648-0.95899 0.99863-1.866 1.247-2.6655 0.50196-2.5938zm303.74 1.625c1.7842-0.0591 5.1215 1.3654 5.5488 2.6523 0.23433 0.70583-0.41004 1.25-1.4785 1.25-2.4144 1e-5 -6.013-2.5925-5.002-3.6035 0.19156-0.19156 0.5199-0.2852 0.93164-0.29883zm-250.93 0.0332c20.143 0.0184 50.229 6.0561 50.229 10.883 0 2.3729-2.9618 2.0882-21-2.0234-9.35-2.1313-21.824-4.3856-27.719-5.0098-15.668-1.6591-17.971-2.5072-9.416-3.4668 2.355-0.26414 5.0287-0.38544 7.9062-0.38282zm264.88 2.0195c0.33479-0.012 0.70314-1e-3 1.0996 0.0371 1.7875 0.17236 3.25 0.7625 3.25 1.3125 0 1.1186-3.326 1.6622-5.25 0.85743-2.181-0.91232-1.4432-2.1234 0.90039-2.207zm-216.65 20.869c3.8047-0.0353 19.638 4.9501 19 5.9824-0.26268 0.42497 0.19082 1.3281 1.0098 2.0078 2.5494 2.1158 1.6908 2.7713-4.5879 3.5-10.227 1.187-12.438 2.296-4.9219 2.4688 8.9261 0.20508 5.4523 1.4652-11.156 4.0469-27.143 4.2191-64.273 14.01-100.82 26.586-11.813 4.0645-21.689 7.3887-21.949 7.3887-0.25972 0-0.0459-0.41582 0.47657-0.92382 1.7273-1.6794 20.581-8.6775 47.201-17.521 23.924-7.9482 30.911-10.62 23.5-8.9863-8.7821 1.9358-27.104 6.7659-35.656 9.4004-5.4485 1.6784-10.064 2.8943-10.258 2.7012-0.34963-0.34965 36.716-14.743 48.164-18.703 14.376-4.973 25.496-6.9654 39-6.9805 18.488-0.0228 22.895-2.8052 13-8.209-4.7627-2.6012-4.8577-2.7314-2-2.7578zm-35.797 7.8242c0.40213 8.8e-4 0.76447 0.0181 1.1055 0.0469 3.0624 0.25897-0.55641 2.1839-12.08 6.4277-15.545 5.7246-42.793 11.125-76.729 15.205-16.818 2.0223-45.82 7.441-61 11.398-6.325 1.6489-22.833 6.8421-36.684 11.539-13.851 4.697-25.689 8.5391-26.309 8.5391-2.3516 0 0.38344-2.1988 5.6133-4.5117 8.1358-3.598 28.209-11.176 42.879-16.189 22.6-7.7231 60.307-16.035 103.5-22.814 12.375-1.9424 29.7-4.8373 38.5-6.4336 13.591-2.4654 18.388-3.2132 21.203-3.207zm119.44 5.1562c1.1748 0 1.8489 0.5246 1.6074 1.25-0.47547 1.4278-3.0153 2.1507-4.0215 1.1445-1.0891-1.0892 0.22716-2.3945 2.4141-2.3945zm110.51 8.3613c1.5044-2e-3 2.3457 0.3157 2.3457 0.98243 0 0.77657 0.6927 1.9874 1.541 2.6914 1.1678 0.96926 1.259 1.5459 0.375 2.373-0.84453 0.79098-1.2807 0.78609-1.5781-0.0156-0.22609-0.60952-1.0207-1.9422-1.7656-2.9609-1.1654-1.5938-1.7238-1.6841-4.0098-0.64258-1.4611 0.66572-3.6924 1.2109-4.957 1.2109s-3.6861 0.69264-5.3828 1.5391c-1.6967 0.84646-5.479 1.7611-8.4043 2.0332-5.2006 0.48389-5.1075 0.4208 4.1816-2.877 7.8263-2.7784 14.345-4.3293 17.654-4.334zm-51.738 10.762c0.34741 0.0143 0.64639 0.10733 0.8125 0.27344 0.3323 0.33245-0.25831 0.56885-1.3125 0.52539-1.1649-0.048-1.4013-0.2861-0.60351-0.60547 0.36094-0.14438 0.75611-0.20767 1.1035-0.19336zm68.549 9.9238c1.3413-0.0732 2.6246 0.28811 3.1406 1.123 0.48695 0.78769 0.17531 0.96156-0.95117 0.52929-0.91998-0.35289-2.8604-0.19074-4.3125 0.36133-2.3141 0.87984-2.4835 0.81534-1.3691-0.52734 0.75029-0.90414 2.1509-1.4131 3.4922-1.4863zm-154.5 5.0977c0.87039-0.0679 0.9168 0.76213-0.62305 2.5488-1.0113 1.1734-2.9629 2.4437-4.3379 2.8223-2.436 0.67075-2.4204 0.606 0.63867-2.5332 1.7576-1.8038 3.4519-2.77 4.3223-2.8379zm161.6 1.1855c0.27212 0.046 0.79243 1.2509 1.4648 3.748h-2e-3c0.83282 3.0922 0.86469 5.8273 0.11328 9.8516-0.89635 4.8009-0.9857 4.9546-0.65234 1.1074 0.21275-2.4552-0.0366-6.6908-0.55274-9.4121-0.66296-3.4958-0.72097-5.3541-0.37109-5.2949zm-514.46 1.7598c0.43929-0.0435 0.8927 0.10224 1.373 0.43359 13.391 9.2374 18.433 13.255 18.477 14.727 0.0928 3.148-4.1881 1.8323-10.947-3.3633-9.7326-7.4812-11.683-9.6039-10.188-11.1 0.42071-0.42062 0.84586-0.65372 1.2852-0.69726zm-38.66 7.252c-0.10986-4e-3 -0.23105 0.0312-0.35742 0.10938-1.1734 0.72517-3.2807 10.417-2.5293 11.633 0.84971 1.3749 1.6631 1.1344 4.8848-1.4434l2.9375-2.3496-2.1875-2.7812c-1.2027-1.529-2.1856-3.4198-2.1856-4.2031 0-0.5874-0.23293-0.95157-0.5625-0.96485zm356.56 2.6582c0.55 0 1 0.44997 1 1 0 0.55-0.45 1-1 1s-1-0.45-1-1c0-0.55003 0.45-1 1-1zm194.59 18.344c0.0449-0.0125 0.0835-4e-3 0.11328 0.0254 0.84144 0.84143-4.6972 10.515-6.9062 12.062-2.5312 1.7729-6.3661 2.0711-7.2949 0.56835-0.34968-0.56579 0.47808-1 1.9062-1 3.11 0 8.9117-4.9383 10.605-9.0273 0.60529-1.4614 1.2616-2.5413 1.5762-2.6289zm-242.71 13.785c0.54375 7e-3 1.0502 0.0778 1.3887 0.21485 0.67702 0.2739-0.11759 0.47983-1.7676 0.46093-1.65-0.0204-2.2054-0.24444-1.2324-0.49804 0.4865-0.12643 1.0676-0.18454 1.6113-0.17774zm-6.2187 0.31641c0.63025 0.0196-0.35367 0.65721-3.1602 2.1133-2.75 1.4268-7.025 4.252-9.5 6.2773-8.5519 6.9982-8.4824 6.9524-7.2031 4.5508 2.5634-4.812 12.082-11.306 18.703-12.762 0.5613-0.12341 0.95007-0.18623 1.1602-0.17968zm-280.23 2.2129c1.0467-0.0728 2.9046 0.52082 5.6543 1.8008 2.98 1.3872 5.9543 2.5275 6.6094 2.5312 0.65505 5e-3 1.4687 0.45977 1.8086 1.0098 0.34001 0.54989 0.47856 0.9511 0.30859 0.89063-0.16996-0.0605-3.6172-0.93028-7.6602-1.9336-8.0779-2.0046-9.0047-2.5011-7.5-4.0059 0.17174-0.17174 0.43039-0.26871 0.77929-0.29297zm297.12 2.459c0.0487-9e-3 0.11992 0.0247 0.21484 0.10352 0.75939 0.63023 2.2731 2.8983 3.3652 5.0391 1.0921 2.1408 1.8474 4.4204 1.6777 5.0664-0.16981 0.64603-1.6855-1.622-3.3672-5.0391-1.4706-2.9899-2.2318-5.109-1.8906-5.1699zm-309.37 15.883c1.3457 0 50.252 21.036 51.271 22.053 2.0461 2.0421-5.5236 0.60951-20.949-3.9629-8.8-2.6084-20.275-5.9961-25.5-7.5274-5.225-1.5313-9.9245-3.1804-10.443-3.666-0.93667-0.87651 3.9698-6.8965 5.6211-6.8965zm74.322 1.0039 6 0.55664c8.0706 0.75035 10.186 1.3901 8.3809 2.5332-1.9519 1.2362-3.6788 1.0207-9.3809-1.1699zm98.797 1.459c0.27677 0.0106 0.49106 0.041 0.63086 0.0918 2.9486 1.0719-1.3689 3.1655-9.9277 4.8125-10.326 1.9871-14.318 2.0972-13.762 0.38281 0.4271-1.3159 18.907-5.4461 23.059-5.2871zm143.17 11.84c0.28927-0.15124 0.3249 0.6713-0.0371 2.7285-2.9735 16.898-13.597 33.001-25.611 38.816-5.2147 2.5244-12.696 2.7767-17.717 0.59766-3.9592-1.7184-3.6748-2.9946 0.32812-1.4727 3.5143 1.3362 11.022 1.3018 16.074-0.0723 8.4974-2.3112 20.166-18.248 24.098-32.912 1.1994-4.4732 2.3831-7.4335 2.8652-7.6856z" fill="#494949"/>
   </g>
   <path d="m88.862 150.92c-2.91-0.75594-5.1779-1.9488-6.0845-3.2002-0.41835-0.57751-1.0875-1.9059-1.4869-2.9521s-0.80467-1.996-0.90047-2.1108c-0.16273-0.19504-4.5293 0.51207-12.959 2.0986-1.9645 0.36973-4.6434 1.0296-5.9531 1.4664-2.0207 0.6739-2.8019 0.79634-5.1594 0.80865-1.778 9e-3 -3.3851-0.14347-4.4641-0.42433-3.0703-0.7992-10.41-3.5135-15.644-5.785-2.8377-1.2316-6.5286-2.7494-8.2021-3.3731-1.6735-0.62362-3.2808-1.3359-3.5719-1.5828-0.29104-0.24688-1.45-0.84189-2.5754-1.3222s-2.1781-1.0323-2.3393-1.2265c-0.16119-0.19423-0.3536-1.0422-0.42757-1.8844-0.12711-1.4472-0.08948-1.5739 0.68565-2.3083 0.45108-0.42741 0.82015-0.91941 0.82015-1.0933 0-0.17392-0.59295-1.0744-1.3177-2.001-1.1876-1.5186-1.6634-2.6165-1.1297-2.6074 0.10914 2e-3 1.1257 0.29952 2.259 0.66146s2.2744 0.65808 2.5357 0.65808 2.1924-0.9497 4.2914-2.1104c3.5961-1.9887 5.5321-2.7625 5.5321-2.2112 0 0.2634-6.1807 3.9639-7.5968 4.5484-0.96495 0.39827-1.1231 0.94204-0.38842 1.3352 0.57545 0.30798 8.5041 2.6785 14.614 4.3696 6.0032 1.6614 6.8762 1.6254 8.998-0.37053 0.64559-0.6073 2.281-2.0772 3.6342-3.2664 1.6291-1.4317 2.4226-2.3074 2.3486-2.5917-0.07645-0.2938 0.02487-0.39375 0.32068-0.3164 0.23784 0.0622 1.1863-0.37414 2.1076-0.96964 4.342-2.8064 10.468-6.2207 14.591-8.132 2.3247-1.0778 2.4454-1.1078 1.6064-0.40004-0.52772 0.4452-0.79115 0.83695-0.62984 0.93664 0.1525 0.0943 2.6443-0.71039 5.5373-1.7881 11.776-4.3868 23.229-7.3846 32.909-8.614 4.0751-0.51754 5.0379-0.66786 6.1114-0.95418 0.23258-0.062 0.56299-0.42031 0.73425-0.79617 0.31139-0.68343 0.65042-0.72062 1.9663-0.21567 0.59159 0.22701 1.185-0.54103 4.9685-6.4311 5.9415-9.2494 6.0055-9.3623 5.8633-10.331-0.0844-0.57497-0.36056-1-0.82339-1.2673-0.67664-0.3907-0.65885-0.39799 0.6265-0.25655 5.3063 0.58387 7.5928 0.72675 12.907 0.80651l6.0276 0.09047 1.7776 0.82492c1.4444 0.67032 2.323 1.3808 4.688 3.7913 1.6007 1.6315 3.6546 3.4895 4.5641 4.1289 2.737 1.924 2.2254 2.7649-2.5797 4.2399-3.1282 0.96023-12.243 2.4494-14.552 2.3775l-0.92604-0.0288 0.92604-0.22855c0.50932-0.12571 3.0096-0.59542 5.5562-1.0438 5.4402-0.95788 5.5562-0.98778 5.5562-1.4312 0-0.493-3.8873-10.175-4.3984-10.955l-0.43074-0.65739-6.6474 0.18507c-3.6561 0.10178-7.1237 0.27096-7.7058 0.37594-0.91038 0.16419-1.2451 0.43944-2.3944 1.9689-1.5182 2.0204-3.537 5.3388-4.7888 7.8719-1.2696 2.5689-1.5066 6.7116-0.24436 4.2706 0.47252-0.91374 1.6888-1.4664 2.8516-1.2958 1.1088 0.16273 2.5916-0.25075 2.5916-0.72269 0-1.0542 1.3394-0.54554 3.4129 1.296 0.95377 0.84708 1.2234 1.2348 1.0082 1.4499-0.73655 0.73655 0.31573 0.77239 3.2518 0.11076 3.2221-0.72608 3.5472-0.76101 8.4841-0.91172 1.9819-0.0605 3.1484 2e-3 3.1529 0.16855 4e-3 0.14552-0.38042 0.3632-0.85404 0.48373s-0.97424 0.32889-1.1125 0.46302c-0.29565 0.28685 0.35748 0.33218 3.6909 0.25622 2.2414-0.0511 2.5234-0.12471 4.8017-1.2534 2.266-1.1226 4.8556-1.7804 4.8556-1.2335 0 0.13207-0.19074 0.51244-0.42386 0.84527-0.23313 0.33283-0.36949 0.65952-0.30304 0.72597 0.0665 0.0665 0.76321-0.1782 1.5483-0.54369 0.78514-0.36548 1.5693-0.66568 1.7426-0.6671 1.0058-8e-3 0.28243-1.8651-0.98105-2.5184-0.4341-0.22448-0.78927-0.58094-0.78927-0.79213 0-0.21119-0.30377-0.58302-0.67504-0.82629-0.47201-0.30927-0.59138-0.52597-0.39688-0.72047 0.45401-0.45401 0.31884-1.1364-0.31714-1.6011-0.57421-0.41957-0.54759-0.42942 0.75084-0.27793 0.74038 0.08638 1.9905 0.30072 2.7781 0.4763 1.3307 0.29668 1.4261 0.36908 1.3489 1.0242-0.0732 0.62123 0.029 0.72601 0.8599 0.8819 0.9621 0.18049 1.2616 0.73291 0.54611 1.0074-0.99864 0.38321-0.20498 0.59314 1.8373 0.48594 2.9829-0.15656 3.5276 0.0061 4.0277 1.2029 0.38522 0.92195 0.37779 0.9949-0.14434 1.4177-0.31388 0.25416-1.5053 0.58127-2.7721 0.7611-2.333 0.33117-3.8745 1.0273-3.8745 1.7496 0 0.29482 0.14048 0.37517 0.44897 0.25679 1.7541-0.6731 4.762-1.2398 5.7748-1.0879l1.1363 0.1704 0.25842 1.4999c0.14212 0.82496 0.20751 1.6326 0.1453 1.7947-0.14485 0.37748-2.6697 1.1781-3.7152 1.1781-0.43984 0-1.2234 0.2875-1.7412 0.63888-1.0334 0.70128-1.2491 0.64888-1.2491-0.30349 0-0.67332-0.37458-1.5329-0.95327-2.1875-0.19297-0.21828-0.69457-0.80472-1.1147-1.3032-0.67961-0.80639-0.93625-0.91879-2.3277-1.0194-1.323-0.0957-1.6652-0.0248-2.2221 0.46006l-0.65828 0.57317 0.94496-0.15218c1.3529-0.21788 1.439 0.0776 0.3086 1.0592-0.54394 0.4723-0.91071 0.93896-0.81505 1.037 0.0957 0.0981 0.75546-0.0282 1.4662-0.28067 0.84201-0.29906 1.5601-0.39177 2.0608-0.26609 1.1529 0.28937 2.3226 1.7081 2.8614 3.4707 0.60303 1.9726 0.83601 2.2423 1.9366 2.2423 0.53853 0 0.89364 0.13143 0.89364 0.33073-1e-5 0.38452-1.5027 1.6381-2.5184 2.1009-1.0841 0.49396-1.715 2.0083-1.715 4.1169 0 2.0954-0.53292 4.3891-1.4687 6.3213-0.68134 1.4069-2.7279 3.5344-3.3999 3.5344-0.21037 0-0.77013 0.32619-1.2439 0.72485-0.73511 0.61856-1.1509 0.73948-2.8354 0.82454-3.3019 0.16674-4.7038-0.57704-6.0335-3.201-0.35084-0.69234-0.7156-1.2588-0.81058-1.2588-0.93875 0-33.912 8.9128-38.874 10.508-1.1802 0.37938-2.3411 0.61486-2.5797 0.52329-0.3629-0.13926-0.43385-0.60854-0.43385-2.8699 0-3.9959-1.3202-8.51-2.7058-9.2516-0.48328-0.25865-0.52413-0.23459-0.33918 0.19974 1.2228 2.8718 2.0117 5.8283 2.1535 8.0709 0.29609 4.6829-0.60333 8.4037-2.8528 11.802-3.0109 4.5482-6.0027 6.7572-10.498 7.7513-2.8681 0.63427-4.4051 0.62853-6.9242-0.0258zm10.186-5.2458c2.4166-1.1124 5.4875-5.3136 6.5848-9.0086 0.56328-1.8968 0.56978-6.3188 0.012-8.1969-0.50014-1.6842-2.133-3.5663-3.4795-4.0107-2.8575-0.94305-6.8637 1.1377-9.2284 4.7931-1.4659 2.2661-2.0911 3.8731-2.637 6.7789-0.5633 2.998-0.39795 4.9221 0.57691 6.7132 0.8022 1.4739 2.4579 3.0676 3.3734 3.247 1.5066 0.29526 3.7975 0.14434 4.7978-0.31608zm-4.6177-1.154c-1.2427-0.4172-2.828-2.0636-3.1688-3.291-1.0261-3.6952 0.73935-9.7843 3.6716-12.664 4.207-4.131 7.6072-4.2706 9.3599-0.38431 0.67484 1.4963 0.90242 5.0453 0.45594 7.1099-0.74613 3.4503-3.4592 7.689-5.6307 8.7968-1.2811 0.65358-3.4366 0.85234-4.6879 0.43227zm4.3851-2.3315c1.4996-0.72595 2.8916-2.3162 3.8844-4.4378 0.64532-1.379 0.83834-2.1957 0.92952-3.9329 0.13302-2.5343-0.21788-3.7087-1.1803-3.9503-0.95664-0.2401-1.8857 0.26477-4.2026 2.2839-2.2984 2.0029-3.0335 2.2378-3.7209 1.1886-0.41823-0.6383-0.41112-0.97897 0.04416-2.1162 0.19162-0.47863 0.16737-0.49295-0.2539-0.14999-0.58116 0.47314-1.3616 1.9921-1.6065 3.1268-0.27598 1.2786 0.23056 1.3079 3.5417 0.20455 1.6002-0.5332 3.2413-0.93134 3.647-0.88476 1.1357 0.13039 1.0949 1.1089-0.1252 3.0019-0.56034 0.86938-1.0977 1.7891-1.1942 2.0437-0.10226 0.27-0.44992 0.46302-0.83399 0.46302-0.75188 0-2.7976 1.7942-2.7976 2.4537 0 1.27 1.9631 1.6282 3.8684 0.70586zm2.217-5.1595c0-0.22687 0.121-0.3377 0.2689-0.2463 0.14789 0.0914 0.2004 0.27702 0.11667 0.41249-0.2268 0.36699-0.38557 0.29856-0.38557-0.16619zm-57.459 1.9118c-0.81469-0.61953-5.7593-2.3561-6.213-2.182-0.72272 0.27734-0.0862 0.6758 2.6035 1.6298 2.5763 0.91378 4.4648 1.2027 3.6095 0.55224zm-7.3542-2.4366c0.20208-0.2435 0.24183-0.50283 0.09854-0.64299-0.29124-0.28489-13.061-5.7488-13.967-5.9762-1.0738-0.2695-3.4162 2.1231-2.5828 2.6382 0.28534 0.17635 8.291 2.6213 11.812 3.6074 3.0561 0.85592 4.1651 0.94523 4.6395 0.37362zm28.735-3.8307c3.4474-0.70646 3.5349-0.73972 3.5349-1.3436 0-0.80158-0.59331-0.86601-3.3786-0.36689-3.2057 0.57444-3.7651 0.78255-3.7651 1.4007 0 1.0098 0.13593 1.0215 3.6089 0.30978zm-11.373-2.5742c1.4643-1.5675 1.8384-2.1828 1.3272-2.1828-0.61132 0-3.8814 2.7202-3.8814 3.2287 0 0.11599 0.31056 0.21088 0.69015 0.21088 0.48217 0 1.0439-0.37872 1.8642-1.2568zm8.2538-2.8c4.2592-2.3152 6.8258-3.4874 10.226-4.6707 5.9141-2.058 10.466-3.7391 11.808-4.3611 1.8938-0.8774 2.4663-0.58986 2.2712 1.1408-0.15037 1.3341 0.13465 2.1583 0.74637 2.1583 0.60903 0 0.45939 0.46041-0.47233 1.4532-0.70745 0.75381-1.3524 1.0592-3.638 1.7228-2.1534 0.6252-2.4806 0.77441-1.4552 0.66348 3.1218-0.33772 4.7379-0.74066 5.1981-1.2961 0.25477-0.30747 0.98226-1.2139 1.6166-2.0142 3.3641-4.2444 8.4982-6.6146 14.328-6.6146 2.7858 0 4.5798 0.36262 6.6722 1.3486 2.7805 1.3103 4.375 3.5608 4.8928 6.9062 0.39849 2.5742 0.45393 2.7426 0.79163 2.4049 0.15215-0.15215 0.38407-1.1322 0.51537-2.1779 0.1313-1.0457 0.30899-2.0149 0.39487-2.1539 0.0859-0.13895 0.74302-0.55003 1.4603-0.91352l1.3042-0.66088v2.4031c0 2.83 0.23461 3.4266 1.3475 3.4266 0.77846 0 9.9472-2.1828 24.449-5.8206 3.9291-0.98559 8.2139-1.9914 9.5219-2.2351 1.308-0.2437 2.6009-0.64423 2.8732-0.89007 0.5727-0.51708 2.0247-3.2885 2.0247-3.8645 0-0.27747-0.36247-0.41318-1.2568-0.47057l-1.2568-0.0806 1.1139-0.59532c0.61267-0.32742 1.2765-0.59531 1.4752-0.59531 0.48227 0 1.4105-1.0162 1.7523-1.9182 0.35131-0.9273 0.17591-0.91565-0.93794 0.0623-0.49482 0.43445-1.2249 0.86189-1.6224 0.94985-1.0926 0.24177-3.156 0.80183-5.2207 1.417-1.6858 0.50232-7.3697 1.6771-13.494 2.7888-1.9869 0.36072-5.7746 1.1524-15.743 3.2905-0.65484 0.14046-1.7473 0.32841-2.4277 0.41766-0.79328 0.10405-1.5891 0.44205-2.2184 0.94215-1.1047 0.87792-2.7273 1.4086-3.4541 1.1297-0.26618-0.10214-1.3246-1.0374-2.3522-2.0783-3.2396-3.282-6.8426-4.4821-11.604-3.8653-2.9512 0.38235-7.2871 1.6154-9.97 2.8353-1.0979 0.49918-2.2726 0.90761-2.6105 0.90761-0.59732 0-0.60938-0.0468-0.43408-1.6837 0.19878-1.8561-0.06845-2.3941-1.3488-2.7155-2.9087-0.73003-11.951 2.9146-25.89 10.436-2.7929 1.507-3.4544 1.975-3.5184 2.4894-0.09923 0.79733 0.36633 2.0576 0.76009 2.0576 0.16361 0 1.6846-0.754 3.38-1.6756zm101.95-2.7981c2.3054-1.8134 3.732-8.9372 2.3373-11.671-0.71295-1.3975-1.879-2.0086-2.9702-1.5566-1.9176 0.79432-3.2428 2.6238-3.5561 4.9095-0.21869 1.5955 0.18736 1.3766 1.2152-0.65509 2.6106-5.1603 5.4288-3.7694 4.5584 2.2498-0.51149 3.5377-1.5579 5.5432-3.143 6.0237-0.81457 0.24694-1.8397-0.8215-2.0526-2.1393-0.31364-1.9413-0.41994-2.2496-0.73966-2.1446-0.88414 0.29018-0.44944 3.6809 0.60738 4.7378 0.93085 0.93085 2.7228 1.0485 3.7432 0.24583zm-0.32515-3.3672c0.67237-0.85477 0.70852-1.2819 0.0854-1.0083-0.44856 0.19692-0.95914 0.21167-2.0404 0.0589-0.66964-0.0946-0.83461 0.65193-0.26904 1.2175 0.64137 0.64137 1.5995 0.52585 2.2241-0.26815zm-49.019-4.0189c0.31609-0.50614 2.8559-1.3569 6.0275-2.019 1.0098-0.2108 2.1689-0.62943 2.5759-0.93029 1.207-0.89237 1.8839-1.0597 9.1408-2.2597 3.8159-0.63101 7.0604-1.2229 7.2099-1.3153 1.1573-0.71525-1.6553-0.91533-4.0605-0.28886-1.9558 0.50943-10.938 2.0445-11.641 1.9895-0.95465-0.0746-1.159-6e-3 -1.9376 0.64909-0.64476 0.54253-5.8554 2.3638-8.3486 2.918-0.83178 0.18491-0.91848 0.56055-0.28972 1.2553 0.55444 0.61264 0.94168 0.61299 1.3238 1e-3zm50.097-1.7474c0-0.71797-0.62659-1.4741-1.2216-1.4741-0.42657 0-1.8226 1.2773-1.6188 1.4812 0.0694 0.0694 0.44426-0.0188 0.83303-0.1959 0.61929-0.28217 0.77832-0.25062 1.2836 0.25467 0.7173 0.7173 0.72374 0.71671 0.72374-0.0658zm-52.85-0.6912c-0.0856-0.84684-1.3422-1.9071-3.6078-3.0439-1.7034-0.85476-3.2918-1.217-2.9563-0.67421 0.0815 0.13188 0.92197 0.60187 1.8677 1.0444s1.7195 0.92846 1.7195 1.0798c0 0.18077-0.70316 0.21925-2.0505 0.11222-2.533-0.20121-2.3251 0.16843 0.46302 0.82347 1.0914 0.25642 2.4011 0.68673 2.9104 0.95625 1.2003 0.63519 1.7386 0.53822 1.654-0.29801zm4.8282-4.3593c4.206-0.48497 4.942-0.63111 4.7492-0.94305-0.20931-0.33867-1.6269-0.29614-4.973 0.14919-3.2848 0.43719-3.946 0.60538-3.7332 0.94972 0.18751 0.3034-0.13701 0.31618 3.957-0.15586zm32.243-1.0407c3.737-0.52531 6.8444-1.0938 7.3184-1.339 0.45313-0.23432 0.96462-0.37561 1.1367-0.31398 0.17204 0.0616 0.66473-0.0659 1.0949-0.28348 0.60903-0.30802 0.80663-0.32194 0.89297-0.0629 0.18251 0.5475 1.1143 1.3652 1.4342 1.2585 0.5001-0.16669 1.3317-1.4498 1.1404-1.7594-0.0989-0.16005-0.39706-0.291-0.66254-0.291-0.26826 0-0.54742-0.24752-0.6284-0.55717-0.13541-0.51781-0.26375-0.54438-1.8168-0.37605-0.9191 0.0996-2.5659 0.51965-3.6596 0.93343-2.3183 0.87708-5.1996 1.481-8.7271 1.8293-2.9978 0.29598-4.5891 0.7727-4.7121 1.4116-0.11531 0.59883-0.39713 0.61647 7.189-0.44992zm-19.543-0.40511c3.7803-0.56414 6.9774-1.2056 7.2205-1.4487 0.086-0.086-0.0314-0.34396-0.26073-0.57333-0.48569-0.48569-1.7647-0.53664-3.2734-0.13038-0.58551 0.15766-1.8926 0.46004-2.9047 0.67196-2.4168 0.50604-5.1724 1.4856-4.9934 1.7752 0.1872 0.30288 0.22452 0.30027 4.2117-0.29474zm17.434-3.3107c3.7549-0.62701 5.6554-1.2763 5.4257-1.8535-0.14623-0.36736-2.5313-0.20676-3.8095 0.25652-0.58209 0.21098-1.9098 0.55814-2.9506 0.77149-2.1665 0.44412-4.4077 1.4544-3.2671 1.4728 0.3638 6e-3 2.4345-0.28543 4.6015-0.6473zm-15.669-0.83619c0.67216-0.6083 0.604-1.1094-0.1776-1.3056-1.5143-0.38007-2.8681 0.63634-1.8445 1.3848 0.65965 0.48234 1.4351 0.45194 2.0221-0.0793zm30.726-0.91522c0.39372-0.62528 0.032-1.2927-0.70065-1.2927-0.98528 0-1.3754 0.63882-0.78601 1.287 0.5565 0.61201 1.1036 0.61411 1.4867 6e-3zm-3.9825-5.8046c0.5457-0.15155 0.99219-0.37627 0.99219-0.49939 0-0.29008-0.67529-0.54504-1.4436-0.54504-0.3336 0-1.0978-0.17331-1.6982-0.38514-1.0073-0.35541-1.0916-0.34974-1.0916 0.07342 0 0.25221 0.18535 0.72318 0.41188 1.0466 0.45792 0.65376 1.2699 0.7426 2.8293 0.30954zm9.1054-2.5174c0.236-0.61502-0.22736-0.9278-1.4465-0.97642-1.3811-0.05508-1.6766 0.24107-0.88275 0.88468 0.76127 0.61717 2.1072 0.67018 2.3292 0.09173zm-120.83 25.021c0-0.14552 0.11204-0.26459 0.24897-0.26459s0.32255 0.11907 0.41249 0.26459c0.08994 0.14552-0.02209 0.26458-0.24897 0.26458-0.22687 0-0.41249-0.11906-0.41249-0.26458zm-12.998-1.8121c-1.4595-1.4688-1.5086-1.804-0.12468-0.85184 1.299 0.89374 1.7965 0.9126 2.2395 0.0849 0.33508-0.62611 0.18315-0.83751-1.3533-1.883-0.69122-0.47033-1.2568-0.90793-1.2568-0.97245 0-0.0645 0.80367 0.19064 1.7859 0.56701 0.98226 0.37638 2.292 0.87729 2.9104 1.1131 0.61846 0.23585 1.1245 0.4985 1.1245 0.58368 0 0.20348-3.8371 2.3846-4.1355 2.3507-0.12659-0.0144-0.66213-0.46086-1.1901-0.99219zm-13.989-1.2213c0-1.0422 0.16939-1.1582 0.69002-0.47233 0.47846 0.63029 0.45491 0.79493-0.16085 1.1245-0.48278 0.25837-0.52917 0.20121-0.52917-0.65215zm8.7312-2.0499c-0.80036-0.14187-1.5524-0.34992-1.6712-0.46234-0.11878-0.11243 0.38683-0.64689 1.1236-1.1877s1.4492-1.1793 1.5833-1.419c0.22306-0.39859 0.29066-0.39324 0.79466 0.0629 0.30297 0.27419 0.55086 0.61898 0.55086 0.7662s-0.07519 0.19249-0.16708 0.10059c-0.27697-0.27697-1.1558 0.33038-1.1558 0.79875 0 0.24016 0.25888 0.71222 0.57529 1.049 0.64234 0.68374 0.61074 0.68938-1.6336 0.29157zm26.723-7.7994c2.9745-1.2981 8.7191-2.6466 18.785-4.4097 3.7108-0.64993 10.609-1.8586 15.329-2.6858 8.1901-1.4355 8.622-1.4851 9.4589-1.086 0.76376 0.36421 1.2374 1.2173 0.67849 1.2222-0.51383 4e-3 -7.647 1.1225-10.12 1.5862-1.528 0.28647-5.5135 0.88442-8.8567 1.3288-3.3432 0.44435-7.8676 1.1541-10.054 1.5772-7.7504 1.4996-15.482 2.9141-15.812 2.8929-0.18395-0.0119 0.08227-0.20345 0.59159-0.42573zm86.469-6.348c0.191-0.0764 0.4192-0.067 0.50712 0.0209 0.0879 0.0879-0.0684 0.15045-0.34726 0.13897-0.30823-0.0127-0.37092-0.0754-0.15986-0.15986zm17.989-8.4986c-1.955-1.6975-2.2958-2.2539-0.84598-1.3811 0.56677 0.34118 1.7451 0.99806 2.6185 1.4597l1.588 0.83939-0.84652 0.26496c-0.79764 0.24966-0.9428 0.18135-2.5141-1.183z" fill="#050505" stroke-width=".26458"/>
  </g>
 </g>
</svg>
