<?xml version="1.0" encoding="UTF-8" standalone="no"?>
<!-- Generator: Adobe Illustrator 21.0.0, SVG Export Plug-In . SVG Version: 6.00 Build 0)  -->
<svg id="svg2" xmlns:rdf="http://www.w3.org/1999/02/22-rdf-syntax-ns#" xmlns="http://www.w3.org/2000/svg" xml:space="preserve" viewBox="0 0 765.42151 491.43497" height="491.44" width="765.42" version="1.1" y="0px" x="0px" xmlns:cc="http://creativecommons.org/ns#" xmlns:dc="http://purl.org/dc/elements/1.1/"><g id="layer2" transform="translate(24.289 -.0054878)"><g id="layer1" stroke-linejoin="round" transform="translate(-4.5679,-209.11)" stroke="#000" stroke-linecap="round" fill="none"><path id="path9239" d="m55.826 532.1s0.06935 4.2879 0.06935 4.8706c0 0.54517-0.06223-0.58106 0.08816 0.62207 0.16919 0.37598 27.396 15.324 27.396 15.324v-5.4694l-3.1535-5.8636-21.016-11.516z"/><path id="path24413" d="m59.384 530.43s-0.25754 3.1711-0.000733 4.6612c0.06221 0.36096 0.39294 0.5949 0.39294 0.5949l11.702 6.455 11.646 6.2952"/><g id="g6"><g id="g8" stroke-width="2"><g id="g54545" stroke-width="1"><path id="path24415" d="m57.601 538.33 3.1535-1.8724"/><path id="path24417" d="m56.123 536.41 3.1555-1.722"/><path id="path24419" d="m56.221 533.35 2.7561-1.687"/></g><ellipse id="path8901" cy="465.33" cx="99.177" rx="8.1007" ry="4.1636"/><ellipse id="path8903" cy="465.29" cx="98.968" rx="5.5921" ry="2.5609"/><path id="path8905" d="m90.937 465.7-0.03484 7.8742 1.1719 1.053s1.7199 1.6298 5.2738 1.9434c3.5539 0.31358 6.7245-0.90588 7.5607-1.3937 0.8362-0.48778 1.7491-1.4531 1.7491-1.4531 0.582-0.77601 0.85952-1.3747 0.82919-1.5782-0.036-0.24122-0.17421-6.0276-0.17421-6.0276"/><path id="path8907" d="m90.718 472.03c-0.32974-0.034-0.72858 0.37757-1.0185 1.3507 0.03599 1.0684 0.63145 2.1176 3.1579 3.3691 1.4405 0.71354 4.8039 1.4225 5.2917 1.3877 0.48778-0.0348 5.1552 0.27687 7.6304-1.533 2.4731-1.8084 2.6907-2.4926 2.9616-3.9371-0.15743-0.71293-0.49106-0.85722-0.94867-1.1197"/><path id="path24421" d="m5.5679 453.38 150.45 84.645-0.10453 13.623 7.4213 4.181 0.17421-13.414 150.02 84.605 0.0493 72.531-307.95-173.51z"/><path id="path24431" d="m155.95 538.03 430.73-243.21-149.97-84.705-431.08 243.18"/></g><path id="path24423" stroke-width="0.6" d="m5.8186 492.11 307.66 173.08 431.16-242.97"/></g><path id="path8895" d="m244.99 616.23c0 0.19709 1.0347 2.5622 1.6753 3.9419 0.64056 1.3797 2.168 3.9912 2.6115 4.5332 0.44346 0.54201 1.7246 1.971 3.055 3.2521s2.4637 1.8724 3.8433 2.5622c1.3797 0.68983 3.0057 1.3797 4.0897 1.5275 1.084 0.14783 2.4637-0.14782 3.3013-0.78837 0.83765-0.64056 1.5286-0.902 2.208-1.9995 0.67941-1.0975 1.6724-3.5016 1.533-5.8012-0.13937-2.2996-0.83621-7.3168-2.4389-10.453-1.6027-3.1358-5.9928-7.8742-7.038-8.7104-1.0453-0.8362-5.505-3.1358-6.7593-3.0661s-3.0661 0.76652-4.2507 2.0208-2.5783 3.5539-2.648 5.3656c-0.0697 1.8118 0.27874 4.8778 0.48779 5.8534 0.20905 0.97557 0.32995 1.7614 0.32995 1.7614z"/><g id="g21" stroke-width="2"><path id="path8897" stroke-width="1" d="m253.09 602.14v5.296c0 1.8815 2.2996 7.9439 2.9964 9.1982 0.69683 1.2543 4.3204 5.9928 4.8778 6.5502 0.55746 0.55747 4.9475 3.4842 5.2959 3.6932"/><path id="path24425" d="m744.64 383.68-430.92 243.4"/><path id="path24427" d="m744.7 383.71-0.27101 72.876-430.92 242.83"/><path id="path24429" d="m163.51 542.38 430.84-243.32 150.23 84.496"/><path id="path8921" d="m586.76 294.81 0.0739 8.2534"/></g><path id="path30549" stroke-width="2" d="m156.08 551.37 6.9722-4.0404"/></g><path id="path30547" d="m684.95 428.88c-2.4962-1.7615-2.4148-1.6897-3.5155-3.0986-3.5852-4.5887-4.276-5.8711-5.8549-10.869-0.46568-1.4741-0.48672-1.6342-0.54761-4.1661l-0.0633-2.6331 1.0935 0.59757c1.7028 0.93055 2.1621 1.2909 3.5272 2.7666 2.411 2.6065 4.2862 5.1053 5.1926 6.9192 1.0251 2.0515 1.8291 5.3197 2.1844 8.8792 0.12953 1.2977 0.069 2.9012-0.10931 2.8939-0.0468-0.002-0.90487-0.58204-1.9069-1.2891z" transform="translate(-425.38,-13.839)" stroke="#222" stroke-width="1px" fill="#222"/></g><g id="layer4" transform="translate(24.289 -.0054878)"><g id="layer3" transform="translate(-425.38,-13.839)"><g id="g10712" transform="translate(682.77,-65.773)"><g id="g5865" transform="translate(-.0000047684)" stroke="#000" stroke-linecap="round" stroke-width="0.3"><path id="path22867" d="m346.91-179.21c-1.3166-2.331-1.3166-6.1129-0.00021-8.4471s3.4509-2.337 4.7675-0.006 1.3167 6.1129 0.00023 8.4472c-1.3164 2.3343-3.4509 2.3369-4.7675 0.006" transform="rotate(90)" fill="#0f0"/><path id="path22867-7" d="m338.2-194.63c-1.3165-2.3308-1.3166-6.1126-0.00018-8.4468s3.4508-2.337 4.7673-0.006c1.3165 2.3308 1.3166 6.1127 0.00019 8.4469s-3.4508 2.3369-4.7673 0.006" transform="rotate(90)" fill="#ff0"/><path id="path22867-8" d="m329.49-210.04c-1.3164-2.3307-1.3165-6.1124-0.00014-8.4465 1.3163-2.3342 3.4506-2.337 4.7671-0.006 1.3164 2.3307 1.3165 6.1124 0.00016 8.4466-1.3164 2.3342-3.4506 2.337-4.7671 0.006" transform="rotate(90)" fill="#ff0"/><path id="path22867-1" d="m320.79-225.46c-1.3163-2.3306-1.3164-6.1121-0.0001-8.4462 1.3163-2.3342 3.4505-2.3371 4.7668-0.006 1.3164 2.3306 1.3164 6.1122 0.00012 8.4463-1.3163 2.3342-3.4505 2.337-4.7669 0.006" transform="rotate(90)" fill="none"/></g><g id="g31864" transform="translate(-1813 -667.69)"><g id="g30056" transform="matrix(.54347 0 0 -.54347 2501.9 1493.8)"><g id="g30123"><g id="g68139" transform="translate(-1612.4 765.93)"><path id="path68141" d="m0 0 5.875-10.67-0.021-7.403-28.062 16.173 0.021 7.402 5.914 3.865 16.273-9.367z" fill="#d2d3cf"/></g><g stroke="#000"><g id="g68143" transform="translate(1762.8 473.51)"><path id="path68145" d="m-3357.4 287.14-66.545-38.672-44.266 25.557 66.545 38.672 44.266-25.557z" stroke="#000" fill="#5e5e5e"/></g><g id="g68147" transform="translate(-1594.6 760.65)"><path id="path68149" d="m0 0-0.065-22.885-66.545-38.672 0.065 22.885 66.545 38.672z" stroke="#000" fill="#5e5e5e"/></g><g id="g68151" transform="translate(-1661.2 721.98)"><path id="path68153" d="m0 0-0.065-22.885-44.266 25.557 0.065 22.885 44.266-25.557z" stroke="#000" fill="#5e5e5e"/></g><g id="g68155" transform="translate(-1684.2 733.57)"><path id="path68157" d="m0 0c-2.216 1.279-4.224 1.398-5.673 0.556l-10.235-5.952c1.45 0.842 3.458 0.723 5.674-0.556 4.403-2.542 7.961-8.704 7.946-13.764-0.007-2.514-0.894-4.282-2.325-5.114l10.234 5.952c1.431 0.831 2.319 2.6 2.326 5.114 0.014 5.06-3.544 11.222-7.947 13.764" stroke="#000" fill="#333"/></g><g id="g68159" transform="translate(-1762.5 739.36)"><path id="path68161" d="m68.094-11.74c4.403-2.542 7.961-8.704 7.947-13.764-0.015-5.06-3.596-7.101-7.999-4.559-4.403 2.543-7.961 8.705-7.947 13.765 0.015 5.06 3.596 7.1 7.999 4.558" stroke="#000" fill="#222"/></g></g></g></g><path id="path30338" fill-rule="evenodd" style="color-rendering:auto;text-decoration-color:#000000;color:#000000;isolation:auto;mix-blend-mode:normal;shape-rendering:auto;solid-color:#000000;block-progression:tb;text-decoration-line:none;text-decoration-style:solid;image-rendering:auto;white-space:normal;text-indent:0;text-transform:none" d="m23.43 351.76c-0.86542-0.0198-1.7233 0.16485-2.5039 0.53906-12.315 5.6873-20.473 13.628-28.064 21.004-1.4705 1.4286-2.922 2.8272-4.3809 4.2051-0.42882 2.4134-0.88622 4.811-1.3555 7.1894-0.66898 3.3909-1.3438 6.7442-1.9961 10.08 5.9057-4.3504 10.77-9.0893 15.398-13.586 7.585-7.3691 14.541-14.072 25.01-18.906 5.3648-2.3848 3.762-10.39-2.1074-10.525z" transform="translate(1555.6 747.3)"/><path id="path60890-4" d="m1545.3 1116.1-7.2188 34.289" stroke="#333" stroke-width="2" fill="none"/><path id="path60890-4-7" d="m1539.5 1116.5-7.2188 34.289" stroke="#333" stroke-width="2" fill="none"/><g fill-rule="evenodd" stroke="#000" stroke-width=".27986" fill="#ff0"><path id="path60942" style="color-rendering:auto;text-decoration-color:#000000;color:#000000;isolation:auto;mix-blend-mode:normal;shape-rendering:auto;solid-color:#000000;block-progression:tb;text-decoration-line:none;text-decoration-style:solid;image-rendering:auto;white-space:normal;text-indent:0;text-transform:none" d="m2018.6 1009.8-0.5582 1.4548 5.4696 2.0986 0.5582-1.4548-5.4696-2.0986z"/><path id="path60942-7" style="color-rendering:auto;text-decoration-color:#000000;color:#000000;isolation:auto;mix-blend-mode:normal;shape-rendering:auto;solid-color:#000000;block-progression:tb;text-decoration-line:none;text-decoration-style:solid;image-rendering:auto;white-space:normal;text-indent:0;text-transform:none" d="m2001 1001.2-0.7835 1.3469 5.0641 2.9455 0.7834-1.3469-5.064-2.9455z"/><path id="path60942-2" style="color-rendering:auto;text-decoration-color:#000000;color:#000000;isolation:auto;mix-blend-mode:normal;shape-rendering:auto;solid-color:#000000;block-progression:tb;text-decoration-line:none;text-decoration-style:solid;image-rendering:auto;white-space:normal;text-indent:0;text-transform:none" d="m2003.9 1016.5 1.2744 0.8964 3.3702-4.792-1.2744-0.8964-3.3702 4.792z"/><path id="path60942-2-4" style="color-rendering:auto;text-decoration-color:#000000;color:#000000;isolation:auto;mix-blend-mode:normal;shape-rendering:auto;solid-color:#000000;block-progression:tb;text-decoration-line:none;text-decoration-style:solid;image-rendering:auto;white-space:normal;text-indent:0;text-transform:none" d="m2014.6 1003.5 1.2744 0.8964 3.3703-4.792-1.2744-0.8964-3.3703 4.792z"/><path id="path60942-2-9" style="color-rendering:auto;text-decoration-color:#000000;color:#000000;isolation:auto;mix-blend-mode:normal;shape-rendering:auto;solid-color:#000000;block-progression:tb;text-decoration-line:none;text-decoration-style:solid;image-rendering:auto;white-space:normal;text-indent:0;text-transform:none" d="m2018.7 1005.8 0.4926 1.4781 5.5579-1.8525-0.4926-1.4781-5.5579 1.8525z"/><path id="path60942-2-6" style="color-rendering:auto;text-decoration-color:#000000;color:#000000;isolation:auto;mix-blend-mode:normal;shape-rendering:auto;solid-color:#000000;block-progression:tb;text-decoration-line:none;text-decoration-style:solid;image-rendering:auto;white-space:normal;text-indent:0;text-transform:none" d="m2014 1019.2 1.5353-0.2656-0.999-5.7728-1.5353 0.2656 0.999 5.7728z"/><path id="path60942-2-6-0" style="color-rendering:auto;text-decoration-color:#000000;color:#000000;isolation:auto;mix-blend-mode:normal;shape-rendering:auto;solid-color:#000000;block-progression:tb;text-decoration-line:none;text-decoration-style:solid;image-rendering:auto;white-space:normal;text-indent:0;text-transform:none" d="m2009.9 1003.6 1.5353-0.2656-0.999-5.7728-1.5353 0.26558 0.999 5.7728z"/><path id="path60942-2-9-0" style="color-rendering:auto;text-decoration-color:#000000;color:#000000;isolation:auto;mix-blend-mode:normal;shape-rendering:auto;solid-color:#000000;block-progression:tb;text-decoration-line:none;text-decoration-style:solid;image-rendering:auto;white-space:normal;text-indent:0;text-transform:none" d="m1998.9 1010 0.346 1.5191 5.7121-1.3015-0.346-1.5191-5.7121 1.3015z"/><path id="path60942-5" style="color-rendering:auto;text-decoration-color:#000000;color:#000000;isolation:auto;mix-blend-mode:normal;shape-rendering:auto;solid-color:#000000;block-progression:tb;text-decoration-line:none;text-decoration-style:solid;image-rendering:auto;white-space:normal;text-indent:0;text-transform:none" d="m2034.5 1000.8-0.5582 1.4548 5.4696 2.0986 0.5582-1.4548-5.4696-2.0986z"/><path id="path60942-2-4-5" style="color-rendering:auto;text-decoration-color:#000000;color:#000000;isolation:auto;mix-blend-mode:normal;shape-rendering:auto;solid-color:#000000;block-progression:tb;text-decoration-line:none;text-decoration-style:solid;image-rendering:auto;white-space:normal;text-indent:0;text-transform:none" d="m2030.5 994.53 1.2744 0.8964 3.3703-4.792-1.2744-0.8964-3.3703 4.792z"/><path id="path60942-2-9-1" style="color-rendering:auto;text-decoration-color:#000000;color:#000000;isolation:auto;mix-blend-mode:normal;shape-rendering:auto;solid-color:#000000;block-progression:tb;text-decoration-line:none;text-decoration-style:solid;image-rendering:auto;white-space:normal;text-indent:0;text-transform:none" d="m2034.5 996.8 0.4926 1.4781 5.5579-1.8525-0.4926-1.4781-5.5579 1.8525z"/><path id="path60942-2-6-5" style="color-rendering:auto;text-decoration-color:#000000;color:#000000;isolation:auto;mix-blend-mode:normal;shape-rendering:auto;solid-color:#000000;block-progression:tb;text-decoration-line:none;text-decoration-style:solid;image-rendering:auto;white-space:normal;text-indent:0;text-transform:none" d="m2029.8 1010.2 1.5353-0.2656-0.999-5.7728-1.5353 0.2656 0.999 5.7728z"/><path id="path60942-2-6-0-1" style="color-rendering:auto;text-decoration-color:#000000;color:#000000;isolation:auto;mix-blend-mode:normal;shape-rendering:auto;solid-color:#000000;block-progression:tb;text-decoration-line:none;text-decoration-style:solid;image-rendering:auto;white-space:normal;text-indent:0;text-transform:none" d="m2025.8 994.6 1.5353-0.2656-0.999-5.7728-1.5353 0.26558 0.999 5.7728z"/><path id="path60942-7-9" style="color-rendering:auto;text-decoration-color:#000000;color:#000000;isolation:auto;mix-blend-mode:normal;shape-rendering:auto;solid-color:#000000;block-progression:tb;text-decoration-line:none;text-decoration-style:solid;image-rendering:auto;white-space:normal;text-indent:0;text-transform:none" d="m2016.4 992.29-0.8629 1.2974 4.8779 3.2445 0.8629-1.2974-4.8779-3.2445z"/></g></g></g><g id="g6453" fill="#a0a0a0"><path id="path30535" d="m518.72 280.3c-1.7351-0.097-3.3892-0.56775-4.5304-1.2892-0.24252-0.15332-0.66387-0.47655-0.93633-0.71829l-0.49538-0.43953v-2.2858c0-1.8156 0.0127-2.2781 0.0616-2.2484 0.0339 0.0205 0.21394 0.13549 0.40013 0.2555 1.1548 0.74433 3.0641 1.3437 4.9852 1.5648 0.92713 0.10674 2.6823 0.10621 3.5948-0.001 1.9186-0.22557 3.5726-0.73488 4.8415-1.4908 0.26401-0.15728 0.49665-0.29336 0.51698-0.30239 0.0203-0.009 0.0389 0.32356 0.0413 0.73911 0.002 0.41554 0.0207 1.199 0.0408 1.741 0.0341 0.9223 0.0302 0.99811-0.0605 1.1826-0.18471 0.37541-0.46645 0.74084-0.86326 1.1197-0.79707 0.76097-1.3193 1.0641-2.4966 1.4489-1.2375 0.4045-2.3772 0.62209-3.7112 0.70852-0.70494 0.0457-0.82537 0.047-1.3886 0.0155z"/><path id="path30537" d="m518.71 271.47c-1.4395-0.12594-3.1229-0.76128-3.4028-1.2843-0.0914-0.1708-0.0661-0.24907 0.15573-0.48055 0.61506-0.64199 2.0661-1.077 3.8425-1.152 1.9172-0.0809 3.4677 0.22672 4.4496 0.88291 0.61753 0.4127 0.65347 0.64417 0.16285 1.0488-0.92611 0.76388-3.0799 1.1713-5.2078 0.9851z"/><path id="path30539" d="m525.56 271.82c0.48019-0.47714 0.73359-0.96384 0.80934-1.5545 0.0855-0.66706-0.17816-1.3854-0.71362-1.944-0.0877-0.0915-0.15079-0.1663-0.14025-0.1663 0.0361 0 0.51856 0.32717 0.69106 0.46867 0.91648 0.75179 1.109 1.5208 0.56952 2.2753-0.14094 0.19713-0.46991 0.5201-0.71734 0.70428-0.18537 0.13798-0.67614 0.44437-0.71178 0.44437-0.009 0 0.0869-0.10255 0.21307-0.22789z"/><path id="path30541" d="m513.52 271.27c-0.1568-0.15541-0.25861-0.27686-0.35801-0.42709-0.26428-0.39942-0.32702-0.7952-0.18933-1.1945 0.0495-0.14356 0.15717-0.33823 0.27046-0.48901 0.0789-0.10505 0.27468-0.32162 0.27468-0.30389 0 0.002-0.0157 0.0328-0.035 0.0676-0.0667 0.12044-0.13274 0.27298-0.17672 0.40811-0.0848 0.26068-0.11884 0.51261-0.10751 0.79661 0.0161 0.40428 0.15291 0.81316 0.39629 1.1846 0.0223 0.0341 0.0395 0.0631 0.0381 0.0645-0.001 0.001-0.0522-0.0468-0.11296-0.10695z"/></g></g></g></svg>
