<?xml version="1.0" standalone="no"?>
<!DOCTYPE svg PUBLIC "-//W3C//DTD SVG 20010904//EN"
 "http://www.w3.org/TR/2001/REC-SVG-20010904/DTD/svg10.dtd">
<svg version="1.0" xmlns="http://www.w3.org/2000/svg"
 width="700.000000pt" height="700.000000pt" viewBox="0 0 700.000000 700.000000"
 preserveAspectRatio="xMidYMid meet">
<metadata>
Created by potrace 1.11, written by Peter Selinger 2001-2013
</metadata>
<g transform="translate(0.000000,700.000000) scale(0.100000,-0.100000)"
fill="#000000" stroke="none">
<path d="M3249 6965 c-2 -2 -40 -6 -84 -9 -174 -14 -320 -37 -552 -90 -111
-25 -362 -108 -457 -151 -28 -12 -61 -26 -73 -29 -12 -4 -59 -25 -103 -47
-318 -155 -595 -357 -885 -644 -417 -413 -690 -917 -731 -1350 -21 -223 1
-394 78 -590 83 -211 237 -413 433 -567 184 -145 391 -224 665 -255 140 -16
376 -8 495 16 28 6 61 12 75 15 14 2 70 18 125 35 343 107 618 340 759 643 19
42 38 90 42 105 4 15 10 33 15 38 4 6 10 22 13 35 2 14 11 57 20 95 25 115 28
143 31 300 3 217 -14 369 -65 575 -11 41 -21 86 -24 100 -29 133 -34 181 -34
315 0 234 44 418 150 630 69 137 124 212 247 335 177 176 376 293 678 397
l108 37 -40 7 c-100 18 -226 37 -290 45 -57 6 -591 15 -596 9z"/>
<path d="M4305 6624 c-111 -20 -252 -67 -355 -121 -205 -105 -422 -308 -544
-508 -71 -118 -140 -329 -160 -491 -4 -27 -9 -65 -11 -84 -6 -43 -7 -288 -1
-315 2 -11 7 -42 10 -70 25 -194 94 -401 184 -555 232 -392 612 -598 1114
-602 92 0 276 10 287 16 3 2 31 7 62 10 53 6 73 10 117 20 9 3 49 12 87 21 39
8 97 22 130 30 329 79 742 0 1045 -201 226 -149 439 -424 535 -689 10 -27 22
-54 25 -60 4 -5 22 -54 40 -108 18 -54 33 -97 35 -95 6 7 47 277 53 353 14
172 6 694 -13 795 -2 14 -7 47 -10 75 -18 149 -95 465 -149 618 -188 524 -407
861 -831 1281 -343 339 -771 584 -1167 667 -130 27 -365 33 -483 13z"/>
<path d="M65 4018 c-10 -73 -20 -142 -23 -153 -8 -36 -10 -598 -1 -685 4 -47
10 -109 13 -138 3 -29 8 -62 11 -75 2 -12 6 -35 9 -52 48 -345 194 -774 369
-1085 111 -197 241 -380 393 -551 83 -94 333 -338 414 -402 144 -116 332 -237
498 -321 350 -177 714 -240 1012 -175 183 40 397 143 532 256 37 31 205 200
228 229 137 174 212 361 254 629 18 114 18 364 -1 475 -7 47 -16 101 -19 120
-11 63 -81 264 -119 340 -96 191 -249 371 -400 472 -218 144 -444 209 -740
211 -229 3 -370 -13 -545 -58 -36 -9 -72 -18 -80 -20 -8 -2 -35 -8 -60 -15
-211 -58 -519 -46 -760 30 -97 31 -296 133 -375 192 -129 98 -257 237 -350
383 -46 73 -145 268 -145 287 0 8 -4 18 -9 23 -5 6 -24 53 -41 105 -18 52 -36
99 -40 103 -4 4 -15 -52 -25 -125z"/>
<path d="M5207 3784 c-1 -1 -42 -5 -92 -9 -49 -4 -92 -8 -95 -10 -3 -2 -24 -6
-48 -10 -142 -21 -344 -96 -485 -179 -345 -203 -550 -545 -586 -975 -18 -220
2 -428 69 -711 51 -214 58 -267 55 -430 -5 -216 -46 -381 -145 -585 -135 -277
-370 -500 -671 -638 -146 -68 -172 -79 -266 -109 -52 -16 -93 -31 -91 -33 2
-2 19 -6 38 -9 19 -3 46 -8 60 -10 186 -34 292 -41 575 -41 225 1 374 8 445
20 14 3 45 7 70 10 40 5 72 10 185 31 17 3 93 21 170 40 77 19 148 37 157 39
69 16 389 142 503 198 153 75 380 216 495 307 180 142 390 340 531 500 57 65
87 104 172 221 118 162 257 424 315 594 25 76 69 254 77 320 11 78 13 276 4
336 -15 106 -21 134 -50 222 -94 288 -302 551 -571 724 -138 88 -374 161 -582
179 -67 6 -235 12 -239 8z"/>
</g>
</svg>
