<?xml version="1.0" encoding="UTF-8" standalone="no"?>
<!-- Created with Inkscape (http://www.inkscape.org/) -->

<svg
   xmlns:dc="http://purl.org/dc/elements/1.1/"
   xmlns:cc="http://creativecommons.org/ns#"
   xmlns:rdf="http://www.w3.org/1999/02/22-rdf-syntax-ns#"
   xmlns:svg="http://www.w3.org/2000/svg"
   xmlns="http://www.w3.org/2000/svg"
   xmlns:sodipodi="http://sodipodi.sourceforge.net/DTD/sodipodi-0.dtd"
   xmlns:inkscape="http://www.inkscape.org/namespaces/inkscape"
   width="7.0000005mm"
   height="43.483616mm"
   viewBox="0 0 24.803151 154.0758"
   id="svg10443"
   version="1.1"
   inkscape:version="0.91 r13725"
   sodipodi:docname="breadboard_title.svg">
  <defs
     id="defs10445" />
  <sodipodi:namedview
     id="base"
     pagecolor="#ffffff"
     bordercolor="#666666"
     borderopacity="1.0"
     inkscape:pageopacity="0.0"
     inkscape:pageshadow="2"
     inkscape:zoom="3.959798"
     inkscape:cx="-34.065271"
     inkscape:cy="61.109397"
     inkscape:document-units="px"
     inkscape:current-layer="layer1"
     showgrid="false"
     fit-margin-top="0"
     fit-margin-left="0"
     fit-margin-right="0"
     fit-margin-bottom="0"
     inkscape:window-width="2560"
     inkscape:window-height="1017"
     inkscape:window-x="-8"
     inkscape:window-y="-8"
     inkscape:window-maximized="1" />
  <metadata
     id="metadata10448">
    <rdf:RDF>
      <cc:Work
         rdf:about="">
        <dc:format>image/svg+xml</dc:format>
        <dc:type
           rdf:resource="http://purl.org/dc/dcmitype/StillImage" />
        <dc:title />
      </cc:Work>
    </rdf:RDF>
  </metadata>
  <g
     inkscape:label="Layer 1"
     inkscape:groupmode="layer"
     id="layer1"
     transform="translate(1387.6245,-2.8880186)">
    <g
       id="g11034"
       transform="matrix(1,0,0,1.4494539,0.01949561,-70.514026)">
      <rect
         y="50.73674"
         x="-1387.5485"
         height="106.10808"
         width="24.612015"
         id="rect10401"
         style="opacity:1;fill:#f05423;fill-opacity:1;stroke:#000000;stroke-width:0.19113578;stroke-linecap:round;stroke-linejoin:round;stroke-miterlimit:4;stroke-dasharray:none;stroke-dashoffset:0;stroke-opacity:1" />
    </g>
    <g
       transform="matrix(0,-1,1,0,0,0)"
       style="font-style:normal;font-variant:normal;font-weight:normal;font-stretch:normal;font-size:25px;line-height:125%;font-family:sans-serif;-inkscape-font-specification:'sans-serif, Normal';text-align:start;letter-spacing:0px;word-spacing:0px;writing-mode:lr-tb;text-anchor:start;fill:#ffffff;fill-opacity:1;stroke:none;stroke-width:1px;stroke-linecap:butt;stroke-linejoin:miter;stroke-opacity:1"
       id="text19716">
      <path
         d="m -151.09993,-1374.8857 0,5.6756 3.36182,0 q 1.69128,0 2.50061,-0.6952 0.8197,-0.7055 0.8197,-2.1478 0,-1.4526 -0.8197,-2.1375 -0.80933,-0.6951 -2.50061,-0.6951 l -3.36182,0 z m 0,-6.3709 0,4.6692 3.10242,0 q 1.53564,0 2.28271,-0.5707 0.75745,-0.581 0.75745,-1.7639 0,-1.1725 -0.75745,-1.7535 -0.74707,-0.5811 -2.28271,-0.5811 l -3.10242,0 z m -2.09595,-1.7224 5.35401,0 q 2.39685,0 3.69384,0.9961 1.297,0.9961 1.297,2.8326 0,1.4215 -0.66406,2.262 -0.66406,0.8404 -1.95068,1.048 1.54602,0.332 2.39685,1.3903 0.8612,1.048 0.8612,2.6252 0,2.0752 -1.41113,3.2061 -1.41113,1.131 -4.0155,1.131 l -5.56153,0 0,-15.4913 z"
         style="font-size:21.25px;fill:#ffffff;fill-opacity:1"
         id="path19721"
         inkscape:connector-curvature="0" />
      <path
         d="m -131.28181,-1374.7509 q 0.67443,0.2283 1.30737,0.9754 0.64331,0.7471 1.28662,2.0544 l 2.12707,4.2334 -2.25158,0 -1.98181,-3.974 q -0.76783,-1.5564 -1.49414,-2.0648 -0.71595,-0.5084 -1.96106,-0.5084 l -2.28272,0 0,6.5472 -2.09595,0 0,-15.4913 4.73145,0 q 2.65625,0 3.96362,1.1102 1.30738,1.1103 1.30738,3.3515 0,1.463 -0.68482,2.4279 -0.67444,0.965 -1.97143,1.3385 z m -5.25025,-6.5057 0,5.4993 2.6355,0 q 1.51489,0 2.28271,-0.6952 0.7782,-0.7056 0.7782,-2.0648 0,-1.3593 -0.7782,-2.0441 -0.76782,-0.6952 -2.28271,-0.6952 l -2.6355,0 z"
         style="font-size:21.25px;fill:#ffffff;fill-opacity:1"
         id="path19723"
         inkscape:connector-curvature="0" />
      <path
         d="m -123.85262,-1382.979 9.79493,0 0,1.7639 -7.69898,0 0,4.5862 7.37732,0 0,1.7639 -7.37732,0 0,5.6134 7.88574,0 0,1.7639 -9.98169,0 0,-15.4913 z"
         style="font-size:21.25px;fill:#ffffff;fill-opacity:1"
         id="path19725"
         inkscape:connector-curvature="0" />
      <path
         d="m -105.22774,-1380.9142 -2.84302,7.7094 5.69642,0 -2.8534,-7.7094 z m -1.18286,-2.0648 2.3761,0 5.903931,15.4913 -2.178951,0 -1.41114,-3.974 -6.98303,0 -1.41113,3.974 -2.21009,0 5.91431,-15.4913 z"
         style="font-size:21.25px;fill:#ffffff;fill-opacity:1"
         id="path19727"
         inkscape:connector-curvature="0" />
      <path
         d="m -93.783035,-1381.2566 0,12.0465 2.531738,0 q 3.206177,0 4.689941,-1.4526 1.494141,-1.4527 1.494141,-4.5862 0,-3.1128 -1.494141,-4.5551 -1.483764,-1.4526 -4.689941,-1.4526 l -2.531738,0 z m -2.095948,-1.7224 4.306031,0 q 4.503174,0 6.609497,1.878 2.106323,1.8677 2.106323,5.8521 0,4.0051 -2.116699,5.8832 -2.116699,1.878 -6.599121,1.878 l -4.306031,0 0,-15.4913 z"
         style="font-size:21.25px;fill:#ffffff;fill-opacity:1"
         id="path19729"
         inkscape:connector-curvature="0" />
      <path
         d="m -77.430496,-1374.8857 0,5.6756 3.361816,0 q 1.691284,0 2.500611,-0.6952 0.819702,-0.7055 0.819702,-2.1478 0,-1.4526 -0.819702,-2.1375 -0.809327,-0.6951 -2.500611,-0.6951 l -3.361816,0 z m 0,-6.3709 0,4.6692 3.102417,0 q 1.535644,0 2.282715,-0.5707 0.757446,-0.581 0.757446,-1.7639 0,-1.1725 -0.757446,-1.7535 -0.747071,-0.5811 -2.282715,-0.5811 l -3.102417,0 z m -2.095947,-1.7224 5.354003,0 q 2.396851,0 3.693848,0.9961 1.296997,0.9961 1.296997,2.8326 0,1.4215 -0.664062,2.262 -0.664063,0.8404 -1.950684,1.048 1.546021,0.332 2.396851,1.3903 0.861206,1.048 0.861206,2.6252 0,2.0752 -1.411133,3.2061 -1.411133,1.131 -4.015503,1.131 l -5.561523,0 0,-15.4913 z"
         style="font-size:21.25px;fill:#ffffff;fill-opacity:1"
         id="path19731"
         inkscape:connector-curvature="0" />
      <path
         d="m -59.044266,-1381.5575 q -2.282715,0 -3.631592,1.7017 -1.338501,1.7016 -1.338501,4.638 0,2.9261 1.338501,4.6277 1.348877,1.7017 3.631592,1.7017 2.282715,0 3.61084,-1.7017 1.338501,-1.7016 1.338501,-4.6277 0,-2.9364 -1.338501,-4.638 -1.328125,-1.7017 -3.61084,-1.7017 z m 0,-1.7017 q 3.258057,0 5.20874,2.1894 1.950684,2.1789 1.950684,5.852 0,3.6627 -1.950684,5.8521 -1.950683,2.1789 -5.20874,2.1789 -3.268432,0 -5.229492,-2.1789 -1.950684,-2.179 -1.950684,-5.8521 0,-3.6731 1.950684,-5.852 1.96106,-2.1894 5.229492,-2.1894 z"
         style="font-size:21.25px;fill:#ffffff;fill-opacity:1"
         id="path19733"
         inkscape:connector-curvature="0" />
      <path
         d="m -43.801956,-1380.9142 -2.843018,7.7094 5.696411,0 -2.853393,-7.7094 z m -1.182862,-2.0648 2.376099,0 5.903931,15.4913 -2.178955,0 -1.411133,-3.974 -6.983032,0 -1.411133,3.974 -2.210083,0 5.914306,-15.4913 z"
         style="font-size:21.25px;fill:#ffffff;fill-opacity:1"
         id="path19735"
         inkscape:connector-curvature="0" />
      <path
         d="m -27.10701,-1374.7509 q 0.674439,0.2283 1.307373,0.9754 0.643311,0.7471 1.286621,2.0544 l 2.127075,4.2334 -2.251586,0 -1.981812,-3.974 q -0.767822,-1.5564 -1.494141,-2.0648 -0.715942,-0.5084 -1.961059,-0.5084 l -2.282715,0 0,6.5472 -2.095947,0 0,-15.4913 4.731445,0 q 2.65625,0 3.963623,1.1102 1.307373,1.1103 1.307373,3.3515 0,1.463 -0.684814,2.4279 -0.674439,0.965 -1.971436,1.3385 z m -5.250244,-6.5057 0,5.4993 2.635498,0 q 1.514893,0 2.282715,-0.6952 0.778198,-0.7056 0.778198,-2.0648 0,-1.3593 -0.778198,-2.0441 -0.767822,-0.6952 -2.282715,-0.6952 l -2.635498,0 z"
         style="font-size:21.25px;fill:#ffffff;fill-opacity:1"
         id="path19737"
         inkscape:connector-curvature="0" />
      <path
         d="m -17.581863,-1381.2566 0,12.0465 2.531738,0 q 3.206177,0 4.689941,-1.4526 1.4941409,-1.4527 1.4941409,-4.5862 0,-3.1128 -1.4941409,-4.5551 -1.483764,-1.4526 -4.689941,-1.4526 l -2.531738,0 z m -2.095948,-1.7224 4.306031,0 q 4.503173,0 6.6094967,1.878 2.1063232,1.8677 2.1063232,5.8521 0,4.0051 -2.1166992,5.8832 -2.1166997,1.878 -6.5991207,1.878 l -4.306031,0 0,-15.4913 z"
         style="font-size:21.25px;fill:#ffffff;fill-opacity:1"
         id="path19739"
         inkscape:connector-curvature="0" />
    </g>
  </g>
</svg>
