<?xml version="1.0" encoding="UTF-8" standalone="no"?>
<!-- Created with Inkscape (http://www.inkscape.org/) -->

<svg
   xmlns:dc="http://purl.org/dc/elements/1.1/"
   xmlns:cc="http://creativecommons.org/ns#"
   xmlns:rdf="http://www.w3.org/1999/02/22-rdf-syntax-ns#"
   xmlns:svg="http://www.w3.org/2000/svg"
   xmlns="http://www.w3.org/2000/svg"
   xmlns:sodipodi="http://sodipodi.sourceforge.net/DTD/sodipodi-0.dtd"
   xmlns:inkscape="http://www.inkscape.org/namespaces/inkscape"
   width="30mm"
   height="30mm"
   viewBox="0 0 106.29921 106.2992"
   id="svg53981"
   version="1.1"
   inkscape:version="0.92.2 (5c3e80d, 2017-08-06)"
   sodipodi:docname="BUZZER.svg">
  <defs
     id="defs53983">
    <clipPath
       clipPathUnits="userSpaceOnUse"
       id="clipPath3016">
      <path
         d="m 77.297,443.169 c -7.041,-11.131 -10.723,-14.787 -21.852,-21.852 l 0,0 c -5.511,-3.49 -5.972,-10.8 -3.023,-13.749 l 0,0 3.379,-3.38 c 2.941,-2.943 10.265,-2.482 13.754,3.026 l 0,0 c 7.033,11.138 10.719,14.8 21.847,21.849 l 0,0 c 5.506,3.497 5.979,10.807 3.031,13.752 l 0,0 -3.382,3.383 c -1.162,1.164 -3.006,1.796 -5.027,1.796 l 0,0 c -3.099,0 -6.613,-1.486 -8.727,-4.825"
         id="path3018"
         inkscape:connector-curvature="0" />
    </clipPath>
    <clipPath
       id="clipPath2046"
       clipPathUnits="userSpaceOnUse">
      <path
         inkscape:connector-curvature="0"
         id="path2048"
         d="m 201.307,478.751 171.05,0 0,83.783 -171.05,0 0,-83.783 z" />
    </clipPath>
    <clipPath
       id="clipPath2000"
       clipPathUnits="userSpaceOnUse">
      <path
         inkscape:connector-curvature="0"
         id="path2002"
         d="m 0,612 396,0 0,-612 -396,0 0,612 z" />
    </clipPath>
    <clipPath
       id="clipPath2902"
       clipPathUnits="userSpaceOnUse">
      <path
         inkscape:connector-curvature="0"
         id="path2904"
         d="m 0,612 396,0 0,-612 -396,0 0,612 z" />
    </clipPath>
    <clipPath
       id="clipPath23574"
       clipPathUnits="userSpaceOnUse">
      <rect
         transform="scale(1,-1)"
         y="-563.15497"
         x="201.37843"
         height="84.903999"
         width="171.29677"
         id="rect23576"
         style="opacity:1;fill:#00ff00;fill-opacity:1;stroke:none;stroke-width:0.2;stroke-linecap:round;stroke-linejoin:miter;stroke-miterlimit:4;stroke-dasharray:none;stroke-dashoffset:0;stroke-opacity:1" />
    </clipPath>
    <clipPath
       id="clipPath700"
       clipPathUnits="userSpaceOnUse">
      <path
         inkscape:connector-curvature="0"
         id="path702"
         d="m 24.36,478.75 171.05,0 0,83.785 -171.05,0 0,-83.785 z" />
    </clipPath>
    <clipPath
       id="clipPath780"
       clipPathUnits="userSpaceOnUse">
      <path
         inkscape:connector-curvature="0"
         id="path782"
         d="m 0,612 396,0 0,-612 -396,0 0,612 z" />
    </clipPath>
    <clipPath
       id="clipPath700-0"
       clipPathUnits="userSpaceOnUse">
      <path
         inkscape:connector-curvature="0"
         id="path702-3"
         d="m 24.36,478.75 171.05,0 0,83.785 -171.05,0 0,-83.785 z" />
    </clipPath>
    <clipPath
       id="clipPath492"
       clipPathUnits="userSpaceOnUse">
      <path
         inkscape:connector-curvature="0"
         id="path494"
         d="m 0,612 396,0 0,-612 -396,0 0,612 z" />
    </clipPath>
    <clipPath
       id="clipPath492-4"
       clipPathUnits="userSpaceOnUse">
      <path
         inkscape:connector-curvature="0"
         id="path494-7"
         d="m 0,612 396,0 0,-612 -396,0 0,612 z" />
    </clipPath>
    <clipPath
       id="clipPath700-0-6"
       clipPathUnits="userSpaceOnUse">
      <path
         inkscape:connector-curvature="0"
         id="path702-3-1"
         d="m 24.36,478.75 171.05,0 0,83.785 -171.05,0 0,-83.785 z" />
    </clipPath>
    <clipPath
       id="clipPath3040"
       clipPathUnits="userSpaceOnUse">
      <path
         inkscape:connector-curvature="0"
         id="path3042"
         d="m 0,612 396,0 0,-612 -396,0 0,612 z" />
    </clipPath>
    <clipPath
       id="clipPath3016-8"
       clipPathUnits="userSpaceOnUse">
      <path
         inkscape:connector-curvature="0"
         id="path3018-6"
         d="m 77.297,443.169 c -7.041,-11.131 -10.723,-14.787 -21.852,-21.852 l 0,0 c -5.511,-3.49 -5.972,-10.8 -3.023,-13.749 l 0,0 3.379,-3.38 c 2.941,-2.943 10.265,-2.482 13.754,3.026 l 0,0 c 7.033,11.138 10.719,14.8 21.847,21.849 l 0,0 c 5.506,3.497 5.979,10.807 3.031,13.752 l 0,0 -3.382,3.383 c -1.162,1.164 -3.006,1.796 -5.027,1.796 l 0,0 c -3.099,0 -6.613,-1.486 -8.727,-4.825" />
    </clipPath>
    <clipPath
       id="clipPath2984"
       clipPathUnits="userSpaceOnUse">
      <path
         inkscape:connector-curvature="0"
         id="path2986"
         d="m 24.36,387.892 171.049,0 0,83.783 -171.049,0 0,-83.783 z" />
    </clipPath>
    <clipPath
       id="clipPath2960"
       clipPathUnits="userSpaceOnUse">
      <path
         inkscape:connector-curvature="0"
         id="path2962"
         d="m 150.951,432.028 c -1.1,-1.779 -1.674,-2.372 -3.43,-3.508 l 0,0 c -0.867,-0.564 -0.928,-1.727 -0.455,-2.189 l 0,0 0.543,-0.531 c 0.472,-0.463 1.633,-0.375 2.178,0.506 l 0,0 c 1.102,1.779 1.673,2.37 3.429,3.51 l 0,0 c 0.869,0.562 0.928,1.726 0.455,2.188 l 0,0 -0.542,0.531 c -0.184,0.179 -0.47,0.275 -0.784,0.275 l 0,0 c -0.496,0 -1.061,-0.242 -1.394,-0.782" />
    </clipPath>
    <clipPath
       id="clipPath2940"
       clipPathUnits="userSpaceOnUse">
      <path
         inkscape:connector-curvature="0"
         id="path2942"
         d="m 113.039,464.953 c -1.986,0 -3.595,-1.612 -3.595,-3.598 l 0,0 0,-63.862 c 0,-1.987 1.609,-3.597 3.595,-3.597 l 0,0 72.33,0 c 1.987,0 3.596,1.61 3.596,3.597 l 0,0 0,63.862 c 0,1.986 -1.609,3.598 -3.596,3.598 l 0,0 -72.33,0 z" />
    </clipPath>
    <clipPath
       id="clipPath2920"
       clipPathUnits="userSpaceOnUse">
      <path
         inkscape:connector-curvature="0"
         id="path2922"
         d="m 0,612 396,0 0,-612 -396,0 0,612 z" />
    </clipPath>
    <clipPath
       id="clipPath254"
       clipPathUnits="userSpaceOnUse">
      <path
         inkscape:connector-curvature="0"
         id="path256"
         d="m 201.307,296.782 171.051,0 0,83.783 -171.051,0 0,-83.783 z" />
    </clipPath>
    <linearGradient
       id="linearGradient240"
       spreadMethod="pad"
       gradientTransform="matrix(-13.245696,13.245694,13.245694,13.245696,262.09277,340.16602)"
       gradientUnits="userSpaceOnUse"
       y2="0"
       x2="1"
       y1="0"
       x1="0">
      <stop
         id="stop242"
         offset="0"
         style="stop-opacity:1;stop-color:#d03a27" />
      <stop
         id="stop244"
         offset="0.496933"
         style="stop-opacity:1;stop-color:#fbb040" />
      <stop
         id="stop246"
         offset="1"
         style="stop-opacity:1;stop-color:#d03a27" />
    </linearGradient>
    <clipPath
       id="clipPath220"
       clipPathUnits="userSpaceOnUse">
      <path
         inkscape:connector-curvature="0"
         id="path222"
         d="m 201.307,296.782 171.051,0 0,83.783 -171.051,0 0,-83.783 z" />
    </clipPath>
    <linearGradient
       id="linearGradient206"
       spreadMethod="pad"
       gradientTransform="matrix(-13.245696,13.245694,13.245694,13.245696,245.58301,323.65625)"
       gradientUnits="userSpaceOnUse"
       y2="0"
       x2="1"
       y1="0"
       x1="0">
      <stop
         id="stop208"
         offset="0"
         style="stop-opacity:1;stop-color:#d03a27" />
      <stop
         id="stop210"
         offset="0.496933"
         style="stop-opacity:1;stop-color:#fbb040" />
      <stop
         id="stop212"
         offset="1"
         style="stop-opacity:1;stop-color:#d03a27" />
    </linearGradient>
    <clipPath
       id="clipPath174"
       clipPathUnits="userSpaceOnUse">
      <path
         inkscape:connector-curvature="0"
         id="path176"
         d="m 201.307,296.782 171.051,0 0,83.783 -171.051,0 0,-83.783 z" />
    </clipPath>
    <clipPath
       id="clipPath134"
       clipPathUnits="userSpaceOnUse">
      <path
         inkscape:connector-curvature="0"
         id="path136"
         d="m 290.787,374.165 c -1.986,0 -3.595,-1.611 -3.595,-3.597 l 0,0 0,-63.862 c 0,-1.989 1.609,-3.598 3.595,-3.598 l 0,0 72.331,0 c 1.986,0 3.595,1.609 3.595,3.598 l 0,0 0,63.862 c 0,1.986 -1.609,3.597 -3.595,3.597 l 0,0 -72.331,0 z" />
    </clipPath>
    <linearGradient
       id="linearGradient120"
       spreadMethod="pad"
       gradientTransform="matrix(-2.4582775,2.458277,2.458277,2.4582775,331.63965,338.57764)"
       gradientUnits="userSpaceOnUse"
       y2="0"
       x2="1"
       y1="0"
       x1="0">
      <stop
         id="stop122"
         offset="0"
         style="stop-opacity:1;stop-color:#d03a27" />
      <stop
         id="stop124"
         offset="0.496933"
         style="stop-opacity:1;stop-color:#fbb040" />
      <stop
         id="stop126"
         offset="1"
         style="stop-opacity:1;stop-color:#d03a27" />
    </linearGradient>
    <clipPath
       id="clipPath100"
       clipPathUnits="userSpaceOnUse">
      <path
         inkscape:connector-curvature="0"
         id="path102"
         d="m 290.787,374.165 c -1.986,0 -3.595,-1.611 -3.595,-3.597 l 0,0 0,-63.862 c 0,-1.989 1.609,-3.598 3.595,-3.598 l 0,0 72.331,0 c 1.986,0 3.595,1.609 3.595,3.598 l 0,0 0,63.862 c 0,1.986 -1.609,3.597 -3.595,3.597 l 0,0 -72.331,0 z" />
    </clipPath>
    <linearGradient
       id="linearGradient86"
       spreadMethod="pad"
       gradientTransform="matrix(-2.4596586,2.4596581,2.4596581,2.4596586,328.57617,335.51465)"
       gradientUnits="userSpaceOnUse"
       y2="0"
       x2="1"
       y1="0"
       x1="0">
      <stop
         id="stop88"
         offset="0"
         style="stop-opacity:1;stop-color:#d03a27" />
      <stop
         id="stop90"
         offset="0.496933"
         style="stop-opacity:1;stop-color:#fbb040" />
      <stop
         id="stop92"
         offset="1"
         style="stop-opacity:1;stop-color:#d03a27" />
    </linearGradient>
    <clipPath
       id="clipPath54"
       clipPathUnits="userSpaceOnUse">
      <path
         inkscape:connector-curvature="0"
         id="path56"
         d="m 290.787,374.165 c -1.986,0 -3.595,-1.611 -3.595,-3.597 l 0,0 0,-63.862 c 0,-1.989 1.609,-3.598 3.595,-3.598 l 0,0 72.331,0 c 1.986,0 3.595,1.609 3.595,3.598 l 0,0 0,63.862 c 0,1.986 -1.609,3.597 -3.595,3.597 l 0,0 -72.331,0 z" />
    </clipPath>
    <clipPath
       id="clipPath34"
       clipPathUnits="userSpaceOnUse">
      <path
         inkscape:connector-curvature="0"
         id="path36"
         d="m 0,612 396,0 0,-612 -396,0 0,612 z" />
    </clipPath>
    <clipPath
       id="clipPath1946"
       clipPathUnits="userSpaceOnUse">
      <path
         inkscape:connector-curvature="0"
         id="path1948"
         d="m 0,612 396,0 0,-612 -396,0 0,612 z" />
    </clipPath>
    <clipPath
       id="clipPath1890"
       clipPathUnits="userSpaceOnUse">
      <path
         inkscape:connector-curvature="0"
         id="path1892"
         d="m 51.608,352.558 -0.981,-12.002 c -0.027,-0.19 -0.047,-0.38 -0.047,-0.575 l 0,0 c 0,-3.741 5.478,-6.77 12.236,-6.77 l 0,0 c 6.761,-0.001 12.236,3.03 12.236,6.77 l 0,0 c 0,0.196 -0.019,0.388 -0.048,0.58 l 0,0 -0.984,11.996 -0.01,0 c 0.002,-0.056 0.015,-0.111 0.015,-0.167 l 0,0 c 0,-3.427 -5.015,-6.203 -11.209,-6.203 l 0,0 c -6.189,0 -11.208,2.776 -11.208,6.203 l 0,0 c 0,0.055 0.004,0.111 0.005,0.168 l 0,0 -0.005,0 z" />
    </clipPath>
    <clipPath
       id="clipPath1744"
       clipPathUnits="userSpaceOnUse">
      <path
         inkscape:connector-curvature="0"
         id="path1746"
         d="m 0,612 396,0 0,-612 -396,0 0,612 z" />
    </clipPath>
    <clipPath
       id="clipPath1672"
       clipPathUnits="userSpaceOnUse">
      <path
         inkscape:connector-curvature="0"
         id="path1674"
         d="m 0,612 396,0 0,-612 -396,0 0,612 z" />
    </clipPath>
    <clipPath
       id="clipPath1632"
       clipPathUnits="userSpaceOnUse">
      <path
         inkscape:connector-curvature="0"
         id="path1634"
         d="m 130.757,349.814 c -6.863,-10.159 -4.194,-23.959 5.968,-30.824 l 0,0 c 10.16,-6.862 23.964,-4.196 30.829,5.964 l 0,0 c 6.865,10.157 4.191,23.957 -5.967,30.822 l 0,0 c -3.813,2.576 -8.137,3.809 -12.415,3.809 l 0,0 c -7.127,0 -14.126,-3.424 -18.415,-9.771" />
    </clipPath>
    <clipPath
       id="clipPath1592"
       clipPathUnits="userSpaceOnUse">
      <path
         inkscape:connector-curvature="0"
         id="path1594"
         d="m 133.456,353.083 c -8.672,-8.67 -8.672,-22.723 0,-31.394 l 0,0 c 8.67,-8.671 22.728,-8.673 31.399,-0.003 l 0,0 c 8.669,8.669 8.669,22.725 0,31.395 l 0,0 c -4.337,4.336 -10.02,6.504 -15.702,6.504 l 0,0 c -5.681,0 -11.362,-2.168 -15.697,-6.502" />
    </clipPath>
    <clipPath
       id="clipPath3772"
       clipPathUnits="userSpaceOnUse">
      <path
         inkscape:connector-curvature="0"
         id="path3774"
         d="m 24.36,205.797 171.05,0 0,83.785 -171.05,0 0,-83.785 z" />
    </clipPath>
    <clipPath
       id="clipPath3728"
       clipPathUnits="userSpaceOnUse">
      <path
         inkscape:connector-curvature="0"
         id="path3730"
         d="m 0,612 396,0 0,-612 -396,0 0,612 z" />
    </clipPath>
  </defs>
  <sodipodi:namedview
     id="base"
     pagecolor="#ffffff"
     bordercolor="#666666"
     borderopacity="1.0"
     inkscape:pageopacity="0.0"
     inkscape:pageshadow="2"
     inkscape:zoom="3.959798"
     inkscape:cx="55.020218"
     inkscape:cy="37.608466"
     inkscape:document-units="px"
     inkscape:current-layer="layer1"
     showgrid="false"
     fit-margin-top="0"
     fit-margin-left="0"
     fit-margin-right="0"
     fit-margin-bottom="0"
     inkscape:window-width="1920"
     inkscape:window-height="1001"
     inkscape:window-x="-9"
     inkscape:window-y="-9"
     inkscape:window-maximized="1"
     showguides="false" />
  <metadata
     id="metadata53986">
    <rdf:RDF>
      <cc:Work
         rdf:about="">
        <dc:format>image/svg+xml</dc:format>
        <dc:type
           rdf:resource="http://purl.org/dc/dcmitype/StillImage" />
        <dc:title></dc:title>
      </cc:Work>
    </rdf:RDF>
  </metadata>
  <g
     inkscape:label="Layer 1"
     inkscape:groupmode="layer"
     id="layer1"
     transform="translate(-338.23598,-344.14166)">
    <text
       xml:space="preserve"
       style="font-style:normal;font-variant:normal;font-weight:normal;font-stretch:normal;line-height:0%;font-family:sans-serif;-inkscape-font-specification:'sans-serif, Normal';text-align:start;letter-spacing:0px;word-spacing:0px;writing-mode:lr-tb;text-anchor:start;fill:#000000;fill-opacity:1;stroke:none;stroke-width:1px;stroke-linecap:butt;stroke-linejoin:miter;stroke-opacity:1"
       x="341.76382"
       y="358.69086"
       id="text10372"><tspan
         sodipodi:role="line"
         x="341.76382"
         y="358.69086"
         style="font-size:15px;line-height:1.25"
         id="tspan15166">Buzzer</tspan></text>
    <g
       id="g2674"
       transform="matrix(1.2075741,0,0,1.2075741,-319.65067,-81.228632)">
      <g
         transform="matrix(1.25,0,0,-1.25,582.43631,368.39352)"
         id="g364">
        <path
           inkscape:connector-curvature="0"
           id="path366"
           style="fill:#58595b;fill-opacity:1;fill-rule:nonzero;stroke:none"
           d="M 0,0 V -0.001 H -0.001 Z" />
      </g>
      <g
         transform="matrix(1.25,0,0,-1.25,582.43631,368.39352)"
         id="g368">
        <path
           inkscape:connector-curvature="0"
           id="path370"
           style="fill:none;stroke:#231f20;stroke-width:0.32600001;stroke-linecap:round;stroke-linejoin:round;stroke-miterlimit:4;stroke-dasharray:none;stroke-opacity:1"
           d="M 0,0 V -0.001 H -0.001 Z" />
      </g>
      <g
         transform="matrix(1.25,0,0,-1.25,582.43631,368.39352)"
         id="g372">
        <path
           inkscape:connector-curvature="0"
           id="path374"
           style="fill:#58595b;fill-opacity:1;fill-rule:nonzero;stroke:none"
           d="M 0,0 V -0.001 H -0.001 Z" />
      </g>
      <g
         transform="matrix(1.25,0,0,-1.25,582.43631,368.39352)"
         id="g376">
        <path
           inkscape:connector-curvature="0"
           id="path378"
           style="fill:none;stroke:#231f20;stroke-width:0.32600001;stroke-linecap:round;stroke-linejoin:round;stroke-miterlimit:4;stroke-dasharray:none;stroke-opacity:1"
           d="M 0,0 V -0.001 H -0.001 Z" />
      </g>
      <g
         transform="matrix(1.25,0,0,-1.25,582.43631,368.39352)"
         id="g380">
        <path
           inkscape:connector-curvature="0"
           id="path382"
           style="fill:#58595b;fill-opacity:1;fill-rule:nonzero;stroke:none"
           d="M 0,0 V -0.001 H -0.001 Z" />
      </g>
      <g
         transform="matrix(1.25,0,0,-1.25,582.43631,368.39352)"
         id="g384">
        <path
           inkscape:connector-curvature="0"
           id="path386"
           style="fill:none;stroke:#231f20;stroke-width:0.32600001;stroke-linecap:round;stroke-linejoin:round;stroke-miterlimit:4;stroke-dasharray:none;stroke-opacity:1"
           d="M 0,0 V -0.001 H -0.001 Z" />
      </g>
      <g
         transform="matrix(1.25,0,0,-1.25,564.32344,401.20964)"
         id="g392">
        <path
           inkscape:connector-curvature="0"
           id="path394"
           style="fill:#58595b;fill-opacity:1;fill-rule:nonzero;stroke:none"
           d="M 0,0 C -0.013,0.04 -0.022,0.082 -0.033,0.123 0.089,-0.291 0.232,-0.711 0.384,-1.129 0.336,-0.994 0.278,-0.857 0.232,-0.724 0.229,-0.707 0.224,-0.693 0.216,-0.678 0.145,-0.467 0.078,-0.258 0.013,-0.047 0.01,-0.031 0.004,-0.016 0,0 m 0.709,-1.995 c -0.044,0.11 -0.08,0.22 -0.123,0.331 0.172,-0.441 0.354,-0.884 0.558,-1.326 -0.043,0.093 -0.089,0.187 -0.13,0.279 0,0 -0.001,0.004 -0.002,0.005 -0.094,0.21 -0.184,0.419 -0.27,0.631 -0.013,0.027 -0.021,0.054 -0.033,0.08 m 0.594,-1.337 c -0.027,0.053 -0.05,0.107 -0.075,0.16 0.246,-0.523 0.509,-1.045 0.797,-1.567 0,0 -0.002,0.003 -0.004,0.007 C 2.019,-4.729 2.015,-4.721 2.013,-4.715 1.9,-4.514 1.793,-4.311 1.687,-4.108 1.672,-4.08 1.658,-4.051 1.642,-4.021 1.538,-3.817 1.437,-3.613 1.338,-3.41 1.326,-3.383 1.314,-3.359 1.303,-3.332 m 1.066,-2.014 c -0.105,0.18 -0.207,0.361 -0.306,0.539 0.286,-0.513 0.594,-1.029 0.92,-1.541 -0.049,0.077 -0.098,0.155 -0.149,0.233 -0.011,0.018 -0.023,0.037 -0.035,0.056 -0.125,0.202 -0.246,0.403 -0.365,0.604 -0.022,0.037 -0.044,0.074 -0.065,0.109 m 0.828,-1.336 c -0.036,0.055 -0.069,0.113 -0.106,0.168 0.34,-0.525 0.697,-1.048 1.08,-1.565 L 4.17,-8.078 C 4.166,-8.074 4.16,-8.066 4.156,-8.061 4.015,-7.867 3.874,-7.672 3.738,-7.477 3.712,-7.439 3.685,-7.402 3.659,-7.365 3.522,-7.17 3.391,-6.974 3.261,-6.777 3.238,-6.744 3.219,-6.712 3.197,-6.682 M 4.615,-8.668 C 4.474,-8.484 4.334,-8.301 4.197,-8.113 4.58,-8.633 4.986,-9.148 5.412,-9.658 5.354,-9.588 5.296,-9.52 5.238,-9.451 5.215,-9.422 5.19,-9.394 5.167,-9.363 5.012,-9.176 4.859,-8.983 4.711,-8.791 4.679,-8.75 4.647,-8.709 4.615,-8.668 m 3.271,-3.658 c 0.192,-0.186 0.384,-0.371 0.578,-0.55 -0.194,0.179 -0.386,0.364 -0.578,0.55 m 0.839,-0.781 c 0.185,-0.168 0.372,-0.336 0.562,-0.499 -0.19,0.163 -0.377,0.331 -0.562,0.499 m -3.048,3.13 c -0.054,0.065 -0.106,0.126 -0.159,0.192 0.437,-0.52 0.892,-1.035 1.37,-1.54 0.255,-0.269 0.513,-0.532 0.776,-0.791 -0.263,0.259 -0.521,0.522 -0.776,0.791 -0.178,0.19 -0.353,0.38 -0.528,0.572 -0.034,0.04 -0.071,0.079 -0.106,0.118 -0.167,0.19 -0.333,0.375 -0.496,0.562 -0.027,0.032 -0.053,0.065 -0.081,0.096 m 7.977,-6.774 c -0.181,0.108 -0.362,0.224 -0.543,0.337 0.181,-0.113 0.362,-0.229 0.543,-0.337 m -0.899,0.56 c -0.186,0.119 -0.368,0.243 -0.551,0.365 0.183,-0.122 0.365,-0.246 0.551,-0.365 m -0.89,0.594 c -0.185,0.13 -0.367,0.263 -0.552,0.398 0.185,-0.135 0.368,-0.27 0.552,-0.398 m -0.876,0.628 c -0.183,0.141 -0.368,0.283 -0.551,0.428 0.183,-0.145 0.366,-0.289 0.551,-0.428 m -0.86,0.666 c -0.187,0.149 -0.371,0.305 -0.554,0.457 0.183,-0.152 0.367,-0.308 0.554,-0.457 m 3.901,-2.666 c 0.178,-0.103 0.357,-0.209 0.535,-0.308 -0.178,0.099 -0.357,0.205 -0.535,0.308 m 0.919,-0.514 c 0.179,-0.094 0.356,-0.19 0.532,-0.281 -0.176,0.091 -0.353,0.187 -0.532,0.281 m 0.932,-0.476 c 0.174,-0.088 0.349,-0.174 0.525,-0.256 -0.176,0.082 -0.351,0.168 -0.525,0.256 m 0.932,-0.441 c 0.173,-0.079 0.345,-0.157 0.519,-0.23 -0.174,0.073 -0.345,0.151 -0.519,0.23 m 0.939,-0.403 c 0.169,-0.07 0.338,-0.136 0.507,-0.201 -0.169,0.065 -0.338,0.131 -0.507,0.201 m 0.942,-0.364 c 0.163,-0.06 0.327,-0.118 0.491,-0.175 -0.164,0.057 -0.328,0.115 -0.491,0.175 m 0.933,-0.32 c 0.16,-0.052 0.321,-0.105 0.48,-0.154 -0.159,0.049 -0.32,0.102 -0.48,0.154 m 6.698,-1.085 c -0.124,-0.006 -0.249,-0.003 -0.373,-0.004 0.124,0.001 0.25,0 0.373,0.004 m -0.848,0.005 c -0.128,0.003 -0.258,0.01 -0.389,0.016 0.131,-0.006 0.261,-0.013 0.389,-0.016 m 2.146,0.073 c 0.113,0.012 0.228,0.025 0.342,0.04 -0.114,-0.015 -0.229,-0.028 -0.342,-0.04 m 0.801,0.109 c 0.11,0.019 0.22,0.038 0.329,0.059 -0.109,-0.021 -0.219,-0.04 -0.329,-0.059 m 0.778,0.156 c 0.105,0.024 0.209,0.051 0.313,0.079 -0.104,-0.028 -0.208,-0.055 -0.313,-0.079 m -2.406,-0.33 c 0.121,0.007 0.241,0.015 0.36,0.024 -0.119,-0.009 -0.239,-0.017 -0.36,-0.024 m 3.881,0.783 c 0.094,0.038 0.187,0.077 0.282,0.116 -0.095,-0.039 -0.188,-0.078 -0.282,-0.116 m 0.691,0.297 c 0.089,0.043 0.178,0.09 0.268,0.135 -0.09,-0.045 -0.179,-0.092 -0.268,-0.135 m 0.659,0.347 c 0.085,0.05 0.17,0.103 0.254,0.153 -0.084,-0.05 -0.169,-0.103 -0.254,-0.153 m 0.626,0.396 c 0.081,0.055 0.16,0.115 0.238,0.172 -0.078,-0.057 -0.157,-0.117 -0.238,-0.172 m -2.701,-1.289 c 0.102,0.029 0.2,0.062 0.299,0.095 -0.099,-0.033 -0.197,-0.066 -0.299,-0.095 M 11.23,21.828 c -0.096,-0.252 -0.179,-0.511 -0.258,-0.771 0.079,0.26 0.162,0.519 0.258,0.771 m -0.425,-1.334 c -0.072,-0.284 -0.122,-0.578 -0.174,-0.87 0.052,0.292 0.102,0.586 0.174,0.87 m -0.271,-1.408 c -0.045,-0.361 -0.068,-0.731 -0.087,-1.102 0.019,0.371 0.042,0.741 0.087,1.102 m -0.112,-1.465 c -0.011,-0.497 0.006,-1.002 0.046,-1.515 -0.04,0.513 -0.057,1.018 -0.046,1.515 m 0.1,-1.965 c 0.039,-0.371 0.082,-0.741 0.146,-1.117 -0.064,0.376 -0.107,0.746 -0.146,1.117 m 0.273,-1.727 c 0.066,-0.329 0.136,-0.658 0.223,-0.991 -0.087,0.333 -0.157,0.662 -0.223,0.991 m 1.025,9.157 c -0.126,-0.229 -0.24,-0.465 -0.348,-0.703 0.106,0.239 0.222,0.474 0.348,0.703 M 11.774,10.614 c 0.123,-0.319 0.252,-0.635 0.39,-0.956 -0.138,0.321 -0.267,0.637 -0.39,0.956 m 0.709,-1.659 c 0.15,-0.319 0.31,-0.639 0.477,-0.959 -0.167,0.32 -0.327,0.64 -0.477,0.959 m 0.851,-1.656 c 0.181,-0.324 0.374,-0.648 0.569,-0.972 -0.195,0.324 -0.388,0.648 -0.569,0.972 m 0.989,-1.651 c 0.218,-0.336 0.448,-0.666 0.683,-1.002 -0.235,0.336 -0.465,0.666 -0.683,1.002 m 1.13,-1.632 c 0.272,-0.364 0.56,-0.725 0.85,-1.084 -0.29,0.359 -0.578,0.719 -0.85,1.084 m 1.266,-1.61 C 17.165,1.875 17.631,1.349 18.12,0.831 17.631,1.349 17.165,1.875 16.719,2.406 m 7.894,-22.924 c -0.135,0.009 -0.27,0.024 -0.406,0.038 0.136,-0.014 0.271,-0.028 0.406,-0.038 m -0.881,0.092 c -0.138,0.016 -0.279,0.039 -0.42,0.058 0.141,-0.019 0.282,-0.042 0.42,-0.058 m -0.893,0.137 c -0.143,0.021 -0.287,0.051 -0.432,0.078 0.143,-0.027 0.289,-0.057 0.432,-0.078 m -0.902,0.174 c -0.149,0.032 -0.299,0.068 -0.451,0.105 0.152,-0.037 0.302,-0.073 0.451,-0.105 m -0.911,0.219 c -0.154,0.038 -0.309,0.082 -0.465,0.126 0.156,-0.044 0.311,-0.088 0.465,-0.126 M 11.211,12.27 c 0.096,-0.321 0.193,-0.641 0.307,-0.963 -0.114,0.322 -0.211,0.642 -0.307,0.963 M -0.76,6.225 C -0.782,5.932 -0.797,5.635 -0.8,5.336 c 0.003,0.301 0.018,0.596 0.04,0.889 m 0.202,1.513 c -0.064,-0.332 -0.12,-0.668 -0.16,-1.011 0.04,0.343 0.096,0.679 0.16,1.011 M -0.799,4.504 c -0.005,0.1 0.002,0.199 0,0.298 0.007,-0.318 0.028,-0.641 0.055,-0.964 -0.018,0.219 -0.044,0.44 -0.053,0.656 -0.002,0.004 -0.002,0.006 -0.002,0.01 m 0.105,-1.258 c -0.005,0.039 -0.006,0.078 -0.01,0.117 0.017,-0.17 0.053,-0.342 0.079,-0.511 -0.019,0.125 -0.053,0.252 -0.068,0.377 0,0 -0.002,0.011 -0.001,0.017 m 0.342,-1.933 c -0.019,0.079 -0.025,0.154 -0.042,0.232 0.07,-0.315 0.147,-0.631 0.233,-0.947 -0.06,0.223 -0.129,0.449 -0.181,0.671 -0.004,0.014 -0.006,0.03 -0.01,0.044 m -1.83,-27.848 c 0.241,-0.261 0.598,-0.346 0.915,-0.252 0.13,0.037 0.255,0.105 0.361,0.205 l 6.038,5.603 c -0.035,0.028 -0.069,0.055 -0.104,0.081 7.946,-6.084 18.031,-7.929 23.027,-3.205 1.207,1.14 4.349,4.115 5.275,5.882 -0.027,-0.025 -0.059,-0.045 -0.088,-0.068 0.15,0.121 0.296,0.245 0.438,0.377 0.189,0.182 0.373,0.367 0.547,0.558 l 11.191,12.11 c -0.163,-0.174 -0.332,-0.346 -0.507,-0.512 5.828,5.51 4.013,15.629 -5.734,25.658 -8.323,8.565 -19.579,11.244 -25.408,5.733 -0.646,-0.612 -1.182,-1.295 -1.639,-2.024 0.069,0.11 0.123,0.227 0.197,0.335 L 2.055,12.994 C 0.76,11.597 -0.083,9.917 -0.502,8.049 -0.414,8.439 -0.311,8.82 -0.186,9.194 -0.416,9.094 -0.645,8.986 -0.867,8.869 -3.063,7.057 -6.484,3.1 -4.842,-3.106 L -5.86,-5.348 c 1.038,-4.025 3.459,-8.29 7.126,-12.168 0.777,-0.822 1.595,-1.595 2.445,-2.32 l -5.845,-5.426 C -2.498,-25.6 -2.52,-26.17 -2.182,-26.535" />
      </g>
      <g
         transform="matrix(1.25,0,0,-1.25,564.32344,401.20964)"
         id="g396">
        <path
           inkscape:connector-curvature="0"
           id="path398"
           style="fill:none;stroke:#231f20;stroke-width:0.32600001;stroke-linecap:round;stroke-linejoin:round;stroke-miterlimit:4;stroke-dasharray:none;stroke-opacity:1"
           d="M 0,0 C -0.013,0.04 -0.022,0.082 -0.033,0.123 0.089,-0.291 0.232,-0.711 0.384,-1.129 0.336,-0.994 0.278,-0.857 0.232,-0.724 0.229,-0.707 0.224,-0.693 0.216,-0.678 0.145,-0.467 0.078,-0.258 0.013,-0.047 0.01,-0.031 0.004,-0.016 0,0 Z m 0.709,-1.995 c -0.044,0.11 -0.08,0.22 -0.123,0.331 0.172,-0.441 0.354,-0.884 0.558,-1.326 -0.043,0.093 -0.089,0.187 -0.13,0.279 0,0 -0.001,0.004 -0.002,0.005 -0.094,0.21 -0.184,0.419 -0.27,0.631 -0.013,0.027 -0.021,0.054 -0.033,0.08 z m 0.594,-1.337 c -0.027,0.053 -0.05,0.107 -0.075,0.16 0.246,-0.523 0.509,-1.045 0.797,-1.567 0,0 -0.002,0.003 -0.004,0.007 C 2.019,-4.729 2.015,-4.721 2.013,-4.715 1.9,-4.514 1.793,-4.311 1.687,-4.108 1.672,-4.08 1.658,-4.051 1.642,-4.021 1.538,-3.817 1.437,-3.613 1.338,-3.41 1.326,-3.383 1.314,-3.359 1.303,-3.332 Z m 1.066,-2.014 c -0.105,0.18 -0.207,0.361 -0.306,0.539 0.286,-0.513 0.594,-1.029 0.92,-1.541 -0.049,0.077 -0.098,0.155 -0.149,0.233 -0.011,0.018 -0.023,0.037 -0.035,0.056 -0.125,0.202 -0.246,0.403 -0.365,0.604 -0.022,0.037 -0.044,0.074 -0.065,0.109 z m 0.828,-1.336 c -0.036,0.055 -0.069,0.113 -0.106,0.168 0.34,-0.525 0.697,-1.048 1.08,-1.565 L 4.17,-8.078 C 4.166,-8.074 4.16,-8.066 4.156,-8.061 4.015,-7.867 3.874,-7.672 3.738,-7.477 3.712,-7.439 3.685,-7.402 3.659,-7.365 3.522,-7.17 3.391,-6.974 3.261,-6.777 3.238,-6.744 3.219,-6.712 3.197,-6.682 Z M 4.615,-8.668 C 4.474,-8.484 4.334,-8.301 4.197,-8.113 4.58,-8.633 4.986,-9.148 5.412,-9.658 5.354,-9.588 5.296,-9.52 5.238,-9.451 5.215,-9.422 5.19,-9.394 5.167,-9.363 5.012,-9.176 4.859,-8.983 4.711,-8.791 4.679,-8.75 4.647,-8.709 4.615,-8.668 Z m 3.271,-3.658 c 0.192,-0.186 0.384,-0.371 0.578,-0.55 -0.194,0.179 -0.386,0.364 -0.578,0.55 z m 0.839,-0.781 c 0.185,-0.168 0.372,-0.336 0.562,-0.499 -0.19,0.163 -0.377,0.331 -0.562,0.499 z m -3.048,3.13 c -0.054,0.065 -0.106,0.126 -0.159,0.192 0.437,-0.52 0.892,-1.035 1.37,-1.54 0.255,-0.269 0.513,-0.532 0.776,-0.791 -0.263,0.259 -0.521,0.522 -0.776,0.791 -0.178,0.19 -0.353,0.38 -0.528,0.572 -0.034,0.04 -0.071,0.079 -0.106,0.118 -0.167,0.19 -0.333,0.375 -0.496,0.562 -0.027,0.032 -0.053,0.065 -0.081,0.096 z m 7.977,-6.774 c -0.181,0.108 -0.362,0.224 -0.543,0.337 0.181,-0.113 0.362,-0.229 0.543,-0.337 z m -0.899,0.56 c -0.186,0.119 -0.368,0.243 -0.551,0.365 0.183,-0.122 0.365,-0.246 0.551,-0.365 z m -0.89,0.594 c -0.185,0.13 -0.367,0.263 -0.552,0.398 0.185,-0.135 0.368,-0.27 0.552,-0.398 z m -0.876,0.628 c -0.183,0.141 -0.368,0.283 -0.551,0.428 0.183,-0.145 0.366,-0.289 0.551,-0.428 z m -0.86,0.666 c -0.187,0.149 -0.371,0.305 -0.554,0.457 0.183,-0.152 0.367,-0.308 0.554,-0.457 z m 3.901,-2.666 c 0.178,-0.103 0.357,-0.209 0.535,-0.308 -0.178,0.099 -0.357,0.205 -0.535,0.308 z m 0.919,-0.514 c 0.179,-0.094 0.356,-0.19 0.532,-0.281 -0.176,0.091 -0.353,0.187 -0.532,0.281 z m 0.932,-0.476 c 0.174,-0.088 0.349,-0.174 0.525,-0.256 -0.176,0.082 -0.351,0.168 -0.525,0.256 z m 0.932,-0.441 c 0.173,-0.079 0.345,-0.157 0.519,-0.23 -0.174,0.073 -0.345,0.151 -0.519,0.23 z m 0.939,-0.403 c 0.169,-0.07 0.338,-0.136 0.507,-0.201 -0.169,0.065 -0.338,0.131 -0.507,0.201 z m 0.942,-0.364 c 0.163,-0.06 0.327,-0.118 0.491,-0.175 -0.164,0.057 -0.328,0.115 -0.491,0.175 z m 0.933,-0.32 c 0.16,-0.052 0.321,-0.105 0.48,-0.154 -0.159,0.049 -0.32,0.102 -0.48,0.154 z m 6.698,-1.085 c -0.124,-0.006 -0.249,-0.003 -0.373,-0.004 0.124,0.001 0.25,0 0.373,0.004 z m -0.848,0.005 c -0.128,0.003 -0.258,0.01 -0.389,0.016 0.131,-0.006 0.261,-0.013 0.389,-0.016 z m 2.146,0.073 c 0.113,0.012 0.228,0.025 0.342,0.04 -0.114,-0.015 -0.229,-0.028 -0.342,-0.04 z m 0.801,0.109 c 0.11,0.019 0.22,0.038 0.329,0.059 -0.109,-0.021 -0.219,-0.04 -0.329,-0.059 z m 0.778,0.156 c 0.105,0.024 0.209,0.051 0.313,0.079 -0.104,-0.028 -0.208,-0.055 -0.313,-0.079 z m -2.406,-0.33 c 0.121,0.007 0.241,0.015 0.36,0.024 -0.119,-0.009 -0.239,-0.017 -0.36,-0.024 z m 3.881,0.783 c 0.094,0.038 0.187,0.077 0.282,0.116 -0.095,-0.039 -0.188,-0.078 -0.282,-0.116 z m 0.691,0.297 c 0.089,0.043 0.178,0.09 0.268,0.135 -0.09,-0.045 -0.179,-0.092 -0.268,-0.135 z m 0.659,0.347 c 0.085,0.05 0.17,0.103 0.254,0.153 -0.084,-0.05 -0.169,-0.103 -0.254,-0.153 z m 0.626,0.396 c 0.081,0.055 0.16,0.115 0.238,0.172 -0.078,-0.057 -0.157,-0.117 -0.238,-0.172 z m -2.701,-1.289 c 0.102,0.029 0.2,0.062 0.299,0.095 -0.099,-0.033 -0.197,-0.066 -0.299,-0.095 z M 11.23,21.828 c -0.096,-0.252 -0.179,-0.511 -0.258,-0.771 0.079,0.26 0.162,0.519 0.258,0.771 z m -0.425,-1.334 c -0.072,-0.284 -0.122,-0.578 -0.174,-0.87 0.052,0.292 0.102,0.586 0.174,0.87 z m -0.271,-1.408 c -0.045,-0.361 -0.068,-0.731 -0.087,-1.102 0.019,0.371 0.042,0.741 0.087,1.102 z m -0.112,-1.465 c -0.011,-0.497 0.006,-1.002 0.046,-1.515 -0.04,0.513 -0.057,1.018 -0.046,1.515 z m 0.1,-1.965 c 0.039,-0.371 0.082,-0.741 0.146,-1.117 -0.064,0.376 -0.107,0.746 -0.146,1.117 z m 0.273,-1.727 c 0.066,-0.329 0.136,-0.658 0.223,-0.991 -0.087,0.333 -0.157,0.662 -0.223,0.991 z m 1.025,9.157 c -0.126,-0.229 -0.24,-0.465 -0.348,-0.703 0.106,0.239 0.222,0.474 0.348,0.703 z M 11.774,10.614 c 0.123,-0.319 0.252,-0.635 0.39,-0.956 -0.138,0.321 -0.267,0.637 -0.39,0.956 z m 0.709,-1.659 c 0.15,-0.319 0.31,-0.639 0.477,-0.959 -0.167,0.32 -0.327,0.64 -0.477,0.959 z m 0.851,-1.656 c 0.181,-0.324 0.374,-0.648 0.569,-0.972 -0.195,0.324 -0.388,0.648 -0.569,0.972 z m 0.989,-1.651 c 0.218,-0.336 0.448,-0.666 0.683,-1.002 -0.235,0.336 -0.465,0.666 -0.683,1.002 z m 1.13,-1.632 c 0.272,-0.364 0.56,-0.725 0.85,-1.084 -0.29,0.359 -0.578,0.719 -0.85,1.084 z m 1.266,-1.61 C 17.165,1.875 17.631,1.349 18.12,0.831 17.631,1.349 17.165,1.875 16.719,2.406 Z m 7.894,-22.924 c -0.135,0.009 -0.27,0.024 -0.406,0.038 0.136,-0.014 0.271,-0.028 0.406,-0.038 z m -0.881,0.092 c -0.138,0.016 -0.279,0.039 -0.42,0.058 0.141,-0.019 0.282,-0.042 0.42,-0.058 z m -0.893,0.137 c -0.143,0.021 -0.287,0.051 -0.432,0.078 0.143,-0.027 0.289,-0.057 0.432,-0.078 z m -0.902,0.174 c -0.149,0.032 -0.299,0.068 -0.451,0.105 0.152,-0.037 0.302,-0.073 0.451,-0.105 z m -0.911,0.219 c -0.154,0.038 -0.309,0.082 -0.465,0.126 0.156,-0.044 0.311,-0.088 0.465,-0.126 z M 11.211,12.27 c 0.096,-0.321 0.193,-0.641 0.307,-0.963 -0.114,0.322 -0.211,0.642 -0.307,0.963 z M -0.76,6.225 C -0.782,5.932 -0.797,5.635 -0.8,5.336 c 0.003,0.301 0.018,0.596 0.04,0.889 z m 0.202,1.513 c -0.064,-0.332 -0.12,-0.668 -0.16,-1.011 0.04,0.343 0.096,0.679 0.16,1.011 z M -0.799,4.504 c -0.005,0.1 0.002,0.199 0,0.298 0.007,-0.318 0.028,-0.641 0.055,-0.964 -0.018,0.219 -0.044,0.44 -0.053,0.656 -0.002,0.004 -0.002,0.006 -0.002,0.01 z m 0.105,-1.258 c -0.005,0.039 -0.006,0.078 -0.01,0.117 0.017,-0.17 0.053,-0.342 0.079,-0.511 -0.019,0.125 -0.053,0.252 -0.068,0.377 0,0 -0.002,0.011 -0.001,0.017 z m 0.342,-1.933 c -0.019,0.079 -0.025,0.154 -0.042,0.232 0.07,-0.315 0.147,-0.631 0.233,-0.947 -0.06,0.223 -0.129,0.449 -0.181,0.671 -0.004,0.014 -0.006,0.03 -0.01,0.044 z m -1.83,-27.848 c 0.241,-0.261 0.598,-0.346 0.915,-0.252 0.13,0.037 0.255,0.105 0.361,0.205 l 6.038,5.603 c -0.035,0.028 -0.069,0.055 -0.104,0.081 7.946,-6.084 18.031,-7.929 23.027,-3.205 1.207,1.14 4.349,4.115 5.275,5.882 -0.027,-0.025 -0.059,-0.045 -0.088,-0.068 0.15,0.121 0.296,0.245 0.438,0.377 0.189,0.182 0.373,0.367 0.547,0.558 l 11.191,12.11 c -0.163,-0.174 -0.332,-0.346 -0.507,-0.512 5.828,5.51 4.013,15.629 -5.734,25.658 -8.323,8.565 -19.579,11.244 -25.408,5.733 -0.646,-0.612 -1.182,-1.295 -1.639,-2.024 0.069,0.11 0.123,0.227 0.197,0.335 L 2.055,12.994 C 0.76,11.597 -0.083,9.917 -0.502,8.049 -0.414,8.439 -0.311,8.82 -0.186,9.194 -0.416,9.094 -0.645,8.986 -0.867,8.869 -3.063,7.057 -6.484,3.1 -4.842,-3.106 L -5.86,-5.348 c 1.038,-4.025 3.459,-8.29 7.126,-12.168 0.777,-0.822 1.595,-1.595 2.445,-2.32 l -5.845,-5.426 C -2.498,-25.6 -2.52,-26.17 -2.182,-26.535 Z" />
      </g>
      <g
         transform="matrix(1.25,0,0,-1.25,613.29444,376.33176)"
         id="g400">
        <path
           inkscape:connector-curvature="0"
           id="path402"
           style="fill:#58595b;fill-opacity:1;fill-rule:nonzero;stroke:none"
           d="m 0,0 c -8.323,8.564 -19.579,11.243 -25.408,5.732 -5.828,-5.51 -3.851,-16.127 4.351,-24.803 8.205,-8.677 20.962,-12.099 26.791,-6.587 C 11.563,-20.148 9.747,-10.029 0,0" />
      </g>
      <g
         transform="matrix(1.25,0,0,-1.25,613.29444,376.33176)"
         id="g404">
        <path
           inkscape:connector-curvature="0"
           id="path406"
           style="fill:none;stroke:#231f20;stroke-width:0.32600001;stroke-linecap:round;stroke-linejoin:round;stroke-miterlimit:4;stroke-dasharray:none;stroke-opacity:1"
           d="m 0,0 c -8.323,8.564 -19.579,11.243 -25.408,5.732 -5.828,-5.51 -3.851,-16.127 4.351,-24.803 8.205,-8.677 20.962,-12.099 26.791,-6.587 C 11.563,-20.148 9.747,-10.029 0,0 Z" />
      </g>
      <g
         transform="matrix(1.25,0,0,-1.25,582.43506,368.39476)"
         id="g408">
        <path
           inkscape:connector-curvature="0"
           id="path410"
           style="fill:#58595b;fill-opacity:1;fill-rule:nonzero;stroke:none"
           d="M 0,0 0.001,0.001 V 0 Z" />
      </g>
      <g
         transform="matrix(1.25,0,0,-1.25,582.43506,368.39476)"
         id="g412">
        <path
           inkscape:connector-curvature="0"
           id="path414"
           style="fill:none;stroke:#231f20;stroke-width:0.32600001;stroke-linecap:round;stroke-linejoin:round;stroke-miterlimit:4;stroke-dasharray:none;stroke-opacity:1"
           d="M 0,0 0.001,0.001 V 0 Z" />
      </g>
      <g
         transform="matrix(1.25,0,0,-1.25,566.89181,384.96701)"
         id="g416">
        <path
           inkscape:connector-curvature="0"
           id="path418"
           style="fill:#58595b;fill-opacity:1;fill-rule:nonzero;stroke:none"
           d="M 0,0 V 0 L 10.272,10.952 C 6.314,5.145 8.637,-4.306 16.065,-12.163 c 8.206,-8.677 20.962,-12.099 26.791,-6.587 0.175,0.166 0.344,0.338 0.507,0.512 l -11.191,-12.11 c -0.174,-0.191 -0.358,-0.377 -0.547,-0.558 -5.831,-5.51 -18.588,-2.088 -26.792,6.587 C -3.135,-15.891 -5.227,-5.633 0,0" />
      </g>
      <g
         transform="matrix(1.25,0,0,-1.25,566.89181,384.96701)"
         id="g420">
        <path
           inkscape:connector-curvature="0"
           id="path422"
           style="fill:none;stroke:#231f20;stroke-width:0.32600001;stroke-linecap:round;stroke-linejoin:round;stroke-miterlimit:4;stroke-dasharray:none;stroke-opacity:1"
           d="M 0,0 V 0 L 10.272,10.952 C 6.314,5.145 8.637,-4.306 16.065,-12.163 c 8.206,-8.677 20.962,-12.099 26.791,-6.587 0.175,0.166 0.344,0.338 0.507,0.512 l -11.191,-12.11 c -0.174,-0.191 -0.358,-0.377 -0.547,-0.558 -5.831,-5.51 -18.588,-2.088 -26.792,6.587 C -3.135,-15.891 -5.227,-5.633 0,0 Z" />
      </g>
      <g
         transform="matrix(1.25,0,0,-1.25,621.13869,407.71851)"
         id="g424">
        <path
           inkscape:connector-curvature="0"
           id="path426"
           style="fill:#58595b;fill-opacity:1;fill-rule:nonzero;stroke:none"
           d="M 0,0 V 0 H -0.001 Z" />
      </g>
      <g
         transform="matrix(1.25,0,0,-1.25,621.13869,407.71851)"
         id="g428">
        <path
           inkscape:connector-curvature="0"
           id="path430"
           style="fill:none;stroke:#231f20;stroke-width:0.32600001;stroke-linecap:round;stroke-linejoin:round;stroke-miterlimit:4;stroke-dasharray:none;stroke-opacity:1"
           d="M 0,0 V 0 H -0.001 Z" />
      </g>
      <g
         transform="matrix(1.25,0,0,-1.25,556.99807,407.89426)"
         id="g432">
        <path
           inkscape:connector-curvature="0"
           id="path434"
           style="fill:#58595b;fill-opacity:1;fill-rule:nonzero;stroke:none"
           d="m 0,0 1.019,2.241 c -1.643,6.206 1.779,10.163 3.974,11.976 0.223,0.117 0.451,0.224 0.682,0.325 -0.484,-1.445 -0.685,-3.025 -0.613,-4.69 0,0 0,-0.006 10e-4,-0.01 C 5.08,9.432 5.114,9.014 5.166,8.594 5.165,8.588 5.167,8.582 5.167,8.582 5.244,7.946 5.358,7.308 5.509,6.661 5.513,6.646 5.515,6.631 5.519,6.616 5.616,6.195 5.73,5.773 5.86,5.348 5.864,5.332 5.87,5.316 5.873,5.301 5.938,5.09 6.005,4.881 6.076,4.67 6.084,4.654 6.089,4.641 6.093,4.624 6.238,4.201 6.396,3.779 6.569,3.353 6.581,3.326 6.59,3.3 6.603,3.272 6.688,3.061 6.778,2.852 6.872,2.642 6.873,2.641 6.873,2.639 6.873,2.639 6.967,2.43 7.063,2.224 7.163,2.016 7.175,1.988 7.187,1.965 7.198,1.937 7.298,1.734 7.398,1.53 7.502,1.326 7.519,1.297 7.532,1.268 7.548,1.239 7.653,1.037 7.761,0.834 7.873,0.633 7.875,0.627 7.879,0.619 7.882,0.615 7.993,0.41 8.11,0.206 8.229,0.002 8.25,-0.033 8.272,-0.07 8.294,-0.107 8.413,-0.309 8.534,-0.51 8.659,-0.711 8.671,-0.73 8.684,-0.749 8.694,-0.768 c 0.119,-0.189 0.241,-0.377 0.364,-0.566 0.021,-0.03 0.041,-0.062 0.063,-0.096 0.13,-0.196 0.262,-0.392 0.399,-0.588 0.025,-0.037 0.052,-0.074 0.079,-0.111 0.135,-0.195 0.276,-0.391 0.418,-0.584 0.004,-0.006 0.009,-0.014 0.013,-0.017 0.145,-0.198 0.294,-0.395 0.446,-0.59 0.032,-0.041 0.063,-0.082 0.095,-0.123 0.149,-0.193 0.301,-0.385 0.456,-0.573 0.024,-0.03 0.048,-0.058 0.072,-0.088 0.143,-0.174 0.289,-0.349 0.438,-0.525 0.028,-0.031 0.055,-0.064 0.081,-0.097 0.163,-0.186 0.329,-0.372 0.496,-0.561 0.035,-0.039 0.073,-0.078 0.107,-0.118 0.175,-0.193 0.349,-0.382 0.527,-0.573 8.044,-8.507 20.467,-11.96 26.442,-6.895 -0.925,-1.768 -4.068,-4.742 -5.275,-5.882 -5.829,-5.511 -18.587,-2.089 -26.789,6.587 C 3.459,-8.29 1.038,-4.025 0,0" />
      </g>
      <g
         transform="matrix(1.25,0,0,-1.25,556.99807,407.89426)"
         id="g436">
        <path
           inkscape:connector-curvature="0"
           id="path438"
           style="fill:none;stroke:#231f20;stroke-width:0.32600001;stroke-linecap:round;stroke-linejoin:round;stroke-miterlimit:4;stroke-dasharray:none;stroke-opacity:1"
           d="m 0,0 1.019,2.241 c -1.643,6.206 1.779,10.163 3.974,11.976 0.223,0.117 0.451,0.224 0.682,0.325 -0.484,-1.445 -0.685,-3.025 -0.613,-4.69 0,0 0,-0.006 10e-4,-0.01 C 5.08,9.432 5.114,9.014 5.166,8.594 5.165,8.588 5.167,8.582 5.167,8.582 5.244,7.946 5.358,7.308 5.509,6.661 5.513,6.646 5.515,6.631 5.519,6.616 5.616,6.195 5.73,5.773 5.86,5.348 5.864,5.332 5.87,5.316 5.873,5.301 5.938,5.09 6.005,4.881 6.076,4.67 6.084,4.654 6.089,4.641 6.093,4.624 6.238,4.201 6.396,3.779 6.569,3.353 6.581,3.326 6.59,3.3 6.603,3.272 6.688,3.061 6.778,2.852 6.872,2.642 6.873,2.641 6.873,2.639 6.873,2.639 6.967,2.43 7.063,2.224 7.163,2.016 7.175,1.988 7.187,1.965 7.198,1.937 7.298,1.734 7.398,1.53 7.502,1.326 7.519,1.297 7.532,1.268 7.548,1.239 7.653,1.037 7.761,0.834 7.873,0.633 7.875,0.627 7.879,0.619 7.882,0.615 7.993,0.41 8.11,0.206 8.229,0.002 8.25,-0.033 8.272,-0.07 8.294,-0.107 8.413,-0.309 8.534,-0.51 8.659,-0.711 8.671,-0.73 8.684,-0.749 8.694,-0.768 c 0.119,-0.189 0.241,-0.377 0.364,-0.566 0.021,-0.03 0.041,-0.062 0.063,-0.096 0.13,-0.196 0.262,-0.392 0.399,-0.588 0.025,-0.037 0.052,-0.074 0.079,-0.111 0.135,-0.195 0.276,-0.391 0.418,-0.584 0.004,-0.006 0.009,-0.014 0.013,-0.017 0.145,-0.198 0.294,-0.395 0.446,-0.59 0.032,-0.041 0.063,-0.082 0.095,-0.123 0.149,-0.193 0.301,-0.385 0.456,-0.573 0.024,-0.03 0.048,-0.058 0.072,-0.088 0.143,-0.174 0.289,-0.349 0.438,-0.525 0.028,-0.031 0.055,-0.064 0.081,-0.097 0.163,-0.186 0.329,-0.372 0.496,-0.561 0.035,-0.039 0.073,-0.078 0.107,-0.118 0.175,-0.193 0.349,-0.382 0.527,-0.573 8.044,-8.507 20.467,-11.96 26.442,-6.895 -0.925,-1.768 -4.068,-4.742 -5.275,-5.882 -5.829,-5.511 -18.587,-2.089 -26.789,6.587 C 3.459,-8.29 1.038,-4.025 0,0 Z" />
      </g>
      <g
         transform="matrix(1.25,0,0,-1.25,561.65619,432.78676)"
         id="g440">
        <path
           inkscape:connector-curvature="0"
           id="path442"
           style="fill:#d1d3d4;fill-opacity:1;fill-rule:nonzero;stroke:none"
           d="M 0,0 5.845,5.426 C 6.309,5.028 6.783,4.648 7.266,4.283 L 1.228,-1.32 C 1.122,-1.42 0.997,-1.488 0.867,-1.525 0.55,-1.619 0.192,-1.534 -0.048,-1.273 -0.386,-0.908 -0.364,-0.338 0,0" />
      </g>
      <g
         transform="matrix(1.25,0,0,-1.25,561.65619,432.78676)"
         id="g444">
        <path
           inkscape:connector-curvature="0"
           id="path446"
           style="fill:none;stroke:#231f20;stroke-width:0.32600001;stroke-linecap:round;stroke-linejoin:round;stroke-miterlimit:4;stroke-dasharray:none;stroke-opacity:1"
           d="M 0,0 5.845,5.426 C 6.309,5.028 6.783,4.648 7.266,4.283 L 1.228,-1.32 C 1.122,-1.42 0.997,-1.488 0.867,-1.525 0.55,-1.619 0.192,-1.534 -0.048,-1.273 -0.386,-0.908 -0.364,-0.338 0,0 Z" />
      </g>
      <g
         transform="matrix(1.25,0,0,-1.25,604.23319,385.80926)"
         id="g448">
        <path
           inkscape:connector-curvature="0"
           id="path450"
           style="fill:#414042;fill-opacity:1;fill-rule:nonzero;stroke:none"
           d="M 0,0 C -1.767,1.818 -4.153,2.387 -5.392,1.218 -6.627,0.047 -6.209,-2.205 -4.469,-4.046 -2.726,-5.889 -0.02,-6.614 1.219,-5.445 2.455,-4.274 2.068,-2.127 0,0" />
      </g>
      <g
         transform="matrix(1.25,0,0,-1.25,604.23319,385.80926)"
         id="g452">
        <path
           inkscape:connector-curvature="0"
           id="path454"
           style="fill:none;stroke:#231f20;stroke-width:0.32600001;stroke-linecap:round;stroke-linejoin:round;stroke-miterlimit:4;stroke-dasharray:none;stroke-opacity:1"
           d="M 0,0 C -1.767,1.818 -4.153,2.387 -5.392,1.218 -6.627,0.047 -6.209,-2.205 -4.469,-4.046 -2.726,-5.889 -0.02,-6.614 1.219,-5.445 2.455,-4.274 2.068,-2.127 0,0 Z" />
      </g>
      <g
         transform="matrix(1.25,0,0,-1.25,611.64519,402.74776)"
         id="g456">
        <path
           inkscape:connector-curvature="0"
           id="path458"
           style="fill:#58595b;fill-opacity:1;fill-rule:nonzero;stroke:none"
           d="M 0,0 C -1.635,1.626 -2.128,3.763 -1.101,4.776 -0.073,5.787 2.08,5.289 3.714,3.662 5.35,2.034 5.843,-0.104 4.815,-1.117 3.79,-2.127 1.634,-1.628 0,0" />
      </g>
      <g
         transform="matrix(1.25,0,0,-1.25,611.64519,402.74776)"
         id="g460">
        <path
           inkscape:connector-curvature="0"
           id="path462"
           style="fill:none;stroke:#231f20;stroke-width:0.32600001;stroke-linecap:round;stroke-linejoin:round;stroke-miterlimit:4;stroke-dasharray:none;stroke-opacity:1"
           d="M 0,0 C -1.635,1.626 -2.128,3.763 -1.101,4.776 -0.073,5.787 2.08,5.289 3.714,3.662 5.35,2.034 5.843,-0.104 4.815,-1.117 3.79,-2.127 1.634,-1.628 0,0 Z" />
      </g>
      <g
         transform="matrix(1.25,0,0,-1.25,614.07931,400.95089)"
         id="g464">
        <path
           inkscape:connector-curvature="0"
           id="path466"
           style="fill:#231f20;fill-opacity:1;fill-rule:nonzero;stroke:none"
           d="M 0,0 -0.474,-0.465 -0.96,0.021 -0.487,0.486 -1.24,1.235 -0.934,1.536 -0.183,0.788 0.289,1.254 0.778,0.768 0.306,0.303 1.059,-0.447 0.752,-0.75 Z" />
      </g>
    </g>
  </g>
</svg>
