<?xml version="1.0" encoding="UTF-8" standalone="no"?>
<!-- Created with Inkscape (http://www.inkscape.org/) -->

<svg
   xmlns:dc="http://purl.org/dc/elements/1.1/"
   xmlns:cc="http://creativecommons.org/ns#"
   xmlns:rdf="http://www.w3.org/1999/02/22-rdf-syntax-ns#"
   xmlns:svg="http://www.w3.org/2000/svg"
   xmlns="http://www.w3.org/2000/svg"
   xmlns:sodipodi="http://sodipodi.sourceforge.net/DTD/sodipodi-0.dtd"
   xmlns:inkscape="http://www.inkscape.org/namespaces/inkscape"
   width="30mm"
   height="30mm"
   viewBox="0 0 106.29921 106.2992"
   id="svg53981"
   version="1.1"
   inkscape:version="0.92.2 (5c3e80d, 2017-08-06)"
   sodipodi:docname="PUSH_BUTTON.svg">
  <defs
     id="defs53983">
    <clipPath
       clipPathUnits="userSpaceOnUse"
       id="clipPath3016">
      <path
         d="m 77.297,443.169 c -7.041,-11.131 -10.723,-14.787 -21.852,-21.852 l 0,0 c -5.511,-3.49 -5.972,-10.8 -3.023,-13.749 l 0,0 3.379,-3.38 c 2.941,-2.943 10.265,-2.482 13.754,3.026 l 0,0 c 7.033,11.138 10.719,14.8 21.847,21.849 l 0,0 c 5.506,3.497 5.979,10.807 3.031,13.752 l 0,0 -3.382,3.383 c -1.162,1.164 -3.006,1.796 -5.027,1.796 l 0,0 c -3.099,0 -6.613,-1.486 -8.727,-4.825"
         id="path3018"
         inkscape:connector-curvature="0" />
    </clipPath>
  </defs>
  <sodipodi:namedview
     id="base"
     pagecolor="#ffffff"
     bordercolor="#666666"
     borderopacity="1.0"
     inkscape:pageopacity="0.0"
     inkscape:pageshadow="2"
     inkscape:zoom="3.959798"
     inkscape:cx="120.14318"
     inkscape:cy="38.471187"
     inkscape:document-units="px"
     inkscape:current-layer="layer1"
     showgrid="false"
     fit-margin-top="0"
     fit-margin-left="0"
     fit-margin-right="0"
     fit-margin-bottom="0"
     inkscape:window-width="1920"
     inkscape:window-height="1001"
     inkscape:window-x="-9"
     inkscape:window-y="-9"
     inkscape:window-maximized="1"
     showguides="false" />
  <metadata
     id="metadata53986">
    <rdf:RDF>
      <cc:Work
         rdf:about="">
        <dc:format>image/svg+xml</dc:format>
        <dc:type
           rdf:resource="http://purl.org/dc/dcmitype/StillImage" />
        <dc:title></dc:title>
      </cc:Work>
    </rdf:RDF>
  </metadata>
  <g
     inkscape:label="Layer 1"
     inkscape:groupmode="layer"
     id="layer1"
     transform="translate(-338.23598,-344.14166)">
    <text
       xml:space="preserve"
       style="font-style:normal;font-variant:normal;font-weight:normal;font-stretch:normal;line-height:0%;font-family:sans-serif;-inkscape-font-specification:'sans-serif, Normal';text-align:start;letter-spacing:0px;word-spacing:0px;writing-mode:lr-tb;text-anchor:start;fill:#000000;fill-opacity:1;stroke:none;stroke-width:1px;stroke-linecap:butt;stroke-linejoin:miter;stroke-opacity:1"
       x="341.76382"
       y="358.69086"
       id="text10372"><tspan
         sodipodi:role="line"
         x="341.76382"
         y="358.69086"
         style="font-size:15px;line-height:1.25"
         id="tspan15166">Push Button</tspan></text>
    <g
       id="g2019"
       transform="matrix(1.154632,0,0,1.154632,-201.12627,-49.692284)">
      <g
         id="g812"
         transform="matrix(1.25,0,0,-1.25,483.9902,406.34237)">
        <path
           d="m 0,0 3.243,-7.967 1.54,1.356 -2.081,5.257 C 1.721,-0.861 0.807,-0.406 0,0"
           style="fill:#d1d3d4;fill-opacity:1;fill-rule:nonzero;stroke:none"
           id="path814"
           inkscape:connector-curvature="0" />
      </g>
      <g
         id="g816"
         transform="matrix(1.25,0,0,-1.25,483.9902,406.34237)">
        <path
           d="m 0,0 3.243,-7.967 1.54,1.356 -2.081,5.257 C 1.721,-0.861 0.807,-0.406 0,0 Z"
           style="fill:none;stroke:#231f20;stroke-width:0.176;stroke-linecap:round;stroke-linejoin:round;stroke-miterlimit:4;stroke-dasharray:none;stroke-opacity:1"
           id="path818"
           inkscape:connector-curvature="0" />
      </g>
      <g
         id="g820"
         transform="matrix(1.25,0,0,-1.25,527.15307,414.66262)">
        <path
           d="m 0,0 -2.408,-1.422 0.997,-2.4 0.646,-3.627 -1.9,-4.455 1.541,-1.358 2.801,6.549 -0.676,3.584 z"
           style="fill:#d1d3d4;fill-opacity:1;fill-rule:nonzero;stroke:none"
           id="path822"
           inkscape:connector-curvature="0" />
      </g>
      <g
         id="g824"
         transform="matrix(1.25,0,0,-1.25,527.15307,414.66262)">
        <path
           d="m 0,0 -2.408,-1.422 0.997,-2.4 0.646,-3.627 -1.9,-4.455 1.541,-1.358 2.801,6.549 -0.676,3.584 z"
           style="fill:none;stroke:#231f20;stroke-width:0.176;stroke-linecap:round;stroke-linejoin:round;stroke-miterlimit:4;stroke-dasharray:none;stroke-opacity:1"
           id="path826"
           inkscape:connector-curvature="0" />
      </g>
      <g
         id="g828"
         transform="matrix(1.25,0,0,-1.25,539.11595,405.72224)">
        <path
           d="m 0,0 -2.405,-1.414 0.975,-2.336 0.639,-3.625 -1.897,-4.455 1.539,-1.358 2.8,6.547 -0.672,3.584 z"
           style="fill:#d1d3d4;fill-opacity:1;fill-rule:nonzero;stroke:none"
           id="path830"
           inkscape:connector-curvature="0" />
      </g>
      <g
         id="g832"
         transform="matrix(1.25,0,0,-1.25,539.11595,405.72224)">
        <path
           d="m 0,0 -2.405,-1.414 0.975,-2.336 0.639,-3.625 -1.897,-4.455 1.539,-1.358 2.8,6.547 -0.672,3.584 z"
           style="fill:none;stroke:#231f20;stroke-width:0.176;stroke-linecap:round;stroke-linejoin:round;stroke-miterlimit:4;stroke-dasharray:none;stroke-opacity:1"
           id="path834"
           inkscape:connector-curvature="0" />
      </g>
      <g
         id="g836"
         transform="matrix(1.25,0,0,-1.25,544.94357,387.38487)">
        <path
           d="m 0,0 -20.975,-14.67 c 0,0 -4.709,-3.414 -9.969,0 l -21.883,13.979 c 0,0 -3.743,1.795 1.76,5.707 l 19.862,14.129 c 0,0 4.489,3.773 10.853,0 L -3.253,8.453 C -3.253,8.453 5.244,3.807 0,0"
           style="fill:#58595b;fill-opacity:1;fill-rule:nonzero;stroke:none"
           id="path838"
           inkscape:connector-curvature="0" />
      </g>
      <g
         id="g840"
         transform="matrix(1.25,0,0,-1.25,544.94357,387.38487)">
        <path
           d="m 0,0 -20.975,-14.67 c 0,0 -4.709,-3.414 -9.969,0 l -21.883,13.979 c 0,0 -3.743,1.795 1.76,5.707 l 19.862,14.129 c 0,0 4.489,3.773 10.853,0 L -3.253,8.453 C -3.253,8.453 5.244,3.807 0,0 Z"
           style="fill:none;stroke:#231f20;stroke-width:0.185;stroke-linecap:round;stroke-linejoin:round;stroke-miterlimit:4;stroke-dasharray:none;stroke-opacity:1"
           id="path842"
           inkscape:connector-curvature="0" />
      </g>
      <g
         id="g844"
         transform="matrix(1.25,0,0,-1.25,546.99807,384.65537)">
        <path
           d="m 0,0 c -0.167,-0.734 -0.666,-1.473 -1.644,-2.184 l -20.974,-14.67 c 0,0 -4.709,-3.414 -9.97,0 l -21.883,13.979 c 0,0 -1.162,0.561 -1.236,1.734 v -12.422 h 0.015 c -0.159,-1.404 1.221,-2.076 1.221,-2.076 l 21.883,-13.978 c 5.261,-3.416 9.97,0 9.97,0 l 20.974,14.67 c 0.359,0.259 0.634,0.525 0.871,0.791 0.01,0.01 0.019,0.011 0.033,0.023 0.805,0.604 0.72,1.977 0.715,1.985 z"
           style="fill:#58595b;fill-opacity:1;fill-rule:nonzero;stroke:none"
           id="path846"
           inkscape:connector-curvature="0" />
      </g>
      <g
         id="g848"
         transform="matrix(1.25,0,0,-1.25,546.99807,384.65537)">
        <path
           d="m 0,0 c -0.167,-0.734 -0.666,-1.473 -1.644,-2.184 l -20.974,-14.67 c 0,0 -4.709,-3.414 -9.97,0 l -21.883,13.979 c 0,0 -1.162,0.561 -1.236,1.734 v -12.422 h 0.015 c -0.159,-1.404 1.221,-2.076 1.221,-2.076 l 21.883,-13.978 c 5.261,-3.416 9.97,0 9.97,0 l 20.974,14.67 c 0.359,0.259 0.634,0.525 0.871,0.791 0.01,0.01 0.019,0.011 0.033,0.023 0.805,0.604 0.72,1.977 0.715,1.985 z"
           style="fill:none;stroke:#231f20;stroke-width:0.185;stroke-linecap:round;stroke-linejoin:round;stroke-miterlimit:4;stroke-dasharray:none;stroke-opacity:1"
           id="path850"
           inkscape:connector-curvature="0" />
      </g>
      <g
         id="g852"
         transform="matrix(1.25,0,0,-1.25,477.37645,385.75887)">
        <path
           d="m 0,0 h -0.01 v -0.16 c 0,0.051 0.006,0.105 0.01,0.16"
           style="fill:#6d6e71;fill-opacity:1;fill-rule:nonzero;stroke:none"
           id="path854"
           inkscape:connector-curvature="0" />
      </g>
      <g
         id="g856"
         transform="matrix(1.25,0,0,-1.25,477.37645,385.75887)">
        <path
           d="m 0,0 h -0.01 v -0.16 c 0,0.051 0.006,0.105 0.01,0.16 z"
           style="fill:none;stroke:#231f20;stroke-width:0.26199999;stroke-linecap:round;stroke-linejoin:round;stroke-miterlimit:10;stroke-dasharray:none;stroke-opacity:1"
           id="path858"
           inkscape:connector-curvature="0" />
      </g>
      <g
         id="g860"
         transform="matrix(1.25,0,0,-1.25,539.63232,379.85799)">
        <path
           d="m 0,0 c -0.129,0.074 -0.248,0.154 -0.381,0.227 l -17.047,10.66 c -1.47,0.871 -2.922,1.312 -4.316,1.312 -2.161,0 -3.514,-1.045 -3.54,-1.066 l -0.081,-0.067 -19.562,-13.918 c -0.78,-0.699 -1.611,-2.078 1.001,-3.748 l 4.112,-2.625 14.535,-9.287 c 1.123,-0.728 2.301,-1.097 3.508,-1.097 2.02,0 3.528,1.027 3.557,1.048 L 0.86,-5.219 0.87,-5.215 c 0,0 0.003,0.004 0.005,0.004 l 0.481,0.336 C 2.242,-4.154 3.716,-2.34 0,0"
           style="fill:#d1d3d4;fill-opacity:1;fill-rule:nonzero;stroke:none"
           id="path862"
           inkscape:connector-curvature="0" />
      </g>
      <g
         id="g864"
         transform="matrix(1.25,0,0,-1.25,539.63232,379.85799)">
        <path
           d="m 0,0 c -0.129,0.074 -0.248,0.154 -0.381,0.227 l -17.047,10.66 c -1.47,0.871 -2.922,1.312 -4.316,1.312 -2.161,0 -3.514,-1.045 -3.54,-1.066 l -0.081,-0.067 -19.562,-13.918 c -0.78,-0.699 -1.611,-2.078 1.001,-3.748 l 4.112,-2.625 14.535,-9.287 c 1.123,-0.728 2.301,-1.097 3.508,-1.097 2.02,0 3.528,1.027 3.557,1.048 L 0.86,-5.219 0.87,-5.215 c 0,0 0.003,0.004 0.005,0.004 l 0.481,0.336 C 2.242,-4.154 3.716,-2.34 0,0 Z"
           style="fill:none;stroke:#231f20;stroke-width:0.185;stroke-linecap:round;stroke-linejoin:round;stroke-miterlimit:4;stroke-dasharray:none;stroke-opacity:1"
           id="path866"
           inkscape:connector-curvature="0" />
      </g>
      <g
         id="g868"
         transform="matrix(1.25,0,0,-1.25,493.37007,384.29399)">
        <path
           d="m 0,0 c 0,-0.734 -1.146,-1.33 -2.55,-1.33 -1.407,0 -2.554,0.596 -2.554,1.33 0,0.729 1.147,1.324 2.554,1.324 C -1.146,1.324 0,0.729 0,0"
           style="fill:#58595b;fill-opacity:1;fill-rule:nonzero;stroke:none"
           id="path870"
           inkscape:connector-curvature="0" />
      </g>
      <g
         id="g872"
         transform="matrix(1.25,0,0,-1.25,493.37007,384.29399)">
        <path
           d="m 0,0 c 0,-0.734 -1.146,-1.33 -2.55,-1.33 -1.407,0 -2.554,0.596 -2.554,1.33 0,0.729 1.147,1.324 2.554,1.324 C -1.146,1.324 0,0.729 0,0 Z"
           style="fill:none;stroke:#231f20;stroke-width:0.185;stroke-linecap:round;stroke-linejoin:round;stroke-miterlimit:4;stroke-dasharray:none;stroke-opacity:1"
           id="path874"
           inkscape:connector-curvature="0" />
      </g>
      <g
         id="g876"
         transform="matrix(1.25,0,0,-1.25,490.18282,385.95662)">
        <path
           d="M 0,0 C -1.407,0 -2.554,0.596 -2.554,1.33 V 0.215 c 0,-0.727 1.147,-1.324 2.554,-1.324 1.404,0 2.55,0.597 2.55,1.324 V 1.33 C 2.55,0.596 1.404,0 0,0"
           style="fill:#58595b;fill-opacity:1;fill-rule:nonzero;stroke:none"
           id="path878"
           inkscape:connector-curvature="0" />
      </g>
      <g
         id="g880"
         transform="matrix(1.25,0,0,-1.25,490.18282,385.95662)">
        <path
           d="M 0,0 C -1.407,0 -2.554,0.596 -2.554,1.33 V 0.215 c 0,-0.727 1.147,-1.324 2.554,-1.324 1.404,0 2.55,0.597 2.55,1.324 V 1.33 C 2.55,0.596 1.404,0 0,0 Z"
           style="fill:none;stroke:#231f20;stroke-width:0.185;stroke-linecap:round;stroke-linejoin:round;stroke-miterlimit:4;stroke-dasharray:none;stroke-opacity:1"
           id="path882"
           inkscape:connector-curvature="0" />
      </g>
      <g
         id="g884"
         transform="matrix(1.25,0,0,-1.25,538.46657,382.50449)">
        <path
           d="m 0,0 c 0,-0.734 -1.145,-1.33 -2.552,-1.33 -1.409,0 -2.553,0.596 -2.553,1.33 0,0.729 1.144,1.324 2.553,1.324 C -1.145,1.324 0,0.729 0,0"
           style="fill:#58595b;fill-opacity:1;fill-rule:nonzero;stroke:none"
           id="path886"
           inkscape:connector-curvature="0" />
      </g>
      <g
         id="g888"
         transform="matrix(1.25,0,0,-1.25,538.46657,382.50449)">
        <path
           d="m 0,0 c 0,-0.734 -1.145,-1.33 -2.552,-1.33 -1.409,0 -2.553,0.596 -2.553,1.33 0,0.729 1.144,1.324 2.553,1.324 C -1.145,1.324 0,0.729 0,0 Z"
           style="fill:none;stroke:#231f20;stroke-width:0.185;stroke-linecap:round;stroke-linejoin:round;stroke-miterlimit:4;stroke-dasharray:none;stroke-opacity:1"
           id="path890"
           inkscape:connector-curvature="0" />
      </g>
      <g
         id="g892"
         transform="matrix(1.25,0,0,-1.25,535.27682,384.16712)">
        <path
           d="M 0,0 C -1.409,0 -2.554,0.596 -2.554,1.33 V 0.215 c 0,-0.729 1.145,-1.322 2.554,-1.322 1.407,0 2.552,0.593 2.552,1.322 V 1.33 C 2.552,0.596 1.407,0 0,0"
           style="fill:#58595b;fill-opacity:1;fill-rule:nonzero;stroke:none"
           id="path894"
           inkscape:connector-curvature="0" />
      </g>
      <g
         id="g896"
         transform="matrix(1.25,0,0,-1.25,535.27682,384.16712)">
        <path
           d="M 0,0 C -1.409,0 -2.554,0.596 -2.554,1.33 V 0.215 c 0,-0.729 1.145,-1.322 2.554,-1.322 1.407,0 2.552,0.593 2.552,1.322 V 1.33 C 2.552,0.596 1.407,0 0,0 Z"
           style="fill:none;stroke:#231f20;stroke-width:0.185;stroke-linecap:round;stroke-linejoin:round;stroke-miterlimit:4;stroke-dasharray:none;stroke-opacity:1"
           id="path898"
           inkscape:connector-curvature="0" />
      </g>
      <g
         id="g900"
         transform="matrix(1.25,0,0,-1.25,516.22532,397.90974)">
        <path
           d="m 0,0 c 0,-0.734 -1.146,-1.33 -2.554,-1.33 -1.411,0 -2.553,0.596 -2.553,1.33 0,0.734 1.142,1.322 2.553,1.322 C -1.146,1.322 0,0.734 0,0"
           style="fill:#58595b;fill-opacity:1;fill-rule:nonzero;stroke:none"
           id="path902"
           inkscape:connector-curvature="0" />
      </g>
      <g
         id="g904"
         transform="matrix(1.25,0,0,-1.25,516.22532,397.90974)">
        <path
           d="m 0,0 c 0,-0.734 -1.146,-1.33 -2.554,-1.33 -1.411,0 -2.553,0.596 -2.553,1.33 0,0.734 1.142,1.322 2.553,1.322 C -1.146,1.322 0,0.734 0,0 Z"
           style="fill:none;stroke:#231f20;stroke-width:0.185;stroke-linecap:round;stroke-linejoin:round;stroke-miterlimit:4;stroke-dasharray:none;stroke-opacity:1"
           id="path906"
           inkscape:connector-curvature="0" />
      </g>
      <g
         id="g908"
         transform="matrix(1.25,0,0,-1.25,513.0332,399.57237)">
        <path
           d="M 0,0 C -1.411,0 -2.554,0.596 -2.554,1.33 V 0.215 c 0,-0.729 1.143,-1.322 2.554,-1.322 1.407,0 2.554,0.593 2.554,1.322 V 1.33 C 2.554,0.596 1.407,0 0,0"
           style="fill:#58595b;fill-opacity:1;fill-rule:nonzero;stroke:none"
           id="path910"
           inkscape:connector-curvature="0" />
      </g>
      <g
         id="g912"
         transform="matrix(1.25,0,0,-1.25,513.0332,399.57237)">
        <path
           d="M 0,0 C -1.411,0 -2.554,0.596 -2.554,1.33 V 0.215 c 0,-0.729 1.143,-1.322 2.554,-1.322 1.407,0 2.554,0.593 2.554,1.322 V 1.33 C 2.554,0.596 1.407,0 0,0 Z"
           style="fill:none;stroke:#231f20;stroke-width:0.185;stroke-linecap:round;stroke-linejoin:round;stroke-miterlimit:4;stroke-dasharray:none;stroke-opacity:1"
           id="path914"
           inkscape:connector-curvature="0" />
      </g>
      <g
         id="g916"
         transform="matrix(1.25,0,0,-1.25,527.27145,365.55624)">
        <path
           d="m 0,0 c 0,-3.352 -5.227,-6.066 -11.675,-6.066 -6.447,0 -11.674,2.714 -11.674,6.066 0,3.35 5.227,6.066 11.674,6.066 C -5.227,6.066 0,3.348 0,0"
           style="fill:#58595b;fill-opacity:1;fill-rule:nonzero;stroke:none"
           id="path918"
           inkscape:connector-curvature="0" />
      </g>
      <g
         id="g920"
         transform="matrix(1.25,0,0,-1.25,527.27145,365.55624)">
        <path
           d="m 0,0 c 0,-3.352 -5.227,-6.066 -11.675,-6.066 -6.447,0 -11.674,2.714 -11.674,6.066 0,3.35 5.227,6.066 11.674,6.066 C -5.227,6.066 0,3.348 0,0 Z"
           style="fill:none;stroke:#231f20;stroke-width:0.185;stroke-linecap:round;stroke-linejoin:round;stroke-miterlimit:4;stroke-dasharray:none;stroke-opacity:1"
           id="path922"
           inkscape:connector-curvature="0" />
      </g>
      <g
         id="g924"
         transform="matrix(1.25,0,0,-1.25,512.67795,373.13924)">
        <path
           d="M 0,0 C -6.447,0 -11.674,2.715 -11.674,6.066 V -8.26 c 0,-3.353 5.227,-6.07 11.674,-6.07 6.448,0 11.675,2.717 11.675,6.07 V 6.066 C 11.675,2.715 6.448,0 0,0"
           style="fill:#58595b;fill-opacity:1;fill-rule:nonzero;stroke:none"
           id="path926"
           inkscape:connector-curvature="0" />
      </g>
      <g
         id="g928"
         transform="matrix(1.25,0,0,-1.25,512.67795,373.13924)">
        <path
           d="M 0,0 C -6.447,0 -11.674,2.715 -11.674,6.066 V -8.26 c 0,-3.353 5.227,-6.07 11.674,-6.07 6.448,0 11.675,2.717 11.675,6.07 V 6.066 C 11.675,2.715 6.448,0 0,0 Z"
           style="fill:none;stroke:#231f20;stroke-width:0.185;stroke-linecap:round;stroke-linejoin:round;stroke-miterlimit:4;stroke-dasharray:none;stroke-opacity:1"
           id="path930"
           inkscape:connector-curvature="0" />
      </g>
      <g
         id="g932"
         transform="matrix(1.25,0,0,-1.25,527.27145,379.46487)">
        <path
           d="m 0,0 v -3.199 c 0,-3.354 -5.227,-6.071 -11.675,-6.071 -6.447,0 -11.674,2.717 -11.674,6.071 V 0 c -0.979,-0.957 -1.528,-2.043 -1.528,-3.199 0,-3.791 5.909,-6.864 13.202,-6.864 7.293,0 13.206,3.073 13.206,6.864 C 1.531,-2.043 0.974,-0.957 0,0"
           style="fill:#414042;fill-opacity:1;fill-rule:nonzero;stroke:none"
           id="path934"
           inkscape:connector-curvature="0" />
      </g>
      <g
         id="g936"
         transform="matrix(1.25,0,0,-1.25,527.27145,379.46487)">
        <path
           d="m 0,0 v -3.199 c 0,-3.354 -5.227,-6.071 -11.675,-6.071 -6.447,0 -11.674,2.717 -11.674,6.071 V 0 c -0.979,-0.957 -1.528,-2.043 -1.528,-3.199 0,-3.791 5.909,-6.864 13.202,-6.864 7.293,0 13.206,3.073 13.206,6.864 C 1.531,-2.043 0.974,-0.957 0,0 Z"
           style="fill:none;stroke:#231f20;stroke-width:0.185;stroke-linecap:round;stroke-linejoin:round;stroke-miterlimit:4;stroke-dasharray:none;stroke-opacity:1"
           id="path938"
           inkscape:connector-curvature="0" />
      </g>
    </g>
  </g>
</svg>
