<?xml version="1.0" encoding="UTF-8" standalone="no"?>
<!-- Created with Inkscape (http://www.inkscape.org/) -->

<svg
   xmlns:dc="http://purl.org/dc/elements/1.1/"
   xmlns:cc="http://creativecommons.org/ns#"
   xmlns:rdf="http://www.w3.org/1999/02/22-rdf-syntax-ns#"
   xmlns:svg="http://www.w3.org/2000/svg"
   xmlns="http://www.w3.org/2000/svg"
   xmlns:sodipodi="http://sodipodi.sourceforge.net/DTD/sodipodi-0.dtd"
   xmlns:inkscape="http://www.inkscape.org/namespaces/inkscape"
   width="30mm"
   height="30mm"
   viewBox="0 0 106.29921 106.2992"
   id="svg53981"
   version="1.1"
   inkscape:version="0.91 r13725"
   sodipodi:docname="RES_220R.svg">
  <defs
     id="defs53983">
    <clipPath
       clipPathUnits="userSpaceOnUse"
       id="clipPath3016">
      <path
         d="m 77.297,443.169 c -7.041,-11.131 -10.723,-14.787 -21.852,-21.852 l 0,0 c -5.511,-3.49 -5.972,-10.8 -3.023,-13.749 l 0,0 3.379,-3.38 c 2.941,-2.943 10.265,-2.482 13.754,3.026 l 0,0 c 7.033,11.138 10.719,14.8 21.847,21.849 l 0,0 c 5.506,3.497 5.979,10.807 3.031,13.752 l 0,0 -3.382,3.383 c -1.162,1.164 -3.006,1.796 -5.027,1.796 l 0,0 c -3.099,0 -6.613,-1.486 -8.727,-4.825"
         id="path3018"
         inkscape:connector-curvature="0" />
    </clipPath>
  </defs>
  <sodipodi:namedview
     id="base"
     pagecolor="#ffffff"
     bordercolor="#666666"
     borderopacity="1.0"
     inkscape:pageopacity="0.0"
     inkscape:pageshadow="2"
     inkscape:zoom="2.8"
     inkscape:cx="-25.249941"
     inkscape:cy="15.454231"
     inkscape:document-units="px"
     inkscape:current-layer="layer1"
     showgrid="false"
     fit-margin-top="0"
     fit-margin-left="0"
     fit-margin-right="0"
     fit-margin-bottom="0"
     inkscape:window-width="2560"
     inkscape:window-height="1017"
     inkscape:window-x="-8"
     inkscape:window-y="-8"
     inkscape:window-maximized="1"
     showguides="false" />
  <metadata
     id="metadata53986">
    <rdf:RDF>
      <cc:Work
         rdf:about="">
        <dc:format>image/svg+xml</dc:format>
        <dc:type
           rdf:resource="http://purl.org/dc/dcmitype/StillImage" />
        <dc:title />
      </cc:Work>
    </rdf:RDF>
  </metadata>
  <g
     inkscape:label="Layer 1"
     inkscape:groupmode="layer"
     id="layer1"
     transform="translate(-338.23598,-344.14166)">
    <path
       style="color:#000000;font-style:normal;font-variant:normal;font-weight:normal;font-stretch:normal;font-size:medium;line-height:normal;font-family:sans-serif;text-indent:0;text-align:start;text-decoration:none;text-decoration-line:none;text-decoration-style:solid;text-decoration-color:#000000;letter-spacing:normal;word-spacing:normal;text-transform:none;direction:ltr;block-progression:tb;writing-mode:lr-tb;baseline-shift:baseline;text-anchor:start;white-space:normal;clip-rule:nonzero;display:inline;overflow:visible;visibility:visible;opacity:1;isolation:auto;mix-blend-mode:normal;color-interpolation:sRGB;color-interpolation-filters:linearRGB;solid-color:#000000;solid-opacity:1;fill:#bcbec0;fill-opacity:1;fill-rule:evenodd;stroke:#000000;stroke-width:0.2;stroke-linecap:round;stroke-linejoin:miter;stroke-miterlimit:4;stroke-dasharray:none;stroke-dashoffset:0;stroke-opacity:1;color-rendering:auto;image-rendering:auto;shape-rendering:auto;text-rendering:auto;enable-background:accumulate"
       d="m 443.03125,344.25781 a 1.50015,1.50015 0 0 0 -1.03125,0.45508 l -102.90625,102.90625 a 1.50015,1.50015 0 1 0 2.12109,2.12109 l 102.90821,-102.90625 a 1.50015,1.50015 0 0 0 -1.0918,-2.57617 z"
       id="path10397"
       inkscape:connector-curvature="0" />
    <g
       id="g3004"
       transform="matrix(1.25,0,0,-1.25,421.19073,388.09025)">
      <path
         d="m 0,0 c -0.586,-0.588 -1.25,-1.117 -1.971,-1.576 -5.963,-3.781 -9.408,-6.381 -12.295,-9.268 -2.89,-2.886 -5.478,-6.326 -9.238,-12.263 -0.455,-0.719 -0.992,-1.387 -1.582,-1.977 -4.293,-4.293 -10.805,-4.189 -13.764,-1.23 l -3.382,3.382 c -2.959,2.959 -3.061,9.475 1.236,13.77 0.59,0.59 1.252,1.119 1.971,1.574 5.943,3.774 9.388,6.373 12.289,9.272 2.91,2.91 5.504,6.349 9.242,12.257 0.469,0.741 0.996,1.411 1.576,1.989 4.291,4.289 10.809,4.183 13.772,1.22 l 3.38,-3.38 c 1.506,-1.5 2.264,-3.874 2.075,-6.506 -0.196,-2.746 -1.37,-5.325 -3.309,-7.264"
         style="fill:#231f20;fill-opacity:1;fill-rule:evenodd;stroke:none"
         id="path3006"
         inkscape:connector-curvature="0" />
    </g>
    <g
       id="g3008"
       transform="matrix(1.25,0,0,-1.25,400.4071,371.34474)">
      <path
         d="m 0,0 c -7.041,-11.131 -10.723,-14.787 -21.852,-21.852 -5.511,-3.49 -5.972,-10.8 -3.023,-13.75 l 3.379,-3.378 c 2.941,-2.944 10.266,-2.483 13.754,3.025 7.033,11.139 10.719,14.801 21.847,21.85 5.506,3.496 5.979,10.806 3.032,13.751 l -3.383,3.383 c -2.945,2.948 -10.262,2.487 -13.754,-3.029"
         style="fill:#f5c274;fill-opacity:1;fill-rule:evenodd;stroke:none"
         id="path3010"
         inkscape:connector-curvature="0" />
    </g>
    <g
       clip-path="url(#clipPath3016)"
       id="g3014"
       transform="matrix(1.25,0,0,-1.25,303.78598,925.30587)">
      <g
         transform="translate(70.9297,405.833)"
         id="g3020"
         style="fill:#ff0000;fill-opacity:1">
        <path
           inkscape:connector-curvature="0"
           id="path3022"
           style="fill:#ff0000;fill-opacity:1;fill-rule:nonzero;stroke:none"
           d="m 0,0 c -0.764,-0.764 -2.008,-0.762 -2.77,0 l -14.099,14.1 c -0.758,0.763 -0.762,2.004 0.002,2.767 0.762,0.768 2,0.768 2.767,0 l 14.1,-14.099 c 0.764,-0.764 0.764,-2 0,-2.768" />
      </g>
      <g
         transform="translate(75.6855,413.3447)"
         id="g3024"
         style="fill:#ff0000;fill-opacity:1">
        <path
           inkscape:connector-curvature="0"
           id="path3026"
           style="fill:#ff0000;fill-opacity:1;fill-rule:nonzero;stroke:none"
           d="m 0,0 c -0.764,-0.764 -2.004,-0.762 -2.768,0 l -11.498,11.5 c -0.761,0.762 -0.765,2.002 -0.002,2.764 0.766,0.767 2.006,0.763 2.772,0.004 l 11.496,-11.498 c 0.764,-0.762 0.768,-2.002 0,-2.77" />
      </g>
      <g
         transform="translate(81.5137,419.7842)"
         id="g3028">
        <path
           inkscape:connector-curvature="0"
           id="path3030"
           style="fill:#a85a28;fill-opacity:1;fill-rule:nonzero;stroke:none"
           d="m 0,0 c -0.766,-0.766 -2.002,-0.76 -2.768,0 l -10.734,10.738 c -0.764,0.766 -0.766,1.998 0,2.766 0.764,0.766 2.004,0.764 2.772,0.002 l 10.732,-10.733 c 0.764,-0.769 0.764,-2.007 -0.002,-2.773" />
      </g>
      <g
         transform="translate(94.8457,429.7471)"
         id="g3032"
         style="fill:#bf9b4e;fill-opacity:1">
        <path
           inkscape:connector-curvature="0"
           id="path3034"
           style="fill:#bf9b4e;fill-opacity:1;fill-rule:nonzero;stroke:none"
           d="m 0,0 c -0.766,-0.766 -2.004,-0.766 -2.766,0.004 l -14.103,14.098 c -0.76,0.761 -0.766,2.002 -0.002,2.769 0.766,0.764 2.008,0.766 2.773,0.002 l 14.098,-14.103 c 0.768,-0.762 0.768,-2 0,-2.77" />
      </g>
    </g>
    <text
       xml:space="preserve"
       style="font-style:normal;font-variant:normal;font-weight:normal;font-stretch:normal;font-size:25px;line-height:125%;font-family:sans-serif;-inkscape-font-specification:'sans-serif, Normal';text-align:start;letter-spacing:0px;word-spacing:0px;writing-mode:lr-tb;text-anchor:start;fill:#000000;fill-opacity:1;stroke:none;stroke-width:1px;stroke-linecap:butt;stroke-linejoin:miter;stroke-opacity:1"
       x="342.13736"
       y="358.47845"
       id="text10372"
       sodipodi:linespacing="125%"><tspan
         sodipodi:role="line"
         x="342.13736"
         y="358.47845"
         id="tspan10376"
         style="font-size:15px">Resistor</tspan><tspan
         sodipodi:role="line"
         x="342.13736"
         y="377.22845"
         style="font-size:15px"
         id="tspan17448">220Ω</tspan></text>
  </g>
</svg>
