<?xml version="1.0" encoding="UTF-8" standalone="no"?>
<!-- Created with Inkscape (http://www.inkscape.org/) -->

<svg
   xmlns:dc="http://purl.org/dc/elements/1.1/"
   xmlns:cc="http://creativecommons.org/ns#"
   xmlns:rdf="http://www.w3.org/1999/02/22-rdf-syntax-ns#"
   xmlns:svg="http://www.w3.org/2000/svg"
   xmlns="http://www.w3.org/2000/svg"
   xmlns:sodipodi="http://sodipodi.sourceforge.net/DTD/sodipodi-0.dtd"
   xmlns:inkscape="http://www.inkscape.org/namespaces/inkscape"
   width="60.69577mm"
   height="29.909559mm"
   viewBox="0 0 215.06375 105.97875"
   id="svg14522"
   version="1.1"
   inkscape:version="0.91 r13725"
   sodipodi:docname="common_resistor.svg">
  <defs
     id="defs14524">
    <clipPath
       clipPathUnits="userSpaceOnUse"
       id="clipPath2046">
      <path
         d="m 201.307,478.751 171.05,0 0,83.783 -171.05,0 0,-83.783 z"
         id="path2048"
         inkscape:connector-curvature="0" />
    </clipPath>
    <clipPath
       clipPathUnits="userSpaceOnUse"
       id="clipPath2000">
      <path
         d="m 0,612 396,0 0,-612 -396,0 0,612 z"
         id="path2002"
         inkscape:connector-curvature="0" />
    </clipPath>
    <clipPath
       clipPathUnits="userSpaceOnUse"
       id="clipPath2902">
      <path
         d="m 0,612 396,0 0,-612 -396,0 0,612 z"
         id="path2904"
         inkscape:connector-curvature="0" />
    </clipPath>
    <clipPath
       clipPathUnits="userSpaceOnUse"
       id="clipPath23574">
      <rect
         style="opacity:1;fill:#00ff00;fill-opacity:1;stroke:none;stroke-width:0.2;stroke-linecap:round;stroke-linejoin:miter;stroke-miterlimit:4;stroke-dasharray:none;stroke-dashoffset:0;stroke-opacity:1"
         id="rect23576"
         width="171.29677"
         height="84.903999"
         x="201.37843"
         y="-563.15497"
         transform="scale(1,-1)" />
    </clipPath>
    <clipPath
       clipPathUnits="userSpaceOnUse"
       id="clipPath700">
      <path
         d="m 24.36,478.75 171.05,0 0,83.785 -171.05,0 0,-83.785 z"
         id="path702"
         inkscape:connector-curvature="0" />
    </clipPath>
    <clipPath
       clipPathUnits="userSpaceOnUse"
       id="clipPath780">
      <path
         d="m 0,612 396,0 0,-612 -396,0 0,612 z"
         id="path782"
         inkscape:connector-curvature="0" />
    </clipPath>
    <clipPath
       clipPathUnits="userSpaceOnUse"
       id="clipPath700-0">
      <path
         d="m 24.36,478.75 171.05,0 0,83.785 -171.05,0 0,-83.785 z"
         id="path702-3"
         inkscape:connector-curvature="0" />
    </clipPath>
    <clipPath
       clipPathUnits="userSpaceOnUse"
       id="clipPath492">
      <path
         d="m 0,612 396,0 0,-612 -396,0 0,612 z"
         id="path494"
         inkscape:connector-curvature="0" />
    </clipPath>
    <clipPath
       clipPathUnits="userSpaceOnUse"
       id="clipPath492-4">
      <path
         d="m 0,612 396,0 0,-612 -396,0 0,612 z"
         id="path494-7"
         inkscape:connector-curvature="0" />
    </clipPath>
    <clipPath
       clipPathUnits="userSpaceOnUse"
       id="clipPath700-0-6">
      <path
         d="m 24.36,478.75 171.05,0 0,83.785 -171.05,0 0,-83.785 z"
         id="path702-3-1"
         inkscape:connector-curvature="0" />
    </clipPath>
    <clipPath
       clipPathUnits="userSpaceOnUse"
       id="clipPath3040">
      <path
         d="m 0,612 396,0 0,-612 -396,0 0,612 z"
         id="path3042"
         inkscape:connector-curvature="0" />
    </clipPath>
    <clipPath
       clipPathUnits="userSpaceOnUse"
       id="clipPath3016">
      <path
         d="m 77.297,443.169 c -7.041,-11.131 -10.723,-14.787 -21.852,-21.852 l 0,0 c -5.511,-3.49 -5.972,-10.8 -3.023,-13.749 l 0,0 3.379,-3.38 c 2.941,-2.943 10.265,-2.482 13.754,3.026 l 0,0 c 7.033,11.138 10.719,14.8 21.847,21.849 l 0,0 c 5.506,3.497 5.979,10.807 3.031,13.752 l 0,0 -3.382,3.383 c -1.162,1.164 -3.006,1.796 -5.027,1.796 l 0,0 c -3.099,0 -6.613,-1.486 -8.727,-4.825"
         id="path3018"
         inkscape:connector-curvature="0" />
    </clipPath>
    <clipPath
       clipPathUnits="userSpaceOnUse"
       id="clipPath2984">
      <path
         d="m 24.36,387.892 171.049,0 0,83.783 -171.049,0 0,-83.783 z"
         id="path2986"
         inkscape:connector-curvature="0" />
    </clipPath>
    <clipPath
       clipPathUnits="userSpaceOnUse"
       id="clipPath2960">
      <path
         d="m 150.951,432.028 c -1.1,-1.779 -1.674,-2.372 -3.43,-3.508 l 0,0 c -0.867,-0.564 -0.928,-1.727 -0.455,-2.189 l 0,0 0.543,-0.531 c 0.472,-0.463 1.633,-0.375 2.178,0.506 l 0,0 c 1.102,1.779 1.673,2.37 3.429,3.51 l 0,0 c 0.869,0.562 0.928,1.726 0.455,2.188 l 0,0 -0.542,0.531 c -0.184,0.179 -0.47,0.275 -0.784,0.275 l 0,0 c -0.496,0 -1.061,-0.242 -1.394,-0.782"
         id="path2962"
         inkscape:connector-curvature="0" />
    </clipPath>
    <clipPath
       clipPathUnits="userSpaceOnUse"
       id="clipPath2940">
      <path
         d="m 113.039,464.953 c -1.986,0 -3.595,-1.612 -3.595,-3.598 l 0,0 0,-63.862 c 0,-1.987 1.609,-3.597 3.595,-3.597 l 0,0 72.33,0 c 1.987,0 3.596,1.61 3.596,3.597 l 0,0 0,63.862 c 0,1.986 -1.609,3.598 -3.596,3.598 l 0,0 -72.33,0 z"
         id="path2942"
         inkscape:connector-curvature="0" />
    </clipPath>
    <clipPath
       clipPathUnits="userSpaceOnUse"
       id="clipPath2920">
      <path
         d="m 0,612 396,0 0,-612 -396,0 0,612 z"
         id="path2922"
         inkscape:connector-curvature="0" />
    </clipPath>
  </defs>
  <sodipodi:namedview
     id="base"
     pagecolor="#ffffff"
     bordercolor="#666666"
     borderopacity="1.0"
     inkscape:pageopacity="0.0"
     inkscape:pageshadow="2"
     inkscape:zoom="3.959798"
     inkscape:cx="85.678285"
     inkscape:cy="18.406812"
     inkscape:document-units="px"
     inkscape:current-layer="svg14522"
     showgrid="true"
     fit-margin-top="0"
     fit-margin-left="0"
     fit-margin-right="0"
     fit-margin-bottom="0"
     inkscape:window-width="1920"
     inkscape:window-height="1017"
     inkscape:window-x="-8"
     inkscape:window-y="-8"
     inkscape:window-maximized="1"
     showguides="false" />
  <metadata
     id="metadata14527">
    <rdf:RDF>
      <cc:Work
         rdf:about="">
        <dc:format>image/svg+xml</dc:format>
        <dc:type
           rdf:resource="http://purl.org/dc/dcmitype/StillImage" />
        <dc:title></dc:title>
      </cc:Work>
    </rdf:RDF>
  </metadata>
  <g
     inkscape:label="Layer 1"
     inkscape:groupmode="layer"
     id="layer1"
     transform="translate(-112.46813,-282.22997)"
     style="display:inline">
    <g
       id="g23541">
      <g
         style="font-style:normal;font-variant:normal;font-weight:normal;font-stretch:normal;font-size:11.25px;line-height:125%;font-family:sans-serif;-inkscape-font-specification:'sans-serif, Normal';text-align:start;letter-spacing:0px;word-spacing:0px;writing-mode:lr-tb;text-anchor:start;fill:#000000;fill-opacity:1;stroke:none;stroke-width:1px;stroke-linecap:butt;stroke-linejoin:miter;stroke-opacity:1"
         id="text15994">
        <path
           d="m 129.206,299.9473 -1.69678,0 -1.3977,-2.34375 q -0.18921,-0.32349 -0.37232,-0.54932 -0.177,-0.23193 -0.36621,-0.37842 -0.1831,-0.14648 -0.40283,-0.21362 -0.21973,-0.0671 -0.49438,-0.0671 l -0.58594,0 0,3.55225 -1.44653,0 0,-8.75245 2.88086,0 q 0.61645,0 1.13525,0.14649 0.5188,0.14648 0.90332,0.44556 0.38452,0.29296 0.59814,0.73852 0.21973,0.43945 0.21973,1.0315 0,0.46386 -0.14038,0.85449 -0.13428,0.38452 -0.39063,0.68969 -0.25024,0.29908 -0.61035,0.5127 -0.354,0.21362 -0.79956,0.32959 l 0,0.0244 q 0.23804,0.13428 0.41504,0.29908 0.177,0.15869 0.3357,0.32959 0.15869,0.17089 0.31127,0.39062 0.1587,0.21362 0.3479,0.50049 l 1.5564,2.45972 z m -5.31616,-7.57447 0,2.84424 1.2085,0 q 0.33569,0 0.61645,-0.10376 0.28687,-0.10376 0.49439,-0.29907 0.20751,-0.19531 0.32348,-0.47607 0.11597,-0.28077 0.11597,-0.62867 0,-0.62866 -0.39673,-0.98266 -0.39673,-0.35401 -1.14136,-0.35401 l -1.2207,0 z"
           style="font-style:normal;font-variant:normal;font-weight:600;font-stretch:normal;font-size:12.5px;font-family:'Segoe UI';-inkscape-font-specification:'Segoe UI Semi-Bold'"
           id="path24895" />
        <path
           d="m 135.04707,297.20682 -4.26026,0 q 0.0244,0.8667 0.53101,1.33667 0.51269,0.46997 1.40381,0.46997 1.00097,0 1.83715,-0.59815 l 0,1.14136 q -0.85449,0.53711 -2.2583,0.53711 -1.37939,0 -2.16674,-0.84839 -0.78125,-0.85449 -0.78125,-2.39868 0,-1.45874 0.86059,-2.37427 0.8667,-0.92163 2.14844,-0.92163 1.28174,0 1.98364,0.82398 0.70191,0.82397 0.70191,2.28881 l 0,0.54322 z m -1.36719,-1.00098 q -0.006,-0.76294 -0.36011,-1.18408 -0.354,-0.42725 -0.97656,-0.42725 -0.61035,0 -1.0376,0.44556 -0.42114,0.44556 -0.5188,1.16577 l 2.89307,0 z"
           style="font-style:normal;font-variant:normal;font-weight:600;font-stretch:normal;font-size:12.5px;font-family:'Segoe UI';-inkscape-font-specification:'Segoe UI Semi-Bold'"
           id="path24897" />
        <path
           d="m 136.00532,299.75198 0,-1.31225 q 0.79345,0.60425 1.75171,0.60425 1.28173,0 1.28173,-0.75684 0,-0.21362 -0.10986,-0.36011 -0.10986,-0.15259 -0.29907,-0.26855 -0.18311,-0.11597 -0.43945,-0.20752 -0.25025,-0.0915 -0.56153,-0.20752 -0.38452,-0.15259 -0.6958,-0.32349 -0.30517,-0.1709 -0.51269,-0.38452 -0.20142,-0.21973 -0.30518,-0.49438 -0.10376,-0.27466 -0.10376,-0.64087 0,-0.45166 0.21362,-0.79346 0.21363,-0.3479 0.57373,-0.57983 0.36011,-0.23804 0.81788,-0.35401 0.45776,-0.12207 0.94604,-0.12207 0.8667,0 1.55029,0.26245 l 0,1.23902 q -0.65918,-0.45166 -1.51367,-0.45166 -0.26855,0 -0.48828,0.0549 -0.21362,0.0549 -0.36621,0.15259 -0.15259,0.0977 -0.23804,0.23803 -0.0854,0.13428 -0.0854,0.29908 0,0.20141 0.0854,0.34179 0.0855,0.14038 0.25025,0.25025 0.1709,0.10376 0.40283,0.19531 0.23804,0.0854 0.54321,0.18921 0.40283,0.16479 0.72022,0.33569 0.32348,0.1709 0.54931,0.39063 0.22583,0.21362 0.3479,0.50048 0.12207,0.28077 0.12207,0.67139 0,0.47608 -0.21972,0.83008 -0.21973,0.354 -0.58594,0.58594 -0.36621,0.23193 -0.84839,0.34179 -0.47607,0.11597 -1.00708,0.11597 -1.02539,0 -1.77612,-0.3418 z"
           style="font-style:normal;font-variant:normal;font-weight:600;font-stretch:normal;font-size:12.5px;font-family:'Segoe UI';-inkscape-font-specification:'Segoe UI Semi-Bold'"
           id="path24899" />
        <path
           d="m 142.50556,292.38504 q -0.3479,0 -0.59814,-0.22583 -0.24414,-0.22583 -0.24414,-0.57373 0,-0.3479 0.24414,-0.57983 0.25024,-0.23194 0.59814,-0.23194 0.36011,0 0.61035,0.23194 0.25025,0.23193 0.25025,0.57983 0,0.32959 -0.25025,0.56763 -0.25024,0.23193 -0.61035,0.23193 z m 0.70191,7.56226 -1.41602,0 0,-6.25 1.41602,0 0,6.25 z"
           style="font-style:normal;font-variant:normal;font-weight:600;font-stretch:normal;font-size:12.5px;font-family:'Segoe UI';-inkscape-font-specification:'Segoe UI Semi-Bold'"
           id="path24901" />
        <path
           d="m 144.67231,299.75198 0,-1.31225 q 0.79346,0.60425 1.75171,0.60425 1.28174,0 1.28174,-0.75684 0,-0.21362 -0.10987,-0.36011 -0.10986,-0.15259 -0.29907,-0.26855 -0.1831,-0.11597 -0.43945,-0.20752 -0.25025,-0.0915 -0.56152,-0.20752 -0.38453,-0.15259 -0.69581,-0.32349 -0.30517,-0.1709 -0.51269,-0.38452 -0.20142,-0.21973 -0.30518,-0.49438 -0.10376,-0.27466 -0.10376,-0.64087 0,-0.45166 0.21363,-0.79346 0.21362,-0.3479 0.57373,-0.57983 0.3601,-0.23804 0.81787,-0.35401 0.45776,-0.12207 0.94604,-0.12207 0.8667,0 1.5503,0.26245 l 0,1.23902 q -0.65918,-0.45166 -1.51368,-0.45166 -0.26855,0 -0.48828,0.0549 -0.21362,0.0549 -0.36621,0.15259 -0.15259,0.0977 -0.23804,0.23803 -0.0854,0.13428 -0.0854,0.29908 0,0.20141 0.0854,0.34179 0.0855,0.14038 0.25025,0.25025 0.1709,0.10376 0.40283,0.19531 0.23804,0.0854 0.54321,0.18921 0.40284,0.16479 0.72022,0.33569 0.32348,0.1709 0.54932,0.39063 0.22583,0.21362 0.3479,0.50048 0.12207,0.28077 0.12207,0.67139 0,0.47608 -0.21973,0.83008 -0.21973,0.354 -0.58594,0.58594 -0.36621,0.23193 -0.84839,0.34179 -0.47607,0.11597 -1.00708,0.11597 -1.02539,0 -1.77612,-0.3418 z"
           style="font-style:normal;font-variant:normal;font-weight:600;font-stretch:normal;font-size:12.5px;font-family:'Segoe UI';-inkscape-font-specification:'Segoe UI Semi-Bold'"
           id="path24903" />
        <path
           d="m 153.75434,299.88016 q -0.41504,0.20752 -1.09253,0.20752 -1.81885,0 -1.81885,-1.74561 l 0,-3.53393 -1.0437,0 0,-1.11084 1.0437,0 0,-1.44654 1.41602,-0.40283 0,1.84937 1.49536,0 0,1.11084 -1.49536,0 0,3.125 q 0,0.55542 0.20142,0.79345 0.20141,0.23804 0.67138,0.23804 0.36011,0 0.62256,-0.20752 l 0,1.12305 z"
           style="font-style:normal;font-variant:normal;font-weight:600;font-stretch:normal;font-size:12.5px;font-family:'Segoe UI';-inkscape-font-specification:'Segoe UI Semi-Bold'"
           id="path24905" />
        <path
           d="m 157.6728,300.09378 q -1.44654,0 -2.31323,-0.8728 -0.8606,-0.87891 -0.8606,-2.32544 0,-1.57471 0.89722,-2.45972 0.90332,-0.88501 2.4292,-0.88501 1.46484,0 2.28271,0.8606 0.81787,0.86059 0.81787,2.38647 0,1.49536 -0.88501,2.39868 -0.8789,0.89722 -2.36816,0.89722 z m 0.0671,-5.41382 q -0.83008,0 -1.31226,0.57984 -0.48218,0.57983 -0.48218,1.59912 0,0.98266 0.48828,1.55029 0.48829,0.56152 1.30616,0.56152 0.83618,0 1.28174,-0.55542 0.45166,-0.55542 0.45166,-1.58081 0,-1.03149 -0.45166,-1.59301 -0.44556,-0.56153 -1.28174,-0.56153 z"
           style="font-style:normal;font-variant:normal;font-weight:600;font-stretch:normal;font-size:12.5px;font-family:'Segoe UI';-inkscape-font-specification:'Segoe UI Semi-Bold'"
           id="path24907" />
        <path
           d="m 165.99799,295.04617 q -0.25634,-0.20141 -0.73852,-0.20141 -0.62866,0 -1.04981,0.56762 -0.42114,0.56763 -0.42114,1.54419 l 0,2.99073 -1.41601,0 0,-6.25 1.41601,0 0,1.28784 0.0244,0 q 0.20752,-0.65918 0.63477,-1.02539 0.43335,-0.37232 0.96436,-0.37232 0.38452,0 0.58593,0.11597 l 0,1.34277 z"
           style="font-style:normal;font-variant:normal;font-weight:600;font-stretch:normal;font-size:12.5px;font-family:'Segoe UI';-inkscape-font-specification:'Segoe UI Semi-Bold'"
           id="path24909" />
      </g>
    </g>
  </g>
  <g
     transform="matrix(1.25,0,0,-1.25,-29.825,590.21875)"
     id="g2916">
    <g
       id="g2918"
       clip-path="url(#clipPath2920)">
      <g
         id="g2924"
         transform="translate(188.9648,397.4932)">
        <path
           d="m 0,0 c 0,-1.987 -1.609,-3.598 -3.596,-3.598 l -72.33,0 c -1.986,0 -3.595,1.611 -3.595,3.598 l 0,63.862 c 0,1.986 1.609,3.598 3.595,3.598 l 72.33,0 c 1.987,0 3.596,-1.612 3.596,-3.598 l 0,-63.862 z"
           style="fill:#f1f1f2;fill-opacity:1;fill-rule:nonzero;stroke:none"
           id="path2926"
           inkscape:connector-curvature="0" />
      </g>
      <g
         id="g2928"
         transform="translate(188.9648,397.4932)">
        <path
           d="m 0,0 c 0,-1.987 -1.609,-3.598 -3.596,-3.598 l -72.33,0 c -1.986,0 -3.595,1.611 -3.595,3.598 l 0,63.862 c 0,1.986 1.609,3.598 3.595,3.598 l 72.33,0 c 1.987,0 3.596,-1.612 3.596,-3.598 l 0,-63.862 z"
           style="fill:none;stroke:#bcbec0;stroke-width:0.5;stroke-linecap:round;stroke-linejoin:round;stroke-miterlimit:10;stroke-dasharray:none;stroke-opacity:1"
           id="path2930"
           inkscape:connector-curvature="0" />
      </g>
    </g>
  </g>
  <g
     transform="matrix(1.25,0,0,-1.25,-29.825,590.21875)"
     id="g2936">
    <g
       id="g2938"
       clip-path="url(#clipPath2940)">
      <g
         id="g2944"
         transform="translate(201.0498,480.3096)">
        <path
           d="m 0,0 -54.091,-55.348 -4.932,-5.047 -41.625,-42.59 -0.715,0.699 41.623,42.591 4.932,5.045 54.093,55.349 0.715,-0.699 z"
           style="fill:#bcbec0;fill-opacity:1;fill-rule:nonzero;stroke:none"
           id="path2946"
           inkscape:connector-curvature="0" />
      </g>
      <g
         id="g2948"
         transform="translate(151.0581,432.4297)">
        <path
           d="m 0,0 c -0.092,-0.094 -0.176,-0.2 -0.248,-0.315 -0.588,-0.955 -0.994,-1.506 -1.447,-1.969 -0.453,-0.465 -0.994,-0.881 -1.93,-1.488 -0.113,-0.075 -0.219,-0.162 -0.311,-0.256 -0.673,-0.69 -0.646,-1.723 -0.171,-2.187 l 0.543,-0.531 c 0.476,-0.464 1.509,-0.469 2.185,0.222 0.092,0.094 0.176,0.201 0.246,0.316 0.588,0.949 0.994,1.502 1.449,1.967 0.455,0.468 0.998,0.885 1.93,1.49 0.115,0.076 0.221,0.16 0.311,0.254 0.673,0.689 0.646,1.723 0.17,2.187 l -0.543,0.532 c -0.241,0.236 -0.62,0.351 -1.038,0.316 -0.435,-0.035 -0.841,-0.226 -1.146,-0.538"
           style="fill:#231f20;fill-opacity:1;fill-rule:evenodd;stroke:none"
           id="path2950"
           inkscape:connector-curvature="0" />
      </g>
      <g
         id="g2952"
         transform="translate(153.2163,429.8154)">
        <path
           d="m 0,0 c -1.756,-1.139 -2.328,-1.73 -3.43,-3.51 -0.545,-0.881 -1.705,-0.969 -2.177,-0.506 l -0.543,0.532 c -0.473,0.462 -0.412,1.625 0.455,2.188 1.756,1.137 2.33,1.73 3.429,3.509 0.545,0.881 1.704,0.969 2.178,0.506 l 0.543,-0.531 c 0.473,-0.461 0.414,-1.626 -0.455,-2.188"
           style="fill:#f5c274;fill-opacity:1;fill-rule:evenodd;stroke:none"
           id="path2954"
           inkscape:connector-curvature="0" />
      </g>
    </g>
  </g>
  <g
     transform="matrix(1.25,0,0,-1.25,-29.825,590.21875)"
     id="g2956">
    <g
       id="g2958"
       clip-path="url(#clipPath2960)">
      <g
         id="g2964"
         transform="translate(147.3003,428.7373)">
        <path
           d="m 0,0 c -0.121,-0.123 -0.117,-0.322 0.004,-0.441 l 2.264,-2.213 c 0.123,-0.119 0.32,-0.117 0.439,0.007 0.121,0.122 0.119,0.318 -0.004,0.438 l -2.264,2.213 c -0.123,0.12 -0.32,0.117 -0.439,-0.004"
           style="fill:#f05423;fill-opacity:1;fill-rule:nonzero;stroke:none"
           id="path2966"
           inkscape:connector-curvature="0" />
      </g>
      <g
         id="g2968"
         transform="translate(148.4839,429.5049)">
        <path
           d="m 0,0 c -0.121,-0.123 -0.117,-0.32 0.006,-0.439 l 1.846,-1.805 c 0.121,-0.119 0.318,-0.118 0.439,0.005 0.119,0.123 0.117,0.32 -0.006,0.44 l -1.846,1.805 c -0.123,0.119 -0.32,0.117 -0.439,-0.006"
           style="fill:#f05423;fill-opacity:1;fill-rule:nonzero;stroke:none"
           id="path2970"
           inkscape:connector-curvature="0" />
      </g>
      <g
         id="g2972"
         transform="translate(149.4956,430.4414)">
        <path
           d="m 0,0 c -0.121,-0.123 -0.117,-0.318 0.004,-0.439 l 1.725,-1.684 c 0.123,-0.12 0.318,-0.118 0.439,0.005 0.119,0.123 0.117,0.319 -0.006,0.439 l -1.723,1.685 c -0.123,0.12 -0.32,0.117 -0.439,-0.006"
           style="fill:#a85a28;fill-opacity:1;fill-rule:nonzero;stroke:none"
           id="path2974"
           inkscape:connector-curvature="0" />
      </g>
      <g
         id="g2976"
         transform="translate(151.0522,432.5771)">
        <path
           d="m 0,0 c -0.121,-0.123 -0.117,-0.32 0.006,-0.439 l 2.264,-2.214 c 0.123,-0.118 0.318,-0.118 0.439,0.005 0.121,0.123 0.119,0.32 -0.004,0.439 l -2.266,2.213 c -0.121,0.121 -0.318,0.119 -0.439,-0.004"
           style="fill:#bf9b4e;fill-opacity:1;fill-rule:nonzero;stroke:none"
           id="path2978"
           inkscape:connector-curvature="0" />
      </g>
    </g>
  </g>
  <g
     transform="matrix(1.25,0,0,-1.25,-29.825,590.21875)"
     id="g2980">
    <g
       id="g2982"
       clip-path="url(#clipPath2984)">
      <g
         id="g2988"
         transform="translate(54.6953,404.9834)">
        <path
           d="m 0,0 -85.363,-85.365 -1.475,1.474 85.367,85.368 1.471,-1.477 z"
           style="fill:#bcbec0;fill-opacity:1;fill-rule:nonzero;stroke:none"
           id="path2990"
           inkscape:connector-curvature="0" />
      </g>
      <g
         id="g2992"
         transform="translate(54.6953,404.9834)">
        <path
           d="m 0,0 -85.363,-85.365 -1.475,1.474 85.367,85.368 1.471,-1.477 z"
           style="fill:none;stroke:#231f20;stroke-width:0.25;stroke-linecap:butt;stroke-linejoin:miter;stroke-miterlimit:4;stroke-dasharray:none;stroke-opacity:1"
           id="path2994"
           inkscape:connector-curvature="0" />
      </g>
      <g
         id="g2996"
         transform="translate(177.0605,527.3486)">
        <path
           d="m 0,0 -83.266,-83.268 -1.47,1.479 83.261,83.262 1.475,-1.473 z"
           style="fill:#bcbec0;fill-opacity:1;fill-rule:nonzero;stroke:none"
           id="path2998"
           inkscape:connector-curvature="0" />
      </g>
      <g
         id="g3000"
         transform="translate(177.0605,527.3486)">
        <path
           d="m 0,0 -83.266,-83.268 -1.47,1.479 83.261,83.262 1.475,-1.473 z"
           style="fill:none;stroke:#231f20;stroke-width:0.25;stroke-linecap:butt;stroke-linejoin:miter;stroke-miterlimit:4;stroke-dasharray:none;stroke-opacity:1"
           id="path3002"
           inkscape:connector-curvature="0" />
      </g>
      <g
         id="g3004"
         transform="translate(93.9238,429.7725)">
        <path
           d="m 0,0 c -0.586,-0.588 -1.25,-1.117 -1.971,-1.576 -5.963,-3.781 -9.408,-6.381 -12.295,-9.268 -2.89,-2.886 -5.478,-6.326 -9.238,-12.263 -0.455,-0.719 -0.992,-1.387 -1.582,-1.977 -4.293,-4.293 -10.805,-4.189 -13.764,-1.23 l -3.382,3.382 c -2.959,2.959 -3.061,9.475 1.236,13.77 0.59,0.59 1.252,1.119 1.971,1.574 5.943,3.774 9.388,6.373 12.289,9.272 2.91,2.91 5.504,6.349 9.242,12.257 0.469,0.741 0.996,1.411 1.576,1.989 4.291,4.289 10.809,4.183 13.772,1.22 l 3.38,-3.38 c 1.506,-1.5 2.264,-3.874 2.075,-6.506 -0.196,-2.746 -1.37,-5.325 -3.309,-7.264"
           style="fill:#231f20;fill-opacity:1;fill-rule:evenodd;stroke:none"
           id="path3006"
           inkscape:connector-curvature="0" />
      </g>
      <g
         id="g3008"
         transform="translate(77.2969,443.1689)">
        <path
           d="m 0,0 c -7.041,-11.131 -10.723,-14.787 -21.852,-21.852 -5.511,-3.49 -5.972,-10.8 -3.023,-13.75 l 3.379,-3.378 c 2.941,-2.944 10.266,-2.483 13.754,3.025 7.033,11.139 10.719,14.801 21.847,21.85 5.506,3.496 5.979,10.806 3.032,13.751 l -3.383,3.383 c -2.945,2.948 -10.262,2.487 -13.754,-3.029"
           style="fill:#f5c274;fill-opacity:1;fill-rule:evenodd;stroke:none"
           id="path3010"
           inkscape:connector-curvature="0" />
      </g>
    </g>
  </g>
  <g
     transform="matrix(1.25,0,0,-1.25,-29.825,590.21875)"
     id="g3012">
    <g
       id="g3014"
       clip-path="url(#clipPath3016)">
      <g
         id="g3020"
         transform="translate(70.9297,405.833)">
        <path
           d="m 0,0 c -0.764,-0.764 -2.008,-0.762 -2.77,0 l -14.099,14.1 c -0.758,0.763 -0.762,2.004 0.002,2.767 0.762,0.768 2,0.768 2.767,0 l 14.1,-14.099 c 0.764,-0.764 0.764,-2 0,-2.768"
           style="fill:#f05423;fill-opacity:1;fill-rule:nonzero;stroke:none"
           id="path3022"
           inkscape:connector-curvature="0" />
      </g>
      <g
         id="g3024"
         transform="translate(75.6855,413.3447)">
        <path
           d="m 0,0 c -0.764,-0.764 -2.004,-0.762 -2.768,0 l -11.498,11.5 c -0.761,0.762 -0.765,2.002 -0.002,2.764 0.766,0.767 2.006,0.763 2.772,0.004 l 11.496,-11.498 c 0.764,-0.762 0.768,-2.002 0,-2.77"
           style="fill:#f05423;fill-opacity:1;fill-rule:nonzero;stroke:none"
           id="path3026"
           inkscape:connector-curvature="0" />
      </g>
      <g
         id="g3028"
         transform="translate(81.5137,419.7842)">
        <path
           d="m 0,0 c -0.766,-0.766 -2.002,-0.76 -2.768,0 l -10.734,10.738 c -0.764,0.766 -0.766,1.998 0,2.766 0.764,0.766 2.004,0.764 2.772,0.002 l 10.732,-10.733 c 0.764,-0.769 0.764,-2.007 -0.002,-2.773"
           style="fill:#a85a28;fill-opacity:1;fill-rule:nonzero;stroke:none"
           id="path3030"
           inkscape:connector-curvature="0" />
      </g>
      <g
         id="g3032"
         transform="translate(94.8457,429.7471)">
        <path
           d="m 0,0 c -0.766,-0.766 -2.004,-0.766 -2.766,0.004 l -14.103,14.098 c -0.76,0.761 -0.766,2.002 -0.002,2.769 0.766,0.764 2.008,0.766 2.773,0.002 l 14.098,-14.103 c 0.768,-0.762 0.768,-2 0,-2.77"
           style="fill:#bf9b4e;fill-opacity:1;fill-rule:nonzero;stroke:none"
           id="path3034"
           inkscape:connector-curvature="0" />
      </g>
    </g>
  </g>
</svg>
