<?xml version="1.0" encoding="UTF-8" standalone="no"?>
<!-- Created with Inkscape (http://www.inkscape.org/) -->

<svg
   xmlns:dc="http://purl.org/dc/elements/1.1/"
   xmlns:cc="http://creativecommons.org/ns#"
   xmlns:rdf="http://www.w3.org/1999/02/22-rdf-syntax-ns#"
   xmlns:svg="http://www.w3.org/2000/svg"
   xmlns="http://www.w3.org/2000/svg"
   xmlns:sodipodi="http://sodipodi.sourceforge.net/DTD/sodipodi-0.dtd"
   xmlns:inkscape="http://www.inkscape.org/namespaces/inkscape"
   width="60.69577mm"
   height="29.909559mm"
   viewBox="0 0 215.06375 105.97875"
   id="svg53981"
   version="1.1"
   inkscape:version="0.91 r13725"
   sodipodi:docname="common_330_resistor.svg">
  <defs
     id="defs53983">
    <clipPath
       clipPathUnits="userSpaceOnUse"
       id="clipPath3040">
      <path
         d="m 0,612 396,0 0,-612 -396,0 0,612 z"
         id="path3042"
         inkscape:connector-curvature="0" />
    </clipPath>
    <clipPath
       clipPathUnits="userSpaceOnUse"
       id="clipPath3016">
      <path
         d="m 77.297,443.169 c -7.041,-11.131 -10.723,-14.787 -21.852,-21.852 l 0,0 c -5.511,-3.49 -5.972,-10.8 -3.023,-13.749 l 0,0 3.379,-3.38 c 2.941,-2.943 10.265,-2.482 13.754,3.026 l 0,0 c 7.033,11.138 10.719,14.8 21.847,21.849 l 0,0 c 5.506,3.497 5.979,10.807 3.031,13.752 l 0,0 -3.382,3.383 c -1.162,1.164 -3.006,1.796 -5.027,1.796 l 0,0 c -3.099,0 -6.613,-1.486 -8.727,-4.825"
         id="path3018"
         inkscape:connector-curvature="0" />
    </clipPath>
    <clipPath
       clipPathUnits="userSpaceOnUse"
       id="clipPath2984">
      <path
         d="m 24.36,387.892 171.049,0 0,83.783 -171.049,0 0,-83.783 z"
         id="path2986"
         inkscape:connector-curvature="0" />
    </clipPath>
    <clipPath
       clipPathUnits="userSpaceOnUse"
       id="clipPath2960">
      <path
         d="m 150.951,432.028 c -1.1,-1.779 -1.674,-2.372 -3.43,-3.508 l 0,0 c -0.867,-0.564 -0.928,-1.727 -0.455,-2.189 l 0,0 0.543,-0.531 c 0.472,-0.463 1.633,-0.375 2.178,0.506 l 0,0 c 1.102,1.779 1.673,2.37 3.429,3.51 l 0,0 c 0.869,0.562 0.928,1.726 0.455,2.188 l 0,0 -0.542,0.531 c -0.184,0.179 -0.47,0.275 -0.784,0.275 l 0,0 c -0.496,0 -1.061,-0.242 -1.394,-0.782"
         id="path2962"
         inkscape:connector-curvature="0" />
    </clipPath>
    <clipPath
       clipPathUnits="userSpaceOnUse"
       id="clipPath2940">
      <path
         d="m 113.039,464.953 c -1.986,0 -3.595,-1.612 -3.595,-3.598 l 0,0 0,-63.862 c 0,-1.987 1.609,-3.597 3.595,-3.597 l 0,0 72.33,0 c 1.987,0 3.596,1.61 3.596,3.597 l 0,0 0,63.862 c 0,1.986 -1.609,3.598 -3.596,3.598 l 0,0 -72.33,0 z"
         id="path2942"
         inkscape:connector-curvature="0" />
    </clipPath>
    <clipPath
       clipPathUnits="userSpaceOnUse"
       id="clipPath2920">
      <path
         d="m 0,612 396,0 0,-612 -396,0 0,612 z"
         id="path2922"
         inkscape:connector-curvature="0" />
    </clipPath>
  </defs>
  <sodipodi:namedview
     id="base"
     pagecolor="#ffffff"
     bordercolor="#666666"
     borderopacity="1.0"
     inkscape:pageopacity="0.0"
     inkscape:pageshadow="2"
     inkscape:zoom="3.959798"
     inkscape:cx="110.09401"
     inkscape:cy="12.285872"
     inkscape:document-units="px"
     inkscape:current-layer="layer1"
     showgrid="false"
     fit-margin-top="0"
     fit-margin-left="0"
     fit-margin-right="0"
     fit-margin-bottom="0"
     inkscape:window-width="1920"
     inkscape:window-height="1017"
     inkscape:window-x="-8"
     inkscape:window-y="-8"
     inkscape:window-maximized="1"
     showguides="false" />
  <metadata
     id="metadata53986">
    <rdf:RDF>
      <cc:Work
         rdf:about="">
        <dc:format>image/svg+xml</dc:format>
        <dc:type
           rdf:resource="http://purl.org/dc/dcmitype/StillImage" />
        <dc:title></dc:title>
      </cc:Work>
    </rdf:RDF>
  </metadata>
  <g
     inkscape:label="Layer 1"
     inkscape:groupmode="layer"
     id="layer1"
     transform="translate(-349.61098,-345.08712)">
    <g
       transform="matrix(1.25,0,0,-1.25,319.78598,935.30587)"
       id="g2916">
      <g
         id="g2918"
         clip-path="url(#clipPath2920)">
        <g
           id="g2924"
           transform="translate(188.9648,397.4932)">
          <path
             d="m 0,0 c 0,-1.987 -1.609,-3.598 -3.596,-3.598 l -72.33,0 c -1.986,0 -3.595,1.611 -3.595,3.598 l 0,63.862 c 0,1.986 1.609,3.598 3.595,3.598 l 72.33,0 c 1.987,0 3.596,-1.612 3.596,-3.598 l 0,-63.862 z"
             style="fill:#f1f1f2;fill-opacity:1;fill-rule:nonzero;stroke:none"
             id="path2926"
             inkscape:connector-curvature="0" />
        </g>
        <g
           id="g2928"
           transform="translate(188.9648,397.4932)">
          <path
             d="m 0,0 c 0,-1.987 -1.609,-3.598 -3.596,-3.598 l -72.33,0 c -1.986,0 -3.595,1.611 -3.595,3.598 l 0,63.862 c 0,1.986 1.609,3.598 3.595,3.598 l 72.33,0 c 1.987,0 3.596,-1.612 3.596,-3.598 l 0,-63.862 z"
             style="fill:none;stroke:#bcbec0;stroke-width:0.5;stroke-linecap:round;stroke-linejoin:round;stroke-miterlimit:10;stroke-dasharray:none;stroke-opacity:1"
             id="path2930"
             inkscape:connector-curvature="0" />
        </g>
      </g>
    </g>
    <g
       transform="matrix(1.25,0,0,-1.25,319.78598,935.30587)"
       id="g2936">
      <g
         id="g2938"
         clip-path="url(#clipPath2940)">
        <g
           id="g2944"
           transform="translate(201.0498,480.3096)">
          <path
             d="m 0,0 -54.091,-55.348 -4.932,-5.047 -41.625,-42.59 -0.715,0.699 41.623,42.591 4.932,5.045 54.093,55.349 0.715,-0.699 z"
             style="fill:#bcbec0;fill-opacity:1;fill-rule:nonzero;stroke:none"
             id="path2946"
             inkscape:connector-curvature="0" />
        </g>
        <g
           id="g2948"
           transform="translate(151.0581,432.4297)">
          <path
             d="m 0,0 c -0.092,-0.094 -0.176,-0.2 -0.248,-0.315 -0.588,-0.955 -0.994,-1.506 -1.447,-1.969 -0.453,-0.465 -0.994,-0.881 -1.93,-1.488 -0.113,-0.075 -0.219,-0.162 -0.311,-0.256 -0.673,-0.69 -0.646,-1.723 -0.171,-2.187 l 0.543,-0.531 c 0.476,-0.464 1.509,-0.469 2.185,0.222 0.092,0.094 0.176,0.201 0.246,0.316 0.588,0.949 0.994,1.502 1.449,1.967 0.455,0.468 0.998,0.885 1.93,1.49 0.115,0.076 0.221,0.16 0.311,0.254 0.673,0.689 0.646,1.723 0.17,2.187 l -0.543,0.532 c -0.241,0.236 -0.62,0.351 -1.038,0.316 -0.435,-0.035 -0.841,-0.226 -1.146,-0.538"
             style="fill:#231f20;fill-opacity:1;fill-rule:evenodd;stroke:none"
             id="path2950"
             inkscape:connector-curvature="0" />
        </g>
        <g
           id="g2952"
           transform="translate(153.2163,429.8154)">
          <path
             d="m 0,0 c -1.756,-1.139 -2.328,-1.73 -3.43,-3.51 -0.545,-0.881 -1.705,-0.969 -2.177,-0.506 l -0.543,0.532 c -0.473,0.462 -0.412,1.625 0.455,2.188 1.756,1.137 2.33,1.73 3.429,3.509 0.545,0.881 1.704,0.969 2.178,0.506 l 0.543,-0.531 c 0.473,-0.461 0.414,-1.626 -0.455,-2.188"
             style="fill:#f5c274;fill-opacity:1;fill-rule:evenodd;stroke:none"
             id="path2954"
             inkscape:connector-curvature="0" />
        </g>
      </g>
    </g>
    <g
       transform="matrix(1.25,0,0,-1.25,319.78598,935.30587)"
       id="g2956">
      <g
         id="g2958"
         clip-path="url(#clipPath2960)">
        <g
           id="g2964"
           transform="translate(147.3003,428.7373)">
          <path
             d="m 0,0 c -0.121,-0.123 -0.117,-0.322 0.004,-0.441 l 2.264,-2.213 c 0.123,-0.119 0.32,-0.117 0.439,0.007 0.121,0.122 0.119,0.318 -0.004,0.438 l -2.264,2.213 c -0.123,0.12 -0.32,0.117 -0.439,-0.004"
             style="fill:#f05423;fill-opacity:1;fill-rule:nonzero;stroke:none"
             id="path2966"
             inkscape:connector-curvature="0" />
        </g>
        <g
           id="g2968"
           transform="translate(148.4839,429.5049)">
          <path
             d="m 0,0 c -0.121,-0.123 -0.117,-0.32 0.006,-0.439 l 1.846,-1.805 c 0.121,-0.119 0.318,-0.118 0.439,0.005 0.119,0.123 0.117,0.32 -0.006,0.44 l -1.846,1.805 c -0.123,0.119 -0.32,0.117 -0.439,-0.006"
             style="fill:#f05423;fill-opacity:1;fill-rule:nonzero;stroke:none"
             id="path2970"
             inkscape:connector-curvature="0" />
        </g>
        <g
           id="g2972"
           transform="translate(149.4956,430.4414)">
          <path
             d="m 0,0 c -0.121,-0.123 -0.117,-0.318 0.004,-0.439 l 1.725,-1.684 c 0.123,-0.12 0.318,-0.118 0.439,0.005 0.119,0.123 0.117,0.319 -0.006,0.439 l -1.723,1.685 c -0.123,0.12 -0.32,0.117 -0.439,-0.006"
             style="fill:#a85a28;fill-opacity:1;fill-rule:nonzero;stroke:none"
             id="path2974"
             inkscape:connector-curvature="0" />
        </g>
        <g
           id="g2976"
           transform="translate(151.0522,432.5771)">
          <path
             d="m 0,0 c -0.121,-0.123 -0.117,-0.32 0.006,-0.439 l 2.264,-2.214 c 0.123,-0.118 0.318,-0.118 0.439,0.005 0.121,0.123 0.119,0.32 -0.004,0.439 l -2.266,2.213 c -0.121,0.121 -0.318,0.119 -0.439,-0.004"
             style="fill:#bf9b4e;fill-opacity:1;fill-rule:nonzero;stroke:none"
             id="path2978"
             inkscape:connector-curvature="0" />
        </g>
      </g>
    </g>
    <g
       transform="matrix(1.25,0,0,-1.25,319.78598,935.30587)"
       id="g2980">
      <g
         id="g2982"
         clip-path="url(#clipPath2984)">
        <g
           id="g2988"
           transform="translate(54.6953,404.9834)">
          <path
             d="m 0,0 -85.363,-85.365 -1.475,1.474 85.367,85.368 1.471,-1.477 z"
             style="fill:#bcbec0;fill-opacity:1;fill-rule:nonzero;stroke:none"
             id="path2990"
             inkscape:connector-curvature="0" />
        </g>
        <g
           id="g2992"
           transform="translate(54.6953,404.9834)">
          <path
             d="m 0,0 -85.363,-85.365 -1.475,1.474 85.367,85.368 1.471,-1.477 z"
             style="fill:none;stroke:#231f20;stroke-width:0.25;stroke-linecap:butt;stroke-linejoin:miter;stroke-miterlimit:4;stroke-dasharray:none;stroke-opacity:1"
             id="path2994"
             inkscape:connector-curvature="0" />
        </g>
        <g
           id="g2996"
           transform="translate(177.0605,527.3486)">
          <path
             d="m 0,0 -83.266,-83.268 -1.47,1.479 83.261,83.262 1.475,-1.473 z"
             style="fill:#bcbec0;fill-opacity:1;fill-rule:nonzero;stroke:none"
             id="path2998"
             inkscape:connector-curvature="0" />
        </g>
        <g
           id="g3000"
           transform="translate(177.0605,527.3486)">
          <path
             d="m 0,0 -83.266,-83.268 -1.47,1.479 83.261,83.262 1.475,-1.473 z"
             style="fill:none;stroke:#231f20;stroke-width:0.25;stroke-linecap:butt;stroke-linejoin:miter;stroke-miterlimit:4;stroke-dasharray:none;stroke-opacity:1"
             id="path3002"
             inkscape:connector-curvature="0" />
        </g>
        <g
           id="g3004"
           transform="translate(93.9238,429.7725)">
          <path
             d="m 0,0 c -0.586,-0.588 -1.25,-1.117 -1.971,-1.576 -5.963,-3.781 -9.408,-6.381 -12.295,-9.268 -2.89,-2.886 -5.478,-6.326 -9.238,-12.263 -0.455,-0.719 -0.992,-1.387 -1.582,-1.977 -4.293,-4.293 -10.805,-4.189 -13.764,-1.23 l -3.382,3.382 c -2.959,2.959 -3.061,9.475 1.236,13.77 0.59,0.59 1.252,1.119 1.971,1.574 5.943,3.774 9.388,6.373 12.289,9.272 2.91,2.91 5.504,6.349 9.242,12.257 0.469,0.741 0.996,1.411 1.576,1.989 4.291,4.289 10.809,4.183 13.772,1.22 l 3.38,-3.38 c 1.506,-1.5 2.264,-3.874 2.075,-6.506 -0.196,-2.746 -1.37,-5.325 -3.309,-7.264"
             style="fill:#231f20;fill-opacity:1;fill-rule:evenodd;stroke:none"
             id="path3006"
             inkscape:connector-curvature="0" />
        </g>
        <g
           id="g3008"
           transform="translate(77.2969,443.1689)">
          <path
             d="m 0,0 c -7.041,-11.131 -10.723,-14.787 -21.852,-21.852 -5.511,-3.49 -5.972,-10.8 -3.023,-13.75 l 3.379,-3.378 c 2.941,-2.944 10.266,-2.483 13.754,3.025 7.033,11.139 10.719,14.801 21.847,21.85 5.506,3.496 5.979,10.806 3.032,13.751 l -3.383,3.383 c -2.945,2.948 -10.262,2.487 -13.754,-3.029"
             style="fill:#f5c274;fill-opacity:1;fill-rule:evenodd;stroke:none"
             id="path3010"
             inkscape:connector-curvature="0" />
        </g>
      </g>
    </g>
    <g
       transform="matrix(1.25,0,0,-1.25,319.78598,935.30587)"
       id="g3012">
      <g
         id="g3014"
         clip-path="url(#clipPath3016)">
        <g
           id="g3020"
           transform="translate(70.9297,405.833)">
          <path
             d="m 0,0 c -0.764,-0.764 -2.008,-0.762 -2.77,0 l -14.099,14.1 c -0.758,0.763 -0.762,2.004 0.002,2.767 0.762,0.768 2,0.768 2.767,0 l 14.1,-14.099 c 0.764,-0.764 0.764,-2 0,-2.768"
             style="fill:#f05423;fill-opacity:1;fill-rule:nonzero;stroke:none"
             id="path3022"
             inkscape:connector-curvature="0" />
        </g>
        <g
           id="g3024"
           transform="translate(75.6855,413.3447)">
          <path
             d="m 0,0 c -0.764,-0.764 -2.004,-0.762 -2.768,0 l -11.498,11.5 c -0.761,0.762 -0.765,2.002 -0.002,2.764 0.766,0.767 2.006,0.763 2.772,0.004 l 11.496,-11.498 c 0.764,-0.762 0.768,-2.002 0,-2.77"
             style="fill:#f05423;fill-opacity:1;fill-rule:nonzero;stroke:none"
             id="path3026"
             inkscape:connector-curvature="0" />
        </g>
        <g
           id="g3028"
           transform="translate(81.5137,419.7842)">
          <path
             d="m 0,0 c -0.766,-0.766 -2.002,-0.76 -2.768,0 l -10.734,10.738 c -0.764,0.766 -0.766,1.998 0,2.766 0.764,0.766 2.004,0.764 2.772,0.002 l 10.732,-10.733 c 0.764,-0.769 0.764,-2.007 -0.002,-2.773"
             style="fill:#a85a28;fill-opacity:1;fill-rule:nonzero;stroke:none"
             id="path3030"
             inkscape:connector-curvature="0" />
        </g>
        <g
           id="g3032"
           transform="translate(94.8457,429.7471)">
          <path
             d="m 0,0 c -0.766,-0.766 -2.004,-0.766 -2.766,0.004 l -14.103,14.098 c -0.76,0.761 -0.766,2.002 -0.002,2.769 0.766,0.764 2.008,0.766 2.773,0.002 l 14.098,-14.103 c 0.768,-0.762 0.768,-2 0,-2.77"
             style="fill:#bf9b4e;fill-opacity:1;fill-rule:nonzero;stroke:none"
             id="path3034"
             inkscape:connector-curvature="0" />
        </g>
      </g>
    </g>
    <g
       style="font-style:normal;font-variant:normal;font-weight:600;font-stretch:normal;font-size:12.5px;line-height:125%;font-family:'Segoe UI';-inkscape-font-specification:'Segoe UI, Semi-Bold';text-align:start;letter-spacing:0px;word-spacing:0px;writing-mode:lr-tb;text-anchor:start;fill:#000000;fill-opacity:1;stroke:none;stroke-width:1px;stroke-linecap:butt;stroke-linejoin:miter;stroke-opacity:1"
       id="text55142">
      <path
         d="m 359.58597,364.32391 0,-1.33056 q 0.85449,0.67749 1.92871,0.67749 0.8728,0 1.3916,-0.39673 0.5249,-0.39673 0.5249,-1.07422 0,-1.48926 -2.27661,-1.48926 l -0.67749,0 0,-1.13525 0.64697,0 q 2.02027,0 2.02027,-1.40381 0,-1.29395 -1.57471,-1.29395 -0.87891,0 -1.65405,0.62867 l 0,-1.25733 q 0.89111,-0.50049 2.10571,-0.50049 1.16577,0 1.86768,0.58594 0.7019,0.58594 0.7019,1.50147 0,1.72729 -1.75781,2.22168 l 0,0.0244 q 0.94604,0.0915 1.49536,0.66528 0.54932,0.56763 0.54932,1.42212 0,1.17798 -0.88501,1.9043 -0.88501,0.72021 -2.33155,0.72021 -1.30005,0 -2.07519,-0.46997 z"
         style=""
         id="path55147" />
      <path
         d="m 366.51956,364.32391 0,-1.33056 q 0.85449,0.67749 1.92871,0.67749 0.87281,0 1.3916,-0.39673 0.52491,-0.39673 0.52491,-1.07422 0,-1.48926 -2.27661,-1.48926 l -0.67749,0 0,-1.13525 0.64697,0 q 2.02026,0 2.02026,-1.40381 0,-1.29395 -1.57471,-1.29395 -0.8789,0 -1.65405,0.62867 l 0,-1.25733 q 0.89111,-0.50049 2.10571,-0.50049 1.16578,0 1.86768,0.58594 0.7019,0.58594 0.7019,1.50147 0,1.72729 -1.75781,2.22168 l 0,0.0244 q 0.94605,0.0915 1.49536,0.66528 0.54932,0.56763 0.54932,1.42212 0,1.17798 -0.88501,1.9043 -0.88501,0.72021 -2.33154,0.72021 -1.30005,0 -2.0752,-0.46997 z"
         style=""
         id="path55149" />
      <path
         d="m 376.07767,364.79388 q -1.36719,0 -2.13623,-1.11694 -0.76294,-1.11694 -0.76294,-3.22876 0,-2.31933 0.79956,-3.50952 0.79956,-1.19019 2.30713,-1.19019 2.88696,0 2.88696,4.48609 0,2.22168 -0.81787,3.39355 -0.81177,1.16577 -2.27661,1.16577 z m 0.14038,-7.91626 q -1.59302,0 -1.59302,3.50953 0,3.28369 1.5625,3.28369 1.53809,0 1.53809,-3.33863 0,-3.45459 -1.50757,-3.45459 z"
         style=""
         id="path55151" />
      <path
         d="m 388.57767,364.6474 -3.39356,0 0,-1.2085 q 1.87989,-1.43432 1.87989,-3.56445 0,-1.32446 -0.74463,-2.09351 -0.73853,-0.77514 -1.9104,-0.77514 -1.18409,0 -1.94092,0.77514 -0.75073,0.77515 -0.75073,2.11792 0,2.11182 1.87377,3.54004 l 0,1.2085 -3.39355,0 0,-1.2085 2.09961,0 q -2.09351,-1.36718 -2.09351,-3.70483 0,-1.85547 1.14746,-2.91748 1.14747,-1.06812 3.02124,-1.06812 1.91651,0 3.05787,1.05591 1.14746,1.05591 1.14746,2.91748 0,2.33765 -2.11792,3.71704 l 2.11792,0 0,1.2085 z"
         style=""
         id="path55153" />
      <path
         d="m 400.41849,364.6474 -1.69678,0 -1.3977,-2.34375 q -0.18921,-0.32349 -0.37232,-0.54932 -0.177,-0.23193 -0.36621,-0.37841 -0.18311,-0.14649 -0.40283,-0.21363 -0.21973,-0.0671 -0.49439,-0.0671 l -0.58593,0 0,3.55225 -1.44654,0 0,-8.75244 2.88086,0 q 0.61646,0 1.13526,0.14648 0.51879,0.14649 0.90332,0.44556 0.38452,0.29297 0.59814,0.73852 0.21973,0.43946 0.21973,1.0315 0,0.46387 -0.14038,0.85449 -0.13428,0.38452 -0.39063,0.6897 -0.25024,0.29907 -0.61035,0.51269 -0.354,0.21363 -0.79956,0.32959 l 0,0.0244 q 0.23804,0.13428 0.41504,0.29907 0.177,0.15869 0.33569,0.32959 0.15869,0.1709 0.31128,0.39062 0.15869,0.21363 0.3479,0.50049 l 1.5564,2.45972 z m -5.31616,-7.57446 0,2.84424 1.20849,0 q 0.33569,0 0.61646,-0.10376 0.28686,-0.10376 0.49438,-0.29908 0.20752,-0.19531 0.32349,-0.47607 0.11596,-0.28076 0.11596,-0.62866 0,-0.62867 -0.39672,-0.98267 -0.39673,-0.354 -1.14136,-0.354 l -1.2207,0 z"
         style=""
         id="path55155" />
      <path
         d="m 406.25955,361.90692 -4.26025,0 q 0.0244,0.8667 0.531,1.33667 0.5127,0.46997 1.40381,0.46997 1.00098,0 1.83716,-0.59814 l 0,1.14135 q -0.85449,0.53711 -2.2583,0.53711 -1.37939,0 -2.16675,-0.84838 -0.78125,-0.8545 -0.78125,-2.39869 0,-1.45874 0.8606,-2.37426 0.8667,-0.92163 2.14844,-0.92163 1.28173,0 1.98364,0.82397 0.7019,0.82397 0.7019,2.28882 l 0,0.54321 z m -1.36719,-1.00098 q -0.006,-0.76293 -0.3601,-1.18408 -0.35401,-0.42724 -0.97657,-0.42724 -0.61035,0 -1.03759,0.44555 -0.42115,0.44556 -0.5188,1.16577 l 2.89306,0 z"
         style=""
         id="path55157" />
      <path
         d="m 407.2178,364.45209 0,-1.31226 q 0.79346,0.60425 1.75171,0.60425 1.28174,0 1.28174,-0.75684 0,-0.21362 -0.10986,-0.3601 -0.10987,-0.15259 -0.29907,-0.26856 -0.18311,-0.11597 -0.43946,-0.20752 -0.25024,-0.0915 -0.56152,-0.20752 -0.38452,-0.15259 -0.6958,-0.32348 -0.30518,-0.1709 -0.5127,-0.38453 -0.20141,-0.21972 -0.30517,-0.49438 -0.10376,-0.27466 -0.10376,-0.64087 0,-0.45166 0.21362,-0.79346 0.21362,-0.3479 0.57373,-0.57983 0.36011,-0.23804 0.81787,-0.354 0.45777,-0.12207 0.94605,-0.12207 0.8667,0 1.55029,0.26245 l 0,1.23901 q -0.65918,-0.45166 -1.51367,-0.45166 -0.26856,0 -0.48828,0.0549 -0.21363,0.0549 -0.36621,0.15259 -0.15259,0.0977 -0.23804,0.23804 -0.0854,0.13427 -0.0854,0.29907 0,0.20142 0.0854,0.3418 0.0854,0.14038 0.25024,0.25024 0.1709,0.10376 0.40283,0.19531 0.23804,0.0855 0.54322,0.18921 0.40283,0.1648 0.72021,0.33569 0.32349,0.1709 0.54932,0.39063 0.22583,0.21362 0.3479,0.50049 0.12207,0.28076 0.12207,0.67138 0,0.47608 -0.21973,0.83008 -0.21972,0.35401 -0.58593,0.58594 -0.36622,0.23193 -0.84839,0.3418 -0.47608,0.11596 -1.00708,0.11596 -1.02539,0 -1.77613,-0.34179 z"
         style=""
         id="path55159" />
      <path
         d="m 413.71805,357.08514 q -0.3479,0 -0.59815,-0.22583 -0.24414,-0.22583 -0.24414,-0.57373 0,-0.3479 0.24414,-0.57983 0.25025,-0.23193 0.59815,-0.23193 0.36011,0 0.61035,0.23193 0.25024,0.23193 0.25024,0.57983 0,0.32959 -0.25024,0.56763 -0.25024,0.23193 -0.61035,0.23193 z m 0.7019,7.56226 -1.41601,0 0,-6.25 1.41601,0 0,6.25 z"
         style=""
         id="path55161" />
      <path
         d="m 415.8848,364.45209 0,-1.31226 q 0.79345,0.60425 1.75171,0.60425 1.28173,0 1.28173,-0.75684 0,-0.21362 -0.10986,-0.3601 -0.10986,-0.15259 -0.29907,-0.26856 -0.18311,-0.11597 -0.43946,-0.20752 -0.25024,-0.0915 -0.56152,-0.20752 -0.38452,-0.15259 -0.6958,-0.32348 -0.30518,-0.1709 -0.51269,-0.38453 -0.20142,-0.21972 -0.30518,-0.49438 -0.10376,-0.27466 -0.10376,-0.64087 0,-0.45166 0.21362,-0.79346 0.21363,-0.3479 0.57373,-0.57983 0.36011,-0.23804 0.81787,-0.354 0.45777,-0.12207 0.94605,-0.12207 0.8667,0 1.55029,0.26245 l 0,1.23901 q -0.65918,-0.45166 -1.51367,-0.45166 -0.26855,0 -0.48828,0.0549 -0.21362,0.0549 -0.36621,0.15259 -0.15259,0.0977 -0.23804,0.23804 -0.0854,0.13427 -0.0854,0.29907 0,0.20142 0.0854,0.3418 0.0854,0.14038 0.25025,0.25024 0.17089,0.10376 0.40283,0.19531 0.23803,0.0855 0.54321,0.18921 0.40283,0.1648 0.72021,0.33569 0.32349,0.1709 0.54932,0.39063 0.22583,0.21362 0.3479,0.50049 0.12207,0.28076 0.12207,0.67138 0,0.47608 -0.21972,0.83008 -0.21973,0.35401 -0.58594,0.58594 -0.36621,0.23193 -0.84839,0.3418 -0.47607,0.11596 -1.00708,0.11596 -1.02539,0 -1.77612,-0.34179 z"
         style=""
         id="path55163" />
      <path
         d="m 424.96683,364.58026 q -0.41504,0.20752 -1.09253,0.20752 -1.81885,0 -1.81885,-1.7456 l 0,-3.53394 -1.0437,0 0,-1.11084 1.0437,0 0,-1.44653 1.41602,-0.40284 0,1.84937 1.49536,0 0,1.11084 -1.49536,0 0,3.125 q 0,0.55542 0.20141,0.79346 0.20142,0.23803 0.67139,0.23803 0.36011,0 0.62256,-0.20752 l 0,1.12305 z"
         style=""
         id="path55165" />
      <path
         d="m 428.88528,364.79388 q -1.44653,0 -2.31323,-0.8728 -0.86059,-0.8789 -0.86059,-2.32544 0,-1.5747 0.89721,-2.45971 0.90332,-0.88501 2.4292,-0.88501 1.46485,0 2.28272,0.86059 0.81787,0.8606 0.81787,2.38648 0,1.49536 -0.88501,2.39868 -0.87891,0.89721 -2.36817,0.89721 z m 0.0671,-5.41381 q -0.83008,0 -1.31225,0.57983 -0.48218,0.57983 -0.48218,1.59912 0,0.98267 0.48828,1.55029 0.48828,0.56153 1.30615,0.56153 0.83618,0 1.28174,-0.55542 0.45166,-0.55542 0.45166,-1.58081 0,-1.0315 -0.45166,-1.59302 -0.44556,-0.56152 -1.28174,-0.56152 z"
         style=""
         id="path55167" />
      <path
         d="m 437.21048,359.74628 q -0.25635,-0.20142 -0.73853,-0.20142 -0.62866,0 -1.0498,0.56763 -0.42114,0.56762 -0.42114,1.54419 l 0,2.99072 -1.41602,0 0,-6.25 1.41602,0 0,1.28784 0.0244,0 q 0.20752,-0.65918 0.63477,-1.02539 0.43335,-0.37231 0.96435,-0.37231 0.38452,0 0.58594,0.11596 l 0,1.34278 z"
         style=""
         id="path55169" />
    </g>
  </g>
</svg>
