<?xml version="1.0" encoding="UTF-8" standalone="no"?>
<!-- Created with Inkscape (http://www.inkscape.org/) -->
<svg id="svg53981" xmlns:rdf="http://www.w3.org/1999/02/22-rdf-syntax-ns#" xmlns="http://www.w3.org/2000/svg" height="29.91mm" width="60.696mm" version="1.1" xmlns:cc="http://creativecommons.org/ns#" xmlns:dc="http://purl.org/dc/elements/1.1/" viewBox="0 0 215.06375 105.97875">
 <defs id="defs53983">
  <clipPath id="clipPath3154" clipPathUnits="userSpaceOnUse">
   <path id="path3156" d="m254.24 443.17c-7.041-11.131-10.723-14.787-21.851-21.852-5.512-3.49-5.973-10.8-3.023-13.749l3.378-3.38c2.941-2.943 10.266-2.482 13.754 3.026 7.034 11.138 10.719 14.8 21.847 21.849 5.507 3.497 5.979 10.807 3.032 13.752l-3.383 3.383c-1.162 1.164-3.006 1.796-5.026 1.796-3.099 0-6.614-1.486-8.728-4.825"/>
  </clipPath>
  <clipPath id="clipPath3122" clipPathUnits="userSpaceOnUse">
   <path id="path3124" d="m201.31 387.89h171.05v83.783h-171.05v-83.783z"/>
  </clipPath>
  <clipPath id="clipPath3098" clipPathUnits="userSpaceOnUse">
   <path id="path3100" d="m327.9 432.03c-1.1-1.779-1.674-2.372-3.43-3.508-0.868-0.564-0.928-1.727-0.455-2.189l0.542-0.531c0.474-0.463 1.634-0.375 2.178 0.506 1.102 1.779 1.674 2.37 3.43 3.51 0.87 0.562 0.928 1.726 0.456 2.188l-0.544 0.531c-0.184 0.179-0.47 0.275-0.783 0.275-0.496 0-1.06-0.242-1.394-0.782"/>
  </clipPath>
  <clipPath id="clipPath3078" clipPathUnits="userSpaceOnUse">
   <path id="path3080" d="m289.98 464.95c-1.986 0-3.595-1.612-3.595-3.598v-63.862c0-1.987 1.609-3.597 3.595-3.597h72.331c1.986 0 3.595 1.61 3.595 3.597v63.862c0 1.986-1.609 3.598-3.595 3.598h-72.331z"/>
  </clipPath>
  <clipPath id="clipPath3058" clipPathUnits="userSpaceOnUse">
   <path id="path3060" d="m0 612h396v-612h-396v612z"/>
  </clipPath>
 </defs>
 <g id="layer1" transform="translate(-349.61 -345.09)">
  <g id="text55142">
   <path id="path4208" style="" d="m362.59 355.7v8.9478h-1.416v-7.2144q-0.38452 0.27466-0.83008 0.46998-0.43945 0.1892-1.0071 0.33569v-1.2085q0.35401-0.11596 0.6836-0.24414 0.32959-0.12817 0.64697-0.28686 0.32349-0.15869 0.64697-0.35401 0.32959-0.19531 0.67749-0.44555h0.59815z"/>
   <path id="path4210" style="" d="m367.24 364.79q-1.3672 0-2.1362-1.1169-0.76294-1.1169-0.76294-3.2288 0-2.3193 0.79956-3.5095t2.3071-1.1902q2.887 0 2.887 4.4861 0 2.2217-0.81787 3.3936-0.81177 1.1658-2.2766 1.1658zm0.14038-7.9163q-1.593 0-1.593 3.5095 0 3.2837 1.5625 3.2837 1.5381 0 1.5381-3.3386 0-3.4546-1.5076-3.4546z"/>
   <path id="path4212" style="" d="m378.5 364.65h-1.8921l-3.0456-4.0039q-0.1709-0.22583-0.20752-0.30517h-0.0244v4.3091h-1.4526v-8.7524h1.4526v4.1138h0.0244q0.0732-0.13428 0.20752-0.29907l2.9358-3.8147h1.7395l-3.4363 4.1992 3.6987 4.5532z"/>
   <path id="path4214" style="" d="m387.38 364.65h-3.3936v-1.2085q1.8799-1.4343 1.8799-3.5644 0-1.3245-0.74463-2.0935-0.73853-0.77514-1.9104-0.77514-1.1841 0-1.9409 0.77514-0.75073 0.77515-0.75073 2.1179 0 2.1118 1.8738 3.54v1.2085h-3.3936v-1.2085h2.0996q-2.0935-1.3672-2.0935-3.7048 0-1.8555 1.1475-2.9175 1.1475-1.0681 3.0212-1.0681 1.9165 0 3.0579 1.0559 1.1475 1.0559 1.1475 2.9175 0 2.3376-2.1179 3.717h2.1179v1.2085z"/>
   <path id="path4216" style="" d="m399.22 364.65h-1.6968l-1.3977-2.3438q-0.18921-0.32349-0.37232-0.54932-0.177-0.23193-0.36621-0.37841-0.1831-0.14649-0.40283-0.21363-0.21973-0.0671-0.49439-0.0671h-0.58593v3.5522h-1.4465v-8.7524h2.8809q0.61646 0 1.1353 0.14648 0.5188 0.14649 0.90332 0.44556 0.38452 0.29297 0.59814 0.73852 0.21973 0.43946 0.21973 1.0315 0 0.46387-0.14038 0.85449-0.13428 0.38452-0.39063 0.6897-0.25024 0.29907-0.61035 0.51269-0.354 0.21363-0.79956 0.32959v0.0244q0.23804 0.13428 0.41504 0.29907 0.177 0.15869 0.33569 0.32959t0.31128 0.39062q0.15869 0.21363 0.3479 0.50049l1.5564 2.4597zm-5.3162-7.5745v2.8442h1.2085q0.3357 0 0.61646-0.10376 0.28686-0.10376 0.49438-0.29908 0.20752-0.19531 0.32349-0.47607t0.11597-0.62866q0-0.62867-0.39673-0.98267t-1.1414-0.354h-1.2207z"/>
   <path id="path4218" style="" d="m405.06 361.91h-4.2602q0.0244 0.8667 0.531 1.3367 0.5127 0.46997 1.4038 0.46997 1.001 0 1.8372-0.59814v1.1414q-0.85449 0.53711-2.2583 0.53711-1.3794 0-2.1668-0.84838-0.78125-0.8545-0.78125-2.3987 0-1.4587 0.8606-2.3743 0.8667-0.92163 2.1484-0.92163t1.9836 0.82397 0.7019 2.2888v0.54321zm-1.3672-1.001q-0.006-0.76293-0.36011-1.1841-0.35401-0.42724-0.97656-0.42724-0.61036 0-1.0376 0.44555-0.42114 0.44556-0.5188 1.1658h2.8931z"/>
   <path id="path4220" style="" d="m406.02 364.45v-1.3123q0.79346 0.60425 1.7517 0.60425 1.2817 0 1.2817-0.75684 0-0.21362-0.10986-0.3601-0.10986-0.15259-0.29907-0.26856-0.18311-0.11597-0.43946-0.20752-0.25024-0.0915-0.56152-0.20752-0.38452-0.15259-0.6958-0.32348-0.30518-0.1709-0.5127-0.38453-0.20141-0.21972-0.30517-0.49438t-0.10376-0.64087q0-0.45166 0.21362-0.79346 0.21362-0.3479 0.57373-0.57983 0.36011-0.23804 0.81787-0.354 0.45777-0.12207 0.94605-0.12207 0.8667 0 1.5503 0.26245v1.239q-0.65918-0.45166-1.5137-0.45166-0.26856 0-0.48828 0.0549-0.21363 0.0549-0.36621 0.15259-0.15259 0.0977-0.23804 0.23804-0.0855 0.13427-0.0855 0.29907 0 0.20142 0.0855 0.3418 0.0854 0.14038 0.25024 0.25024 0.1709 0.10376 0.40284 0.19531 0.23803 0.0855 0.54321 0.18921 0.40283 0.1648 0.72021 0.33569 0.32349 0.1709 0.54932 0.39063 0.22583 0.21362 0.3479 0.50049 0.12207 0.28076 0.12207 0.67138 0 0.47608-0.21973 0.83008-0.21972 0.35401-0.58593 0.58594t-0.84839 0.3418q-0.47608 0.11596-1.0071 0.11596-1.0254 0-1.7761-0.34179z"/>
   <path id="path4222" style="" d="m412.52 357.09q-0.3479 0-0.59815-0.22583-0.24414-0.22583-0.24414-0.57373t0.24414-0.57983q0.25025-0.23193 0.59815-0.23193 0.36011 0 0.61035 0.23193t0.25024 0.57983q0 0.32959-0.25024 0.56763-0.25024 0.23193-0.61035 0.23193zm0.7019 7.5623h-1.416v-6.25h1.416v6.25z"/>
   <path id="path4224" style="" d="m414.69 364.45v-1.3123q0.79345 0.60425 1.7517 0.60425 1.2817 0 1.2817-0.75684 0-0.21362-0.10986-0.3601-0.10986-0.15259-0.29907-0.26856-0.18311-0.11597-0.43945-0.20752-0.25025-0.0915-0.56153-0.20752-0.38452-0.15259-0.6958-0.32348-0.30517-0.1709-0.51269-0.38453-0.20142-0.21972-0.30518-0.49438t-0.10376-0.64087q0-0.45166 0.21362-0.79346 0.21363-0.3479 0.57373-0.57983 0.36011-0.23804 0.81788-0.354 0.45776-0.12207 0.94604-0.12207 0.8667 0 1.5503 0.26245v1.239q-0.65918-0.45166-1.5137-0.45166-0.26855 0-0.48828 0.0549-0.21362 0.0549-0.36621 0.15259-0.15259 0.0977-0.23804 0.23804-0.0855 0.13427-0.0855 0.29907 0 0.20142 0.0855 0.3418 0.0854 0.14038 0.25025 0.25024 0.17089 0.10376 0.40283 0.19531 0.23804 0.0855 0.54321 0.18921 0.40283 0.1648 0.72022 0.33569 0.32348 0.1709 0.54931 0.39063 0.22583 0.21362 0.3479 0.50049 0.12207 0.28076 0.12207 0.67138 0 0.47608-0.21972 0.83008-0.21973 0.35401-0.58594 0.58594t-0.84839 0.3418q-0.47607 0.11596-1.0071 0.11596-1.0254 0-1.7761-0.34179z"/>
   <path id="path4226" style="" d="m423.77 364.58q-0.41504 0.20752-1.0925 0.20752-1.8188 0-1.8188-1.7456v-3.5339h-1.0437v-1.1108h1.0437v-1.4465l1.416-0.40284v1.8494h1.4954v1.1108h-1.4954v3.125q0 0.55542 0.20141 0.79346 0.20142 0.23803 0.67139 0.23803 0.36011 0 0.62256-0.20752v1.123z"/>
   <path id="path4228" style="" d="m427.69 364.79q-1.4465 0-2.3132-0.8728-0.86059-0.8789-0.86059-2.3254 0-1.5747 0.89721-2.4597 0.90332-0.88501 2.4292-0.88501 1.4648 0 2.2827 0.86059 0.81787 0.8606 0.81787 2.3865 0 1.4954-0.88501 2.3987-0.87891 0.89721-2.3682 0.89721zm0.0671-5.4138q-0.83007 0-1.3122 0.57983-0.48218 0.57983-0.48218 1.5991 0 0.98267 0.48828 1.5503 0.48828 0.56153 1.3062 0.56153 0.83619 0 1.2817-0.55542 0.45166-0.55542 0.45166-1.5808 0-1.0315-0.45166-1.593-0.44555-0.56152-1.2817-0.56152z"/>
   <path id="path4230" style="" d="m436.01 359.75q-0.25635-0.20142-0.73852-0.20142-0.62867 0-1.0498 0.56763-0.42114 0.56762-0.42114 1.5442v2.9907h-1.416v-6.25h1.416v1.2878h0.0244q0.20752-0.65918 0.63477-1.0254 0.43335-0.37231 0.96435-0.37231 0.38452 0 0.58594 0.11596v1.3428z"/>
  </g>
  <g id="g3054" transform="matrix(1.25 0 0 -1.25 98.602 935.31)">
   <g id="g3056" clip-path="url(#clipPath3058)">
    <g id="g3062" transform="translate(365.91 397.49)">
     <path id="path3064" d="m0 0c0-1.987-1.609-3.598-3.596-3.598h-72.33c-1.986 0-3.595 1.611-3.595 3.598v63.862c0 1.986 1.609 3.598 3.595 3.598h72.33c1.987 0 3.596-1.612 3.596-3.598v-63.862z" fill="#f1f1f2"/>
    </g>
    <g id="g3066" transform="translate(365.91 397.49)">
     <path id="path3068" stroke-linejoin="round" d="m0 0c0-1.987-1.609-3.598-3.596-3.598h-72.33c-1.986 0-3.595 1.611-3.595 3.598v63.862c0 1.986 1.609 3.598 3.595 3.598h72.33c1.987 0 3.596-1.612 3.596-3.598v-63.862z" stroke="#bcbec0" stroke-linecap="round" stroke-miterlimit="10" stroke-width=".5" fill="none"/>
    </g>
   </g>
  </g>
  <g id="g3074" transform="matrix(1.25 0 0 -1.25 98.602 935.31)">
   <g id="g3076" clip-path="url(#clipPath3078)">
    <g id="g3082" transform="translate(378 480.31)">
     <path id="path3084" d="m0 0-54.091-55.348-4.931-5.047-41.625-42.59-0.715 0.699 41.623 42.591 4.931 5.045 54.093 55.349 0.715-0.699z" fill="#bcbec0"/>
    </g>
    <g id="g3086" transform="translate(328 432.43)">
     <path id="path3088" d="m0 0c-0.092-0.094-0.176-0.2-0.248-0.315-0.588-0.955-0.994-1.506-1.447-1.969-0.453-0.465-0.994-0.881-1.93-1.488-0.113-0.075-0.219-0.162-0.311-0.256-0.673-0.69-0.646-1.723-0.171-2.187l0.543-0.531c0.476-0.464 1.509-0.469 2.185 0.222 0.092 0.094 0.176 0.201 0.246 0.316 0.588 0.949 0.994 1.502 1.449 1.967 0.455 0.468 0.998 0.885 1.93 1.49 0.115 0.076 0.221 0.16 0.311 0.254 0.673 0.689 0.646 1.723 0.17 2.187l-0.543 0.532c-0.241 0.236-0.62 0.351-1.038 0.316-0.435-0.035-0.841-0.226-1.146-0.538" fill-rule="evenodd" fill="#231f20"/>
    </g>
    <g id="g3090" transform="translate(330.16 429.82)">
     <path id="path3092" d="m0 0c-1.756-1.139-2.328-1.73-3.43-3.51-0.545-0.881-1.705-0.969-2.177-0.506l-0.543 0.532c-0.473 0.462-0.412 1.625 0.455 2.188 1.756 1.137 2.33 1.73 3.429 3.509 0.545 0.881 1.704 0.969 2.178 0.506l0.543-0.531c0.473-0.461 0.414-1.626-0.455-2.188" fill-rule="evenodd" fill="#f5c274"/>
    </g>
   </g>
  </g>
  <g id="g3094" transform="matrix(1.25 0 0 -1.25 98.602 935.31)">
   <g id="g3096" clip-path="url(#clipPath3098)">
    <g id="g3102" transform="translate(324.25 428.74)">
     <path id="path3104" d="m0 0c-0.121-0.123-0.117-0.322 0.004-0.441l2.264-2.213c0.123-0.119 0.32-0.117 0.439 0.007 0.121 0.122 0.119 0.318-0.004 0.438l-2.264 2.213c-0.123 0.12-0.32 0.117-0.439-0.004" fill="#a85a28"/>
    </g>
    <g id="g3106" transform="translate(325.43 429.5)">
     <path id="path3108" d="m0 0c-0.121-0.123-0.117-0.32 0.006-0.439l1.846-1.805c0.121-0.119 0.318-0.118 0.439 0.005 0.119 0.123 0.117 0.32-0.006 0.44l-1.846 1.805c-0.123 0.119-0.32 0.117-0.439-0.006" fill="#231f20"/>
    </g>
    <g id="g3110" transform="translate(326.44 430.44)">
     <path id="path3112" d="m0 0c-0.121-0.123-0.117-0.318 0.004-0.439l1.725-1.684c0.123-0.12 0.318-0.118 0.439 0.005 0.119 0.123 0.117 0.319-0.006 0.439l-1.723 1.685c-0.123 0.12-0.32 0.117-0.439-0.006" fill="#f05423"/>
    </g>
    <g id="g3114" transform="translate(328 432.58)">
     <path id="path3116" d="m0 0c-0.121-0.123-0.117-0.32 0.006-0.439l2.264-2.214c0.123-0.118 0.318-0.118 0.439 0.005s0.119 0.32-0.004 0.439l-2.266 2.213c-0.121 0.121-0.318 0.119-0.439-0.004" fill="#bf9b4e"/>
    </g>
   </g>
  </g>
  <g id="g3118" transform="matrix(1.25 0 0 -1.25 98.602 935.31)">
   <g id="g3120" clip-path="url(#clipPath3122)">
    <g id="g3126" transform="translate(231.64 404.98)">
     <path id="path3128" d="m0 0-85.363-85.365-1.475 1.474 85.367 85.368 1.471-1.477z" fill="#bcbec0"/>
    </g>
    <g id="g3130" transform="translate(231.64 404.98)">
     <path id="path3132" d="m0 0-85.363-85.365-1.475 1.474 85.367 85.368 1.471-1.477z" stroke="#231f20" stroke-width=".25" fill="none"/>
    </g>
    <g id="g3134" transform="translate(354.01 527.35)">
     <path id="path3136" d="m0 0-83.266-83.268-1.47 1.479 83.261 83.262 1.475-1.473z" fill="#bcbec0"/>
    </g>
    <g id="g3138" transform="translate(354.01 527.35)">
     <path id="path3140" d="m0 0-83.266-83.268-1.47 1.479 83.261 83.262 1.475-1.473z" stroke="#231f20" stroke-width=".25" fill="none"/>
    </g>
    <g id="g3142" transform="translate(270.87 429.77)">
     <path id="path3144" d="m0 0c-0.586-0.588-1.25-1.117-1.971-1.576-5.963-3.781-9.408-6.381-12.295-9.268-2.89-2.886-5.478-6.326-9.238-12.263-0.455-0.719-0.992-1.387-1.582-1.977-4.293-4.293-10.805-4.189-13.764-1.23l-3.382 3.382c-2.959 2.959-3.061 9.475 1.236 13.77 0.59 0.59 1.252 1.119 1.971 1.574 5.943 3.774 9.388 6.373 12.289 9.272 2.91 2.91 5.504 6.349 9.242 12.257 0.469 0.741 0.996 1.411 1.576 1.989 4.291 4.289 10.809 4.183 13.772 1.22l3.38-3.38c1.506-1.5 2.264-3.874 2.075-6.506-0.196-2.746-1.37-5.325-3.309-7.264" fill-rule="evenodd" fill="#231f20"/>
    </g>
    <g id="g3146" transform="translate(254.24 443.17)">
     <path id="path3148" d="m0 0c-7.041-11.131-10.723-14.787-21.852-21.852-5.511-3.49-5.972-10.8-3.023-13.75l3.379-3.378c2.941-2.944 10.266-2.483 13.754 3.025 7.033 11.139 10.719 14.801 21.847 21.85 5.506 3.496 5.979 10.806 3.032 13.751l-3.383 3.383c-2.945 2.948-10.262 2.487-13.754-3.029" fill-rule="evenodd" fill="#f5c274"/>
    </g>
   </g>
  </g>
  <g id="g3150" transform="matrix(1.25 0 0 -1.25 98.602 935.31)">
   <g id="g3152" clip-path="url(#clipPath3154)">
    <g id="g3158" transform="translate(247.88 405.83)">
     <path id="path3160" d="m0 0c-0.764-0.764-2.008-0.762-2.77 0l-14.099 14.1c-0.758 0.763-0.762 2.004 0.002 2.767 0.762 0.768 2 0.768 2.767 0l14.1-14.099c0.764-0.764 0.764-2 0-2.768" fill="#a85a28"/>
    </g>
    <g id="g3162" transform="translate(252.63 413.34)">
     <path id="path3164" d="m0 0c-0.764-0.764-2.004-0.762-2.768 0l-11.498 11.5c-0.761 0.762-0.765 2.002-0.002 2.764 0.766 0.767 2.006 0.763 2.772 0.004l11.496-11.498c0.764-0.762 0.768-2.002 0-2.77" fill="#231f20"/>
    </g>
    <g id="g3166" transform="translate(258.46 419.78)">
     <path id="path3168" d="m0 0c-0.766-0.766-2.002-0.76-2.768 0l-10.734 10.738c-0.764 0.766-0.766 1.998 0 2.766 0.764 0.766 2.004 0.764 2.772 0.002l10.732-10.733c0.764-0.769 0.764-2.007-0.002-2.773" fill="#f05423"/>
    </g>
    <g id="g3170" transform="translate(271.79 429.75)">
     <path id="path3172" d="m0 0c-0.766-0.766-2.004-0.766-2.766 0.004l-14.103 14.098c-0.76 0.761-0.766 2.002-0.002 2.769 0.766 0.764 2.008 0.766 2.773 0.002l14.098-14.103c0.768-0.762 0.768-2 0-2.77" fill="#bf9b4e"/>
    </g>
   </g>
  </g>
 </g>
</svg>
