<?xml version="1.0" encoding="UTF-8" standalone="no"?>
<!-- Created with Inkscape (http://www.inkscape.org/) -->

<svg
   xmlns:dc="http://purl.org/dc/elements/1.1/"
   xmlns:cc="http://creativecommons.org/ns#"
   xmlns:rdf="http://www.w3.org/1999/02/22-rdf-syntax-ns#"
   xmlns:svg="http://www.w3.org/2000/svg"
   xmlns="http://www.w3.org/2000/svg"
   xmlns:sodipodi="http://sodipodi.sourceforge.net/DTD/sodipodi-0.dtd"
   xmlns:inkscape="http://www.inkscape.org/namespaces/inkscape"
   id="svg2"
   version="1.1"
   inkscape:version="0.91 r13725"
   xml:space="preserve"
   width="129.60001"
   height="260.70001"
   viewBox="0 0 129.60001 260.70001"
   sodipodi:docname="Exercise_1.svg"><metadata
     id="metadata8"><rdf:RDF><cc:Work
         rdf:about=""><dc:format>image/svg+xml</dc:format><dc:type
           rdf:resource="http://purl.org/dc/dcmitype/StillImage" /><dc:title></dc:title></cc:Work></rdf:RDF></metadata><defs
     id="defs6"><clipPath
       clipPathUnits="userSpaceOnUse"
       id="clipPath24"><path
         d="m 2147,4336.67 864,0 0,-1738 -864,0 0,1738 z"
         id="path26"
         inkscape:connector-curvature="0" /></clipPath></defs><sodipodi:namedview
     pagecolor="#ffffff"
     bordercolor="#666666"
     borderopacity="1"
     objecttolerance="10"
     gridtolerance="10"
     guidetolerance="10"
     inkscape:pageopacity="0"
     inkscape:pageshadow="2"
     inkscape:window-width="1691"
     inkscape:window-height="1001"
     id="namedview4"
     showgrid="false"
     fit-margin-top="0"
     fit-margin-left="0"
     fit-margin-right="0"
     fit-margin-bottom="0"
     inkscape:zoom="1.7938242"
     inkscape:cx="-54.25562"
     inkscape:cy="88.384771"
     inkscape:window-x="0"
     inkscape:window-y="0"
     inkscape:window-maximized="0"
     inkscape:current-layer="g10" /><g
     id="g10"
     inkscape:groupmode="layer"
     inkscape:label="Exercise 1"
     transform="matrix(1.25,0,0,-1.25,-322.05,732.5005)"><g
       id="g20"
       transform="matrix(0.12,0,0,0.12,0,65.6)"><g
         clip-path="url(#clipPath24)"
         id="g22"><path
           inkscape:connector-curvature="0"
           id="path28"
           style="fill:none;stroke:#ffffff;stroke-width:1;stroke-linecap:square;stroke-linejoin:bevel;stroke-miterlimit:10;stroke-dasharray:none;stroke-opacity:1"
           d="m 2147,4336.67 864,-1738" /><path
           inkscape:connector-curvature="0"
           id="path30"
           style="fill:none;stroke:#ffffff;stroke-width:1;stroke-linecap:square;stroke-linejoin:bevel;stroke-miterlimit:10;stroke-dasharray:none;stroke-opacity:1"
           d="m 3011,4336.67 -864,-1738" /></g></g><g
       transform="scale(1,-1)"
       style="font-variant:normal;font-weight:normal;font-size:14.15999985px;font-family:TT1Eo00;-inkscape-font-specification:TT1Eo00;writing-mode:lr-tb;fill:#808080;fill-opacity:1;fill-rule:nonzero;stroke:none"
       id="text34"><path
         d="m 297.70558,-538.28683 q 1.00254,0.21434 1.56258,0.89192 0.56695,0.67757 0.56695,1.6732 0,1.52801 -1.05094,2.36461 -1.05094,0.8366 -2.98687,0.8366 -0.64993,0 -1.34133,-0.13137 -0.68449,-0.12445 -1.41738,-0.38027 l 0,-1.34824 q 0.58078,0.33879 1.27218,0.51164 0.69141,0.17285 1.44504,0.17285 1.31367,0 1.99817,-0.51856 0.6914,-0.51855 0.6914,-1.50726 0,-0.91266 -0.64301,-1.4243 -0.63609,-0.51855 -1.77691,-0.51855 l -1.20305,0 0,-1.14774 1.25836,0 q 1.0302,0 1.57641,-0.40793 0.54621,-0.41484 0.54621,-1.18922 0,-0.79511 -0.56695,-1.21687 -0.56004,-0.42867 -1.61098,-0.42867 -0.57387,0 -1.2307,0.12445 -0.65684,0.12445 -1.44504,0.38719 l 0,-1.24453 q 0.79512,-0.22125 1.48652,-0.33188 0.69832,-0.11062 1.31367,-0.11062 1.59024,0 2.51672,0.72597 0.92649,0.71907 0.92649,1.94977 0,0.85734 -0.4909,1.45195 -0.4909,0.5877 -1.39664,0.81586 z"
         id="path4392"
         inkscape:connector-curvature="0" /><path
         d="m 305.3788,-538.28683 q 1.00253,0.21434 1.56257,0.89192 0.56696,0.67757 0.56696,1.6732 0,1.52801 -1.05094,2.36461 -1.05094,0.8366 -2.98688,0.8366 -0.64992,0 -1.34132,-0.13137 -0.6845,-0.12445 -1.41739,-0.38027 l 0,-1.34824 q 0.58078,0.33879 1.27219,0.51164 0.69141,0.17285 1.44504,0.17285 1.31367,0 1.99816,-0.51856 0.69141,-0.51855 0.69141,-1.50726 0,-0.91266 -0.64301,-1.4243 -0.63609,-0.51855 -1.77691,-0.51855 l -1.20305,0 0,-1.14774 1.25836,0 q 1.0302,0 1.57641,-0.40793 0.54621,-0.41484 0.54621,-1.18922 0,-0.79511 -0.56696,-1.21687 -0.56003,-0.42867 -1.61097,-0.42867 -0.57387,0 -1.23071,0.12445 -0.65683,0.12445 -1.44503,0.38719 l 0,-1.24453 q 0.79511,-0.22125 1.48652,-0.33188 0.69832,-0.11062 1.31367,-0.11062 1.59024,0 2.51672,0.72597 0.92648,0.71907 0.92648,1.94977 0,0.85734 -0.49089,1.45195 -0.4909,0.5877 -1.39664,0.81586 z"
         id="path4394"
         inkscape:connector-curvature="0" /><path
         d="m 311.80745,-542.12413 q -1.07859,0 -1.6248,1.06476 -0.5393,1.05785 -0.5393,3.18739 0,2.12261 0.5393,3.18738 0.54621,1.05785 1.6248,1.05785 1.08551,0 1.62481,-1.05785 0.54621,-1.06477 0.54621,-3.18738 0,-2.12954 -0.54621,-3.18739 -0.5393,-1.06476 -1.62481,-1.06476 z m 0,-1.10625 q 1.73543,0 2.64809,1.3759 0.91957,1.36898 0.91957,3.9825 0,2.6066 -0.91957,3.9825 -0.91266,1.36898 -2.64809,1.36898 -1.73543,0 -2.655,-1.36898 -0.91266,-1.3759 -0.91266,-3.9825 0,-2.61352 0.91266,-3.9825 0.91957,-1.3759 2.655,-1.3759 z"
         id="path4396"
         inkscape:connector-curvature="0" /></g><g
       transform="scale(1,-1)"
       style="font-variant:normal;font-weight:normal;font-size:14.15999985px;font-family:TT1Fo00;-inkscape-font-specification:TT1Fo00;writing-mode:lr-tb;fill:#808080;fill-opacity:1;fill-rule:nonzero;stroke:none"
       id="text38"><path
         d="m 329.72121,-533.95171 0,1.2307 -4.14843,0 0,-1.2307 q 1.22378,-0.67067 1.90828,-1.8184 0.68449,-1.14773 0.68449,-2.54437 0,-1.65938 -0.91266,-2.66192 -0.91265,-1.00254 -2.40609,-1.00254 -1.49344,0 -2.41301,1.00946 -0.91265,1.00253 -0.91265,2.655 0,1.39664 0.68449,2.54437 0.6914,1.14773 1.92211,1.8184 l 0,1.2307 -4.14844,0 0,-1.2307 2.20559,0 q -1.09243,-0.96106 -1.59715,-1.99125 -0.49782,-1.0302 -0.49782,-2.30238 0,-2.19868 1.3275,-3.56075 1.32059,-1.36207 3.42938,-1.36207 2.09496,0 3.42937,1.36207 1.3275,1.35516 1.3275,3.49161 0,1.34132 -0.49089,2.3646 -0.4909,1.02329 -1.60407,1.99817 l 2.2125,0 z"
         id="path4399"
         inkscape:connector-curvature="0" /></g><g
       transform="scale(1,-1)"
       style="font-variant:normal;font-weight:normal;font-size:14.15999985px;font-family:TT1Eo00;-inkscape-font-specification:TT1Eo00;writing-mode:lr-tb;fill:#808080;fill-opacity:1;fill-rule:nonzero;stroke:none"
       id="text42"><path
         d="m 270.98824,-382.51368 0,-2.77254 -2.28164,0 0,-1.14773 3.66445,0 0,4.43191 q -0.80894,0.57387 -1.78383,0.87117 -0.97488,0.29039 -2.08113,0.29039 -2.41992,0 -3.7889,-1.41047 -1.36208,-1.41738 -1.36208,-3.94101 0,-2.53055 1.36208,-3.94102 1.36898,-1.41738 3.7889,-1.41738 1.00945,0 1.9152,0.24891 0.91265,0.2489 1.68011,0.73289 l 0,1.48652 q -0.77437,-0.65684 -1.64554,-0.98871 -0.87118,-0.33188 -1.83223,-0.33188 -1.89445,0 -2.84859,1.05786 -0.94723,1.05785 -0.94723,3.15281 0,2.08805 0.94723,3.1459 0.95414,1.05785 2.84859,1.05785 0.7398,0 1.32059,-0.12445 0.58078,-0.13137 1.04402,-0.40102 z"
         id="path4355"
         inkscape:connector-curvature="0" /><path
         d="m 273.4236,-391.36368 1.88063,0 4.57711,8.63566 0,-8.63566 1.35515,0 0,10.32269 -1.88062,0 -4.57711,-8.63566 0,8.63566 -1.35516,0 0,-10.32269 z"
         id="path4357"
         inkscape:connector-curvature="0" /><path
         d="m 284.29409,-390.21595 0,8.02723 1.68703,0 q 2.13644,0 3.12516,-0.96797 0.99562,-0.96797 0.99562,-3.05601 0,-2.07422 -0.99562,-3.03528 -0.98872,-0.96797 -3.12516,-0.96797 l -1.68703,0 z m -1.39664,-1.14773 2.86933,0 q 3.00071,0 4.40426,1.25144 1.40356,1.24454 1.40356,3.89954 0,2.66882 -1.41047,3.92027 -1.41047,1.25144 -4.39735,1.25144 l -2.86933,0 0,-10.32269 z"
         id="path4359"
         inkscape:connector-curvature="0" /><path
         d="m 293.34972,-471.1637 1.39664,0 0,9.14731 5.02652,0 0,1.17539 -6.42316,0 0,-10.3227 z"
         id="path4361"
         inkscape:connector-curvature="0" /><path
         d="m 300.42974,-471.1637 6.52687,0 0,1.17539 -5.13023,0 0,3.05602 4.91589,0 0,1.17539 -4.91589,0 0,3.74051 5.25468,0 0,1.17539 -6.65132,0 0,-10.3227 z"
         id="path4363"
         inkscape:connector-curvature="0" /><path
         d="m 309.75246,-470.01596 0,8.02722 1.68703,0 q 2.13645,0 3.12516,-0.96797 0.99562,-0.96797 0.99562,-3.05601 0,-2.07422 -0.99562,-3.03528 -0.98871,-0.96796 -3.12516,-0.96796 l -1.68703,0 z m -1.39664,-1.14774 2.86934,0 q 3.0007,0 4.40426,1.25145 1.40355,1.24453 1.40355,3.89953 0,2.66883 -1.41047,3.92027 -1.41047,1.25145 -4.39734,1.25145 l -2.86934,0 0,-10.3227 z"
         id="path4365"
         inkscape:connector-curvature="0" /><path
         d="m 298.24487,-523.04083 q 0.44942,0.15211 0.87118,0.64992 0.42867,0.49781 0.85734,1.36898 l 1.41738,2.82094 -1.50035,0 -1.32058,-2.64808 q -0.51165,-1.03711 -0.99563,-1.3759 -0.47707,-0.33879 -1.30676,-0.33879 l -1.52109,0 0,4.36277 -1.39664,0 0,-10.32269 3.15281,0 q 1.77,0 2.64117,0.7398 0.87117,0.73981 0.87117,2.23324 0,0.97489 -0.45632,1.61789 -0.44942,0.64301 -1.31368,0.89192 z m -3.49851,-4.33512 0,3.66445 1.75617,0 q 1.00945,0 1.52109,-0.46324 0.51856,-0.47015 0.51856,-1.3759 0,-0.90574 -0.51856,-1.36207 -0.51164,-0.46324 -1.52109,-0.46324 l -1.75617,0 z"
         id="path4367"
         inkscape:connector-curvature="0" /><path
         d="m 302.11476,-528.52368 6.52688,0 0,1.17539 -5.13024,0 0,3.05601 4.9159,0 0,1.17539 -4.9159,0 0,3.74051 5.25469,0 0,1.17539 -6.65133,0 0,-10.32269 z"
         id="path4369"
         inkscape:connector-curvature="0" /><path
         d="m 316.22894,-528.18489 0,1.36207 q -0.79512,-0.38028 -1.50036,-0.56696 -0.70523,-0.18668 -1.36207,-0.18668 -1.14082,0 -1.76308,0.4425 -0.61535,0.4425 -0.61535,1.25836 0,0.68449 0.40793,1.03711 0.41484,0.3457 1.56257,0.56004 l 0.84352,0.17285 q 1.56258,0.29731 2.30238,1.05094 0.74672,0.74672 0.74672,2.00508 0,1.50035 -1.00945,2.27472 -1.00254,0.77438 -2.94539,0.77438 -0.73289,0 -1.56258,-0.16594 -0.82277,-0.16594 -1.70777,-0.4909 l 0,-1.43812 q 0.85043,0.47707 1.66628,0.71906 0.81586,0.24199 1.60407,0.24199 1.19613,0 1.84605,-0.47015 0.64992,-0.47016 0.64992,-1.34133 0,-0.76055 -0.47015,-1.18922 -0.46324,-0.42867 -1.52801,-0.64301 l -0.85043,-0.16594 q -1.56258,-0.31113 -2.2609,-0.97488 -0.69832,-0.66375 -0.69832,-1.84605 0,-1.36899 0.96106,-2.15719 0.96796,-0.7882 2.66191,-0.7882 0.72598,0 1.47961,0.13136 0.75363,0.13137 1.54184,0.39411 z"
         id="path4371"
         inkscape:connector-curvature="0" /><path
         d="m 317.96694,-528.52368 1.39664,0 0,10.32269 -1.39664,0 0,-10.32269 z"
         id="path4373"
         inkscape:connector-curvature="0" /><path
         d="m 329.43435,-528.18489 0,1.36207 q -0.79512,-0.38028 -1.50035,-0.56696 -0.70524,-0.18668 -1.36207,-0.18668 -1.14082,0 -1.76309,0.4425 -0.61535,0.4425 -0.61535,1.25836 0,0.68449 0.40793,1.03711 0.41484,0.3457 1.56258,0.56004 l 0.84351,0.17285 q 1.56258,0.29731 2.30239,1.05094 0.74671,0.74672 0.74671,2.00508 0,1.50035 -1.00945,2.27472 -1.00254,0.77438 -2.94539,0.77438 -0.73289,0 -1.56258,-0.16594 -0.82277,-0.16594 -1.70777,-0.4909 l 0,-1.43812 q 0.85043,0.47707 1.66629,0.71906 0.81586,0.24199 1.60406,0.24199 1.19613,0 1.84606,-0.47015 0.64992,-0.47016 0.64992,-1.34133 0,-0.76055 -0.47016,-1.18922 -0.46324,-0.42867 -1.52801,-0.64301 l -0.85043,-0.16594 q -1.56257,-0.31113 -2.26089,-0.97488 -0.69832,-0.66375 -0.69832,-1.84605 0,-1.36899 0.96105,-2.15719 0.96797,-0.7882 2.66191,-0.7882 0.72598,0 1.47961,0.13136 0.75364,0.13137 1.54184,0.39411 z"
         id="path4375"
         inkscape:connector-curvature="0" /><path
         d="m 329.74114,-528.52368 8.73246,0 0,1.17539 -3.66445,0 0,9.1473 -1.40356,0 0,-9.1473 -3.66445,0 0,-1.17539 z"
         id="path4377"
         inkscape:connector-curvature="0" /><path
         d="m 343.64282,-527.57646 q -1.52109,0 -2.41992,1.13391 -0.89192,1.13391 -0.89192,3.09058 0,1.94977 0.89192,3.08368 0.89883,1.1339 2.41992,1.1339 1.52109,0 2.40609,-1.1339 0.89192,-1.13391 0.89192,-3.08368 0,-1.95667 -0.89192,-3.09058 -0.885,-1.13391 -2.40609,-1.13391 z m 0,-1.1339 q 2.17102,0 3.47086,1.45886 1.29984,1.45196 1.29984,3.89953 0,2.44067 -1.29984,3.89954 -1.29984,1.45195 -3.47086,1.45195 -2.17793,0 -3.48469,-1.45195 -1.29984,-1.45196 -1.29984,-3.89954 0,-2.44757 1.29984,-3.89953 1.30676,-1.45886 3.48469,-1.45886 z"
         id="path4379"
         inkscape:connector-curvature="0" /><path
         d="m 354.31354,-523.04083 q 0.44941,0.15211 0.87117,0.64992 0.42867,0.49781 0.85734,1.36898 l 1.41739,2.82094 -1.50035,0 -1.32059,-2.64808 q -0.51164,-1.03711 -0.99563,-1.3759 -0.47707,-0.33879 -1.30675,-0.33879 l -1.5211,0 0,4.36277 -1.39664,0 0,-10.32269 3.15282,0 q 1.77,0 2.64117,0.7398 0.87117,0.73981 0.87117,2.23324 0,0.97489 -0.45633,1.61789 -0.44941,0.64301 -1.31367,0.89192 z m -3.49852,-4.33512 0,3.66445 1.75618,0 q 1.00945,0 1.52109,-0.46324 0.51855,-0.47015 0.51855,-1.3759 0,-0.90574 -0.51855,-1.36207 -0.51164,-0.46324 -1.52109,-0.46324 l -1.75618,0 z"
         id="path4381"
         inkscape:connector-curvature="0" /><path
         d="m 312.02636,-579.33597 0,3.87879 1.75617,0 q 0.97488,0 1.50726,-0.50473 0.53239,-0.50473 0.53239,-1.43812 0,-0.92649 -0.53239,-1.43122 -0.53238,-0.50472 -1.50726,-0.50472 l -1.75617,0 z m -1.39664,-1.14774 3.15281,0 q 1.73543,0 2.62043,0.78821 0.89191,0.78129 0.89191,2.29547 0,1.528 -0.89191,2.30929 -0.885,0.78129 -2.62043,0.78129 l -1.75617,0 0,4.14844 -1.39664,0 0,-10.3227 z"
         id="path4383"
         inkscape:connector-curvature="0" /><path
         d="m 318.43282,-580.48371 1.39664,0 0,10.3227 -1.39664,0 0,-10.3227 z"
         id="path4385"
         inkscape:connector-curvature="0" /><path
         d="m 323.71214,-580.48371 1.88063,0 4.57711,8.63567 0,-8.63567 1.35516,0 0,10.3227 -1.88063,0 -4.57711,-8.63566 0,8.63566 -1.35516,0 0,-10.3227 z"
         id="path4387"
         inkscape:connector-curvature="0" /><path
         d="m 337.54188,-575.72683 q 1.00254,0.21433 1.56258,0.89191 0.56695,0.67758 0.56695,1.67321 0,1.528 -1.05094,2.36461 -1.05093,0.8366 -2.98687,0.8366 -0.64992,0 -1.34133,-0.13137 -0.68449,-0.12445 -1.41738,-0.38027 l 0,-1.34825 q 0.58078,0.33879 1.27219,0.51164 0.6914,0.17286 1.44504,0.17286 1.31367,0 1.99816,-0.51856 0.69141,-0.51855 0.69141,-1.50726 0,-0.91266 -0.64301,-1.4243 -0.6361,-0.51856 -1.77692,-0.51856 l -1.20304,0 0,-1.14773 1.25836,0 q 1.03019,0 1.5764,-0.40793 0.54621,-0.41484 0.54621,-1.18922 0,-0.79512 -0.56695,-1.21687 -0.56004,-0.42868 -1.61098,-0.42868 -0.57386,0 -1.2307,0.12446 -0.65684,0.12445 -1.44504,0.38719 l 0,-1.24454 q 0.79512,-0.22125 1.48653,-0.33187 0.69832,-0.11063 1.31367,-0.11063 1.59023,0 2.51672,0.72598 0.92648,0.71906 0.92648,1.94977 0,0.85734 -0.4909,1.45195 -0.4909,0.58769 -1.39664,0.81586 z"
         id="path4389"
         inkscape:connector-curvature="0" /></g><path
       inkscape:connector-curvature="0"
       id="path52"
       style="fill:none;stroke:#800000;stroke-width:1.44000006;stroke-linecap:round;stroke-linejoin:round;stroke-miterlimit:10;stroke-dasharray:none;stroke-opacity:1"
       d="m 284.76,475.2404 -7.08,-14.4" /><path
       inkscape:connector-curvature="0"
       id="path54"
       style="fill:none;stroke:#800000;stroke-width:1.44000006;stroke-linecap:round;stroke-linejoin:round;stroke-miterlimit:10;stroke-dasharray:none;stroke-opacity:1"
       d="m 277.68,460.8404 -7.2,14.4" /><path
       inkscape:connector-curvature="0"
       id="path56"
       style="fill:none;stroke:#800000;stroke-width:1.44000006;stroke-linecap:round;stroke-linejoin:round;stroke-miterlimit:10;stroke-dasharray:none;stroke-opacity:1"
       d="m 284.76,460.8404 -7.08,0" /><path
       inkscape:connector-curvature="0"
       id="path58"
       style="fill:none;stroke:#800000;stroke-width:1.44000006;stroke-linecap:round;stroke-linejoin:round;stroke-miterlimit:10;stroke-dasharray:none;stroke-opacity:1"
       d="m 277.68,460.8404 -7.2,0" /><path
       inkscape:connector-curvature="0"
       id="path60"
       style="fill:none;stroke:#800000;stroke-width:1.44000006;stroke-linecap:round;stroke-linejoin:round;stroke-miterlimit:10;stroke-dasharray:none;stroke-opacity:1"
       d="m 284.76,475.2404 -7.08,0" /><path
       inkscape:connector-curvature="0"
       id="path62"
       style="fill:none;stroke:#800000;stroke-width:1.44000006;stroke-linecap:round;stroke-linejoin:round;stroke-miterlimit:10;stroke-dasharray:none;stroke-opacity:1"
       d="m 277.68,475.2404 -7.2,0" /><path
       inkscape:connector-curvature="0"
       id="path64"
       style="fill:none;stroke:#800000;stroke-width:0.95999998;stroke-linecap:round;stroke-linejoin:round;stroke-miterlimit:10;stroke-dasharray:none;stroke-opacity:1"
       d="m 277.68,475.2404 0,-14.4" /><path
       inkscape:connector-curvature="0"
       id="path66"
       style="fill:none;stroke:#800000;stroke-width:0.95999998;stroke-linecap:round;stroke-linejoin:round;stroke-miterlimit:10;stroke-dasharray:none;stroke-opacity:1"
       d="m 266.16,470.9204 -7.92,-7.92" /><path
       inkscape:connector-curvature="0"
       id="path68"
       style="fill:none;stroke:#800000;stroke-width:0.95999998;stroke-linecap:round;stroke-linejoin:round;stroke-miterlimit:10;stroke-dasharray:none;stroke-opacity:1"
       d="m 266.88,464.4404 -7.92,-7.92" /><path
       inkscape:connector-curvature="0"
       id="path70"
       style="fill:none;stroke:#800000;stroke-width:0.95999998;stroke-linecap:round;stroke-linejoin:round;stroke-miterlimit:10;stroke-dasharray:none;stroke-opacity:1"
       d="m 277.68,446.4404 0,14.4" /><path
       inkscape:connector-curvature="0"
       id="path72"
       style="fill:none;stroke:#800000;stroke-width:0.95999998;stroke-linecap:round;stroke-linejoin:round;stroke-miterlimit:10;stroke-dasharray:none;stroke-opacity:1"
       d="m 277.68,489.6404 0,-14.4" /><path
       inkscape:connector-curvature="0"
       id="path74"
       style="fill:none;stroke:#800000;stroke-width:0.95999998;stroke-linecap:round;stroke-linejoin:round;stroke-miterlimit:10;stroke-dasharray:none;stroke-opacity:1"
       d="m 258.24,463.0004 2.16,5.04" /><path
       inkscape:connector-curvature="0"
       id="path76"
       style="fill:none;stroke:#800000;stroke-width:0.95999998;stroke-linecap:round;stroke-linejoin:round;stroke-miterlimit:10;stroke-dasharray:none;stroke-opacity:1"
       d="m 260.4,468.0404 2.88,-2.88" /><path
       inkscape:connector-curvature="0"
       id="path78"
       style="fill:none;stroke:#800000;stroke-width:0.95999998;stroke-linecap:round;stroke-linejoin:round;stroke-miterlimit:10;stroke-dasharray:none;stroke-opacity:1"
       d="m 263.28,465.1604 -5.04,-2.16" /><path
       inkscape:connector-curvature="0"
       id="path80"
       style="fill:none;stroke:#800000;stroke-width:0.95999998;stroke-linecap:round;stroke-linejoin:round;stroke-miterlimit:10;stroke-dasharray:none;stroke-opacity:1"
       d="m 258.48,463.6004 1.2,0" /><path
       inkscape:connector-curvature="0"
       id="path82"
       style="fill:none;stroke:#800000;stroke-width:0.95999998;stroke-linecap:round;stroke-linejoin:round;stroke-miterlimit:10;stroke-dasharray:none;stroke-opacity:1"
       d="m 258.84,464.3204 2.52,0" /><path
       inkscape:connector-curvature="0"
       id="path84"
       style="fill:none;stroke:#800000;stroke-width:0.95999998;stroke-linecap:round;stroke-linejoin:round;stroke-miterlimit:10;stroke-dasharray:none;stroke-opacity:1"
       d="m 259.08,465.0404 3.84,0" /><path
       inkscape:connector-curvature="0"
       id="path86"
       style="fill:none;stroke:#800000;stroke-width:0.95999998;stroke-linecap:round;stroke-linejoin:round;stroke-miterlimit:10;stroke-dasharray:none;stroke-opacity:1"
       d="m 259.44,465.7604 3.24,0" /><path
       inkscape:connector-curvature="0"
       id="path88"
       style="fill:none;stroke:#800000;stroke-width:0.95999998;stroke-linecap:round;stroke-linejoin:round;stroke-miterlimit:10;stroke-dasharray:none;stroke-opacity:1"
       d="m 259.68,466.3604 2.4,0" /><path
       inkscape:connector-curvature="0"
       id="path90"
       style="fill:none;stroke:#800000;stroke-width:0.95999998;stroke-linecap:round;stroke-linejoin:round;stroke-miterlimit:10;stroke-dasharray:none;stroke-opacity:1"
       d="m 259.92,467.0804 1.44,0" /><path
       inkscape:connector-curvature="0"
       id="path92"
       style="fill:none;stroke:#800000;stroke-width:0.95999998;stroke-linecap:round;stroke-linejoin:round;stroke-miterlimit:10;stroke-dasharray:none;stroke-opacity:1"
       d="m 260.28,467.8004 0.36,0" /><path
       inkscape:connector-curvature="0"
       id="path94"
       style="fill:none;stroke:#800000;stroke-width:0.95999998;stroke-linecap:round;stroke-linejoin:round;stroke-miterlimit:10;stroke-dasharray:none;stroke-opacity:1"
       d="m 258.96,456.5204 2.16,5.04" /><path
       inkscape:connector-curvature="0"
       id="path96"
       style="fill:none;stroke:#800000;stroke-width:0.95999998;stroke-linecap:round;stroke-linejoin:round;stroke-miterlimit:10;stroke-dasharray:none;stroke-opacity:1"
       d="m 261.12,461.5604 2.88,-2.88" /><path
       inkscape:connector-curvature="0"
       id="path98"
       style="fill:none;stroke:#800000;stroke-width:0.95999998;stroke-linecap:round;stroke-linejoin:round;stroke-miterlimit:10;stroke-dasharray:none;stroke-opacity:1"
       d="m 264,458.6804 -5.04,-2.16" /><path
       inkscape:connector-curvature="0"
       id="path100"
       style="fill:none;stroke:#800000;stroke-width:0.95999998;stroke-linecap:round;stroke-linejoin:round;stroke-miterlimit:10;stroke-dasharray:none;stroke-opacity:1"
       d="m 259.08,456.8804 0.6,0" /><path
       inkscape:connector-curvature="0"
       id="path102"
       style="fill:none;stroke:#800000;stroke-width:0.95999998;stroke-linecap:round;stroke-linejoin:round;stroke-miterlimit:10;stroke-dasharray:none;stroke-opacity:1"
       d="m 259.32,457.4804 1.92,0" /><path
       inkscape:connector-curvature="0"
       id="path104"
       style="fill:none;stroke:#800000;stroke-width:0.95999998;stroke-linecap:round;stroke-linejoin:round;stroke-miterlimit:10;stroke-dasharray:none;stroke-opacity:1"
       d="m 259.68,458.2004 3.12,0" /><path
       inkscape:connector-curvature="0"
       id="path106"
       style="fill:none;stroke:#800000;stroke-width:0.95999998;stroke-linecap:round;stroke-linejoin:round;stroke-miterlimit:10;stroke-dasharray:none;stroke-opacity:1"
       d="m 259.92,458.9204 3.84,0" /><path
       inkscape:connector-curvature="0"
       id="path108"
       style="fill:none;stroke:#800000;stroke-width:0.95999998;stroke-linecap:round;stroke-linejoin:round;stroke-miterlimit:10;stroke-dasharray:none;stroke-opacity:1"
       d="m 260.28,459.5204 2.88,0" /><path
       inkscape:connector-curvature="0"
       id="path110"
       style="fill:none;stroke:#800000;stroke-width:0.95999998;stroke-linecap:round;stroke-linejoin:round;stroke-miterlimit:10;stroke-dasharray:none;stroke-opacity:1"
       d="m 260.52,460.2404 1.92,0" /><path
       inkscape:connector-curvature="0"
       id="path112"
       style="fill:none;stroke:#800000;stroke-width:0.95999998;stroke-linecap:round;stroke-linejoin:round;stroke-miterlimit:10;stroke-dasharray:none;stroke-opacity:1"
       d="m 260.88,460.9604 0.84,0" /><path
       inkscape:connector-curvature="0"
       id="path114"
       style="fill:none;stroke:#800000;stroke-width:1.20000005;stroke-linecap:round;stroke-linejoin:round;stroke-miterlimit:10;stroke-dasharray:none;stroke-opacity:1"
       d="m 277.68,518.4404 -5.76,2.16" /><path
       inkscape:connector-curvature="0"
       id="path116"
       style="fill:none;stroke:#800000;stroke-width:1.20000005;stroke-linecap:round;stroke-linejoin:round;stroke-miterlimit:10;stroke-dasharray:none;stroke-opacity:1"
       d="m 271.92,520.6004 11.4,3.6" /><path
       inkscape:connector-curvature="0"
       id="path118"
       style="fill:none;stroke:#800000;stroke-width:1.20000005;stroke-linecap:round;stroke-linejoin:round;stroke-miterlimit:10;stroke-dasharray:none;stroke-opacity:1"
       d="m 283.32,524.2004 -11.4,3.48" /><path
       inkscape:connector-curvature="0"
       id="path120"
       style="fill:none;stroke:#800000;stroke-width:1.20000005;stroke-linecap:round;stroke-linejoin:round;stroke-miterlimit:10;stroke-dasharray:none;stroke-opacity:1"
       d="m 271.92,527.6804 11.4,3.6" /><path
       inkscape:connector-curvature="0"
       id="path122"
       style="fill:none;stroke:#800000;stroke-width:1.20000005;stroke-linecap:round;stroke-linejoin:round;stroke-miterlimit:10;stroke-dasharray:none;stroke-opacity:1"
       d="m 283.32,531.2804 -11.4,3.6" /><path
       inkscape:connector-curvature="0"
       id="path124"
       style="fill:none;stroke:#800000;stroke-width:1.20000005;stroke-linecap:round;stroke-linejoin:round;stroke-miterlimit:10;stroke-dasharray:none;stroke-opacity:1"
       d="m 271.92,534.8804 11.4,3.6" /><path
       inkscape:connector-curvature="0"
       id="path126"
       style="fill:none;stroke:#800000;stroke-width:1.20000005;stroke-linecap:round;stroke-linejoin:round;stroke-miterlimit:10;stroke-dasharray:none;stroke-opacity:1"
       d="m 283.32,538.4804 -11.4,3.6" /><path
       inkscape:connector-curvature="0"
       id="path128"
       style="fill:none;stroke:#800000;stroke-width:1.20000005;stroke-linecap:round;stroke-linejoin:round;stroke-miterlimit:10;stroke-dasharray:none;stroke-opacity:1"
       d="m 271.92,542.0804 11.4,3.6" /><path
       inkscape:connector-curvature="0"
       id="path130"
       style="fill:none;stroke:#800000;stroke-width:1.20000005;stroke-linecap:round;stroke-linejoin:round;stroke-miterlimit:10;stroke-dasharray:none;stroke-opacity:1"
       d="m 283.32,545.6804 -5.64,1.44" /><path
       inkscape:connector-curvature="0"
       id="path132"
       style="fill:none;stroke:#800000;stroke-width:0.95999998;stroke-linecap:round;stroke-linejoin:round;stroke-miterlimit:10;stroke-dasharray:none;stroke-opacity:1"
       d="m 277.68,561.5204 0,-14.4" /><path
       inkscape:connector-curvature="0"
       id="path134"
       style="fill:none;stroke:#800000;stroke-width:0.95999998;stroke-linecap:round;stroke-linejoin:round;stroke-miterlimit:10;stroke-dasharray:none;stroke-opacity:1"
       d="m 277.68,504.0404 0,14.4" /><path
       inkscape:connector-curvature="0"
       id="path136"
       style="fill:none;stroke:#800000;stroke-width:1.44000006;stroke-linecap:round;stroke-linejoin:round;stroke-miterlimit:10;stroke-dasharray:none;stroke-opacity:1"
       d="m 270.48,403.3604 14.28,0" /><path
       inkscape:connector-curvature="0"
       id="path138"
       style="fill:none;stroke:#800000;stroke-width:1.44000006;stroke-linecap:round;stroke-linejoin:round;stroke-miterlimit:10;stroke-dasharray:none;stroke-opacity:1"
       d="m 284.76,403.3604 -7.08,-7.2" /><path
       inkscape:connector-curvature="0"
       id="path140"
       style="fill:none;stroke:#800000;stroke-width:1.44000006;stroke-linecap:round;stroke-linejoin:round;stroke-miterlimit:10;stroke-dasharray:none;stroke-opacity:1"
       d="m 277.68,396.1604 -7.2,7.2" /><path
       inkscape:connector-curvature="0"
       id="path142"
       style="fill:none;stroke:#800000;stroke-width:0.95999998;stroke-linecap:round;stroke-linejoin:round;stroke-miterlimit:10;stroke-dasharray:none;stroke-opacity:1"
       d="m 277.68,417.7604 0,-14.4" /><path
       inkscape:connector-curvature="0"
       id="path144"
       style="fill:none;stroke:#008000;stroke-width:0.95999998;stroke-linecap:round;stroke-linejoin:round;stroke-miterlimit:10;stroke-dasharray:none;stroke-opacity:1"
       d="m 277.68,417.7604 0,28.68" /><path
       inkscape:connector-curvature="0"
       id="path146"
       style="fill:none;stroke:#008000;stroke-width:0.95999998;stroke-linecap:round;stroke-linejoin:round;stroke-miterlimit:10;stroke-dasharray:none;stroke-opacity:1"
       d="m 277.68,489.6404 0,14.4" /><path
       inkscape:connector-curvature="0"
       id="path148"
       style="fill:none;stroke:#008000;stroke-width:0.95999998;stroke-linecap:round;stroke-linejoin:round;stroke-miterlimit:10;stroke-dasharray:none;stroke-opacity:1"
       d="m 277.68,561.5204 0,14.4" /><path
       inkscape:connector-curvature="0"
       id="path150"
       style="fill:none;stroke:#008000;stroke-width:0.95999998;stroke-linecap:round;stroke-linejoin:round;stroke-miterlimit:10;stroke-dasharray:none;stroke-opacity:1"
       d="m 277.68,575.9204 28.68,0" /></g></svg>