<?xml version="1.0" encoding="UTF-8" standalone="no"?>
<!-- Created with Inkscape (http://www.inkscape.org/) -->
<svg id="svg3895" xmlns:rdf="http://www.w3.org/1999/02/22-rdf-syntax-ns#" xmlns="http://www.w3.org/2000/svg" height="100" width="80.178" version="1.0" xmlns:cc="http://creativecommons.org/ns#" xmlns:xlink="http://www.w3.org/1999/xlink" xmlns:dc="http://purl.org/dc/elements/1.1/">
 <defs id="defs3897">
  <linearGradient id="linearGradient4510">
   <stop id="stop4514" stop-color="#e1e0df" stop-opacity=".49804" offset="0"/>
   <stop id="stop4536" stop-color="#697c8b" offset="0"/>
   <stop id="stop4602" stop-color="#a5aeb5" offset="0"/>
   <stop id="stop4534" stop-color="#e1e0df" offset="0"/>
   <stop id="stop4516" stop-color="#e1e0df" stop-opacity="0" offset="1"/>
  </linearGradient>
  <linearGradient id="linearGradient4596" y2="173.17" xlink:href="#linearGradient4510" gradientUnits="userSpaceOnUse" y1="247.92" gradientTransform="translate(-6.0609 1.0102)" x2="140.41" x1="188.9"/>
  <linearGradient id="linearGradient4600" y2="43.868" xlink:href="#linearGradient4510" gradientUnits="userSpaceOnUse" y1="55.99" gradientTransform="translate(-6.0609 1.0102)" x2="139.4" x1="147.48"/>
 </defs>
 <g id="layer1" transform="translate(-25.922 -154.19)">
  <g id="g3645" transform="matrix(.39736 0 0 .39736 15.621 153.18)" stroke="#939494" stroke-width="1px">
   <path id="path3975" d="m226.79 189.09c1.0122-3.917-0.003-5.2996-1.7017-5.8281-8.9429-5.5177-14.906-11.715-21.224-20.88-5.0876-10.644-7.8082-13.962-7.4421-28.965-0.34184-7.2303 0.55447-14.461 3.6152-21.691 3.6051-7.4186 6.9019-13.662 13.694-17.988l6.5073-5.7842c1.5722-1.1858 1.5703-3.5421 0.76689-5.1489-5.6723-5.8628-10.257-11.881-20.457-17.097-4.1323-2.3925-10.369-4.244-18.587-4.5938-5.8016 0.0026-11.43-0.16775-18.543 1.1466-5.6991 0.92792-11.654 2.8619-17.353 5.7842l-8.209 3.9146c-5.2065 1.2749-9.9331 0.63002-14.461-0.81075l-15.184-6.4195c-5.2844-1.946-11.47-2.9905-18.799-2.8921-7.2347-0.02177-14.404 0.28156-20.968 3.6151-5.2033 2.5091-9.9368 5.4879-14.461 8.6763-5.3617 5.0017-10.451 10.276-14.461 16.63-3.0887 3.9895-5.2765 10.426-7.6978 16.418-2.2109 5.9973-3.2229 10.436-4.1264 15.863-1.5828 10.492-1.3939 16.863-1.0225 24.839 0.78082 13.654 2.7345 18.621 4.1703 26.752 1.7286 6.9061 4.1122 12.502 6.5073 18.076 2.4334 6.7366 6.3817 12.716 10.122 18.799 3.2917 6.3191 8.4357 13.256 13.738 20.245 4.5819 5.0626 6.7059 8.8961 15.439 15.14 5.857 3.6586 6.7222 4.3705 9.8669 5.8281 2.8947 0.72047 5.8882 1.3422 10.122 0.72302 2.7525-0.58342 5.3349-0.99667 9.3995-2.8921l8.6764-3.6151c3.2336-1.4461 6.403-2.8921 12.292-4.3382 3.8562-0.50608 7.7124-0.89189 11.569-0.72303 2.4241-0.0398 6.4593 0.887 12.292 2.8921 3.6261 1.2124 5.6134 1.3322 13.015 5.0612 3.1402 1.0202 5.1426 2.7989 10.122 2.5926 4.7852-0.65822 9.3054-2.3484 12.759-4.3382 3.8149-2.7923 8.3119-4.9024 10.889-8.932 3.1128-2.9026 4.9418-5.1633 6.7191-7.3982l8.6764-13.014c2.781-3.3115 5.2981-7.1508 7.3983-11.824 2.5342-5.519 4.4776-11.629 6.3394-17.82z" fill="#f3f3f3"/>
   <path id="path4486" d="m126.63 57.623c0.0762 2.8898 1.8952 2.0268 2.9141 2.4028 3.8332 0.43465 5.7133-0.5955 8.3149-1.0845 5.0323-1.4424 6.9728-2.4984 9.3995-3.6151 2.7716-1.6489 5.5433-2.8379 8.3149-5.4227 2.6142-1.9002 4.2731-3.5224 6.5073-6.1457 2.9563-3.0375 3.9461-4.4725 6.1458-7.5918 2.4467-3.567 3.6152-5.9409 5.4228-9.7609 1.2121-3.0693 2.6743-6.0136 3.2537-9.3994 0.63991-3.0542 1.4508-6.0229 1.4461-9.3993 0.20329-1.6493-0.26124-2.6309-0.72304-3.6151-1.8263-1.0777-2.7672-1.0422-4.8933-0.89094-2.4891 0.010645-5.6755 0.39346-9.2059 1.9755-3.8882 1.7863-7.6076 3.685-10.484 6.1457-3.073 1.9281-5.1563 3.8561-7.2304 5.7842-2.5186 2.3016-4.68 4.9604-6.8688 7.5918-2.4909 2.9725-4.4347 5.5527-5.5725 8.187-1.5358 2.9347-2.6025 5.8694-3.827 8.8041-1.3 3.1319-2.2956 6.416-2.9141 9.8887-0.35654 2.1674-0.26403 3.6739 0 6.1457z" fill="#f9f9f9"/>
   <path id="path4598" d="m126.63 57.623c0.0762 2.8898 1.8952 2.0268 2.9141 2.4028 3.8332 0.43465 5.7133-0.5955 8.3149-1.0845 5.0323-1.4424 6.9728-2.4984 9.3995-3.6151 2.7716-1.6489 5.5433-2.8379 8.3149-5.4227 2.6142-1.9002 4.2731-3.5224 6.5073-6.1457 2.9563-3.0375 3.9461-4.4725 6.1458-7.5918 2.4467-3.567 3.6152-5.9409 5.4228-9.7609 1.2121-3.0693 2.6743-6.0136 3.2537-9.3994 0.63991-3.0542 1.4508-6.0229 1.4461-9.3993 0.20329-1.6493-0.26124-2.6309-0.72304-3.6151-1.8263-1.0777-2.7672-1.0422-4.8933-0.89094-2.4891 0.010645-5.6755 0.39346-9.2059 1.9755-3.8882 1.7863-7.6076 3.685-10.484 6.1457-3.073 1.9281-5.1563 3.8561-7.2304 5.7842-2.5186 2.3016-4.68 4.9604-6.8688 7.5918-2.4909 2.9725-4.4347 5.5527-5.5725 8.187-1.5358 2.9347-2.6025 5.8694-3.827 8.8041-1.3 3.1319-2.2956 6.416-2.9141 9.8887-0.35654 2.1674-0.26403 3.6739 0 6.1457z" fill="url(#linearGradient4600)"/>
   <path id="path2408" d="m226.79 189.09c1.0122-3.917-0.003-5.2996-1.7017-5.8281-8.9429-5.5177-14.906-11.715-21.224-20.88-5.0876-10.644-7.8082-13.962-7.4421-28.965-0.34184-7.2303 0.55447-14.461 3.6152-21.691 3.6051-7.4186 6.9019-13.662 13.694-17.988l6.5073-5.7842c1.5722-1.1858 1.5703-3.5421 0.76689-5.1489-5.6723-5.8628-10.257-11.881-20.457-17.097-4.1323-2.3925-10.369-4.244-18.587-4.5938-5.8016 0.0026-11.43-0.16775-18.543 1.1466-5.6991 0.92792-11.654 2.8619-17.353 5.7842l-8.209 3.9146c-5.2065 1.2749-9.9331 0.63002-14.461-0.81075l-15.184-6.4195c-5.2844-1.946-11.47-2.9905-18.799-2.8921-7.2347-0.02177-14.404 0.28156-20.968 3.6151-5.2033 2.5091-9.9368 5.4879-14.461 8.6763-5.3617 5.0017-10.451 10.276-14.461 16.63-3.0887 3.9895-5.2765 10.426-7.6978 16.418-2.2109 5.9973-3.2229 10.436-4.1264 15.863-1.5828 10.492-1.3939 16.863-1.0225 24.839 0.78082 13.654 2.7345 18.621 4.1703 26.752 1.7286 6.9061 4.1122 12.502 6.5073 18.076 2.4334 6.7366 6.3817 12.716 10.122 18.799 3.2917 6.3191 8.4357 13.256 13.738 20.245 4.5819 5.0626 6.7059 8.8961 15.439 15.14 5.857 3.6586 6.7222 4.3705 9.8669 5.8281 2.8947 0.72047 5.8882 1.3422 10.122 0.72302 2.7525-0.58342 5.3349-0.99667 9.3995-2.8921l8.6764-3.6151c3.2336-1.4461 6.403-2.8921 12.292-4.3382 3.8562-0.50608 7.7124-0.89189 11.569-0.72303 2.4241-0.0398 6.4593 0.887 12.292 2.8921 3.6261 1.2124 5.6134 1.3322 13.015 5.0612 3.1402 1.0202 5.1426 2.7989 10.122 2.5926 4.7852-0.65822 9.3054-2.3484 12.759-4.3382 3.8149-2.7923 8.3119-4.9024 10.889-8.932 3.1128-2.9026 4.9418-5.1633 6.7191-7.3982l8.6764-13.014c2.781-3.3115 5.2981-7.1508 7.3983-11.824 2.5342-5.519 4.4776-11.629 6.3394-17.82z" fill="url(#linearGradient4596)"/>
   <path id="path3180" d="m126.63 57.623c0.0762 2.8898 1.8952 2.0268 2.9141 2.4028 3.8332 0.43465 5.7133-0.5955 8.3149-1.0845 5.0323-1.4424 6.9728-2.4984 9.3995-3.6151 2.7716-1.6489 5.5433-2.8379 8.3149-5.4227 2.6142-1.9002 4.2731-3.5224 6.5073-6.1457 2.9563-3.0375 3.9461-4.4725 6.1458-7.5918 2.4467-3.567 3.6152-5.9409 5.4228-9.7609 1.2121-3.0693 2.6743-6.0136 3.2537-9.3994 0.63991-3.0542 1.4508-6.0229 1.4461-9.3993 0.20329-1.6493-0.26124-2.6309-0.72304-3.6151-1.8263-1.0777-2.7672-1.0422-4.8933-0.89094-2.4891 0.010645-5.6755 0.39346-9.2059 1.9755-3.8882 1.7863-7.6076 3.685-10.484 6.1457-3.073 1.9281-5.1563 3.8561-7.2304 5.7842-2.5186 2.3016-4.68 4.9604-6.8688 7.5918-2.4909 2.9725-4.4347 5.5527-5.5725 8.187-1.5358 2.9347-2.6025 5.8694-3.827 8.8041-1.3 3.1319-2.2956 6.416-2.9141 9.8887-0.35654 2.1674-0.26403 3.6739 0 6.1457z" fill="url(#linearGradient4600)"/>
  </g>
 </g>
</svg>
