<?xml version="1.0" encoding="UTF-8" standalone="no"?>
<!-- Created with Inkscape (http://www.inkscape.org/) -->

<svg
   xmlns:dc="http://purl.org/dc/elements/1.1/"
   xmlns:cc="http://creativecommons.org/ns#"
   xmlns:rdf="http://www.w3.org/1999/02/22-rdf-syntax-ns#"
   xmlns:svg="http://www.w3.org/2000/svg"
   xmlns="http://www.w3.org/2000/svg"
   xmlns:sodipodi="http://sodipodi.sourceforge.net/DTD/sodipodi-0.dtd"
   xmlns:inkscape="http://www.inkscape.org/namespaces/inkscape"
   width="162.61292mm"
   height="136.15459mm"
   viewBox="0 0 162.61292 136.15459"
   version="1.1"
   id="svg1194"
   inkscape:version="0.92.2 (5c3e80d, 2017-08-06)"
   sodipodi:docname="DFU_Update_Success.svg">
  <defs
     id="defs1188" />
  <sodipodi:namedview
     id="base"
     pagecolor="#ffffff"
     bordercolor="#666666"
     borderopacity="1.0"
     inkscape:pageopacity="0.0"
     inkscape:pageshadow="2"
     inkscape:zoom="0.98994949"
     inkscape:cx="426.19124"
     inkscape:cy="181.90794"
     inkscape:document-units="mm"
     inkscape:current-layer="layer1"
     showgrid="false"
     fit-margin-top="0"
     fit-margin-left="0"
     fit-margin-right="0"
     fit-margin-bottom="0"
     inkscape:window-width="1920"
     inkscape:window-height="1001"
     inkscape:window-x="-9"
     inkscape:window-y="-9"
     inkscape:window-maximized="1" />
  <metadata
     id="metadata1191">
    <rdf:RDF>
      <cc:Work
         rdf:about="">
        <dc:format>image/svg+xml</dc:format>
        <dc:type
           rdf:resource="http://purl.org/dc/dcmitype/StillImage" />
        <dc:title></dc:title>
      </cc:Work>
    </rdf:RDF>
  </metadata>
  <g
     inkscape:label="Layer 1"
     inkscape:groupmode="layer"
     id="layer1"
     transform="translate(-24.526875,-16.50009)">
    <g
       id="g1842"
       transform="matrix(0.15602555,0,0,0.15602555,61.877678,56.41539)">
      <path
         style="fill:#e0e2e4;stroke-width:0.26458332"
         d="m -165.26669,90.406824 c -3.52989,-1.18608 -6.36068,-2.282783 -6.54844,-2.536992 -0.21411,-0.289888 -0.33073,-1.407131 -0.33073,-3.168536 0,-3.271808 -0.68465,-2.74542 6.80262,-5.230145 l 5.34741,-1.774593 0.0765,-2.138492 0.0765,-2.138492 8.56679,-2.736603 c 10.83419,-3.46091 11.76238,-3.661335 16.96549,-3.663375 3.6029,-0.0014 4.31642,0.07281 5.87413,0.611 1.74292,0.602183 1.80042,0.60494 3.37904,0.162 1.07947,-0.302883 2.08292,-0.40138 3.06086,-0.300448 1.17754,0.121533 1.89211,0.0024 3.7482,-0.62502 2.57402,-0.870075 3.16229,-0.926599 3.89258,-0.374025 1.38851,1.050599 1.99714,3.812685 1.10807,5.028568 -0.20261,0.277079 -1.30393,0.820864 -2.4474,1.208412 -1.44761,0.490633 -2.04323,0.815033 -1.96117,1.068144 0.0648,0.19993 0.16454,1.569649 0.22161,3.043817 0.08,2.065978 0.009,2.862906 -0.30821,3.476982 -0.39488,0.763609 -0.38761,0.80409 0.17526,0.975371 0.52004,0.158247 0.43585,0.251981 -0.73568,0.819094 -0.7276,0.352219 -1.4757,0.64193 -1.66244,0.6438 -0.18674,0.0019 -0.90111,0.287158 -1.5875,0.633968 -1.30185,0.657784 -3.15194,1.325848 -13.67081,4.936517 l -6.33742,2.175359 -2.73866,-0.885143 -2.73865,-0.885139 -5.34372,1.752163 c -2.93904,0.963689 -5.64136,1.810406 -6.00516,1.881592 -0.41033,0.08029 -3.02207,-0.663757 -6.87917,-1.959784 z"
         id="path1819"
         inkscape:connector-curvature="0" />
      <path
         style="fill:#cecfd0;stroke-width:0.26458332"
         d="m -165.53127,90.278824 c -3.47643,-1.140318 -6.09072,-2.140771 -6.28386,-2.40474 -0.21411,-0.292645 -0.33073,-1.416669 -0.33073,-3.187885 0,-2.315475 0.0681,-2.762007 0.44344,-2.906022 0.46301,-0.177676 11.66594,3.396893 12.71958,4.058494 0.55363,0.347631 0.59925,0.581819 0.65151,3.34427 l 0.0562,2.970463 0.0844,-2.784641 0.0844,-2.784642 7.06925,-2.340438 c 3.8881,-1.287243 7.16137,-2.42417 7.27395,-2.526506 0.45915,-0.417377 -1.02177,-1.08449 -6.74446,-3.038186 l -6.01061,-2.051992 -1.39772,0.459555 c -0.76875,0.252753 -1.54655,0.514479 -1.72845,0.581615 -0.246,0.09079 -0.33073,-0.385287 -0.33073,-1.858227 0,-1.264126 0.1196,-2.077733 0.33073,-2.249744 0.25443,-0.207301 12.26211,-4.12115 17.26405,-5.627142 1.88949,-0.568891 5.7065,-1.047359 8.35538,-1.047359 2.36235,0 3.24562,0.121967 5.05857,0.698514 l 2.19647,0.698513 1.80908,-0.461524 c 1.22799,-0.313278 2.24783,-0.407502 3.175,-0.29334 1.11993,0.137895 1.79475,0.02214 3.74717,-0.642773 1.30969,-0.446026 2.62267,-0.75179 2.91775,-0.679477 0.29507,0.07231 0.88278,0.49292 1.30601,0.934681 0.62683,0.654273 0.78878,1.085338 0.8734,2.324824 0.0695,1.018106 -0.0158,1.681054 -0.25786,2.003419 -0.19896,0.264988 -1.30966,0.81914 -2.46823,1.231448 -1.73358,0.616942 -2.08593,0.836102 -1.99034,1.237996 0.0639,0.268589 0.12342,1.757465 0.13229,3.308614 0.0158,2.760975 -7.9e-4,2.841244 -0.79173,3.817863 -1.48103,1.828835 -3.39112,2.633067 -18.47523,7.778872 l -4.73102,1.613945 -2.74264,-0.918409 -2.74263,-0.918408 -5.48384,1.83262 c -3.01611,1.007941 -5.84421,1.820434 -6.28467,1.805541 -0.44046,-0.01489 -3.47975,-0.905801 -6.75396,-1.979792 z m 6.29906,-0.683731 -0.0814,-1.103104 -5.41906,-1.807313 c -2.98049,-0.994021 -5.51057,-1.807313 -5.6224,-1.807313 -0.11183,0 -0.20333,0.459814 -0.20333,1.02181 v 1.021813 l 5.35782,1.867755 c 2.94679,1.027263 5.51348,1.877136 5.70375,1.888603 0.24493,0.01476 0.32219,-0.301238 0.26458,-1.082251 z m -1.66814,-6.26813 -1.05762,-0.480274 1.43014,-0.475017 c 1.37388,-0.456327 1.48835,-0.45643 2.9097,-0.0026 l 1.47956,0.472434 -0.92604,0.387607 c -1.42621,0.596958 -2.66702,0.628626 -3.83574,0.0979 z m -4.43249,-1.564058 c -0.69122,-0.229918 -1.25677,-0.493464 -1.25677,-0.585658 0,-0.0922 0.60374,-0.360696 1.34164,-0.596667 1.36509,-0.436539 1.72798,-0.391049 3.95003,0.495133 0.25515,0.101759 -0.0755,0.329068 -0.92604,0.636543 -1.58973,0.574717 -1.53592,0.573841 -3.10886,0.05065 z"
         id="path1817"
         inkscape:connector-curvature="0" />
      <path
         style="fill:#adaeaf;stroke-width:0.26458332"
         d="m -165.21347,90.298826 c -3.24495,-1.066199 -6.07269,-2.081937 -6.28386,-2.257192 -0.53699,-0.445664 -0.56431,-6.339271 -0.0294,-6.339271 0.75068,0 12.55759,3.983633 12.84954,4.335412 0.20386,0.245642 0.28262,1.342091 0.23274,3.240312 -0.0608,2.315808 -0.15191,2.877744 -0.47225,2.914163 -0.21828,0.02482 -3.05183,-0.827225 -6.29678,-1.893424 z m 6.0322,-0.667266 c 0,-0.841237 -0.12174,-1.3639 -0.33073,-1.420008 -0.1819,-0.04883 -2.74175,-0.865981 -5.68854,-1.815886 l -5.35782,-1.727102 v 1.132925 1.132925 l 3.50573,1.219655 c 3.08579,1.073554 7.61943,2.686327 7.80521,2.776577 0.0364,0.01767 0.0662,-0.566915 0.0662,-1.299086 z m 1.05833,0.261022 v -2.353638 l 7.20989,-2.340054 c 6.70345,-2.175682 7.21471,-2.385317 7.27844,-2.984436 0.0377,-0.35441 -0.0264,-0.7892 -0.1424,-0.966198 -0.22271,-0.339778 -12.0536,-4.572976 -12.7805,-4.572976 -0.23334,0 -1.09774,0.231712 -1.92089,0.514916 l -1.49662,0.514916 v -1.937728 c 0,-1.236343 0.11971,-2.031011 0.33073,-2.195444 0.77383,-0.602999 17.53459,-5.707681 20.36412,-6.202121 3.95724,-0.691505 7.99777,-0.572188 10.72256,0.316638 l 1.91638,0.625122 1.84795,-0.479297 c 1.26102,-0.327068 2.22868,-0.422202 3.04669,-0.299534 0.96434,0.144612 1.71054,0.012 3.81616,-0.678169 2.53763,-0.831775 2.63877,-0.84394 3.31779,-0.399031 1.04488,0.684631 1.73133,1.988938 1.73245,3.291814 0.002,1.754057 -0.292,2.055682 -2.79306,2.870189 -2.02413,0.659185 -2.24432,0.793866 -2.08123,1.272974 0.10032,0.294687 0.23719,1.620453 0.30416,2.946146 0.10373,2.053447 0.0424,2.565923 -0.41426,3.461035 -1.19863,2.349513 -2.43417,2.910499 -18.28599,8.302614 l -5.412,1.840931 -2.79388,-0.93096 -2.79388,-0.93096 -5.48631,1.833446 -5.4863,1.833446 z m -2.29612,-6.414566 c -1.27729,-0.486738 -1.276,-0.622937 0.0105,-1.114266 1.12445,-0.429429 1.25946,-0.428548 2.59577,0.01693 l 1.40962,0.469919 -0.88804,0.364167 c -1.3316,0.546055 -2.19502,0.618723 -3.12787,0.263247 z m -4.64919,-1.73908 c -0.69123,-0.216733 -1.25677,-0.471315 -1.25677,-0.56574 0,-0.09442 0.56554,-0.349006 1.25677,-0.56574 1.11511,-0.349644 1.39842,-0.349189 2.51354,0.004 0.69122,0.218961 1.25677,0.47172 1.25677,0.561689 0,0.08997 -0.56555,0.342728 -1.25677,0.561689 -1.11512,0.35324 -1.39843,0.353695 -2.51354,0.004 z"
         id="path1815"
         inkscape:connector-curvature="0" />
      <path
         style="fill:#909090;stroke-width:0.26458332"
         d="m -165.24813,90.152112 c -3.40952,-1.149612 -6.29497,-2.24118 -6.41209,-2.425705 -0.3692,-0.581679 -0.27023,-6.024044 0.10956,-6.024044 0.51676,0 12.46056,4.007202 12.8407,4.308118 0.41422,0.327882 0.345,6.061172 -0.0744,6.16582 -0.14552,0.03631 -3.0542,-0.87458 -6.46373,-2.024189 z m 6.06686,-0.735264 v -1.545931 l -3.37344,-0.879216 c -1.85539,-0.483568 -4.37804,-1.216649 -5.60588,-1.629068 -1.22785,-0.41242 -2.27617,-0.749853 -2.3296,-0.749853 -0.0534,0 -0.0609,0.549947 -0.0165,1.222105 l 0.0807,1.222105 5.55624,1.934281 c 3.05594,1.063853 5.58602,1.942656 5.6224,1.952892 0.0364,0.01024 0.0662,-0.677053 0.0662,-1.527315 z m 15.45059,0.199594 c -3.41728,-1.098934 -3.33964,-1.016511 -1.55997,-1.656152 l 1.5875,-0.570571 0.0752,-3.019811 c 0.0475,-1.90754 -0.03,-3.124988 -0.21034,-3.305368 -0.15706,-0.157057 -3.0484,-1.250161 -6.42522,-2.429124 -6.11142,-2.133705 -6.14514,-2.141913 -7.33028,-1.784368 -2.60876,0.78703 -2.38175,0.88319 -2.3772,-1.00698 0.002,-0.925283 0.10493,-1.841476 0.22822,-2.035987 0.29172,-0.460222 15.77867,-5.433991 19.2146,-6.170933 1.97236,-0.423036 3.58869,-0.569772 6.35,-0.576476 3.33278,-0.0081 3.89298,0.05949 5.58738,0.674096 l 1.88321,0.683088 1.91782,-0.525881 c 1.52713,-0.41875 2.13083,-0.471814 2.96342,-0.260479 0.90752,0.230353 1.39781,0.146793 3.71259,-0.632749 2.30469,-0.776139 2.75728,-0.85381 3.33165,-0.571746 1.02461,0.503167 1.70012,1.615295 1.83356,3.018674 0.17282,1.817664 -0.40898,2.456615 -2.9675,3.259008 -1.80193,0.565116 -2.00623,0.694804 -1.85618,1.178322 0.29168,0.939917 0.46976,4.295643 0.28127,5.300358 -0.10289,0.548489 -0.59182,1.418172 -1.13578,2.020261 -1.56853,1.736177 -2.48906,2.164736 -10.52436,4.899649 -1.89177,0.64389 -3.61818,1.242102 -3.83646,1.329362 -0.21828,0.08726 -2.22258,0.775813 -4.454,1.530119 l -4.05713,1.371465 z m -16.62134,-6.209501 c -0.57115,-0.212296 -1.08361,-0.43116 -1.13882,-0.486362 -0.0552,-0.0552 0.46683,-0.293629 1.16007,-0.529842 1.16867,-0.398205 1.35752,-0.397099 2.59403,0.01519 l 1.33359,0.444677 -0.82297,0.337613 c -1.39824,0.573612 -2.04869,0.619125 -3.1259,0.218726 z m -5.11311,-1.769864 c -0.47294,-0.151715 -0.85989,-0.362212 -0.85989,-0.46777 0,-0.105558 0.53578,-0.341931 1.19062,-0.525277 0.95879,-0.268446 1.42379,-0.268073 2.38807,0.0019 0.65859,0.184396 1.25242,0.42423 1.31963,0.532971 0.13491,0.218287 -1.94278,0.803823 -2.70038,0.761027 -0.26298,-0.01487 -0.86511,-0.151141 -1.33805,-0.302858 z"
         id="path1813"
         inkscape:connector-curvature="0" />
      <path
         style="fill:#707070;stroke-width:0.26458332"
         d="m -164.73752,90.01719 c -7.23513,-2.369648 -7.14048,-2.29385 -7.14244,-5.719524 -7.1e-4,-1.264719 0.10373,-2.364412 0.23212,-2.443763 0.34247,-0.211658 12.36426,3.752702 12.84856,4.237 0.31997,0.319977 0.41176,1.02679 0.41176,3.170984 0,1.517573 -0.0893,2.747039 -0.19844,2.732146 -0.10914,-0.0149 -2.87735,-0.904473 -6.15156,-1.976843 z m 5.82083,-0.07967 c 0,-0.563893 -0.0695,-1.372849 -0.15448,-1.79768 -0.15356,-0.767778 -0.18813,-0.780729 -5.75469,-2.156002 -3.08011,-0.760971 -5.6895,-1.380765 -5.79864,-1.37732 -0.10914,0.0034 -0.19844,0.528629 -0.19844,1.16708 v 1.160817 l 3.63802,1.265237 c 2.00091,0.695881 4.53099,1.595459 5.6224,1.999065 2.60987,0.965141 2.64583,0.961591 2.64583,-0.261197 z m 14.48593,-0.507434 c -1.12778,-0.380336 -2.05052,-0.76464 -2.05052,-0.854011 0,-0.08937 0.65485,-0.368911 1.45521,-0.621205 l 1.45521,-0.458713 v -3.129084 c 0,-2.256314 -0.0966,-3.209285 -0.34647,-3.416628 -0.19056,-0.15815 -3.0962,-1.241801 -6.45696,-2.408111 l -6.11048,-2.120566 -1.52197,0.523631 c -0.83708,0.287997 -1.62238,0.523632 -1.74512,0.523632 -0.12274,0 -0.22316,-0.771162 -0.22316,-1.713693 0,-1.485331 0.0793,-1.765609 0.59531,-2.103308 0.75865,-0.496519 14.79306,-5.011998 17.70948,-5.69791 5.1535,-1.21205 10.0774,-1.226634 13.50156,-0.03999 1.50977,0.523211 1.51382,0.523197 3.4048,-0.01193 1.51622,-0.429078 2.10157,-0.482891 2.93939,-0.270228 0.89404,0.22693 1.3776,0.153508 3.32556,-0.504945 2.46687,-0.833854 3.24617,-0.926587 4.07211,-0.484557 0.66125,0.35389 1.534,2.218051 1.5418,3.293219 0.009,1.31238 -0.61394,1.875696 -2.92942,2.646822 -2.06868,0.688935 -2.13599,0.737253 -1.96536,1.410885 0.30551,1.206137 0.46971,4.225991 0.2837,5.217501 -0.24201,1.290039 -1.89063,3.017387 -3.74778,3.926742 -0.82881,0.405828 -2.82793,1.195374 -4.44248,1.754544 -12.35108,4.277559 -15.38508,5.273919 -15.99628,5.253143 -0.38369,-0.01304 -1.62034,-0.334893 -2.74813,-0.715232 z m -16.0488,-6.064705 -1.16599,-0.411871 1.24529,-0.472702 c 1.19585,-0.453938 1.29989,-0.453917 2.62119,5.29e-4 l 1.37592,0.47326 -1.43708,0.432202 c -0.7904,0.237713 -1.44524,0.422802 -1.45521,0.411314 -0.01,-0.01148 -0.54282,-0.20623 -1.18412,-0.432761 z m -4.72098,-1.728303 c -0.47295,-0.151715 -0.8599,-0.362212 -0.8599,-0.46777 0,-0.105558 0.51733,-0.336767 1.14962,-0.513797 0.90817,-0.25427 1.38052,-0.252695 2.24896,0.0075 0.60463,0.18116 1.09934,0.410747 1.09934,0.510198 0,0.210736 -1.87389,0.806429 -2.41195,0.766739 -0.2014,-0.01487 -0.75313,-0.15114 -1.22607,-0.302858 z"
         id="path1811"
         inkscape:connector-curvature="0" />
      <path
         style="fill:#575757;stroke-width:0.26458332"
         d="m -165.05577,89.814189 c -3.15821,-1.041765 -5.87912,-2.031368 -6.04646,-2.199119 -0.27874,-0.279421 -0.73616,-5.912707 -0.48011,-5.912707 0.5598,0 12.8135,4.306842 12.97426,4.560099 0.11685,0.184081 0.21428,1.495552 0.2165,2.91438 0.004,2.29109 -0.0477,2.576991 -0.45897,2.555576 -0.25466,-0.01326 -3.04701,-0.876464 -6.20522,-1.918229 z m 6.09326,-0.719032 c -0.058,-1.027192 -0.23944,-1.950384 -0.40311,-2.051537 -0.62974,-0.389202 -10.68301,-2.744578 -11.07403,-2.59453 -0.30914,0.118626 -0.39227,0.465209 -0.33175,1.383096 l 0.0807,1.224804 5.55625,1.934281 c 3.05594,1.063853 5.71851,1.942656 5.91684,1.952892 0.28148,0.01453 0.33743,-0.391104 0.25505,-1.849006 z m 14.81485,0.325533 c -1.1176,-0.388776 -2.09842,-0.774877 -2.1796,-0.857999 -0.0812,-0.08312 0.5058,-0.357097 1.3044,-0.608833 l 1.452,-0.457702 0.009,-3.227626 0.009,-3.227625 0.55098,0.661458 c 0.30304,0.363802 0.69351,0.864497 0.86772,1.112658 0.20623,0.293769 0.51865,0.398399 0.89543,0.29987 0.48295,-0.126296 0.57868,-0.341122 0.57868,-1.298646 0,-0.631023 -0.13646,-1.446813 -0.30325,-1.812867 -0.35545,-0.780137 -0.87485,-0.991817 -10.65019,-4.340436 -3.76881,-1.29104 -6.74537,-2.411299 -6.61458,-2.489465 0.58429,-0.349178 15.66491,-5.03786 17.3008,-5.378953 2.8159,-0.587132 6.8455,-0.937564 8.60159,-0.748033 0.87313,0.09423 2.50931,0.458681 3.63597,0.809882 1.96043,0.611106 2.10746,0.621024 3.42146,0.23081 2.44378,-0.725726 4.54963,-0.486442 5.68167,0.645599 l 0.72812,0.728118 2.64494,-0.890726 c 1.4547,-0.4899 2.67183,-0.890727 2.70471,-0.890727 0.26778,0 0.64715,2.074557 0.51155,2.797373 -0.20479,1.091597 -0.72501,1.454354 -3.2171,2.243328 l -1.88034,0.595297 0.35898,1.192802 c 0.46043,1.529866 0.46121,4.320625 0.002,5.42081 -0.44157,1.05683 -1.89481,2.358713 -3.5942,3.21986 -0.70747,0.3585 -3.41175,1.384242 -6.00951,2.279428 -2.59776,0.895185 -6.74726,2.326108 -9.22111,3.179825 -2.47386,0.853721 -4.73605,1.544834 -5.02709,1.535806 -0.29104,-0.009 -1.44356,-0.334507 -2.56117,-0.723286 z m -15.94872,-6.043319 c -0.56623,-0.196035 -1.07467,-0.40159 -1.12987,-0.456792 -0.0552,-0.0552 0.4121,-0.273921 1.03845,-0.486042 1.01542,-0.343887 1.27746,-0.33904 2.41841,0.04473 l 1.27959,0.430408 -1.28853,0.412059 c -1.1074,0.354132 -1.43327,0.361953 -2.31805,0.05563 z m -4.97187,-1.717944 c -0.97012,-0.354317 -0.91714,-0.647224 0.18271,-1.010209 0.69061,-0.227922 1.16956,-0.222766 1.98438,0.02135 0.59073,0.176996 1.07405,0.403175 1.07405,0.502626 0,0.183563 -1.8511,0.811136 -2.27965,0.772862 -0.12864,-0.01148 -0.56131,-0.140473 -0.96149,-0.286631 z"
         id="path1809"
         inkscape:connector-curvature="0" />
      <path
         style="fill:#494949;stroke-width:0.26458332"
         d="m -164.97287,89.777139 c -3.25814,-1.069909 -6.02452,-2.104033 -6.14751,-2.298054 -0.123,-0.194019 -0.22545,-1.563865 -0.22768,-3.044097 l -0.004,-2.691334 6.01927,1.990773 c 3.82718,1.265774 6.1879,2.184312 6.48229,2.522209 0.37037,0.425085 0.46303,1.02857 0.46303,3.015662 0,1.82009 -0.0884,2.479673 -0.33073,2.467182 -0.1819,-0.0094 -2.99648,-0.892432 -6.25462,-1.962341 z m 6.05213,-0.600297 c -0.002,-0.982266 -0.10441,-1.94424 -0.22707,-2.137722 -0.12265,-0.193479 -2.51914,-0.92819 -5.32551,-1.632686 -6.05813,-1.520798 -6.42478,-1.495755 -6.29801,0.430131 l 0.0807,1.225828 5.42396,1.928743 c 2.98318,1.06081 5.63232,1.938396 5.88698,1.950194 0.39774,0.01842 0.46245,-0.230357 0.45897,-1.764488 z m 14.75457,0.253243 c -1.12779,-0.380336 -2.05053,-0.765479 -2.05053,-0.855877 0,-0.0904 0.56555,-0.339722 1.25678,-0.554058 l 1.25677,-0.3897 0.0757,-2.56717 c 0.0902,-3.057294 0.42622,-3.289834 1.90865,-1.320763 l 0.92604,1.230046 0.0764,-2.294755 c 0.0897,-2.694162 -0.12758,-3.227784 -1.57905,-3.877628 l -1.06306,-0.475945 11.27252,-3.757483 c 6.19988,-2.066615 11.21058,-3.857694 11.13489,-3.980174 -0.0757,-0.122481 -0.58246,-0.368499 -1.12614,-0.546706 -0.54368,-0.178207 -1.52428,-0.557969 -2.17913,-0.843915 l -1.19062,-0.519902 1.05833,-0.478682 c 1.99034,-0.900224 3.92072,-0.511456 5.23888,1.055084 l 0.71624,0.851211 2.52926,-0.842621 c 1.39109,-0.463442 2.61103,-0.760845 2.71098,-0.660896 0.32156,0.321555 0.19346,2.423418 -0.17474,2.867058 -0.19605,0.23623 -1.35986,0.756282 -2.58624,1.155671 -1.75268,0.570783 -2.19356,0.813106 -2.06044,1.132509 0.38589,0.925962 0.62493,2.345362 0.6254,3.713641 7.9e-4,2.524866 -1.17245,4.270846 -3.75566,5.588704 -0.97491,0.497363 -8.94695,3.374395 -11.04889,3.987434 -0.50932,0.148548 -1.03581,0.336555 -1.16997,0.417793 -0.53588,0.324475 -7.91929,2.704497 -8.32133,2.682356 -0.23681,-0.01304 -1.3533,-0.334893 -2.48109,-0.715232 z m -15.74271,-5.961469 c -0.98214,-0.291598 -1.08277,-0.570021 -0.34812,-0.963195 0.67953,-0.36367 1.81928,-0.327824 2.7944,0.08789 l 0.79262,0.337916 -1.1895,0.396345 c -0.87291,0.290857 -1.41837,0.328396 -2.0494,0.141045 z m -4.89479,-1.809189 c -0.94951,-0.346792 -0.91957,-0.63213 0.10376,-0.988865 0.82733,-0.288406 2.8728,0.06948 2.8728,0.502634 0,0.1568 -1.87009,0.829871 -2.14736,0.772862 -0.0559,-0.01148 -0.42902,-0.140473 -0.8292,-0.286631 z"
         id="path1807"
         inkscape:connector-curvature="0" />
      <path
         style="fill:#2d2d2d;stroke-width:0.26458332"
         d="m -140.70013,84.877363 c -0.0218,-2.764896 -0.0516,-5.165328 -0.0661,-5.334293 -0.0146,-0.168966 1.34276,-0.765469 3.01625,-1.325566 1.67349,-0.560093 3.08482,-1.143502 3.13629,-1.296463 0.0548,-0.162962 0.30132,-0.09012 0.59531,0.175948 0.45858,0.415004 0.50173,0.880456 0.50173,5.411824 0,4.476692 -0.0449,4.975243 -0.46302,5.137851 -0.80689,0.313825 -6.47044,2.257782 -6.57785,2.257782 -0.0566,0 -0.12074,-2.262187 -0.14257,-5.027083 z m -18.21656,3.184308 c 0,-0.984798 -0.1159,-1.372656 -0.46302,-1.549511 -0.25466,-0.129749 -2.51492,-0.742863 -5.02278,-1.36248 -3.26973,-0.807844 -4.82298,-1.077193 -5.49011,-0.95204 -0.9154,0.171731 -0.93034,0.195586 -0.93034,1.485461 0,0.721011 -0.11906,1.310929 -0.26458,1.310929 -0.15783,0 -0.26459,-1.014236 -0.26459,-2.513542 0,-1.382448 0.10795,-2.513542 0.23989,-2.513542 0.13194,0 2.84061,0.841516 6.01927,1.870036 3.79936,1.22936 5.93802,2.055222 6.2424,2.410563 0.50543,0.590028 0.66644,3.127734 0.19844,3.127734 -0.14552,0 -0.26458,-0.591124 -0.26458,-1.313608 z m 25.87387,-6.026261 c -0.0423,-2.875312 0.0144,-5.268235 0.12616,-5.317609 0.11174,-0.04937 0.37113,-0.25773 0.57642,-0.463021 0.32127,-0.321278 0.43114,-0.315356 0.78902,0.04252 0.3486,0.348597 0.41577,1.22242 0.41577,5.408343 0,2.745914 -0.0893,5.042667 -0.19843,5.103894 -0.10914,0.06123 -0.52098,0.188362 -0.91519,0.282517 l -0.71675,0.171188 z m 2.38124,-0.796068 c -0.0423,-2.874036 0.0144,-5.265917 0.12617,-5.315291 0.11174,-0.04937 0.39415,-0.28076 0.62759,-0.514194 0.38951,-0.389511 0.45442,-0.38341 0.78903,0.07419 0.27898,0.38154 0.36459,1.661083 0.36459,5.44925 v 4.950632 l -0.83323,0.290464 c -0.45828,0.159758 -0.87012,0.290468 -0.9152,0.290468 -0.0451,0 -0.11661,-2.351484 -0.15895,-5.225521 z m 2.38124,-0.79375 c -0.0423,-2.874036 0.0144,-5.265917 0.12618,-5.315291 0.11174,-0.04937 0.39415,-0.28076 0.62759,-0.514194 0.38951,-0.389511 0.45442,-0.38341 0.78902,0.07419 0.27827,0.380556 0.3646,1.64405 0.3646,5.336048 v 4.837427 l -0.78061,0.403669 c -0.42933,0.222018 -0.84117,0.40367 -0.9152,0.40367 -0.074,0 -0.16923,-2.351484 -0.21158,-5.225521 z m 2.43656,-0.444161 c 0,-2.678705 -0.0675,-5.046141 -0.14989,-5.260972 -0.11573,-0.301599 0.65267,-0.658119 3.37231,-1.564666 l 3.5222,-1.174068 -0.90236,-0.824179 c -0.49629,-0.453298 -1.23993,-0.964004 -1.65252,-1.134904 -1.00857,-0.417764 -0.94656,-0.639653 0.32042,-1.146598 1.37008,-0.548197 1.86785,-0.29306 2.65063,1.358606 0.32876,0.69369 0.61683,1.289682 0.64016,1.324427 0.0233,0.03475 1.14205,-0.305625 2.48605,-0.75638 1.344,-0.450755 2.50506,-0.758137 2.58012,-0.683072 0.0751,0.07506 -0.0393,0.476419 -0.25416,0.8919 -0.32066,0.620082 -0.80167,0.889275 -2.68491,1.502576 -1.79403,0.584251 -2.26011,0.836155 -2.13764,1.155319 0.84812,2.210176 0.83078,5.25889 -0.0384,6.754683 -0.6987,1.20237 -2.9922,2.699387 -5.56916,3.635102 l -2.18282,0.792596 z m -33.33749,2.891557 c 0,-0.730827 0.23462,-0.775592 1.55739,-0.297132 l 0.89593,0.324069 -1.05892,0.31726 c -1.39837,0.418965 -1.3944,0.419944 -1.3944,-0.344197 z m -4.7625,-1.719792 c 0,-0.669221 0.0898,-0.815914 0.42145,-0.688636 0.2318,0.08895 0.70805,0.233656 1.05833,0.321572 0.81477,0.204494 0.81477,0.529635 0,0.734129 -0.35028,0.08792 -0.82653,0.232622 -1.05833,0.321572 -0.33168,0.127278 -0.42145,-0.01941 -0.42145,-0.688637 z"
         id="path1805"
         inkscape:connector-curvature="0" />
      <path
         style="fill:#1c1c1c;stroke-width:0.26458332"
         d="m -134.36336,87.47028 c 0.22005,-0.220052 0.3175,-1.59579 0.3175,-4.482301 0,-2.491132 0.10632,-4.230516 0.26458,-4.328324 0.17227,-0.106468 0.26458,1.346629 0.26458,4.164801 0,4.240082 -0.13108,4.963323 -0.89958,4.963323 -0.14699,0 -0.12347,-0.14111 0.0529,-0.317499 z m 2.64946,-4.929918 c 0.11058,-5.875501 0.57845,-6.301298 0.57845,-0.526436 0,3.185816 -0.0905,4.461422 -0.33073,4.661225 -0.26289,0.21866 -0.3137,-0.629475 -0.24772,-4.134789 z m 2.38472,-0.766278 c 0.11295,-5.79519 0.57498,-6.361205 0.57498,-0.704374 0,2.970546 -0.0988,4.370991 -0.33073,4.6887 -0.26827,0.367466 -0.3144,-0.384964 -0.24425,-3.984326 z m -35.4919,2.973646 c -1.86496,-0.481428 -3.45659,-0.94107 -3.53695,-1.021426 -0.0803,-0.08036 0.13628,-0.216977 0.48141,-0.303602 0.39463,-0.09904 1.80552,0.248465 3.80154,0.936329 4.73487,1.631725 4.51436,1.746623 -0.746,0.388699 z m 37.86967,-4.037202 c 0.10901,-5.820656 0.57846,-6.364581 0.57846,-0.670222 0,4.044558 -0.10175,5.101185 -0.49133,5.101992 -0.0936,1.96e-4 -0.13277,-1.994101 -0.0871,-4.43177 z"
         id="path1803"
         inkscape:connector-curvature="0" />
    </g>
    <g
       transform="translate(-17.470211,-101.20638)"
       id="g881">
      <rect
         style="opacity:1;fill:#262626;fill-opacity:1;stroke:none;stroke-width:0.05701861;stroke-linejoin:miter;stroke-miterlimit:4;stroke-dasharray:none;stroke-opacity:1;paint-order:normal"
         id="rect861"
         width="1.7135255"
         height="0.30238685"
         x="53.209049"
         y="131.54787"
         ry="0.0071996828" />
      <rect
         style="opacity:1;fill:#404040;fill-opacity:1;stroke:#bfbfbf;stroke-width:0.18852973;stroke-linejoin:miter;stroke-miterlimit:4;stroke-dasharray:none;stroke-opacity:1;paint-order:normal"
         id="rect859"
         width="2.058428"
         height="3.4911678"
         x="53.026112"
         y="127.9771" />
      <rect
         style="opacity:1;fill:#393939;fill-opacity:1;stroke:none;stroke-width:0.05701861;stroke-linejoin:miter;stroke-miterlimit:4;stroke-dasharray:none;stroke-opacity:1;paint-order:normal"
         id="rect863"
         width="2.2823009"
         height="0.27358809"
         x="52.91386"
         y="131.84641"
         ry="0.0071996828" />
      <rect
         style="opacity:1;fill:#28ff28;fill-opacity:1;stroke:none;stroke-width:0.05701861;stroke-linejoin:miter;stroke-miterlimit:4;stroke-dasharray:none;stroke-opacity:1;paint-order:normal"
         id="rect865"
         width="0.57597494"
         height="0.59757406"
         x="53.785023"
         y="128.73633"
         ry="0.0071996828" />
    </g>
    <path
       inkscape:connector-curvature="0"
       id="path1886"
       d="m 28.614544,27.174708 -1.369756,1.45328 1.336347,1.36975"
       style="fill:none;stroke:#bfbfbf;stroke-width:0.5291667;stroke-linecap:butt;stroke-linejoin:miter;stroke-miterlimit:4;stroke-dasharray:none;stroke-opacity:1" />
    <path
       inkscape:connector-curvature="0"
       id="path1888"
       d="M 27.244788,28.627988 H 30.10123"
       style="fill:none;stroke:#bfbfbf;stroke-width:0.5291667;stroke-linecap:butt;stroke-linejoin:miter;stroke-miterlimit:4;stroke-dasharray:none;stroke-opacity:1" />
    <text
       xml:space="preserve"
       style="font-style:normal;font-weight:normal;font-size:2.11666656px;line-height:1.25;font-family:sans-serif;letter-spacing:0px;word-spacing:0px;fill:#000000;fill-opacity:1;stroke:none;stroke-width:0.26458332"
       x="39.6875"
       y="29.95982"
       id="text1899"><tspan
         sodipodi:role="line"
         id="tspan1897"
         x="39.6875"
         y="29.95982"
         style="font-size:2.82222223px;stroke-width:0.26458332">Update Drivers - ATmega32U2</tspan></text>
    <text
       xml:space="preserve"
       style="font-style:normal;font-weight:normal;font-size:2.11666656px;line-height:1.25;font-family:sans-serif;letter-spacing:0px;word-spacing:0px;fill:#01349d;fill-opacity:1;stroke:none;stroke-width:0.26458332"
       x="35.079128"
       y="43.561668"
       id="text1903"><tspan
         sodipodi:role="line"
         id="tspan1901"
         x="35.079128"
         y="43.561668"
         style="font-size:3.52777767px;fill:#01349d;fill-opacity:1;stroke-width:0.26458332">Windows has successfully updated your drivers</tspan></text>
    <text
       xml:space="preserve"
       style="font-style:normal;font-weight:normal;font-size:2.11666656px;line-height:1.25;font-family:sans-serif;letter-spacing:0px;word-spacing:0px;fill:#000000;fill-opacity:1;stroke:none;stroke-width:0.26458332"
       x="35.102554"
       y="55.856068"
       id="text1907"><tspan
         sodipodi:role="line"
         id="tspan1905"
         x="35.102554"
         y="55.856068"
         style="font-size:2.82222223px;stroke-width:0.26458332">Windows has finished installing the drivers for this device:</tspan></text>
    <text
       xml:space="preserve"
       style="font-style:normal;font-weight:normal;font-size:2.11666656px;line-height:1.25;font-family:sans-serif;letter-spacing:0px;word-spacing:0px;fill:#000000;fill-opacity:1;stroke:none;stroke-width:0.26458332"
       x="49.845764"
       y="67.782974"
       id="text1911"><tspan
         sodipodi:role="line"
         id="tspan1909"
         x="49.845764"
         y="67.782974"
         style="font-size:2.82222223px;stroke-width:0.26458332">ATmega32U2</tspan></text>
    <path
       style="fill:none;stroke:#000000;stroke-width:0.26458332px;stroke-linecap:butt;stroke-linejoin:miter;stroke-opacity:1"
       d="m 181.14509,19.010323 2.42141,2.468657"
       id="path1913"
       inkscape:connector-curvature="0" />
    <path
       style="fill:none;stroke:#000000;stroke-width:0.26458332px;stroke-linecap:butt;stroke-linejoin:miter;stroke-opacity:1"
       d="m 183.54287,19.010323 -2.40959,2.468657"
       id="path1915"
       inkscape:connector-curvature="0" />
    <rect
       style="opacity:1;fill:#e1e1e1;fill-opacity:1;stroke:none;stroke-width:0.26458332;stroke-linejoin:miter;stroke-miterlimit:4;stroke-dasharray:none;stroke-opacity:1;paint-order:normal"
       id="rect1927"
       width="162.15556"
       height="10.681606"
       x="24.851934"
       y="141.84077" />
    <rect
       style="opacity:1;fill:#e1e1e1;fill-opacity:1;stroke:#1f87da;stroke-width:0.26458332;stroke-linejoin:miter;stroke-miterlimit:4;stroke-dasharray:none;stroke-opacity:1;paint-order:normal"
       id="rect1923"
       width="17.646763"
       height="5.8113837"
       x="166.30952"
       y="144.22675" />
    <text
       xml:space="preserve"
       style="font-style:normal;font-weight:normal;font-size:2.11666656px;line-height:1.25;font-family:sans-serif;letter-spacing:0px;word-spacing:0px;fill:#000000;fill-opacity:1;stroke:none;stroke-width:0.26458332"
       x="171.36496"
       y="148.14824"
       id="text1919"><tspan
         sodipodi:role="line"
         id="tspan1917"
         x="171.36496"
         y="148.14824"
         style="font-size:2.82222223px;stroke-width:0.26458332">Close</tspan></text>
    <path
       style="fill:none;stroke:#000000;stroke-width:0.26458332px;stroke-linecap:butt;stroke-linejoin:miter;stroke-opacity:1"
       d="m 171.4701,148.64035 h 1.77902"
       id="path1921"
       inkscape:connector-curvature="0" />
    <rect
       style="opacity:1;fill:none;fill-opacity:1;stroke:#1f87da;stroke-width:0.26458332;stroke-linejoin:miter;stroke-miterlimit:4;stroke-dasharray:none;stroke-opacity:1;paint-order:normal"
       id="rect1925"
       width="162.34833"
       height="135.89"
       x="24.659166"
       y="16.632381" />
  </g>
</svg>
