<?xml version="1.0" encoding="UTF-8" standalone="no"?>
<svg
   xmlns:dc="http://purl.org/dc/elements/1.1/"
   xmlns:cc="http://creativecommons.org/ns#"
   xmlns:rdf="http://www.w3.org/1999/02/22-rdf-syntax-ns#"
   xmlns:svg="http://www.w3.org/2000/svg"
   xmlns="http://www.w3.org/2000/svg"
   xmlns:sodipodi="http://sodipodi.sourceforge.net/DTD/sodipodi-0.dtd"
   xmlns:inkscape="http://www.inkscape.org/namespaces/inkscape"
   version="1.1"
   x="0px"
   y="0px"
   width="29.70248"
   height="72.082809"
   viewBox="0 0 23.761984 57.664123"
   id="svg2"
   inkscape:version="0.48.4 r9939"
   sodipodi:docname="led-rgb.svg">
  <metadata
     id="metadata44">
    <rdf:RDF>
      <cc:Work
         rdf:about="">
        <dc:format>image/svg+xml</dc:format>
        <dc:type
           rdf:resource="http://purl.org/dc/dcmitype/StillImage" />
      </cc:Work>
    </rdf:RDF>
  </metadata>
  <defs
     id="defs42" />
  <sodipodi:namedview
     pagecolor="#ffffff"
     bordercolor="#666666"
     borderopacity="1"
     objecttolerance="10"
     gridtolerance="10"
     guidetolerance="10"
     inkscape:pageopacity="0"
     inkscape:pageshadow="2"
     inkscape:window-width="1280"
     inkscape:window-height="740"
     id="namedview40"
     showgrid="false"
     fit-margin-top="0"
     fit-margin-left="0"
     fit-margin-right="0"
     fit-margin-bottom="0"
     inkscape:zoom="5.8000935"
     inkscape:cx="14.852479"
     inkscape:cy="48.047069"
     inkscape:window-x="-4"
     inkscape:window-y="-4"
     inkscape:window-maximized="1"
     inkscape:current-layer="svg2" />
  <g
     id="breadboard"
     transform="matrix(1,0,0,1.0540728,0.00198304,-0.00100569)">
    <rect
       id="connector0pin"
       y="22"
       width="1"
       height="1"
       x="0"
       style="fill:none" />
    <rect
       id="connector1pin"
       x="7.1989999"
       y="22"
       width="1"
       height="1"
       style="fill:none" />
    <rect
       id="connector2pin"
       x="14.399"
       y="22"
       width="1"
       height="1"
       style="fill:none" />
    <rect
       id="connector3pin"
       x="21.598"
       y="22"
       width="1"
       height="1"
       style="fill:none" />
    <line
       id="connector0leg"
       x1="1.08"
       y1="32.549999"
       x2="1.08"
       y2="53.549999"
       style="fill:none;stroke:#8c8c8c;stroke-width:2.16000009;stroke-linecap:round" />
    <line
       id="connector1leg"
       x1="8.2799997"
       y1="32.549999"
       x2="8.2799997"
       y2="53.549999"
       style="fill:none;stroke:#8c8c8c;stroke-width:2.16000009;stroke-linecap:round" />
    <line
       id="connector2leg"
       x1="15.48"
       y1="32.549999"
       x2="15.48"
       y2="53.549999"
       style="fill:none;stroke:#8c8c8c;stroke-width:2.16000009;stroke-linecap:round" />
    <line
       id="connector3leg"
       x1="22.68"
       y1="32.549999"
       x2="22.68"
       y2="53.549999"
       style="fill:none;stroke:#8c8c8c;stroke-width:2.16000009;stroke-linecap:round" />
    <g
       id="rgbled">
      <path
         d="m 8.993,18.012 v 5.006 c 0,1.174 -0.417,2.494 -0.857,3.892 -0.464,1.469 -0.942,2.986 -0.942,4.449 v 1.188 h 0.008 v 0 H 9.36 v 0 H 9.354 v -1.188 c 0,-1.129 0.409,-2.426 0.842,-3.799 0.473,-1.493 0.959,-3.036 0.959,-4.542 V 18.012 H 8.993 l 0,0 z"
         id="path14"
         inkscape:connector-curvature="0"
         style="fill:#8c8c8c" />
      <path
         d="m 5.363,18.012 c 0,0 0,3.994 0,5.186 0,1.192 -1.271,2.302 -2.39,3.428 C 1.511,28.097 0,29.618 0,31.359 v 1.188 0 h 2.16 v 0 -1.023 c 0,-1.096 1.246,-2.27 2.345,-3.373 1.483,-1.493 3.019,-3.038 3.019,-4.821 v -5.314 l -2.161,-0.004 0,0 z"
         id="path16"
         inkscape:connector-curvature="0"
         style="fill:#8c8c8c" />
      <path
         d="m 15.623,26.91 c -0.441,-1.396 -0.857,-2.718 -0.857,-3.892 v -5.006 h -2.159 v 5.006 c 0,1.506 0.485,3.049 0.957,4.542 0.436,1.373 0.844,2.67 0.844,3.799 v 1.188 H 14.4 v 0 h 2.159 v 0 h 0.009 V 31.359 C 16.567,29.896 16.086,28.376 15.623,26.91 z"
         id="path18"
         inkscape:connector-curvature="0"
         style="fill:#8c8c8c" />
      <path
         d="m 20.786,26.625 c -1.12,-1.127 -2.391,-2.236 -2.391,-3.428 0,-1.192 0,-5.186 0,-5.186 h -2.16 v 5.313 c 0,1.784 1.535,3.329 3.019,4.822 1.101,1.104 2.346,2.274 2.346,3.373 v 1.022 0 h 2.16 v 0 -1.185 c 0,-1.738 -1.512,-3.259 -2.974,-4.731 z"
         id="path20"
         inkscape:connector-curvature="0"
         style="fill:#8c8c8c" />
      <path
         d="M 19.133,13.176 V 7.184 C 19.133,3.216 15.916,0 11.948,0 7.982,0 4.765,3.216 4.765,7.184 v 13.834 c 1.5,1.674 4.153,2.789 7.184,2.789 4.687,0 8.48,-2.658 8.48,-5.938 v -1.547 c 0.003,-1.155 -0.479,-2.233 -1.296,-3.146 z"
         id="path22"
         inkscape:connector-curvature="0"
         style="opacity:0.5;fill:#e6e6e6" />
      <path
         d="m 19.133,13.176 v 3.146 c 0,2.777 -3.217,5.029 -7.185,5.029 -3.966,0 -7.184,-2.252 -7.184,-5.029 v 3.148 1.547 c 1.5,1.672 4.153,2.789 7.184,2.789 4.687,0 8.48,-2.658 8.48,-5.938 v -1.546 c 0.004,-1.155 -0.478,-2.233 -1.295,-3.146 z"
         id="path24"
         inkscape:connector-curvature="0"
         style="opacity:0.9;fill:#d1d1d1" />
      <path
         d="m 19.133,13.176 v 3.146 c 0,2.777 -3.217,5.029 -7.185,5.029 -3.966,0 -7.184,-2.252 -7.184,-5.029 v 3.148 c 1.5,1.674 4.153,2.789 7.184,2.789 4.687,0 8.48,-2.658 8.48,-5.938 0.004,-1.154 -0.478,-2.232 -1.295,-3.145 z"
         id="path26"
         inkscape:connector-curvature="0"
         style="opacity:0.23999999" />
      <ellipse
         cx="11.95"
         cy="16.323"
         rx="7.1830001"
         ry="5.0289998"
         id="ellipse28"
         sodipodi:cx="11.95"
         sodipodi:cy="16.323"
         sodipodi:rx="7.1830001"
         sodipodi:ry="5.0289998"
         style="opacity:0.5;fill:#cccccc"
         d="m 19.133,16.323 c 0,2.77744 -3.215939,5.029 -7.183,5.029 -3.9670616,0 -7.1830003,-2.25156 -7.1830003,-5.029 0,-2.77744 3.2159387,-5.029 7.1830003,-5.029 3.967061,0 7.183,2.25156 7.183,5.029 z" />
      <polygon
         points="16.903,8.637 15.692,8.637 16.133,9.153 12.981,12.518 15.978,12.518 15.978,13.268 15.978,16.325 16.903,16.325 "
         id="polygon30"
         style="fill:#999999" />
      <polygon
         points="8.865,16.323 8.865,12.518 11.563,12.518 14.916,8.921 12.729,8.921 12.223,9.796 10.278,9.796 9.772,8.921 8.22,8.921 6.999,9.776 6.999,16.325 "
         id="polygon32"
         style="fill:#999999" />
      <path
         d="M 15.295,3.801 16.754,3.524 C 15.905,2.375 14.646,1.538 13.166,1.253 l 0.252,1.097 c 0.776,0.275 1.428,0.791 1.877,1.451 z"
         id="path34"
         inkscape:connector-curvature="0"
         style="opacity:0.6;fill:#ffffff" />
      <path
         d="m 5.545,20.196 v 1.546 c 0.66,0.536 1.447,0.989 2.34,1.334 V 21.528 C 6.992,21.186 6.205,20.731 5.545,20.196 z"
         id="path36"
         inkscape:connector-curvature="0"
         style="opacity:0.6;fill:#ffffff" />
      <path
         d="m 15.987,20.481 c -0.264,0.125 -0.537,0.233 -0.821,0.334 -0.06,0.021 -0.119,0.041 -0.181,0.062 -0.569,0.188 -1.184,0.321 -1.821,0.397 -0.076,0.011 -0.154,0.019 -0.23,0.025 -0.321,0.03 -0.647,0.053 -0.983,0.053 -0.148,0 -0.312,-0.01 -0.478,-0.024 C 10.25,21.27 9.111,21.011 8.129,20.578 V 12.071 7.184 c 0,-1.49 0.86,-2.766 2.104,-3.396 L 10.212,3.737 8.946,2.203 C 7.257,3.223 6.115,5.065 6.115,7.182 V 19.25 C 6.066,19.201 5.802,18.938 5.63,18.716 l -0.312,0.699 c 1.426,1.503 3.861,2.497 6.632,2.497 1.703,0 3.277,-0.379 4.572,-1.019 l -0.531,-0.412 c -0.004,0 -0.004,0 -0.004,0 z"
         id="path38"
         inkscape:connector-curvature="0"
         style="opacity:0.6;fill:#ffffff" />
    </g>
  </g>
</svg>
