<?xml version="1.0" encoding="UTF-8" standalone="no"?>
<svg
   xmlns:dc="http://purl.org/dc/elements/1.1/"
   xmlns:cc="http://creativecommons.org/ns#"
   xmlns:rdf="http://www.w3.org/1999/02/22-rdf-syntax-ns#"
   xmlns:svg="http://www.w3.org/2000/svg"
   xmlns="http://www.w3.org/2000/svg"
   xmlns:sodipodi="http://sodipodi.sourceforge.net/DTD/sodipodi-0.dtd"
   xmlns:inkscape="http://www.inkscape.org/namespaces/inkscape"
   version="1.1"
   id="Layer_1"
   x="0px"
   y="0px"
   width="19.320299"
   height="72.015839"
   viewBox="0 0 21.466998 80.0176"
   inkscape:version="0.48.4 r9939"
   sodipodi:docname="LED-5mm-red-leg.svg">
  <metadata
     id="metadata30">
    <rdf:RDF>
      <cc:Work
         rdf:about="">
        <dc:format>image/svg+xml</dc:format>
        <dc:type
           rdf:resource="http://purl.org/dc/dcmitype/StillImage" />
        <dc:title />
      </cc:Work>
    </rdf:RDF>
  </metadata>
  <defs
     id="defs28" />
  <sodipodi:namedview
     pagecolor="#ffffff"
     bordercolor="#666666"
     borderopacity="1"
     objecttolerance="10"
     gridtolerance="10"
     guidetolerance="10"
     inkscape:pageopacity="0"
     inkscape:pageshadow="2"
     inkscape:window-width="1280"
     inkscape:window-height="740"
     id="namedview26"
     showgrid="false"
     fit-margin-top="0"
     fit-margin-left="0"
     fit-margin-right="0"
     fit-margin-bottom="0"
     inkscape:zoom="6.4642482"
     inkscape:cx="9.6601491"
     inkscape:cy="37.995459"
     inkscape:window-x="-4"
     inkscape:window-y="-4"
     inkscape:window-maximized="1"
     inkscape:current-layer="Layer_1" />
  <g
     id="breadboard"
     transform="scale(1,1.0494111)">
    <rect
       id="connector0pin"
       x="4.7930002"
       y="35.306999"
       width="2.9890001"
       height="1"
       style="fill:none" />
    <rect
       id="connector1pin"
       x="14.793"
       y="35.306999"
       width="2.9920001"
       height="1"
       style="fill:none" />
    <line
       id="connector0leg"
       x1="6.2870002"
       y1="40.564999"
       x2="6.2870002"
       y2="74.753998"
       style="fill:none;stroke:#8c8c8c;stroke-width:2.98799992;stroke-linecap:round" />
    <line
       id="connector1leg"
       x1="16.290001"
       y1="40.564999"
       x2="16.290001"
       y2="74.753998"
       style="fill:none;stroke:#8c8c8c;stroke-width:2.98799992;stroke-linecap:round" />
    <rect
       x="4.7930002"
       y="26.916"
       width="2.9879999"
       height="13.649"
       id="rect8"
       style="fill:#8c8c8c" />
    <path
       d="m 17.784,40.565 c 0,-1.63 -1.479,-2.92 -2.9,-4.155 -0.578,-0.51 -1.666,-1.391 -1.666,-1.979 v -7.598 h -3.002 v 8.028 c 0,1.47 1.316,2.609 2.703,3.817 0.617,0.522 1.873,1.736 1.873,2.458"
       id="path10"
       inkscape:connector-curvature="0"
       style="fill:#8c8c8c" />
    <g
       id="g12">
      <path
         id="color_path14"
         d="M 19.685,18.057 V 9.845 C 19.685,4.41 15.285,0 9.844,0 4.41,0 0,4.402 0,9.845 v 18.957 c 2.047,2.293 5.69,3.823 9.844,3.823 6.416,0 11.623,-3.636 11.623,-8.138 V 22.371 C 21.466,20.784 20.808,19.31 19.685,18.057 z"
         inkscape:connector-curvature="0"
         style="opacity:0.3;fill:#e60000" />
      <path
         id="path16"
         d="M 19.685,18.057 V 9.845 C 19.685,4.41 15.285,0 9.844,0 4.41,0 0,4.402 0,9.845 v 18.957 c 2.047,2.293 5.69,3.823 9.844,3.823 6.416,0 11.623,-3.636 11.623,-8.138 V 22.371 C 21.466,20.784 20.808,19.31 19.685,18.057 z"
         inkscape:connector-curvature="0"
         style="opacity:0.5;fill:#e6e6e6" />
      <path
         id="path18"
         d="m 19.685,18.057 v 4.313 c 0,3.804 -4.397,6.896 -9.841,6.896 C 4.41,29.266 0,26.184 0,22.37 v 4.313 2.117 c 2.047,2.294 5.69,3.823 9.844,3.823 6.416,0 11.623,-3.636 11.623,-8.137 V 22.37 c -10e-4,-1.586 -0.659,-3.06 -1.782,-4.313 z"
         inkscape:connector-curvature="0"
         style="opacity:0.9;fill:#d1d1d1" />
      <path
         id="color_path20"
         d="m 19.685,18.057 v 4.313 c 0,3.804 -4.397,6.896 -9.841,6.896 C 4.41,29.266 0,26.184 0,22.37 v 4.313 2.117 c 2.047,2.294 5.69,3.823 9.844,3.823 6.416,0 11.623,-3.636 11.623,-8.137 V 22.37 c -10e-4,-1.586 -0.659,-3.06 -1.782,-4.313 z"
         inkscape:connector-curvature="0"
         style="opacity:0.7;fill:#e60000" />
      <path
         id="color_path22"
         d="m 19.685,18.057 v 4.313 c 0,3.804 -4.397,6.896 -9.841,6.896 C 4.41,29.266 0,26.184 0,22.37 v 4.313 c 2.047,2.292 5.69,3.823 9.844,3.823 6.416,0 11.623,-3.636 11.623,-8.137 -10e-4,-1.585 -0.659,-3.059 -1.782,-4.312 z"
         inkscape:connector-curvature="0"
         style="opacity:0.25;fill:#e60000" />
      <ellipse
         id="ellipse24"
         cx="9.8439999"
         cy="22.370001"
         rx="9.8430004"
         ry="6.8899999"
         sodipodi:cx="9.8439999"
         sodipodi:cy="22.370001"
         sodipodi:rx="9.8430004"
         sodipodi:ry="6.8899999"
         style="opacity:0.25;fill:#e6e6e6"
         d="m 19.687,22.370001 c 0,3.805242 -4.406861,6.89 -9.8430001,6.89 -5.4361391,0 -9.84300044932,-3.084758 -9.84300044932,-6.89 0,-3.805242 4.40686134932,-6.89 9.84300044932,-6.89 5.4361391,0 9.8430001,3.084758 9.8430001,6.89 z" />
      <ellipse
         id="color_ellipse26"
         cx="9.8439999"
         cy="22.370001"
         rx="9.8430004"
         ry="6.8899999"
         sodipodi:cx="9.8439999"
         sodipodi:cy="22.370001"
         sodipodi:rx="9.8430004"
         sodipodi:ry="6.8899999"
         style="opacity:0.25;fill:#e60000"
         d="m 19.687,22.370001 c 0,3.805242 -4.406861,6.89 -9.8430001,6.89 -5.4361391,0 -9.84300044932,-3.084758 -9.84300044932,-6.89 0,-3.805242 4.40686134932,-6.89 9.84300044932,-6.89 5.4361391,0 9.8430001,3.084758 9.8430001,6.89 z" />
      <polygon
         id="polygon28"
         points="3.06,22.371 4.439,22.371 4.439,18.187 8.355,18.187 13.906,12.229 4.732,12.229 3.06,13.4 "
         style="fill:#666666" />
      <polygon
         id="polygon30"
         points="15.576,12.547 10.294,18.187 15.361,18.187 15.361,22.371 16.63,22.371 16.63,11.839 14.97,11.839 "
         style="fill:#666666" />
      <path
         id="color_path32"
         d="M 19.685,18.057 V 9.845 C 19.685,4.41 15.285,0 9.844,0 4.41,0 0,4.402 0,9.845 v 18.957 c 2.047,2.293 5.69,3.823 9.844,3.823 6.416,0 11.623,-3.636 11.623,-8.138 V 22.371 C 21.466,20.784 20.808,19.31 19.685,18.057 z"
         inkscape:connector-curvature="0"
         style="opacity:0.65;fill:#e60000" />
      <path
         id="path34"
         d="m 14.428,5.214 1.995,-0.38 C 15.254,3.262 13.531,2.115 11.504,1.725 l 0.353,1.501 c 1.061,0.376 1.954,1.084 2.571,1.988 z"
         inkscape:connector-curvature="0"
         style="opacity:0.5;fill:#ffffff" />
      <path
         id="path36"
         d="m 1.067,27.675 v 2.111 c 0.901,0.735 1.991,1.356 3.205,1.829 V 29.497 C 3.052,29.03 1.971,28.411 1.067,27.675 z"
         inkscape:connector-curvature="0"
         style="opacity:0.5;fill:#ffffff" />
      <path
         id="path38"
         d="m 15.379,28.069 c -0.355,0.17 -0.736,0.319 -1.119,0.458 -0.081,0.027 -0.163,0.056 -0.247,0.081 -0.783,0.249 -1.613,0.443 -2.493,0.548 -0.104,0.013 -0.21,0.026 -0.312,0.027 -0.445,0.042 -0.894,0.081 -1.348,0.081 -0.206,0 -0.427,-0.021 -0.655,-0.033 C 7.538,29.152 5.968,28.794 4.625,28.204 V 16.552 9.85 c 0,-2.043 1.178,-3.791 2.88,-4.652 L 7.474,5.124 5.741,3.024 C 3.422,4.417 1.866,6.944 1.866,9.846 V 26.381 C 1.797,26.312 1.438,25.952 1.199,25.645 L 0.772,26.6 c 1.946,2.058 5.29,3.419 9.087,3.419 2.333,0 4.496,-0.519 6.266,-1.392 l -0.732,-0.568 c -0.014,0.01 -0.014,0.01 -0.014,0.01 z"
         inkscape:connector-curvature="0"
         style="opacity:0.5;fill:#ffffff" />
    </g>
  </g>
</svg>
