<?xml version="1.0" encoding="UTF-8" standalone="no"?>
<!-- Created with Inkscape (http://www.inkscape.org/) -->

<svg
   xmlns:dc="http://purl.org/dc/elements/1.1/"
   xmlns:cc="http://creativecommons.org/ns#"
   xmlns:rdf="http://www.w3.org/1999/02/22-rdf-syntax-ns#"
   xmlns:svg="http://www.w3.org/2000/svg"
   xmlns="http://www.w3.org/2000/svg"
   xmlns:sodipodi="http://sodipodi.sourceforge.net/DTD/sodipodi-0.dtd"
   xmlns:inkscape="http://www.inkscape.org/namespaces/inkscape"
   width="1005"
   height="1005"
   viewBox="0 0 1005 1005"
   id="svg8945"
   version="1.1"
   inkscape:version="0.91 r13725"
   sodipodi:docname="STEMTera Logo V3 Path No Text.svg">
  <defs
     id="defs8947" />
  <sodipodi:namedview
     id="base"
     pagecolor="#ffffff"
     bordercolor="#666666"
     borderopacity="1.0"
     inkscape:pageopacity="0.0"
     inkscape:pageshadow="2"
     inkscape:zoom="0.45254834"
     inkscape:cx="56.618668"
     inkscape:cy="233.47846"
     inkscape:document-units="px"
     inkscape:current-layer="layer1"
     showgrid="true"
     fit-margin-top="0"
     fit-margin-left="0"
     fit-margin-right="0"
     fit-margin-bottom="0"
     units="px"
     inkscape:window-width="1920"
     inkscape:window-height="1017"
     inkscape:window-x="-8"
     inkscape:window-y="-8"
     inkscape:window-maximized="1">
    <inkscape:grid
       type="xygrid"
       id="grid9580"
       originx="-115.16694"
       originy="-222.96486" />
  </sodipodi:namedview>
  <metadata
     id="metadata8950">
    <rdf:RDF>
      <cc:Work
         rdf:about="">
        <dc:format>image/svg+xml</dc:format>
        <dc:type
           rdf:resource="http://purl.org/dc/dcmitype/StillImage" />
        <dc:title></dc:title>
      </cc:Work>
    </rdf:RDF>
  </metadata>
  <g
     inkscape:label="Layer 1"
     inkscape:groupmode="layer"
     id="layer1"
     transform="translate(-120.59557,-303.50918)">
    <g
       id="g4146"
       transform="translate(3.9870777,-4.2621028)">
      <path
         style="fill:#d8009b;fill-opacity:1;stroke:none;stroke-opacity:1"
         d="m 531.51828,1297.068 c 59.043,-18.7122 98.8638,-44.9204 127.2387,-83.7429 11.4192,-15.6236 23.9692,-42.1425 29.1307,-61.5541 4.0617,-15.2748 7.1,-35.4725 6.9092,-45.9266 -0.034,-1.8345 0.1,-5.2922 0.2972,-7.6839 0.1965,-2.3918 0.048,-4.4735 -0.3303,-4.6261 -0.3786,-0.1528 -0.4587,-0.6981 -0.1772,-1.2118 0.6626,-1.2135 -0.473,-16.7323 -1.8341,-25.053 -0.5836,-3.5695 -2.3694,-11.1007 -3.9682,-16.7358 -2.6233,-9.2451 -4.5249,-17.1273 -6.9879,-28.9667 -7.124,-34.2445 -8.119,-74.6432 -2.5408,-103.19529 3.6663,-18.76804 4.805,-22.66599 11.3556,-38.87005 12.4178,-30.72056 33.8534,-56.6178 62.8193,-75.89655 23.7871,-15.83179 52.1673,-26.46595 83.6975,-31.3617 46.8167,-7.26938 94.8806,-0.81959 135.369,18.16556 23.8724,13.21246 43.20132,32.26163 50.05892,39.6766 20.5669,22.96274 31.5162,40.81099 40.3242,65.73056 13.6897,38.73266 12.915,81.09467 -2.336,127.74597 -13.0964,40.0602 -42.6844,89.0481 -75.74812,125.4139 -21.1099,23.218 -47.5086,47.7285 -70.2023,65.1807 -2.7734,2.1326 -4.8107,3.9774 -4.5275,4.0996 0.2836,0.1211 -0.023,0.3185 -0.6773,0.4362 -0.6553,0.1177 -3.8145,2.1355 -7.0197,4.4839 -19.3054,14.1439 -45.4729,29.4866 -69.7624,40.9033 -11.4732,5.3926 -43.3649,17.6985 -56.5283,21.8121 -26.0801,8.1503 -63.6369,16.089 -90.4138,19.1114 -35.1904,3.9721 -77.5051,4.6205 -109.7835,1.6819 -4.9222,-0.4482 -10.1915,-0.9072 -11.7102,-1.0196 -5.9331,-0.4404 -30.7534,-4.2647 -36.2158,-5.5801 l -3.3854,-0.8153 z"
         id="path4162-9"
         inkscape:connector-curvature="0"
         sodipodi:nodetypes="sssscsssssssssccssscccssssscccs" />
      <path
         style="fill:#fa6800;fill-opacity:1;stroke:none;stroke-opacity:1"
         d="m 131.59145,722.46435 c 19.01387,58.94651 45.4254,98.6328 84.39241,126.80875 15.68188,11.33919 42.26452,23.75339 61.70235,28.81553 15.29531,3.98352 35.50826,6.91852 45.96134,6.67425 1.83429,-0.0436 5.29257,0.0728 7.68525,0.25792 2.39277,0.18421 4.47371,0.0252 4.62442,-0.35401 0.15078,-0.37939 0.69565,-0.4623 1.2108,-0.18343 1.21692,0.6564 16.72967,-0.55861 25.0433,-1.96218 3.56652,-0.6019 11.08842,-2.42615 16.7153,-4.05381 9.23154,-2.6705 17.10395,-4.61243 28.93055,-7.13589 34.2077,-7.29903 74.60071,-8.50059 103.18101,-3.06851 18.7865,3.57033 22.6903,4.68907 38.9276,11.15671 30.7837,12.26055 56.7901,33.56342 76.2167,62.43033 15.9533,23.70589 26.7325,52.03129 31.7894,83.53609 7.5086,46.7789 1.3048,94.8752 -17.473,135.4601 -13.0904,23.9397 -32.0403,43.3657 -39.4202,50.2611 -22.8573,20.684 -40.6493,31.7245 -65.5235,40.6599 -38.6622,13.8875 -81.02758,13.3295 -127.75621,-1.6827 -40.12663,-12.8914 -89.26524,-42.2286 -125.7996,-75.1059 -23.32567,-20.9908 -47.97089,-47.2638 -65.53888,-69.868 -2.1467,-2.7625 -4.00198,-4.7903 -4.12272,-4.5065 -0.11964,0.2842 -0.3186,-0.021 -0.43961,-0.675 -0.12111,-0.6547 -2.15496,-3.8036 -4.51975,-6.9968 -14.24241,-19.2328 -29.71873,-45.3215 -41.25948,-69.5522 -5.45126,-11.4455 -17.92003,-43.2739 -22.10087,-56.4161 -8.28357,-26.03805 -16.41425,-63.55379 -19.57347,-90.31487 -4.15208,-35.16962 -5.0168,-77.48048 -2.24335,-109.77346 0.4231,-4.92441 0.85506,-10.19598 0.95969,-11.7153 0.41012,-5.93522 4.10742,-30.77481 5.39485,-36.24385 l 0.79798,-3.38947 z"
         id="path4162-9-8"
         inkscape:connector-curvature="0"
         sodipodi:nodetypes="sssscsssssssssccssscccssssscccs" />
      <path
         style="fill:#a4c400;fill-opacity:1;stroke:none;stroke-opacity:1"
         d="m 709.62551,323.74874 c -59.10013,18.53127 -99.00105,44.61742 -127.49466,83.35276 -11.46702,15.58862 -24.09826,42.0689 -29.31909,61.46467 -4.10838,15.26223 -7.20858,35.45049 -7.04974,45.90523 0.0279,1.83459 -0.11568,5.29179 -0.32081,7.68287 -0.20374,2.39116 -0.0619,4.47337 0.31572,4.62721 0.37825,0.15384 0.45655,0.69937 0.17361,1.21222 -0.66642,1.21154 0.42123,16.73373 1.75688,25.05855 0.57275,3.57131 2.33562,11.10786 3.91713,16.74786 2.59483,9.25309 4.47251,17.14108 6.89913,28.98794 7.01898,34.26623 7.89042,74.66774 2.22477,103.20262 -3.72391,18.75675 -4.87428,22.65114 -11.47476,38.8351 -12.51181,30.68238 -34.0268,56.51387 -63.05134,75.70378 -23.83565,15.75887 -52.24829,26.30606 -83.79335,31.10522 -46.83869,7.12597 -94.88266,0.52898 -135.31268,-18.58008 -23.83185,-13.28551 -43.1023,-32.39379 -49.93717,-39.82974 -20.49644,-23.02564 -31.39104,-40.90731 -40.12272,-65.85376 -13.571,-38.7744 -12.66653,-81.13383 2.72721,-127.73817 13.21909,-40.01989 42.95704,-88.917 76.13194,-125.1813 21.18087,-23.15326 47.65448,-47.58282 70.40165,-64.96543 2.77986,-2.12403 4.82285,-3.96268 4.53994,-4.0857 -0.28313,-0.122 0.0237,-0.31848 0.67862,-0.4341 0.65568,-0.11576 3.82111,-2.12381 7.0335,-4.46239 19.34864,-14.08469 45.56296,-29.34717 69.88733,-40.68941 11.48964,-5.35752 43.41894,-17.56563 56.59492,-21.63886 26.10508,-8.07043 63.68592,-15.89408 90.4719,-18.83435 35.20238,-3.86437 77.51911,-4.38314 109.78824,-1.34572 4.92074,0.46335 10.1886,0.9384 11.70709,1.05543 5.93152,0.45865 30.74008,4.35892 36.19837,5.69104 l 3.3827,0.82569 z"
         id="path4162-9-2"
         inkscape:connector-curvature="0"
         sodipodi:nodetypes="sssscsssssssssccssscccssssscccs" />
      <path
         style="fill:#1ba1e2;fill-opacity:1;stroke:none;stroke-opacity:1"
         d="m 1105.6715,902.2967 c -18.3794,-59.14753 -44.363,-99.11531 -83.0251,-127.70834 -15.5589,-11.507 -42.00682,-24.20622 -61.38912,-29.47683 -15.2515,-4.14757 -35.4318,-7.29961 -45.887,-7.16766 -1.8346,0.0232 -5.2913,-0.12928 -7.6819,-0.34047 -2.3906,-0.20982 -4.4732,-0.0735 -4.6281,0.30382 -0.1549,0.37787 -0.7004,0.45475 -1.2126,0.17049 -1.2097,-0.6695 -16.7347,0.37826 -25.063,1.69254 -3.5728,0.56357 -11.1137,2.30706 -16.7578,3.87412 -9.2599,2.57108 -17.1526,4.42845 -29.0056,6.82463 -34.2841,6.93094 -74.6879,7.69863 -103.208,1.9597 -18.7471,-3.77208 -22.6386,-4.93246 -38.8055,-11.57445 -30.6502,-12.59061 -56.4262,-34.17187 -75.5416,-63.2456 -15.6977,-23.87606 -26.1717,-52.31575 -30.89,-83.87294 -7.0055,-46.85684 -0.2853,-94.88373 18.9277,-135.26451 13.3465,-23.79768 32.5042,-43.01902 39.9579,-49.83478 23.0781,-20.4372 40.9878,-31.28583 65.9565,-39.95337 38.8091,-13.47138 81.166,-12.45812 127.7307,3.05524 39.9861,13.32183 88.8064,43.18531 124.9854,76.45323 23.0988,21.24028 47.46032,47.77654 64.78432,70.56821 2.1169,2.78537 3.9505,4.83301 4.0741,4.55045 0.1234,-0.28272 0.3184,0.0244 0.4323,0.67971 0.1148,0.65591 2.114,3.82659 4.4444,7.04503 14.0351,19.38466 29.2301,45.63811 40.5097,69.99158 5.3281,11.50335 17.4541,43.4639 21.4934,56.6503 8.0035,26.12572 15.7305,63.72652 18.6021,90.51997 3.774,35.21218 4.184,77.53012 1.0637,109.79134 -0.4761,4.91953 -0.9646,10.18616 -1.0856,11.70437 -0.4738,5.93029 -4.4379,30.72874 -5.784,36.18362 l -0.8343,3.38055 z"
         id="path4162-9-2-6"
         inkscape:connector-curvature="0"
         sodipodi:nodetypes="sssscsssssssssccssscccssssscccs" />
      <g
         id="text4176-0"
         style="font-style:normal;font-weight:normal;font-size:321.77758789px;line-height:125%;font-family:sans-serif;letter-spacing:0px;word-spacing:0px;fill:#ffffff;fill-opacity:1;stroke:none;stroke-width:1px;stroke-linecap:butt;stroke-linejoin:miter;stroke-opacity:1"
         transform="matrix(0,-1,1,0,0,0)">
        <path
           inkscape:connector-curvature="0"
           id="path4176"
           d="m -584.61863,906.0622 c 0,9.51686 -7.72123,17.23809 -17.23809,17.23809 -9.51686,0 -17.23808,-7.72123 -17.23808,-17.23809 0,-9.51686 7.72122,-17.23808 17.23808,-17.23808 9.51686,0 17.23809,7.72122 17.23809,17.23808 z m 0,-206.85702 c 0,9.51686 -7.72123,17.23809 -17.23809,17.23809 -9.51686,0 -17.23808,-7.72123 -17.23808,-17.23809 0,-9.51686 7.72122,-17.23808 17.23808,-17.23808 9.51686,0 17.23809,7.72122 17.23809,17.23808 z m 114.92057,22.98412 c 0,9.51686 -7.72123,17.23808 -17.23809,17.23808 -9.51686,0 -17.23808,-7.72122 -17.23808,-17.23808 0,-9.51686 7.72122,-17.23809 17.23808,-17.23809 9.51686,0 17.23809,7.72123 17.23809,17.23809 z m 17.23808,0 c 0,-19.03372 -15.44245,-34.47617 -34.47617,-34.47617 -19.03372,0 -34.47617,15.44245 -34.47617,34.47617 0,12.749 7.00297,23.88193 17.23809,29.80752 -0.35913,37.52875 -19.39285,45.42953 -52.79164,56.02377 -8.79861,2.69346 -18.49503,5.74603 -27.65276,10.23512 l 0,-89.24301 c 10.23511,-5.92559 17.23808,-17.05852 17.23808,-29.80752 0,-19.03372 -15.44245,-34.47617 -34.47617,-34.47617 -19.03371,0 -34.47617,15.44245 -34.47617,34.47617 0,12.749 7.00298,23.88193 17.23809,29.80752 l 0,147.24198 c -10.23511,5.92559 -17.23809,17.05852 -17.23809,29.80752 0,19.03372 15.44246,34.47617 34.47617,34.47617 19.03372,0 34.47617,-15.44245 34.47617,-34.47617 0,-12.749 -7.00297,-23.88193 -17.23808,-29.80752 l 0,-4.66865 c 0,-17.41765 9.3373,-21.72717 37.88787,-30.70534 30.52578,-9.69642 76.49401,-24.06149 77.0327,-88.88387 10.23511,-5.92559 17.23808,-17.05852 17.23808,-29.80752 z" />
      </g>
      <g
         id="text4172-8"
         style="font-style:normal;font-weight:normal;font-size:267.67810059px;line-height:125%;font-family:sans-serif;letter-spacing:0px;word-spacing:0px;fill:#ffffff;fill-opacity:1;stroke:none;stroke-width:1px;stroke-linecap:butt;stroke-linejoin:miter;stroke-opacity:1"
         transform="scale(1.0263716,0.97430599)">
        <path
           inkscape:connector-curvature="0"
           id="path4173"
           style="fill:#ffffff;fill-opacity:1"
           d="m 455.08894,728.7008 -75.13509,-118.45354 0,-59.6002 9.55993,0 c 5.22809,0 9.55993,-4.33184 9.55993,-9.55993 0,-5.22809 -4.33184,-9.55993 -9.55993,-9.55993 l -76.47946,0 c -5.22808,0 -9.55993,4.33184 -9.55993,9.55993 0,5.22809 4.33185,9.55993 9.55993,9.55993 l 9.55994,0 0,59.6002 -75.1351,118.45354 c -11.20304,17.7755 -3.28622,32.26477 17.7755,32.26477 l 172.07878,0 c 21.06173,0 28.97855,-14.48927 17.7755,-32.26477 z m -116.3623,-108.29611 2.98748,-4.63059 0,-5.52684 0,-59.6002 19.11986,0 0,59.6002 0,5.52684 2.98748,4.63059 40.62971,64.08142 -106.35424,0 40.62971,-64.08142 z" />
      </g>
      <g
         id="text4184-0"
         style="font-style:normal;font-variant:normal;font-weight:normal;font-stretch:normal;font-size:288.80075073px;line-height:125%;font-family:FontAwesome;-inkscape-font-specification:FontAwesome;letter-spacing:0px;word-spacing:0px;fill:#ffffff;fill-opacity:1;stroke:none;stroke-width:1px;stroke-linecap:butt;stroke-linejoin:miter;stroke-opacity:1"
         transform="scale(0.99983723,1.0001628)">
        <path
           inkscape:connector-curvature="0"
           id="path4179"
           d="m 917.04304,959.21674 c 0,22.72372 -18.53353,41.25726 -41.25725,41.25726 -22.72372,0 -41.25725,-18.53354 -41.25725,-41.25726 0,-22.72372 18.53353,-41.25725 41.25725,-41.25725 22.72372,0 41.25725,18.53353 41.25725,41.25725 z m 82.5145,-17.56657 c 0,-2.73973 -1.93393,-5.31831 -4.67367,-5.8018 l -29.49249,-4.51251 c -1.61161,-5.31832 -3.86787,-10.63663 -6.60761,-15.79379 5.47948,-7.57457 11.44244,-14.66566 16.92192,-22.07907 0.80581,-1.12813 1.28929,-2.25626 1.28929,-3.70671 0,-1.28929 -0.32232,-2.57858 -1.12813,-3.54555 -6.76877,-9.5085 -18.05004,-19.50049 -26.59158,-27.39739 -1.12813,-0.96696 -2.57858,-1.61161 -4.02903,-1.61161 -1.45045,0 -2.9009,0.48348 -3.86787,1.45045 l -22.88488,17.24424 c -4.67367,-2.41741 -9.50851,-4.35135 -14.5045,-5.96296 l -4.51252,-29.65365 c -0.32232,-2.73974 -2.9009,-4.83483 -5.8018,-4.83483 l -35.77777,0 c -2.9009,0 -5.15715,1.93393 -5.8018,4.51251 -2.57858,9.66967 -3.54554,20.14514 -4.67367,29.97597 -4.996,1.61161 -9.99199,3.70671 -14.66566,6.12412 l -22.24024,-17.24424 c -1.28929,-0.96696 -2.73974,-1.61161 -4.19019,-1.61161 -5.47948,0 -27.23623,23.52953 -31.1041,28.84784 -0.8058,1.12813 -1.45045,2.25626 -1.45045,3.70671 0,1.45045 0.64465,2.73974 1.61161,3.86787 5.96296,7.25225 11.76477,14.5045 17.24424,22.24023 -2.57857,4.83484 -4.67367,9.66967 -6.28528,14.82683 l -29.97597,4.51251 c -2.41742,0.48348 -4.35135,3.38438 -4.35135,5.8018 l 0,35.77777 c 0,2.73974 1.93393,5.31832 4.67367,5.8018 l 29.49249,4.35135 c 1.61161,5.47948 3.86787,10.7978 6.6076,15.95495 -5.47947,7.5746 -11.44244,14.6657 -16.92191,22.0791 -0.80581,1.1281 -1.28929,2.2562 -1.28929,3.7067 0,1.2893 0.32232,2.5786 1.12812,3.7067 6.76877,9.3473 18.05005,19.3393 26.59159,27.0751 1.12813,1.1281 2.57858,1.7727 4.02903,1.7727 1.45045,0 2.9009,-0.4834 4.02903,-1.4504 l 22.72372,-17.2443 c 4.67367,2.4175 9.5085,4.3514 14.5045,5.963 l 4.51251,29.6537 c 0.32232,2.7397 2.9009,4.8348 5.8018,4.8348 l 35.77777,0 c 2.9009,0 5.15716,-1.9339 5.8018,-4.5125 2.57858,-9.6697 3.54555,-20.1452 4.67368,-29.976 4.99599,-1.6116 9.99199,-3.7067 14.66566,-6.1241 l 22.24024,17.4054 c 1.28929,0.8058 2.73974,1.4504 4.19019,1.4504 5.47948,0 27.23623,-23.6907 31.1041,-28.8478 0.96696,-1.1281 1.45045,-2.2563 1.45045,-3.7067 0,-1.4505 -0.64465,-2.9009 -1.61162,-4.029 -5.96296,-7.2523 -11.76476,-14.3434 -17.24424,-22.2403 2.57858,-4.67365 4.51251,-9.50849 6.28529,-14.66564 l 29.81481,-4.51251 c 2.57858,-0.48349 4.51251,-3.38439 4.51251,-5.8018 l 0,-35.77778 z" />
      </g>
      <g
         id="flowRoot4188-5"
         style="font-style:normal;font-weight:normal;font-size:89.09090424px;line-height:125%;font-family:sans-serif;letter-spacing:0px;word-spacing:0px;fill:#ffffff;fill-opacity:1;stroke:none;stroke-width:1px;stroke-linecap:butt;stroke-linejoin:miter;stroke-opacity:1"
         transform="matrix(3.2223357,0,0,3.2223357,377.54754,946.4148)">
        <path
           inkscape:connector-curvature="0"
           id="path4170"
           d="m 70.001949,30.22869 c 0,-2.634943 -2.137784,-4.772727 -4.772727,-4.772727 l -20.681817,0 0,-20.6818169 c 0,-2.6349431 -2.137784,-4.77272703 -4.772727,-4.77272703 l -9.545454,0 c -2.634943,0 -4.772727,2.13778393 -4.772727,4.77272703 l 0,20.6818169 -20.6818169,0 c -2.634943,0 -4.77272697,2.137784 -4.77272697,4.772727 l 0,9.545454 c 0,2.634943 2.13778397,4.772727 4.77272697,4.772727 l 20.6818169,0 0,20.681817 c 0,2.634943 2.137784,4.772727 4.772727,4.772727 l 9.545454,0 c 2.634943,0 4.772727,-2.137784 4.772727,-4.772727 l 0,-20.681817 20.681817,0 c 2.634943,0 4.772727,-2.137784 4.772727,-4.772727 l 0,-9.545454 z" />
      </g>
    </g>
  </g>
</svg>
