<?xml version="1.0" encoding="UTF-8" standalone="no"?>
<!-- Generator: Adobe Illustrator 12.0.0, SVG Export Plug-In . SVG Version: 6.00 Build 51448)  -->
<svg id="Layer_1" xmlns:rdf="http://www.w3.org/1999/02/22-rdf-syntax-ns#" xmlns="http://www.w3.org/2000/svg" space="preserve" viewBox="0 0 120.9731 70.276395" height="70.276" width="120.97" version="1.1" xmlns:cc="http://creativecommons.org/ns#" xmlns:dc="http://purl.org/dc/elements/1.1/">
 <path id="path7" d="m120.01 66.465c0 5.2651-13.604 3.5421-17.649 3.5421h-37.103-60.129c-7.135 0-4.75-10.822-4.75-14.087v-30.389-21.309c0-5.3696 8.767-4.0885 13.427-4.0885h101.45c8.883 0 4.75 26.403 4.75 30.436 0.001 11.965 0.001 23.93 0.001 35.895" fill="#f4f4f4"/>
 <path id="path4189" d="m41.599 41.186h37.953" stroke="#000" stroke-width="3" fill="none"/>
 <g id="g4315" transform="translate(-7.3753 -26.45)">
  <g id="g4173" transform="matrix(1.3024 0 0 1.3024 -7.9467 -34.613)">
   <path id="path20" d="m49.654 92.493h-33.227c-3.334 0-1.59-7.51-1.59-10.186 0-2.656-1.814-14.991 0-16.896 1.308-1.368 11.377 0 13.234 0h19.994c3.333 0 1.589 7.513 1.589 10.187v16.895" fill="#fed219"/>
   <path id="path22" d="m14.837 64.125c-2.277 0-2.521 29.658 0.107 29.658h18.144c3.415 0 13.636 1.876 16.566 0 2.278 0 2.522-29.658-0.106-29.658h-34.711m33.528 2.579v14.101c0 2.986 1.714 10.399-1.835 10.399h-30.403v-14.101c0-2.988-1.714-10.399 1.835-10.399h30.403" fill="#ffbb54"/>
   <path id="path24" d="m47.938 68.746c0 1.359-31.811 1.384-31.811 0 0-3.066 31.811-3.066 31.811 0" fill="#ffffa1"/>
  </g>
  <g id="g4178" transform="matrix(1.3024 0 0 1.3024 -33.607 -34.615)">
   <path id="path26" d="m121.28 92.493h-33.228c-3.336 0-1.591-7.51-1.591-10.186 0-2.656-1.814-14.991 0-16.896 1.308-1.368 11.375 0 13.234 0h19.993c3.336 0 1.591 7.513 1.591 10.187 0.001 5.632 0.001 11.266 0.001 16.895" fill="#9cd305"/>
   <path id="path28" d="m86.459 64.125c-2.276 0-2.521 29.658 0.106 29.658h18.144c3.415 0 13.638 1.876 16.568 0 2.276 0 2.521-29.658-0.107-29.658h-34.711m33.529 2.579v14.101c0 2.986 1.714 10.399-1.836 10.399h-30.402v-14.101c0-2.988-1.714-10.399 1.834-10.399h30.404" fill="#76aa04"/>
   <path id="path30" d="m119.56 68.746c0 1.359-31.812 1.384-31.812 0 0.001-3.066 31.812-3.066 31.812 0" fill="#c2ef20"/>
  </g>
  <g id="text4183" transform="translate(0 5.8358)">
   <path id="path4254" d="m27.262 57.331-0.66894 1.814h1.3403l-0.67139-1.814zm-0.27832-0.48584h0.55908l1.3892 3.645h-0.5127l-0.33203-0.93506h-1.6431l-0.33203 0.93506h-0.52002l1.3916-3.645z"/>
   <path id="path4256" d="m28.565 56.845h3.0835v0.41504h-1.2939v3.23h-0.49561v-3.23h-1.2939v-0.41504z"/>
   <path id="path4258" d="m32.127 56.845h0.73486l0.93018 2.4805 0.93506-2.4805h0.73486v3.645h-0.48096v-3.2007l-0.93994 2.5h-0.4956l-0.93994-2.5v3.2007h-0.47852v-3.645z"/>
   <path id="path4260" d="m36.444 56.845h2.3047v0.41504h-1.8115v1.0791h1.7358v0.41504h-1.7358v1.3208h1.8555v0.41504h-2.3486v-3.645z"/>
   <path id="path4262" d="m39.608 56.845h0.49316v3.23h1.7749v0.41504h-2.2681v-3.645z"/>
   <path id="path4264" d="m18.692 63.581-0.66894 1.814h1.3403l-0.67139-1.814zm-0.27832-0.48584h0.55908l1.3892 3.645h-0.5127l-0.33203-0.93506h-1.6431l-0.33203 0.93506h-0.52002l1.3916-3.645z"/>
   <path id="path4266" d="m19.996 63.095h3.0835v0.41504h-1.2939v3.23h-0.49561v-3.23h-1.2939v-0.41504z"/>
   <path id="path4268" d="m25.667 64.53q0.16846-0.30273 0.40283-0.44678 0.23438-0.14404 0.55176-0.14404 0.42725 0 0.65918 0.30029 0.23193 0.29785 0.23193 0.84961v1.6504h-0.45166v-1.6357q0-0.39307-0.13916-0.5835t-0.4248-0.19043q-0.34912 0-0.55176 0.23193t-0.20264 0.63232v1.5454h-0.45166v-1.6357q0-0.39551-0.13916-0.5835-0.13916-0.19043-0.42969-0.19043-0.34424 0-0.54688 0.23438-0.20264 0.23193-0.20264 0.62988v1.5454h-0.45166v-2.7344h0.45166v0.4248q0.15381-0.25146 0.36865-0.37109t0.51025-0.11963q0.29785 0 0.50537 0.15137 0.20996 0.15137 0.31006 0.43945z"/>
   <path id="path4270" d="m30.75 65.26v0.21973h-2.0654q0.0293 0.46387 0.27832 0.70801 0.25146 0.2417 0.69824 0.2417 0.25879 0 0.50049-0.06348 0.24414-0.06348 0.4834-0.19043v0.4248q-0.2417 0.10254-0.49561 0.15625t-0.51514 0.05371q-0.6543 0-1.0376-0.38086-0.38086-0.38086-0.38086-1.0303 0-0.67139 0.36133-1.0645 0.36377-0.39551 0.979-0.39551 0.55176 0 0.87158 0.35644 0.32226 0.354 0.32226 0.96436zm-0.44922-0.13184q-0.0049-0.36865-0.20752-0.58838-0.2002-0.21973-0.53223-0.21973-0.37598 0-0.60303 0.2124-0.22461 0.2124-0.25879 0.59814l1.6016-0.0024z"/>
   <path id="path4272" d="m33.287 65.341q0-0.48828-0.20264-0.75684-0.2002-0.26856-0.56396-0.26856-0.36133 0-0.56396 0.26856-0.2002 0.26856-0.2002 0.75684 0 0.48584 0.2002 0.75439 0.20264 0.26856 0.56396 0.26856 0.36377 0 0.56396-0.26856 0.20264-0.26855 0.20264-0.75439zm0.44922 1.0596q0 0.69824-0.31006 1.0376-0.31006 0.3418-0.94971 0.3418-0.23682 0-0.44678-0.03662-0.20996-0.03418-0.40772-0.10742v-0.43701q0.19775 0.10742 0.39062 0.15869t0.39307 0.05127q0.44189 0 0.66162-0.23193 0.21973-0.22949 0.21973-0.6958v-0.22217q-0.13916 0.2417-0.35645 0.36133-0.21728 0.11963-0.52002 0.11963-0.50293 0-0.81055-0.3833t-0.30762-1.0156q0-0.63477 0.30762-1.0181 0.30762-0.3833 0.81055-0.3833 0.30273 0 0.52002 0.11963 0.21728 0.11963 0.35645 0.36133v-0.41504h0.44922v2.395z"/>
   <path id="path4274" d="m35.904 65.365q-0.54443 0-0.7544 0.12451-0.20996 0.12451-0.20996 0.4248 0 0.23926 0.15625 0.38086 0.15869 0.13916 0.42969 0.13916 0.37354 0 0.59814-0.26367 0.22705-0.26611 0.22705-0.70557v-0.1001h-0.44678zm0.896-0.18555v1.5601h-0.44922v-0.41504q-0.15381 0.24902-0.3833 0.36865-0.22949 0.11719-0.56152 0.11719-0.41992 0-0.66894-0.23438-0.24658-0.23682-0.24658-0.63232 0-0.46143 0.30762-0.6958 0.31006-0.23438 0.92285-0.23438h0.62988v-0.04394q0-0.31006-0.20508-0.47852-0.20264-0.1709-0.57129-0.1709-0.23438 0-0.45654 0.05615-0.22217 0.05615-0.42725 0.16846v-0.41504q0.24658-0.09521 0.47852-0.1416 0.23193-0.04883 0.45166-0.04883 0.59326 0 0.88623 0.30762t0.29297 0.93262z"/>
   <path id="path4276" d="m39.286 64.774q0.354 0.07568 0.55176 0.31494 0.2002 0.23926 0.2002 0.59082 0 0.53955-0.37109 0.83496t-1.0547 0.29541q-0.22949 0-0.47363-0.04639-0.2417-0.04395-0.50049-0.13428v-0.47607q0.20508 0.11963 0.44922 0.18066 0.24414 0.06104 0.51025 0.06104 0.46387 0 0.70557-0.1831 0.24414-0.18311 0.24414-0.53223 0-0.32226-0.22705-0.50293-0.22461-0.18311-0.62744-0.18311h-0.4248v-0.40527h0.44434q0.36377 0 0.55664-0.14404 0.19287-0.14648 0.19287-0.41992 0-0.28076-0.2002-0.42969-0.19775-0.15137-0.56885-0.15137-0.20264 0-0.43457 0.04395t-0.51025 0.13672v-0.43945q0.28076-0.07813 0.5249-0.11719 0.24658-0.03906 0.46387-0.03906 0.56152 0 0.88867 0.25635 0.32715 0.25391 0.32715 0.68848 0 0.30274-0.17334 0.5127-0.17334 0.20752-0.49316 0.28809z"/>
   <path id="path4278" d="m41.4 66.325h1.7212v0.41504h-2.3145v-0.41504q0.28076-0.29053 0.76416-0.77881 0.48584-0.49072 0.61035-0.63232 0.23682-0.26611 0.32959-0.44922 0.09521-0.18555 0.09521-0.36377 0-0.29053-0.20508-0.47363-0.20264-0.18311-0.52978-0.18311-0.23193 0-0.49072 0.08057-0.25635 0.08057-0.54932 0.24414v-0.49805q0.29785-0.11963 0.55664-0.18066 0.25879-0.06104 0.47363-0.06104 0.56641 0 0.90332 0.2832t0.33691 0.75684q0 0.22461-0.08545 0.42725-0.08301 0.2002-0.30518 0.47363-0.06104 0.0708-0.38818 0.41016-0.32715 0.33691-0.92285 0.94482z"/>
   <path id="path4280" d="m44.059 63.095h0.4956v2.2144q0 0.58594 0.2124 0.84473 0.2124 0.25635 0.68848 0.25635 0.47363 0 0.68604-0.25635 0.2124-0.25879 0.2124-0.84473v-2.2144h0.4956v2.2754q0 0.71289-0.354 1.0767-0.35156 0.36377-1.04 0.36377-0.69092 0-1.0449-0.36377-0.35156-0.36377-0.35156-1.0767v-2.2754z"/>
   <path id="path4282" d="m48.246 66.325h1.7212v0.41504h-2.3145v-0.41504q0.28076-0.29053 0.76416-0.77881 0.48584-0.49072 0.61035-0.63232 0.23682-0.26611 0.32959-0.44922 0.09521-0.18555 0.09521-0.36377 0-0.29053-0.20508-0.47363-0.20264-0.18311-0.52978-0.18311-0.23193 0-0.49072 0.08057-0.25635 0.08057-0.54932 0.24414v-0.49805q0.29785-0.11963 0.55664-0.18066 0.25879-0.06104 0.47363-0.06104 0.56641 0 0.90332 0.2832t0.33691 0.75684q0 0.22461-0.08545 0.42725-0.08301 0.2002-0.30518 0.47363-0.06103 0.0708-0.38818 0.41016-0.32715 0.33691-0.92285 0.94482z"/>
  </g>
  <g id="text4183-2" transform="translate(0,6)">
   <path id="path4285" d="m95.546 57.166-0.66895 1.814h1.3403l-0.67139-1.814zm-0.27832-0.48584h0.55908l1.3892 3.645h-0.5127l-0.33203-0.93506h-1.6431l-0.33203 0.93506h-0.52002l1.3916-3.645z"/>
   <path id="path4287" d="m96.85 56.681h3.0835v0.41504h-1.2939v3.23h-0.4956v-3.23h-1.2939v-0.41504z"/>
   <path id="path4289" d="m100.41 56.681h0.73486l0.93017 2.4805 0.93506-2.4805h0.73487v3.645h-0.48096v-3.2007l-0.93994 2.5h-0.49561l-0.93994-2.5v3.2007h-0.47851v-3.645z"/>
   <path id="path4291" d="m104.73 56.681h2.3047v0.41504h-1.8115v1.0791h1.7358v0.41504h-1.7358v1.3208h1.8555v0.41504h-2.3486v-3.645z"/>
   <path id="path4293" d="m107.89 56.681h0.49317v3.23h1.7749v0.41504h-2.2681v-3.645z"/>
   <path id="path4295" d="m87.299 63.416-0.66894 1.814h1.3403l-0.67139-1.814zm-0.27832-0.48584h0.55908l1.3892 3.645h-0.5127l-0.33203-0.93506h-1.6431l-0.33203 0.93506h-0.52002l1.3916-3.645z"/>
   <path id="path4297" d="m88.603 62.931h3.0835v0.41504h-1.2939v3.23h-0.4956v-3.23h-1.2939v-0.41504z"/>
   <path id="path4299" d="m94.274 64.366q0.16846-0.30273 0.40283-0.44678 0.23438-0.14404 0.55176-0.14404 0.42725 0 0.65918 0.30029 0.23193 0.29785 0.23193 0.84961v1.6504h-0.45166v-1.6357q0-0.39307-0.13916-0.5835t-0.4248-0.19043q-0.34912 0-0.55176 0.23193t-0.20264 0.63232v1.5454h-0.45166v-1.6357q0-0.39551-0.13916-0.5835-0.13916-0.19043-0.42969-0.19043-0.34424 0-0.54688 0.23438-0.20264 0.23193-0.20264 0.62988v1.5454h-0.45166v-2.7344h0.45166v0.4248q0.15381-0.25146 0.36865-0.37109t0.51025-0.11963q0.29785 0 0.50537 0.15137 0.20996 0.15137 0.31006 0.43945z"/>
   <path id="path4301" d="m99.357 65.096v0.21973h-2.0654q0.0293 0.46387 0.27832 0.70801 0.25146 0.2417 0.69824 0.2417 0.25879 0 0.50049-0.06348 0.24414-0.06348 0.4834-0.19043v0.4248q-0.2417 0.10254-0.4956 0.15625-0.25391 0.05371-0.51514 0.05371-0.6543 0-1.0376-0.38086-0.38086-0.38086-0.38086-1.0303 0-0.67139 0.36133-1.0645 0.36377-0.39551 0.979-0.39551 0.55176 0 0.87158 0.35644 0.32227 0.354 0.32227 0.96436zm-0.44922-0.13184q-0.0049-0.36865-0.20752-0.58838-0.2002-0.21973-0.53223-0.21973-0.37598 0-0.60303 0.2124-0.22461 0.2124-0.25879 0.59814l1.6016-0.0024z"/>
   <path id="path4303" d="m101.89 65.177q0-0.48828-0.20264-0.75684-0.20019-0.26855-0.56396-0.26855-0.36133 0-0.56397 0.26855-0.20019 0.26856-0.20019 0.75684 0 0.48584 0.20019 0.7544 0.20264 0.26855 0.56397 0.26855 0.36377 0 0.56396-0.26855 0.20264-0.26856 0.20264-0.7544zm0.44922 1.0596q0 0.69824-0.31006 1.0376-0.31006 0.3418-0.94971 0.3418-0.23681 0-0.44678-0.03662-0.20996-0.03418-0.40771-0.10742v-0.43701q0.19775 0.10742 0.39062 0.15869 0.19288 0.05127 0.39307 0.05127 0.4419 0 0.66162-0.23193 0.21973-0.22949 0.21973-0.6958v-0.22217q-0.13916 0.2417-0.35645 0.36133-0.21728 0.11963-0.52002 0.11963-0.50293 0-0.81054-0.3833-0.30762-0.3833-0.30762-1.0156 0-0.63476 0.30762-1.0181 0.30761-0.3833 0.81054-0.3833 0.30274 0 0.52002 0.11963 0.21729 0.11963 0.35645 0.36133v-0.41504h0.44922v2.395z"/>
   <path id="path4305" d="m104.51 65.201q-0.54444 0-0.7544 0.12451t-0.20996 0.4248q0 0.23926 0.15625 0.38086 0.15869 0.13916 0.42969 0.13916 0.37353 0 0.59814-0.26367 0.22705-0.26611 0.22705-0.70557v-0.1001h-0.44677zm0.89599-0.18555v1.5601h-0.44922v-0.41504q-0.1538 0.24902-0.3833 0.36865-0.22949 0.11719-0.56152 0.11719-0.41992 0-0.66895-0.23438-0.24658-0.23682-0.24658-0.63232 0-0.46142 0.30762-0.6958 0.31006-0.23438 0.92285-0.23438h0.62988v-0.04395q0-0.31006-0.20507-0.47852-0.20264-0.1709-0.57129-0.1709-0.23438 0-0.45655 0.05615-0.22216 0.05615-0.42724 0.16846v-0.41504q0.24658-0.09522 0.47851-0.1416 0.23194-0.04883 0.45166-0.04883 0.59326 0 0.88623 0.30762t0.29297 0.93262z"/>
   <path id="path4307" d="m107.89 64.61q0.35401 0.07568 0.55176 0.31494 0.2002 0.23926 0.2002 0.59082 0 0.53955-0.3711 0.83496-0.37109 0.29541-1.0547 0.29541-0.2295 0-0.47364-0.04639-0.2417-0.04395-0.50049-0.13428v-0.47608q0.20508 0.11963 0.44922 0.18066 0.24414 0.06104 0.51026 0.06104 0.46386 0 0.70556-0.18311 0.24414-0.1831 0.24414-0.53223 0-0.32227-0.22705-0.50293-0.22461-0.18311-0.62744-0.18311h-0.4248v-0.40527h0.44433q0.36377 0 0.55664-0.14404 0.19288-0.14648 0.19288-0.41992 0-0.28076-0.2002-0.42969-0.19775-0.15137-0.56885-0.15137-0.20263 0-0.43457 0.04395-0.23193 0.04395-0.51025 0.13672v-0.43945q0.28076-0.07813 0.5249-0.11719 0.24658-0.03906 0.46387-0.03906 0.56152 0 0.88867 0.25635 0.32715 0.25391 0.32715 0.68848 0 0.30273-0.17334 0.5127-0.17334 0.20752-0.49317 0.28809z"/>
   <path id="path4309" d="m110.01 66.161h1.7212v0.41504h-2.3144v-0.41504q0.28076-0.29053 0.76416-0.77881 0.48584-0.49072 0.61035-0.63232 0.23682-0.26611 0.32959-0.44922 0.0952-0.18555 0.0952-0.36377 0-0.29053-0.20508-0.47363-0.20264-0.18311-0.52979-0.18311-0.23193 0-0.49072 0.08057-0.25635 0.08057-0.54932 0.24414v-0.49805q0.29786-0.11963 0.55664-0.18066 0.25879-0.06104 0.47364-0.06104 0.5664 0 0.90332 0.2832 0.33691 0.2832 0.33691 0.75684 0 0.22461-0.0855 0.42725-0.083 0.2002-0.30517 0.47363-0.061 0.0708-0.38819 0.41016-0.32715 0.33691-0.92285 0.94482z"/>
   <path id="path4311" d="m113.82 64.845q-0.35156 0-0.5542 0.18799-0.2002 0.18799-0.2002 0.51758t0.2002 0.51758q0.20264 0.18799 0.5542 0.18799t0.5542-0.18799q0.20263-0.19043 0.20263-0.51758 0-0.32959-0.20263-0.51758-0.2002-0.18799-0.5542-0.18799zm-0.49317-0.20996q-0.31738-0.07813-0.4956-0.29541-0.17578-0.21728-0.17578-0.52978 0-0.43701 0.31006-0.69092 0.3125-0.25391 0.85449-0.25391 0.54443 0 0.85449 0.25391t0.31006 0.69092q0 0.3125-0.17822 0.52978-0.17578 0.21728-0.49073 0.29541 0.35645 0.08301 0.5542 0.32471 0.2002 0.2417 0.2002 0.59082 0 0.52978-0.32471 0.81299-0.32226 0.2832-0.92529 0.2832t-0.92774-0.2832q-0.32226-0.2832-0.32226-0.81299 0-0.34912 0.20019-0.59082 0.2002-0.2417 0.55664-0.32471zm-0.18066-0.77881q0 0.2832 0.17578 0.4419 0.17822 0.15869 0.49805 0.15869 0.31738 0 0.4956-0.15869 0.18067-0.15869 0.18067-0.4419 0-0.2832-0.18067-0.44189-0.17822-0.15869-0.4956-0.15869-0.31983 0-0.49805 0.15869-0.17578 0.15869-0.17578 0.44189z"/>
   <path id="path4313" d="m116.4 63.336v1.3696h0.62012q0.34424 0 0.53223-0.17822t0.18799-0.50781q0-0.32715-0.18799-0.50537t-0.53223-0.17822h-0.62012zm-0.49316-0.40527h1.1133q0.61279 0 0.92529 0.27832 0.31494 0.27588 0.31494 0.81055 0 0.53955-0.31494 0.81543-0.3125 0.27588-0.92529 0.27588h-0.62012v1.4648h-0.49316v-3.645z"/>
  </g>
 </g>
 <g id="text4212" transform="matrix(.68515 0 0 .68515 14.545 -9.6385)">
  <path id="path4217" d="m15.514 24.623c-1.52 0-2.55 0.75-2.55 1.95 0 2.49 3.78 1.62 3.78 3.18 0 0.54-0.49 0.85-1.31 0.85-0.75 0-1.65-0.36-2.37-1.02l-0.51 1.02c0.72 0.66 1.76 1.11 2.86 1.11 1.54 0 2.64-0.77 2.64-2.02 0.01-2.52-3.77-1.7-3.77-3.23 0-0.47 0.45-0.73 1.14-0.73 0.53 0 1.29 0.19 2.05 0.65l0.49-1.04c-0.65-0.43-1.54-0.72-2.45-0.72z"/>
  <path id="path4219" d="m24.205 25.733v-1.06h-5.61v1.06h2.21v5.94h1.18v-5.94h2.22z"/>
  <path id="path4221" d="m30.206 25.733v-1.06h-5v7h5.12v-1.06h-3.94v-1.93h3.42v-1.06h-3.42v-1.89h3.82z"/>
  <path id="path4223" d="m39.168 31.673v-7h-1.39l-2.3 4.65-2.31-4.65h-1.4v7h1.11v-5.23l2.21 4.5h0.77l2.21-4.5 0.01 5.23h1.09z"/>
  <path id="path4225" d="m45.806 25.733v-1.06h-5.61v1.06h2.21v5.94h1.18v-5.94h2.22z"/>
  <path id="path4227" d="m48.224 26.313c-1.58 0.01-2.69 1.1-2.69 2.71 0 1.6 1.08 2.69 2.72 2.69 0.92 0 1.68-0.33 2.2-0.9l-0.61-0.65c-0.39 0.4-0.92 0.62-1.5 0.62-0.84 0-1.47-0.51-1.65-1.33h4.02c0.14-1.92-0.62-3.14-2.49-3.14zm-1.55 2.3c0.13-0.85 0.72-1.38 1.56-1.38 0.87 0 1.44 0.52 1.48 1.38h-3.04z"/>
  <path id="path4229" d="m53.063 26.353h-1.15v5.32h1.15v-2.78c0.09-0.91 0.77-1.54 1.84-1.48v-1.1c-0.84 0-1.48 0.38-1.84 1.1v-1.06z"/>
  <path id="path4231" d="m58.834 31.673h1.13l-0.01-3.49c-0.01-1.17-0.78-1.87-2.15-1.87-1.01 0-1.55 0.23-2.29 0.67l0.47 0.8c0.53-0.36 1.06-0.54 1.57-0.54 0.84 0 1.27 0.4 1.27 1.07v0.16h-1.61c-1.28 0.01-2.01 0.63-2.01 1.6 0 0.94 0.72 1.65 1.87 1.65 0.77 0 1.38-0.23 1.76-0.7v0.65zm-1.52-0.86c-0.64 0-1.03-0.31-1.03-0.79 0-0.51 0.35-0.71 1.1-0.71h1.44v0.49c-0.06 0.58-0.69 1.01-1.51 1.01z"/>
  <path id="path4233" d="m64.151 24.673v7h3.11c1.58 0 2.55-0.72 2.55-1.92 0-0.94-0.56-1.61-1.5-1.77 0.76-0.18 1.23-0.77 1.23-1.56 0-1.09-0.9-1.75-2.35-1.75h-3.04zm1.18 1.05h1.8c0.75 0 1.2 0.32 1.2 0.91s-0.45 0.94-1.2 0.94h-1.8v-1.85zm0 2.89h1.8c0.92 0 1.47 0.37 1.47 0.99 0 0.66-0.55 1.02-1.47 1.02h-1.8v-2.01z"/>
  <path id="path4235" d="m72.282 26.353h-1.15v5.32h1.15v-2.78c0.09-0.91 0.77-1.54 1.84-1.48v-1.1c-0.84 0-1.48 0.38-1.84 1.1v-1.06z"/>
  <path id="path4237" d="m77.267 26.313c-1.58 0.01-2.69 1.1-2.69 2.71 0 1.6 1.08 2.69 2.72 2.69 0.92 0 1.68-0.33 2.2-0.9l-0.61-0.65c-0.39 0.4-0.92 0.62-1.5 0.62-0.84 0-1.47-0.51-1.65-1.33h4.02c0.14-1.92-0.62-3.14-2.49-3.14zm-1.55 2.3c0.13-0.85 0.72-1.38 1.56-1.38 0.87 0 1.44 0.52 1.48 1.38h-3.04z"/>
  <path id="path4239" d="m84.146 31.673h1.13l-0.01-3.49c-0.01-1.17-0.78-1.87-2.15-1.87-1.01 0-1.55 0.23-2.29 0.67l0.47 0.8c0.53-0.36 1.06-0.54 1.57-0.54 0.84 0 1.27 0.4 1.27 1.07v0.16h-1.61c-1.28 0.01-2.01 0.63-2.01 1.6 0 0.94 0.72 1.65 1.87 1.65 0.77 0 1.38-0.23 1.76-0.7v0.65zm-1.52-0.86c-0.64 0-1.03-0.31-1.03-0.79 0-0.51 0.35-0.71 1.1-0.71h1.44v0.49c-0.06 0.58-0.69 1.01-1.51 1.01z"/>
  <path id="path4241" d="m91.886 24.253h-1.15v3.02c-0.39-0.62-1.03-0.97-1.89-0.97-1.5 0-2.53 1.09-2.53 2.69 0 1.62 1.02 2.73 2.55 2.73 0.85 0 1.49-0.34 1.87-0.96v0.91h1.15v-7.42zm-2.78 6.51c-0.97 0-1.63-0.72-1.64-1.73 0.01-1.02 0.68-1.75 1.64-1.75s1.63 0.72 1.63 1.75c0 1.01-0.67 1.73-1.63 1.73z"/>
  <path id="path4243" d="m96.692 26.313c-0.83 0-1.47 0.34-1.86 0.96v-3.02h-1.15v7.42h1.15v-0.92c0.39 0.62 1.03 0.96 1.88 0.96 1.52 0 2.52-1.09 2.52-2.68 0-1.62-1.03-2.72-2.54-2.72zm-0.24 4.42c-0.95 0-1.62-0.71-1.62-1.74 0-1 0.67-1.72 1.62-1.72s1.62 0.73 1.62 1.72c0 1.02-0.67 1.74-1.62 1.74z"/>
  <path id="path4245" d="m102.71 26.313c-1.65 0-2.78 1.09-2.78 2.7 0 1.6 1.13 2.7 2.78 2.7 1.64 0 2.77-1.1 2.77-2.7 0-1.61-1.13-2.7-2.77-2.7zm0 0.99c0.95 0 1.62 0.7 1.62 1.72 0 1.03-0.67 1.73-1.62 1.73-0.96 0-1.63-0.7-1.63-1.73 0-1.02 0.67-1.72 1.63-1.72z"/>
  <path id="path4247" d="m109.87 31.673h1.13l-0.01-3.49c-0.01-1.17-0.78-1.87-2.15-1.87-1.01 0-1.55 0.23-2.29 0.67l0.47 0.8c0.53-0.36 1.06-0.54 1.57-0.54 0.84 0 1.27 0.4 1.27 1.07v0.16h-1.61c-1.28 0.01-2.01 0.63-2.01 1.6 0 0.94 0.72 1.65 1.87 1.65 0.77 0 1.38-0.23 1.76-0.7v0.65zm-1.52-0.86c-0.64 0-1.03-0.31-1.03-0.79 0-0.51 0.35-0.71 1.1-0.71h1.44v0.49c-0.06 0.58-0.69 1.01-1.51 1.01z"/>
  <path id="path4249" d="m113.69 26.353h-1.15v5.32h1.15v-2.78c0.09-0.91 0.77-1.54 1.84-1.48v-1.1c-0.84 0-1.48 0.38-1.84 1.1v-1.06z"/>
  <path id="path4251" d="m121.55 24.253h-1.15v3.02c-0.39-0.62-1.03-0.97-1.89-0.97-1.5 0-2.53 1.09-2.53 2.69 0 1.62 1.02 2.73 2.55 2.73 0.85 0 1.49-0.34 1.87-0.96v0.91h1.15v-7.42zm-2.78 6.51c-0.97 0-1.63-0.72-1.64-1.73 0.01-1.02 0.68-1.75 1.64-1.75s1.63 0.72 1.63 1.75c0 1.01-0.67 1.73-1.63 1.73z"/>
 </g>
</svg>
